# Tiled2Unity generated file. Do not modify by hand.
# Wavefront file for 'CentralHall-Floor1_mesh_0007.obj'

# Vertices (Count = 304)
v -45.86667 -41.6 0
v -46.93333 -41.6 0
v -46.93333 -40.53334 0
v -45.86667 -40.53334 0
v -48 -41.6 0
v -49.06667 -41.6 0
v -49.06667 -40.53334 0
v -48 -40.53334 0
v -46.93333 -42.66667 0
v -48 -42.66667 0
v -48 -41.6 0
v -46.93333 -41.6 0
v -55.46667 -42.66667 0
v -56.53334 -42.66667 0
v -56.53334 -41.6 0
v -55.46667 -41.6 0
v -51.2 -43.73334 0
v -52.26667 -43.73334 0
v -52.26667 -42.66667 0
v -51.2 -42.66667 0
v -55.46667 -43.73334 0
v -56.53334 -43.73334 0
v -56.53334 -42.66667 0
v -55.46667 -42.66667 0
v -56.53334 -43.73334 0
v -57.6 -43.73334 0
v -57.6 -42.66667 0
v -56.53334 -42.66667 0
v -49.06667 -44.8 0
v -50.13334 -44.8 0
v -50.13334 -43.73334 0
v -49.06667 -43.73334 0
v -50.13334 -44.8 0
v -51.2 -44.8 0
v -51.2 -43.73334 0
v -50.13334 -43.73334 0
v -51.2 -44.8 0
v -52.26667 -44.8 0
v -52.26667 -43.73334 0
v -51.2 -43.73334 0
v -56.53334 -44.8 0
v -57.6 -44.8 0
v -57.6 -43.73334 0
v -56.53334 -43.73334 0
v -43.73334 -45.86667 0
v -44.8 -45.86667 0
v -44.8 -44.8 0
v -43.73334 -44.8 0
v -46.93333 -45.86667 0
v -48 -45.86667 0
v -48 -44.8 0
v -46.93333 -44.8 0
v -48 -45.86667 0
v -49.06667 -45.86667 0
v -49.06667 -44.8 0
v -48 -44.8 0
v -46.93333 -46.93333 0
v -48 -46.93333 0
v -48 -45.86667 0
v -46.93333 -45.86667 0
v -59.73334 -46.93333 0
v -60.8 -46.93333 0
v -60.8 -45.86667 0
v -59.73334 -45.86667 0
v -40.53334 -48 0
v -41.6 -48 0
v -41.6 -46.93333 0
v -40.53334 -46.93333 0
v -50.13334 -48 0
v -51.2 -48 0
v -51.2 -46.93333 0
v -50.13334 -46.93333 0
v -57.6 -48 0
v -58.66667 -48 0
v -58.66667 -46.93333 0
v -57.6 -46.93333 0
v -44.8 -49.06667 0
v -45.86667 -49.06667 0
v -45.86667 -48 0
v -44.8 -48 0
v -45.86667 -49.06667 0
v -46.93333 -49.06667 0
v -46.93333 -48 0
v -45.86667 -48 0
v -56.53334 -49.06667 0
v -57.6 -49.06667 0
v -57.6 -48 0
v -56.53334 -48 0
v -57.6 -49.06667 0
v -58.66667 -49.06667 0
v -58.66667 -48 0
v -57.6 -48 0
v -58.66667 -49.06667 0
v -59.73334 -49.06667 0
v -59.73334 -48 0
v -58.66667 -48 0
v -45.86667 -50.13334 0
v -46.93333 -50.13334 0
v -46.93333 -49.06667 0
v -45.86667 -49.06667 0
v -52.26667 -50.13334 0
v -53.33334 -50.13334 0
v -53.33334 -49.06667 0
v -52.26667 -49.06667 0
v -55.46667 -50.13334 0
v -56.53334 -50.13334 0
v -56.53334 -49.06667 0
v -55.46667 -49.06667 0
v -56.53334 -50.13334 0
v -57.6 -50.13334 0
v -57.6 -49.06667 0
v -56.53334 -49.06667 0
v -58.66667 -50.13334 0
v -59.73334 -50.13334 0
v -59.73334 -49.06667 0
v -58.66667 -49.06667 0
v -59.73334 -50.13334 0
v -60.8 -50.13334 0
v -60.8 -49.06667 0
v -59.73334 -49.06667 0
v -42.66667 -51.2 0
v -43.73334 -51.2 0
v -43.73334 -50.13334 0
v -42.66667 -50.13334 0
v -46.93333 -51.2 0
v -48 -51.2 0
v -48 -50.13334 0
v -46.93333 -50.13334 0
v -59.73334 -51.2 0
v -60.8 -51.2 0
v -60.8 -50.13334 0
v -59.73334 -50.13334 0
v -40.53334 -52.26667 0
v -41.6 -52.26667 0
v -41.6 -51.2 0
v -40.53334 -51.2 0
v -46.93333 -52.26667 0
v -48 -52.26667 0
v -48 -51.2 0
v -46.93333 -51.2 0
v -48 -52.26667 0
v -49.06667 -52.26667 0
v -49.06667 -51.2 0
v -48 -51.2 0
v -49.06667 -52.26667 0
v -50.13334 -52.26667 0
v -50.13334 -51.2 0
v -49.06667 -51.2 0
v -50.13334 -52.26667 0
v -51.2 -52.26667 0
v -51.2 -51.2 0
v -50.13334 -51.2 0
v -64 -52.26667 0
v -65.06667 -52.26667 0
v -65.06667 -51.2 0
v -64 -51.2 0
v -39.46667 -53.33334 0
v -40.53334 -53.33334 0
v -40.53334 -52.26667 0
v -39.46667 -52.26667 0
v -40.53334 -53.33334 0
v -41.6 -53.33334 0
v -41.6 -52.26667 0
v -40.53334 -52.26667 0
v -41.6 -53.33334 0
v -42.66667 -53.33334 0
v -42.66667 -52.26667 0
v -41.6 -52.26667 0
v -42.66667 -53.33334 0
v -43.73334 -53.33334 0
v -43.73334 -52.26667 0
v -42.66667 -52.26667 0
v -40.53334 -54.4 0
v -41.6 -54.4 0
v -41.6 -53.33334 0
v -40.53334 -53.33334 0
v -41.6 -54.4 0
v -42.66667 -54.4 0
v -42.66667 -53.33334 0
v -41.6 -53.33334 0
v -42.66667 -54.4 0
v -43.73334 -54.4 0
v -43.73334 -53.33334 0
v -42.66667 -53.33334 0
v -51.2 -54.4 0
v -52.26667 -54.4 0
v -52.26667 -53.33334 0
v -51.2 -53.33334 0
v -62.93334 -54.4 0
v -64 -54.4 0
v -64 -53.33334 0
v -62.93334 -53.33334 0
v -64 -54.4 0
v -65.06667 -54.4 0
v -65.06667 -53.33334 0
v -64 -53.33334 0
v -42.66667 -55.46667 0
v -43.73334 -55.46667 0
v -43.73334 -54.4 0
v -42.66667 -54.4 0
v -43.73334 -55.46667 0
v -44.8 -55.46667 0
v -44.8 -54.4 0
v -43.73334 -54.4 0
v -50.13334 -55.46667 0
v -51.2 -55.46667 0
v -51.2 -54.4 0
v -50.13334 -54.4 0
v -61.86667 -55.46667 0
v -62.93334 -55.46667 0
v -62.93334 -54.4 0
v -61.86667 -54.4 0
v -62.93334 -55.46667 0
v -64 -55.46667 0
v -64 -54.4 0
v -62.93334 -54.4 0
v -64 -55.46667 0
v -65.06667 -55.46667 0
v -65.06667 -54.4 0
v -64 -54.4 0
v -46.93333 -56.53334 0
v -48 -56.53334 0
v -48 -55.46667 0
v -46.93333 -55.46667 0
v -48 -56.53334 0
v -49.06667 -56.53334 0
v -49.06667 -55.46667 0
v -48 -55.46667 0
v -51.2 -56.53334 0
v -52.26667 -56.53334 0
v -52.26667 -55.46667 0
v -51.2 -55.46667 0
v -52.26667 -56.53334 0
v -53.33334 -56.53334 0
v -53.33334 -55.46667 0
v -52.26667 -55.46667 0
v -53.33334 -56.53334 0
v -54.4 -56.53334 0
v -54.4 -55.46667 0
v -53.33334 -55.46667 0
v -54.4 -56.53334 0
v -55.46667 -56.53334 0
v -55.46667 -55.46667 0
v -54.4 -55.46667 0
v -61.86667 -56.53334 0
v -62.93334 -56.53334 0
v -62.93334 -55.46667 0
v -61.86667 -55.46667 0
v -46.93333 -57.6 0
v -48 -57.6 0
v -48 -56.53334 0
v -46.93333 -56.53334 0
v -52.26667 -57.6 0
v -53.33334 -57.6 0
v -53.33334 -56.53334 0
v -52.26667 -56.53334 0
v -53.33334 -57.6 0
v -54.4 -57.6 0
v -54.4 -56.53334 0
v -53.33334 -56.53334 0
v -54.4 -57.6 0
v -55.46667 -57.6 0
v -55.46667 -56.53334 0
v -54.4 -56.53334 0
v -40.53334 -58.66667 0
v -41.6 -58.66667 0
v -41.6 -57.6 0
v -40.53334 -57.6 0
v -46.93333 -58.66667 0
v -48 -58.66667 0
v -48 -57.6 0
v -46.93333 -57.6 0
v -48 -58.66667 0
v -49.06667 -58.66667 0
v -49.06667 -57.6 0
v -48 -57.6 0
v -52.26667 -58.66667 0
v -53.33334 -58.66667 0
v -53.33334 -57.6 0
v -52.26667 -57.6 0
v -38.4 -59.73334 0
v -39.46667 -59.73334 0
v -39.46667 -58.66667 0
v -38.4 -58.66667 0
v -39.46667 -59.73334 0
v -40.53334 -59.73334 0
v -40.53334 -58.66667 0
v -39.46667 -58.66667 0
v -45.86667 -59.73334 0
v -46.93333 -59.73334 0
v -46.93333 -58.66667 0
v -45.86667 -58.66667 0
v -53.33334 -59.73334 0
v -54.4 -59.73334 0
v -54.4 -58.66667 0
v -53.33334 -58.66667 0
v -39.46667 -60.8 0
v -40.53334 -60.8 0
v -40.53334 -59.73334 0
v -39.46667 -59.73334 0
v -62.93334 -60.8 0
v -64 -60.8 0
v -64 -59.73334 0
v -62.93334 -59.73334 0

# Texture cooridinates (Count = 36)
vt 0.8780992 0.4847909
vt 0.8946281 0.4847909
vt 0.8946281 0.5152091
vt 0.8780992 0.5152091
vt 0.7200413 0.4847909
vt 0.7365702 0.4847909
vt 0.7365702 0.5152091
vt 0.7200413 0.5152091
vt 0.8605372 0.4847909
vt 0.8770661 0.4847909
vt 0.8770661 0.5152091
vt 0.8605372 0.5152091
vt 0.8429752 0.4847909
vt 0.8595041 0.4847909
vt 0.8595041 0.5152091
vt 0.8429752 0.5152091
vt 0.8956612 0.4847909
vt 0.9121901 0.4847909
vt 0.9121901 0.5152091
vt 0.8956612 0.5152091
vt 0.8078513 0.4847909
vt 0.8243802 0.4847909
vt 0.8243802 0.5152091
vt 0.8078513 0.5152091
vt 0.7551653 0.4847909
vt 0.7716942 0.4847909
vt 0.7716942 0.5152091
vt 0.7551653 0.5152091
vt 0.7727273 0.4847909
vt 0.7892562 0.4847909
vt 0.7892562 0.5152091
vt 0.7727273 0.5152091
vt 0.7902893 0.4847909
vt 0.8068182 0.4847909
vt 0.8068182 0.5152091
vt 0.7902893 0.5152091

# Normal
vn 0 0 -1

# Mesh description
g CentralHall-Floor1_mesh_0007

# Faces
f 1/1/1 2/2/1 3/3/1 4/4/1
f 5/5/1 6/6/1 7/7/1 8/8/1
f 9/9/1 10/10/1 11/11/1 12/12/1
f 13/13/1 14/14/1 15/15/1 16/16/1
f 17/5/1 18/6/1 19/7/1 20/8/1
f 21/5/1 22/6/1 23/7/1 24/8/1
f 25/5/1 26/6/1 27/7/1 28/8/1
f 29/5/1 30/6/1 31/7/1 32/8/1
f 33/1/1 34/2/1 35/3/1 36/4/1
f 37/5/1 38/6/1 39/7/1 40/8/1
f 41/13/1 42/14/1 43/15/1 44/16/1
f 45/17/1 46/18/1 47/19/1 48/20/1
f 49/17/1 50/18/1 51/19/1 52/20/1
f 53/9/1 54/10/1 55/11/1 56/12/1
f 57/5/1 58/6/1 59/7/1 60/8/1
f 61/1/1 62/2/1 63/3/1 64/4/1
f 65/1/1 66/2/1 67/3/1 68/4/1
f 69/21/1 70/22/1 71/23/1 72/24/1
f 73/5/1 74/6/1 75/7/1 76/8/1
f 77/9/1 78/10/1 79/11/1 80/12/1
f 81/5/1 82/6/1 83/7/1 84/8/1
f 85/5/1 86/6/1 87/7/1 88/8/1
f 89/17/1 90/18/1 91/19/1 92/20/1
f 93/21/1 94/22/1 95/23/1 96/24/1
f 97/5/1 98/6/1 99/7/1 100/8/1
f 101/17/1 102/18/1 103/19/1 104/20/1
f 105/21/1 106/22/1 107/23/1 108/24/1
f 109/5/1 110/6/1 111/7/1 112/8/1
f 113/5/1 114/6/1 115/7/1 116/8/1
f 117/5/1 118/6/1 119/7/1 120/8/1
f 121/17/1 122/18/1 123/19/1 124/20/1
f 125/21/1 126/22/1 127/23/1 128/24/1
f 129/9/1 130/10/1 131/11/1 132/12/1
f 133/21/1 134/22/1 135/23/1 136/24/1
f 137/5/1 138/6/1 139/7/1 140/8/1
f 141/5/1 142/6/1 143/7/1 144/8/1
f 145/17/1 146/18/1 147/19/1 148/20/1
f 149/9/1 150/10/1 151/11/1 152/12/1
f 153/17/1 154/18/1 155/19/1 156/20/1
f 157/17/1 158/18/1 159/19/1 160/20/1
f 161/5/1 162/6/1 163/7/1 164/8/1
f 165/5/1 166/6/1 167/7/1 168/8/1
f 169/5/1 170/6/1 171/7/1 172/8/1
f 173/5/1 174/6/1 175/7/1 176/8/1
f 177/9/1 178/10/1 179/11/1 180/12/1
f 181/5/1 182/6/1 183/7/1 184/8/1
f 185/5/1 186/6/1 187/7/1 188/8/1
f 189/9/1 190/10/1 191/11/1 192/12/1
f 193/21/1 194/22/1 195/23/1 196/24/1
f 197/5/1 198/6/1 199/7/1 200/8/1
f 201/5/1 202/6/1 203/7/1 204/8/1
f 205/25/1 206/26/1 207/27/1 208/28/1
f 209/5/1 210/6/1 211/7/1 212/8/1
f 213/1/1 214/2/1 215/3/1 216/4/1
f 217/21/1 218/22/1 219/23/1 220/24/1
f 221/29/1 222/30/1 223/31/1 224/32/1
f 225/5/1 226/6/1 227/7/1 228/8/1
f 229/25/1 230/26/1 231/27/1 232/28/1
f 233/33/1 234/34/1 235/35/1 236/36/1
f 237/25/1 238/26/1 239/27/1 240/28/1
f 241/25/1 242/26/1 243/27/1 244/28/1
f 245/9/1 246/10/1 247/11/1 248/12/1
f 249/5/1 250/6/1 251/7/1 252/8/1
f 253/25/1 254/26/1 255/27/1 256/28/1
f 257/29/1 258/30/1 259/31/1 260/32/1
f 261/5/1 262/6/1 263/7/1 264/8/1
f 265/9/1 266/10/1 267/11/1 268/12/1
f 269/25/1 270/26/1 271/27/1 272/28/1
f 273/5/1 274/6/1 275/7/1 276/8/1
f 277/5/1 278/6/1 279/7/1 280/8/1
f 281/21/1 282/22/1 283/23/1 284/24/1
f 285/1/1 286/2/1 287/3/1 288/4/1
f 289/25/1 290/26/1 291/27/1 292/28/1
f 293/29/1 294/30/1 295/31/1 296/32/1
f 297/21/1 298/22/1 299/23/1 300/24/1
f 301/21/1 302/22/1 303/23/1 304/24/1

