# Tiled2Unity generated file. Do not modify by hand.
# Wavefront file for 'CentralHall-Floor1_mesh_0008.obj'

# Vertices (Count = 28)
v -54.4 -45.86667 0
v -55.46667 -45.86667 0
v -55.46667 -44.8 0
v -54.4 -44.8 0
v -49.06667 -46.93333 0
v -50.13334 -46.93333 0
v -50.13334 -45.86667 0
v -49.06667 -45.86667 0
v -42.66667 -48 0
v -43.73334 -48 0
v -43.73334 -46.93333 0
v -42.66667 -46.93333 0
v -42.66667 -50.13334 0
v -43.73334 -50.13334 0
v -43.73334 -49.06667 0
v -42.66667 -49.06667 0
v -55.46667 -52.26667 0
v -56.53334 -52.26667 0
v -56.53334 -51.2 0
v -55.46667 -51.2 0
v -55.46667 -55.46667 0
v -56.53334 -55.46667 0
v -56.53334 -54.4 0
v -55.46667 -54.4 0
v -48 -60.8 0
v -49.06667 -60.8 0
v -49.06667 -59.73334 0
v -48 -59.73334 0

# Texture cooridinates (Count = 8)
vt 0.2418699 0.947541
vt 0.2743903 0.947541
vt 0.2743903 1
vt 0.2418699 1
vt 0.2418699 0.8918033
vt 0.2743903 0.8918033
vt 0.2743903 0.9442623
vt 0.2418699 0.9442623

# Normal
vn 0 0 -1

# Mesh description
g CentralHall-Floor1_mesh_0008

# Faces
f 1/1/1 2/2/1 3/3/1 4/4/1
f 5/5/1 6/6/1 7/7/1 8/8/1
f 9/5/1 10/6/1 11/7/1 12/8/1
f 13/1/1 14/2/1 15/3/1 16/4/1
f 17/5/1 18/6/1 19/7/1 20/8/1
f 21/1/1 22/2/1 23/3/1 24/4/1
f 25/5/1 26/6/1 27/7/1 28/8/1

