# Tiled2Unity generated file. Do not modify by hand.
# Wavefront file for 'CentralHall-Floor1_mesh_0015.obj'

# Vertices (Count = 32)
v -49.06667 -38.4 0
v -50.13334 -38.4 0
v -50.13334 -37.33334 0
v -49.06667 -37.33334 0
v -53.33334 -38.4 0
v -54.4 -38.4 0
v -54.4 -37.33334 0
v -53.33334 -37.33334 0
v -42.66667 -42.66667 0
v -43.73334 -42.66667 0
v -43.73334 -41.6 0
v -42.66667 -41.6 0
v -59.73334 -42.66667 0
v -60.8 -42.66667 0
v -60.8 -41.6 0
v -59.73334 -41.6 0
v -40.53334 -44.8 0
v -41.6 -44.8 0
v -41.6 -43.73334 0
v -40.53334 -43.73334 0
v -61.86667 -44.8 0
v -62.93334 -44.8 0
v -62.93334 -43.73334 0
v -61.86667 -43.73334 0
v -38.4 -46.93333 0
v -39.46667 -46.93333 0
v -39.46667 -45.86667 0
v -38.4 -45.86667 0
v -64 -46.93333 0
v -65.06667 -46.93333 0
v -65.06667 -45.86667 0
v -64 -45.86667 0

# Texture cooridinates (Count = 4)
vt 0.3161157 0.743346
vt 0.3326446 0.743346
vt 0.3326446 0.7737643
vt 0.3161157 0.7737643

# Normal
vn 0 0 -1

# Mesh description
g CentralHall-Floor1_mesh_0015

# Faces
f 1/1/1 2/2/1 3/3/1 4/4/1
f 5/1/1 6/2/1 7/3/1 8/4/1
f 9/1/1 10/2/1 11/3/1 12/4/1
f 13/1/1 14/2/1 15/3/1 16/4/1
f 17/1/1 18/2/1 19/3/1 20/4/1
f 21/1/1 22/2/1 23/3/1 24/4/1
f 25/1/1 26/2/1 27/3/1 28/4/1
f 29/1/1 30/2/1 31/3/1 32/4/1

