# Tiled2Unity generated file. Do not modify by hand.
# Wavefront file for 'CentralHall-Floor1_mesh_0004.obj'

# Vertices (Count = 20)
v -48 -39.46667 0
v -49.06667 -39.46667 0
v -49.06667 -38.4 0
v -48 -38.4 0
v -54.4 -39.46667 0
v -55.46667 -39.46667 0
v -55.46667 -38.4 0
v -54.4 -38.4 0
v -43.73334 -43.73334 0
v -44.8 -43.73334 0
v -44.8 -42.66667 0
v -43.73334 -42.66667 0
v -41.6 -45.86667 0
v -42.66667 -45.86667 0
v -42.66667 -44.8 0
v -41.6 -44.8 0
v -62.93334 -48 0
v -64 -48 0
v -64 -46.93333 0
v -62.93334 -46.93333 0

# Texture cooridinates (Count = 4)
vt 0.3161157 0.743346
vt 0.3326446 0.743346
vt 0.3326446 0.7737643
vt 0.3161157 0.7737643

# Normal
vn 0 0 -1

# Mesh description
g CentralHall-Floor1_mesh_0004

# Faces
f 1/1/1 2/2/1 3/3/1 4/4/1
f 5/1/1 6/2/1 7/3/1 8/4/1
f 9/1/1 10/2/1 11/3/1 12/4/1
f 13/1/1 14/2/1 15/3/1 16/4/1
f 17/1/1 18/2/1 19/3/1 20/4/1

