# Tiled2Unity generated file. Do not modify by hand.
# Wavefront file for 'CentralHall-Floor1_mesh_0005.obj'

# Vertices (Count = 228)
v -49.06667 -42.66667 0
v -50.13334 -42.66667 0
v -50.13334 -41.6 0
v -49.06667 -41.6 0
v -50.13334 -42.66667 0
v -51.2 -42.66667 0
v -51.2 -41.6 0
v -50.13334 -41.6 0
v -52.26667 -42.66667 0
v -53.33334 -42.66667 0
v -53.33334 -41.6 0
v -52.26667 -41.6 0
v -53.33334 -42.66667 0
v -54.4 -42.66667 0
v -54.4 -41.6 0
v -53.33334 -41.6 0
v -49.06667 -43.73334 0
v -50.13334 -43.73334 0
v -50.13334 -42.66667 0
v -49.06667 -42.66667 0
v -50.13334 -43.73334 0
v -51.2 -43.73334 0
v -51.2 -42.66667 0
v -50.13334 -42.66667 0
v -52.26667 -43.73334 0
v -53.33334 -43.73334 0
v -53.33334 -42.66667 0
v -52.26667 -42.66667 0
v -53.33334 -43.73334 0
v -54.4 -43.73334 0
v -54.4 -42.66667 0
v -53.33334 -42.66667 0
v -49.06667 -44.8 0
v -50.13334 -44.8 0
v -50.13334 -43.73334 0
v -49.06667 -43.73334 0
v -50.13334 -44.8 0
v -51.2 -44.8 0
v -51.2 -43.73334 0
v -50.13334 -43.73334 0
v -52.26667 -44.8 0
v -53.33334 -44.8 0
v -53.33334 -43.73334 0
v -52.26667 -43.73334 0
v -53.33334 -44.8 0
v -54.4 -44.8 0
v -54.4 -43.73334 0
v -53.33334 -43.73334 0
v -46.93333 -46.93333 0
v -48 -46.93333 0
v -48 -45.86667 0
v -46.93333 -45.86667 0
v -50.13334 -46.93333 0
v -51.2 -46.93333 0
v -51.2 -45.86667 0
v -50.13334 -45.86667 0
v -51.2 -46.93333 0
v -52.26667 -46.93333 0
v -52.26667 -45.86667 0
v -51.2 -45.86667 0
v -52.26667 -46.93333 0
v -53.33334 -46.93333 0
v -53.33334 -45.86667 0
v -52.26667 -45.86667 0
v -46.93333 -48 0
v -48 -48 0
v -48 -46.93333 0
v -46.93333 -46.93333 0
v -50.13334 -48 0
v -51.2 -48 0
v -51.2 -46.93333 0
v -50.13334 -46.93333 0
v -51.2 -48 0
v -52.26667 -48 0
v -52.26667 -46.93333 0
v -51.2 -46.93333 0
v -52.26667 -48 0
v -53.33334 -48 0
v -53.33334 -46.93333 0
v -52.26667 -46.93333 0
v -55.46667 -48 0
v -56.53334 -48 0
v -56.53334 -46.93333 0
v -55.46667 -46.93333 0
v -45.86667 -49.06667 0
v -46.93333 -49.06667 0
v -46.93333 -48 0
v -45.86667 -48 0
v -46.93333 -49.06667 0
v -48 -49.06667 0
v -48 -48 0
v -46.93333 -48 0
v -50.13334 -49.06667 0
v -51.2 -49.06667 0
v -51.2 -48 0
v -50.13334 -48 0
v -51.2 -49.06667 0
v -52.26667 -49.06667 0
v -52.26667 -48 0
v -51.2 -48 0
v -52.26667 -49.06667 0
v -53.33334 -49.06667 0
v -53.33334 -48 0
v -52.26667 -48 0
v -55.46667 -49.06667 0
v -56.53334 -49.06667 0
v -56.53334 -48 0
v -55.46667 -48 0
v -56.53334 -49.06667 0
v -57.6 -49.06667 0
v -57.6 -48 0
v -56.53334 -48 0
v -50.13334 -50.13334 0
v -51.2 -50.13334 0
v -51.2 -49.06667 0
v -50.13334 -49.06667 0
v -51.2 -50.13334 0
v -52.26667 -50.13334 0
v -52.26667 -49.06667 0
v -51.2 -49.06667 0
v -52.26667 -50.13334 0
v -53.33334 -50.13334 0
v -53.33334 -49.06667 0
v -52.26667 -49.06667 0
v -43.73334 -51.2 0
v -44.8 -51.2 0
v -44.8 -50.13334 0
v -43.73334 -50.13334 0
v -44.8 -51.2 0
v -45.86667 -51.2 0
v -45.86667 -50.13334 0
v -44.8 -50.13334 0
v -49.06667 -51.2 0
v -50.13334 -51.2 0
v -50.13334 -50.13334 0
v -49.06667 -50.13334 0
v -50.13334 -51.2 0
v -51.2 -51.2 0
v -51.2 -50.13334 0
v -50.13334 -50.13334 0
v -51.2 -51.2 0
v -52.26667 -51.2 0
v -52.26667 -50.13334 0
v -51.2 -50.13334 0
v -52.26667 -51.2 0
v -53.33334 -51.2 0
v -53.33334 -50.13334 0
v -52.26667 -50.13334 0
v -53.33334 -51.2 0
v -54.4 -51.2 0
v -54.4 -50.13334 0
v -53.33334 -50.13334 0
v -57.6 -51.2 0
v -58.66667 -51.2 0
v -58.66667 -50.13334 0
v -57.6 -50.13334 0
v -58.66667 -51.2 0
v -59.73334 -51.2 0
v -59.73334 -50.13334 0
v -58.66667 -50.13334 0
v -42.66667 -52.26667 0
v -43.73334 -52.26667 0
v -43.73334 -51.2 0
v -42.66667 -51.2 0
v -43.73334 -52.26667 0
v -44.8 -52.26667 0
v -44.8 -51.2 0
v -43.73334 -51.2 0
v -44.8 -52.26667 0
v -45.86667 -52.26667 0
v -45.86667 -51.2 0
v -44.8 -51.2 0
v -49.06667 -52.26667 0
v -50.13334 -52.26667 0
v -50.13334 -51.2 0
v -49.06667 -51.2 0
v -50.13334 -52.26667 0
v -51.2 -52.26667 0
v -51.2 -51.2 0
v -50.13334 -51.2 0
v -51.2 -52.26667 0
v -52.26667 -52.26667 0
v -52.26667 -51.2 0
v -51.2 -51.2 0
v -52.26667 -52.26667 0
v -53.33334 -52.26667 0
v -53.33334 -51.2 0
v -52.26667 -51.2 0
v -53.33334 -52.26667 0
v -54.4 -52.26667 0
v -54.4 -51.2 0
v -53.33334 -51.2 0
v -57.6 -52.26667 0
v -58.66667 -52.26667 0
v -58.66667 -51.2 0
v -57.6 -51.2 0
v -58.66667 -52.26667 0
v -59.73334 -52.26667 0
v -59.73334 -51.2 0
v -58.66667 -51.2 0
v -59.73334 -52.26667 0
v -60.8 -52.26667 0
v -60.8 -51.2 0
v -59.73334 -51.2 0
v -59.73334 -54.4 0
v -60.8 -54.4 0
v -60.8 -53.33334 0
v -59.73334 -53.33334 0
v -43.73334 -57.6 0
v -44.8 -57.6 0
v -44.8 -56.53334 0
v -43.73334 -56.53334 0
v -58.66667 -57.6 0
v -59.73334 -57.6 0
v -59.73334 -56.53334 0
v -58.66667 -56.53334 0
v -42.66667 -58.66667 0
v -43.73334 -58.66667 0
v -43.73334 -57.6 0
v -42.66667 -57.6 0
v -59.73334 -59.73334 0
v -60.8 -59.73334 0
v -60.8 -58.66667 0
v -59.73334 -58.66667 0
v -59.73334 -60.8 0
v -60.8 -60.8 0
v -60.8 -59.73334 0
v -59.73334 -59.73334 0

# Texture cooridinates (Count = 24)
vt 0.1859956 0.557377
vt 0.2210066 0.557377
vt 0.2210066 0.6098361
vt 0.1859956 0.6098361
vt 0.2603939 0.557377
vt 0.2954048 0.557377
vt 0.2954048 0.6098361
vt 0.2603939 0.6098361
vt 0.1487965 0.557377
vt 0.1838074 0.557377
vt 0.1838074 0.6098361
vt 0.1487965 0.6098361
vt 0.07439825 0.7803279
vt 0.1094092 0.7803279
vt 0.1094092 0.8327869
vt 0.07439825 0.8327869
vt 0 0.8360656
vt 0.03501094 0.8360656
vt 0.03501094 0.8885246
vt 0 0.8885246
vt 0.1115974 0.7803279
vt 0.1466083 0.7803279
vt 0.1466083 0.8327869
vt 0.1115974 0.8327869

# Normal
vn 0 0 -1

# Mesh description
g CentralHall-Floor1_mesh_0005

# Faces
f 1/1/1 2/2/1 3/3/1 4/4/1
f 5/5/1 6/6/1 7/7/1 8/8/1
f 9/9/1 10/10/1 11/11/1 12/12/1
f 13/1/1 14/2/1 15/3/1 16/4/1
f 17/1/1 18/2/1 19/3/1 20/4/1
f 21/5/1 22/6/1 23/7/1 24/8/1
f 25/9/1 26/10/1 27/11/1 28/12/1
f 29/1/1 30/2/1 31/3/1 32/4/1
f 33/1/1 34/2/1 35/3/1 36/4/1
f 37/5/1 38/6/1 39/7/1 40/8/1
f 41/9/1 42/10/1 43/11/1 44/12/1
f 45/1/1 46/2/1 47/3/1 48/4/1
f 49/5/1 50/6/1 51/7/1 52/8/1
f 53/9/1 54/10/1 55/11/1 56/12/1
f 57/1/1 58/2/1 59/3/1 60/4/1
f 61/5/1 62/6/1 63/7/1 64/8/1
f 65/5/1 66/6/1 67/7/1 68/8/1
f 69/9/1 70/10/1 71/11/1 72/12/1
f 73/1/1 74/2/1 75/3/1 76/4/1
f 77/5/1 78/6/1 79/7/1 80/8/1
f 81/9/1 82/10/1 83/11/1 84/12/1
f 85/1/1 86/2/1 87/3/1 88/4/1
f 89/5/1 90/6/1 91/7/1 92/8/1
f 93/9/1 94/10/1 95/11/1 96/12/1
f 97/1/1 98/2/1 99/3/1 100/4/1
f 101/5/1 102/6/1 103/7/1 104/8/1
f 105/9/1 106/10/1 107/11/1 108/12/1
f 109/1/1 110/2/1 111/3/1 112/4/1
f 113/9/1 114/10/1 115/11/1 116/12/1
f 117/1/1 118/2/1 119/3/1 120/4/1
f 121/5/1 122/6/1 123/7/1 124/8/1
f 125/1/1 126/2/1 127/3/1 128/4/1
f 129/5/1 130/6/1 131/7/1 132/8/1
f 133/9/1 134/10/1 135/11/1 136/12/1
f 137/1/1 138/2/1 139/3/1 140/4/1
f 141/1/1 142/2/1 143/3/1 144/4/1
f 145/1/1 146/2/1 147/3/1 148/4/1
f 149/5/1 150/6/1 151/7/1 152/8/1
f 153/9/1 154/10/1 155/11/1 156/12/1
f 157/1/1 158/2/1 159/3/1 160/4/1
f 161/1/1 162/2/1 163/3/1 164/4/1
f 165/1/1 166/2/1 167/3/1 168/4/1
f 169/5/1 170/6/1 171/7/1 172/8/1
f 173/9/1 174/10/1 175/11/1 176/12/1
f 177/1/1 178/2/1 179/3/1 180/4/1
f 181/1/1 182/2/1 183/3/1 184/4/1
f 185/1/1 186/2/1 187/3/1 188/4/1
f 189/5/1 190/6/1 191/7/1 192/8/1
f 193/9/1 194/10/1 195/11/1 196/12/1
f 197/1/1 198/2/1 199/3/1 200/4/1
f 201/1/1 202/2/1 203/3/1 204/4/1
f 205/13/1 206/14/1 207/15/1 208/16/1
f 209/17/1 210/18/1 211/19/1 212/20/1
f 213/13/1 214/14/1 215/15/1 216/16/1
f 217/21/1 218/22/1 219/23/1 220/24/1
f 221/13/1 222/14/1 223/15/1 224/16/1
f 225/13/1 226/14/1 227/15/1 228/16/1

