# Tiled2Unity generated file. Do not modify by hand.
# Wavefront file for 'CentralHall-Floor1_mesh_0009.obj'

# Vertices (Count = 648)
v -48 -38.4 0
v -49.06667 -38.4 0
v -49.06667 -37.33334 0
v -48 -37.33334 0
v -49.06667 -38.4 0
v -50.13334 -38.4 0
v -50.13334 -37.33334 0
v -49.06667 -37.33334 0
v -50.13334 -38.4 0
v -51.2 -38.4 0
v -51.2 -37.33334 0
v -50.13334 -37.33334 0
v -51.2 -38.4 0
v -52.26667 -38.4 0
v -52.26667 -37.33334 0
v -51.2 -37.33334 0
v -52.26667 -38.4 0
v -53.33334 -38.4 0
v -53.33334 -37.33334 0
v -52.26667 -37.33334 0
v -53.33334 -38.4 0
v -54.4 -38.4 0
v -54.4 -37.33334 0
v -53.33334 -37.33334 0
v -54.4 -38.4 0
v -55.46667 -38.4 0
v -55.46667 -37.33334 0
v -54.4 -37.33334 0
v -45.86667 -39.46667 0
v -46.93333 -39.46667 0
v -46.93333 -38.4 0
v -45.86667 -38.4 0
v -46.93333 -39.46667 0
v -48 -39.46667 0
v -48 -38.4 0
v -46.93333 -38.4 0
v -48 -39.46667 0
v -49.06667 -39.46667 0
v -49.06667 -38.4 0
v -48 -38.4 0
v -49.06667 -39.46667 0
v -50.13334 -39.46667 0
v -50.13334 -38.4 0
v -49.06667 -38.4 0
v -50.13334 -39.46667 0
v -51.2 -39.46667 0
v -51.2 -38.4 0
v -50.13334 -38.4 0
v -51.2 -39.46667 0
v -52.26667 -39.46667 0
v -52.26667 -38.4 0
v -51.2 -38.4 0
v -52.26667 -39.46667 0
v -53.33334 -39.46667 0
v -53.33334 -38.4 0
v -52.26667 -38.4 0
v -53.33334 -39.46667 0
v -54.4 -39.46667 0
v -54.4 -38.4 0
v -53.33334 -38.4 0
v -54.4 -39.46667 0
v -55.46667 -39.46667 0
v -55.46667 -38.4 0
v -54.4 -38.4 0
v -55.46667 -39.46667 0
v -56.53334 -39.46667 0
v -56.53334 -38.4 0
v -55.46667 -38.4 0
v -56.53334 -39.46667 0
v -57.6 -39.46667 0
v -57.6 -38.4 0
v -56.53334 -38.4 0
v -45.86667 -40.53334 0
v -46.93333 -40.53334 0
v -46.93333 -39.46667 0
v -45.86667 -39.46667 0
v -46.93333 -40.53334 0
v -48 -40.53334 0
v -48 -39.46667 0
v -46.93333 -39.46667 0
v -48 -40.53334 0
v -49.06667 -40.53334 0
v -49.06667 -39.46667 0
v -48 -39.46667 0
v -49.06667 -40.53334 0
v -50.13334 -40.53334 0
v -50.13334 -39.46667 0
v -49.06667 -39.46667 0
v -50.13334 -40.53334 0
v -51.2 -40.53334 0
v -51.2 -39.46667 0
v -50.13334 -39.46667 0
v -51.2 -40.53334 0
v -52.26667 -40.53334 0
v -52.26667 -39.46667 0
v -51.2 -39.46667 0
v -52.26667 -40.53334 0
v -53.33334 -40.53334 0
v -53.33334 -39.46667 0
v -52.26667 -39.46667 0
v -53.33334 -40.53334 0
v -54.4 -40.53334 0
v -54.4 -39.46667 0
v -53.33334 -39.46667 0
v -54.4 -40.53334 0
v -55.46667 -40.53334 0
v -55.46667 -39.46667 0
v -54.4 -39.46667 0
v -55.46667 -40.53334 0
v -56.53334 -40.53334 0
v -56.53334 -39.46667 0
v -55.46667 -39.46667 0
v -56.53334 -40.53334 0
v -57.6 -40.53334 0
v -57.6 -39.46667 0
v -56.53334 -39.46667 0
v -45.86667 -41.6 0
v -46.93333 -41.6 0
v -46.93333 -40.53334 0
v -45.86667 -40.53334 0
v -46.93333 -41.6 0
v -48 -41.6 0
v -48 -40.53334 0
v -46.93333 -40.53334 0
v -48 -41.6 0
v -49.06667 -41.6 0
v -49.06667 -40.53334 0
v -48 -40.53334 0
v -49.06667 -41.6 0
v -50.13334 -41.6 0
v -50.13334 -40.53334 0
v -49.06667 -40.53334 0
v -50.13334 -41.6 0
v -51.2 -41.6 0
v -51.2 -40.53334 0
v -50.13334 -40.53334 0
v -51.2 -41.6 0
v -52.26667 -41.6 0
v -52.26667 -40.53334 0
v -51.2 -40.53334 0
v -52.26667 -41.6 0
v -53.33334 -41.6 0
v -53.33334 -40.53334 0
v -52.26667 -40.53334 0
v -53.33334 -41.6 0
v -54.4 -41.6 0
v -54.4 -40.53334 0
v -53.33334 -40.53334 0
v -54.4 -41.6 0
v -55.46667 -41.6 0
v -55.46667 -40.53334 0
v -54.4 -40.53334 0
v -55.46667 -41.6 0
v -56.53334 -41.6 0
v -56.53334 -40.53334 0
v -55.46667 -40.53334 0
v -56.53334 -41.6 0
v -57.6 -41.6 0
v -57.6 -40.53334 0
v -56.53334 -40.53334 0
v -45.86667 -42.66667 0
v -46.93333 -42.66667 0
v -46.93333 -41.6 0
v -45.86667 -41.6 0
v -46.93333 -42.66667 0
v -48 -42.66667 0
v -48 -41.6 0
v -46.93333 -41.6 0
v -55.46667 -42.66667 0
v -56.53334 -42.66667 0
v -56.53334 -41.6 0
v -55.46667 -41.6 0
v -56.53334 -42.66667 0
v -57.6 -42.66667 0
v -57.6 -41.6 0
v -56.53334 -41.6 0
v -57.6 -42.66667 0
v -58.66667 -42.66667 0
v -58.66667 -41.6 0
v -57.6 -41.6 0
v -43.73334 -43.73334 0
v -44.8 -43.73334 0
v -44.8 -42.66667 0
v -43.73334 -42.66667 0
v -44.8 -43.73334 0
v -45.86667 -43.73334 0
v -45.86667 -42.66667 0
v -44.8 -42.66667 0
v -45.86667 -43.73334 0
v -46.93333 -43.73334 0
v -46.93333 -42.66667 0
v -45.86667 -42.66667 0
v -46.93333 -43.73334 0
v -48 -43.73334 0
v -48 -42.66667 0
v -46.93333 -42.66667 0
v -55.46667 -43.73334 0
v -56.53334 -43.73334 0
v -56.53334 -42.66667 0
v -55.46667 -42.66667 0
v -56.53334 -43.73334 0
v -57.6 -43.73334 0
v -57.6 -42.66667 0
v -56.53334 -42.66667 0
v -57.6 -43.73334 0
v -58.66667 -43.73334 0
v -58.66667 -42.66667 0
v -57.6 -42.66667 0
v -58.66667 -43.73334 0
v -59.73334 -43.73334 0
v -59.73334 -42.66667 0
v -58.66667 -42.66667 0
v -42.66667 -44.8 0
v -43.73334 -44.8 0
v -43.73334 -43.73334 0
v -42.66667 -43.73334 0
v -43.73334 -44.8 0
v -44.8 -44.8 0
v -44.8 -43.73334 0
v -43.73334 -43.73334 0
v -44.8 -44.8 0
v -45.86667 -44.8 0
v -45.86667 -43.73334 0
v -44.8 -43.73334 0
v -45.86667 -44.8 0
v -46.93333 -44.8 0
v -46.93333 -43.73334 0
v -45.86667 -43.73334 0
v -56.53334 -44.8 0
v -57.6 -44.8 0
v -57.6 -43.73334 0
v -56.53334 -43.73334 0
v -57.6 -44.8 0
v -58.66667 -44.8 0
v -58.66667 -43.73334 0
v -57.6 -43.73334 0
v -58.66667 -44.8 0
v -59.73334 -44.8 0
v -59.73334 -43.73334 0
v -58.66667 -43.73334 0
v -59.73334 -44.8 0
v -60.8 -44.8 0
v -60.8 -43.73334 0
v -59.73334 -43.73334 0
v -41.6 -45.86667 0
v -42.66667 -45.86667 0
v -42.66667 -44.8 0
v -41.6 -44.8 0
v -42.66667 -45.86667 0
v -43.73334 -45.86667 0
v -43.73334 -44.8 0
v -42.66667 -44.8 0
v -43.73334 -45.86667 0
v -44.8 -45.86667 0
v -44.8 -44.8 0
v -43.73334 -44.8 0
v -44.8 -45.86667 0
v -45.86667 -45.86667 0
v -45.86667 -44.8 0
v -44.8 -44.8 0
v -57.6 -45.86667 0
v -58.66667 -45.86667 0
v -58.66667 -44.8 0
v -57.6 -44.8 0
v -58.66667 -45.86667 0
v -59.73334 -45.86667 0
v -59.73334 -44.8 0
v -58.66667 -44.8 0
v -59.73334 -45.86667 0
v -60.8 -45.86667 0
v -60.8 -44.8 0
v -59.73334 -44.8 0
v -40.53334 -46.93333 0
v -41.6 -46.93333 0
v -41.6 -45.86667 0
v -40.53334 -45.86667 0
v -41.6 -46.93333 0
v -42.66667 -46.93333 0
v -42.66667 -45.86667 0
v -41.6 -45.86667 0
v -42.66667 -46.93333 0
v -43.73334 -46.93333 0
v -43.73334 -45.86667 0
v -42.66667 -45.86667 0
v -43.73334 -46.93333 0
v -44.8 -46.93333 0
v -44.8 -45.86667 0
v -43.73334 -45.86667 0
v -57.6 -46.93333 0
v -58.66667 -46.93333 0
v -58.66667 -45.86667 0
v -57.6 -45.86667 0
v -58.66667 -46.93333 0
v -59.73334 -46.93333 0
v -59.73334 -45.86667 0
v -58.66667 -45.86667 0
v -59.73334 -46.93333 0
v -60.8 -46.93333 0
v -60.8 -45.86667 0
v -59.73334 -45.86667 0
v -60.8 -46.93333 0
v -61.86667 -46.93333 0
v -61.86667 -45.86667 0
v -60.8 -45.86667 0
v -61.86667 -46.93333 0
v -62.93334 -46.93333 0
v -62.93334 -45.86667 0
v -61.86667 -45.86667 0
v -62.93334 -46.93333 0
v -64 -46.93333 0
v -64 -45.86667 0
v -62.93334 -45.86667 0
v -38.4 -48 0
v -39.46667 -48 0
v -39.46667 -46.93333 0
v -38.4 -46.93333 0
v -39.46667 -48 0
v -40.53334 -48 0
v -40.53334 -46.93333 0
v -39.46667 -46.93333 0
v -40.53334 -48 0
v -41.6 -48 0
v -41.6 -46.93333 0
v -40.53334 -46.93333 0
v -41.6 -48 0
v -42.66667 -48 0
v -42.66667 -46.93333 0
v -41.6 -46.93333 0
v -42.66667 -48 0
v -43.73334 -48 0
v -43.73334 -46.93333 0
v -42.66667 -46.93333 0
v -59.73334 -48 0
v -60.8 -48 0
v -60.8 -46.93333 0
v -59.73334 -46.93333 0
v -60.8 -48 0
v -61.86667 -48 0
v -61.86667 -46.93333 0
v -60.8 -46.93333 0
v -61.86667 -48 0
v -62.93334 -48 0
v -62.93334 -46.93333 0
v -61.86667 -46.93333 0
v -62.93334 -48 0
v -64 -48 0
v -64 -46.93333 0
v -62.93334 -46.93333 0
v -38.4 -49.06667 0
v -39.46667 -49.06667 0
v -39.46667 -48 0
v -38.4 -48 0
v -39.46667 -49.06667 0
v -40.53334 -49.06667 0
v -40.53334 -48 0
v -39.46667 -48 0
v -40.53334 -49.06667 0
v -41.6 -49.06667 0
v -41.6 -48 0
v -40.53334 -48 0
v -41.6 -49.06667 0
v -42.66667 -49.06667 0
v -42.66667 -48 0
v -41.6 -48 0
v -59.73334 -49.06667 0
v -60.8 -49.06667 0
v -60.8 -48 0
v -59.73334 -48 0
v -60.8 -49.06667 0
v -61.86667 -49.06667 0
v -61.86667 -48 0
v -60.8 -48 0
v -61.86667 -49.06667 0
v -62.93334 -49.06667 0
v -62.93334 -48 0
v -61.86667 -48 0
v -62.93334 -49.06667 0
v -64 -49.06667 0
v -64 -48 0
v -62.93334 -48 0
v -64 -49.06667 0
v -65.06667 -49.06667 0
v -65.06667 -48 0
v -64 -48 0
v -38.4 -50.13334 0
v -39.46667 -50.13334 0
v -39.46667 -49.06667 0
v -38.4 -49.06667 0
v -39.46667 -50.13334 0
v -40.53334 -50.13334 0
v -40.53334 -49.06667 0
v -39.46667 -49.06667 0
v -40.53334 -50.13334 0
v -41.6 -50.13334 0
v -41.6 -49.06667 0
v -40.53334 -49.06667 0
v -61.86667 -50.13334 0
v -62.93334 -50.13334 0
v -62.93334 -49.06667 0
v -61.86667 -49.06667 0
v -62.93334 -50.13334 0
v -64 -50.13334 0
v -64 -49.06667 0
v -62.93334 -49.06667 0
v -64 -50.13334 0
v -65.06667 -50.13334 0
v -65.06667 -49.06667 0
v -64 -49.06667 0
v -38.4 -51.2 0
v -39.46667 -51.2 0
v -39.46667 -50.13334 0
v -38.4 -50.13334 0
v -39.46667 -51.2 0
v -40.53334 -51.2 0
v -40.53334 -50.13334 0
v -39.46667 -50.13334 0
v -40.53334 -51.2 0
v -41.6 -51.2 0
v -41.6 -50.13334 0
v -40.53334 -50.13334 0
v -61.86667 -51.2 0
v -62.93334 -51.2 0
v -62.93334 -50.13334 0
v -61.86667 -50.13334 0
v -62.93334 -51.2 0
v -64 -51.2 0
v -64 -50.13334 0
v -62.93334 -50.13334 0
v -64 -51.2 0
v -65.06667 -51.2 0
v -65.06667 -50.13334 0
v -64 -50.13334 0
v -38.4 -52.26667 0
v -39.46667 -52.26667 0
v -39.46667 -51.2 0
v -38.4 -51.2 0
v -39.46667 -52.26667 0
v -40.53334 -52.26667 0
v -40.53334 -51.2 0
v -39.46667 -51.2 0
v -40.53334 -52.26667 0
v -41.6 -52.26667 0
v -41.6 -51.2 0
v -40.53334 -51.2 0
v -61.86667 -52.26667 0
v -62.93334 -52.26667 0
v -62.93334 -51.2 0
v -61.86667 -51.2 0
v -62.93334 -52.26667 0
v -64 -52.26667 0
v -64 -51.2 0
v -62.93334 -51.2 0
v -64 -52.26667 0
v -65.06667 -52.26667 0
v -65.06667 -51.2 0
v -64 -51.2 0
v -38.4 -53.33334 0
v -39.46667 -53.33334 0
v -39.46667 -52.26667 0
v -38.4 -52.26667 0
v -39.46667 -53.33334 0
v -40.53334 -53.33334 0
v -40.53334 -52.26667 0
v -39.46667 -52.26667 0
v -40.53334 -53.33334 0
v -41.6 -53.33334 0
v -41.6 -52.26667 0
v -40.53334 -52.26667 0
v -61.86667 -53.33334 0
v -62.93334 -53.33334 0
v -62.93334 -52.26667 0
v -61.86667 -52.26667 0
v -62.93334 -53.33334 0
v -64 -53.33334 0
v -64 -52.26667 0
v -62.93334 -52.26667 0
v -64 -53.33334 0
v -65.06667 -53.33334 0
v -65.06667 -52.26667 0
v -64 -52.26667 0
v -38.4 -54.4 0
v -39.46667 -54.4 0
v -39.46667 -53.33334 0
v -38.4 -53.33334 0
v -39.46667 -54.4 0
v -40.53334 -54.4 0
v -40.53334 -53.33334 0
v -39.46667 -53.33334 0
v -40.53334 -54.4 0
v -41.6 -54.4 0
v -41.6 -53.33334 0
v -40.53334 -53.33334 0
v -61.86667 -54.4 0
v -62.93334 -54.4 0
v -62.93334 -53.33334 0
v -61.86667 -53.33334 0
v -62.93334 -54.4 0
v -64 -54.4 0
v -64 -53.33334 0
v -62.93334 -53.33334 0
v -64 -54.4 0
v -65.06667 -54.4 0
v -65.06667 -53.33334 0
v -64 -53.33334 0
v -38.4 -55.46667 0
v -39.46667 -55.46667 0
v -39.46667 -54.4 0
v -38.4 -54.4 0
v -39.46667 -55.46667 0
v -40.53334 -55.46667 0
v -40.53334 -54.4 0
v -39.46667 -54.4 0
v -40.53334 -55.46667 0
v -41.6 -55.46667 0
v -41.6 -54.4 0
v -40.53334 -54.4 0
v -61.86667 -55.46667 0
v -62.93334 -55.46667 0
v -62.93334 -54.4 0
v -61.86667 -54.4 0
v -62.93334 -55.46667 0
v -64 -55.46667 0
v -64 -54.4 0
v -62.93334 -54.4 0
v -64 -55.46667 0
v -65.06667 -55.46667 0
v -65.06667 -54.4 0
v -64 -54.4 0
v -38.4 -56.53334 0
v -39.46667 -56.53334 0
v -39.46667 -55.46667 0
v -38.4 -55.46667 0
v -39.46667 -56.53334 0
v -40.53334 -56.53334 0
v -40.53334 -55.46667 0
v -39.46667 -55.46667 0
v -40.53334 -56.53334 0
v -41.6 -56.53334 0
v -41.6 -55.46667 0
v -40.53334 -55.46667 0
v -61.86667 -56.53334 0
v -62.93334 -56.53334 0
v -62.93334 -55.46667 0
v -61.86667 -55.46667 0
v -62.93334 -56.53334 0
v -64 -56.53334 0
v -64 -55.46667 0
v -62.93334 -55.46667 0
v -64 -56.53334 0
v -65.06667 -56.53334 0
v -65.06667 -55.46667 0
v -64 -55.46667 0
v -38.4 -57.6 0
v -39.46667 -57.6 0
v -39.46667 -56.53334 0
v -38.4 -56.53334 0
v -39.46667 -57.6 0
v -40.53334 -57.6 0
v -40.53334 -56.53334 0
v -39.46667 -56.53334 0
v -40.53334 -57.6 0
v -41.6 -57.6 0
v -41.6 -56.53334 0
v -40.53334 -56.53334 0
v -61.86667 -57.6 0
v -62.93334 -57.6 0
v -62.93334 -56.53334 0
v -61.86667 -56.53334 0
v -62.93334 -57.6 0
v -64 -57.6 0
v -64 -56.53334 0
v -62.93334 -56.53334 0
v -64 -57.6 0
v -65.06667 -57.6 0
v -65.06667 -56.53334 0
v -64 -56.53334 0
v -38.4 -58.66667 0
v -39.46667 -58.66667 0
v -39.46667 -57.6 0
v -38.4 -57.6 0
v -39.46667 -58.66667 0
v -40.53334 -58.66667 0
v -40.53334 -57.6 0
v -39.46667 -57.6 0
v -40.53334 -58.66667 0
v -41.6 -58.66667 0
v -41.6 -57.6 0
v -40.53334 -57.6 0
v -61.86667 -58.66667 0
v -62.93334 -58.66667 0
v -62.93334 -57.6 0
v -61.86667 -57.6 0
v -62.93334 -58.66667 0
v -64 -58.66667 0
v -64 -57.6 0
v -62.93334 -57.6 0
v -64 -58.66667 0
v -65.06667 -58.66667 0
v -65.06667 -57.6 0
v -64 -57.6 0
v -38.4 -59.73334 0
v -39.46667 -59.73334 0
v -39.46667 -58.66667 0
v -38.4 -58.66667 0
v -39.46667 -59.73334 0
v -40.53334 -59.73334 0
v -40.53334 -58.66667 0
v -39.46667 -58.66667 0
v -40.53334 -59.73334 0
v -41.6 -59.73334 0
v -41.6 -58.66667 0
v -40.53334 -58.66667 0
v -61.86667 -59.73334 0
v -62.93334 -59.73334 0
v -62.93334 -58.66667 0
v -61.86667 -58.66667 0
v -62.93334 -59.73334 0
v -64 -59.73334 0
v -64 -58.66667 0
v -62.93334 -58.66667 0
v -64 -59.73334 0
v -65.06667 -59.73334 0
v -65.06667 -58.66667 0
v -64 -58.66667 0
v -38.4 -60.8 0
v -39.46667 -60.8 0
v -39.46667 -59.73334 0
v -38.4 -59.73334 0
v -39.46667 -60.8 0
v -40.53334 -60.8 0
v -40.53334 -59.73334 0
v -39.46667 -59.73334 0
v -40.53334 -60.8 0
v -41.6 -60.8 0
v -41.6 -59.73334 0
v -40.53334 -59.73334 0
v -61.86667 -60.8 0
v -62.93334 -60.8 0
v -62.93334 -59.73334 0
v -61.86667 -59.73334 0
v -62.93334 -60.8 0
v -64 -60.8 0
v -64 -59.73334 0
v -62.93334 -59.73334 0
v -64 -60.8 0
v -65.06667 -60.8 0
v -65.06667 -59.73334 0
v -64 -59.73334 0

# Texture cooridinates (Count = 8)
vt 0.1404959 0.904943
vt 0.1570248 0.904943
vt 0.1570248 0.9353612
vt 0.1404959 0.9353612
vt 0.4390496 0.2585551
vt 0.4555785 0.2585551
vt 0.4555785 0.2889734
vt 0.4390496 0.2889734

# Normal
vn 0 0 -1

# Mesh description
g CentralHall-Floor1_mesh_0009

# Faces
f 1/1/1 2/2/1 3/3/1 4/4/1
f 5/1/1 6/2/1 7/3/1 8/4/1
f 9/1/1 10/2/1 11/3/1 12/4/1
f 13/1/1 14/2/1 15/3/1 16/4/1
f 17/1/1 18/2/1 19/3/1 20/4/1
f 21/1/1 22/2/1 23/3/1 24/4/1
f 25/1/1 26/2/1 27/3/1 28/4/1
f 29/1/1 30/2/1 31/3/1 32/4/1
f 33/1/1 34/2/1 35/3/1 36/4/1
f 37/1/1 38/2/1 39/3/1 40/4/1
f 41/1/1 42/2/1 43/3/1 44/4/1
f 45/1/1 46/2/1 47/3/1 48/4/1
f 49/1/1 50/2/1 51/3/1 52/4/1
f 53/1/1 54/2/1 55/3/1 56/4/1
f 57/1/1 58/2/1 59/3/1 60/4/1
f 61/1/1 62/2/1 63/3/1 64/4/1
f 65/1/1 66/2/1 67/3/1 68/4/1
f 69/1/1 70/2/1 71/3/1 72/4/1
f 73/5/1 74/6/1 75/7/1 76/8/1
f 77/5/1 78/6/1 79/7/1 80/8/1
f 81/5/1 82/6/1 83/7/1 84/8/1
f 85/5/1 86/6/1 87/7/1 88/8/1
f 89/5/1 90/6/1 91/7/1 92/8/1
f 93/5/1 94/6/1 95/7/1 96/8/1
f 97/5/1 98/6/1 99/7/1 100/8/1
f 101/5/1 102/6/1 103/7/1 104/8/1
f 105/5/1 106/6/1 107/7/1 108/8/1
f 109/5/1 110/6/1 111/7/1 112/8/1
f 113/5/1 114/6/1 115/7/1 116/8/1
f 117/5/1 118/6/1 119/7/1 120/8/1
f 121/5/1 122/6/1 123/7/1 124/8/1
f 125/1/1 126/2/1 127/3/1 128/4/1
f 129/1/1 130/2/1 131/3/1 132/4/1
f 133/1/1 134/2/1 135/3/1 136/4/1
f 137/1/1 138/2/1 139/3/1 140/4/1
f 141/1/1 142/2/1 143/3/1 144/4/1
f 145/1/1 146/2/1 147/3/1 148/4/1
f 149/1/1 150/2/1 151/3/1 152/4/1
f 153/5/1 154/6/1 155/7/1 156/8/1
f 157/5/1 158/6/1 159/7/1 160/8/1
f 161/5/1 162/6/1 163/7/1 164/8/1
f 165/5/1 166/6/1 167/7/1 168/8/1
f 169/5/1 170/6/1 171/7/1 172/8/1
f 173/5/1 174/6/1 175/7/1 176/8/1
f 177/5/1 178/6/1 179/7/1 180/8/1
f 181/1/1 182/2/1 183/3/1 184/4/1
f 185/5/1 186/6/1 187/7/1 188/8/1
f 189/5/1 190/6/1 191/7/1 192/8/1
f 193/5/1 194/6/1 195/7/1 196/8/1
f 197/5/1 198/6/1 199/7/1 200/8/1
f 201/5/1 202/6/1 203/7/1 204/8/1
f 205/5/1 206/6/1 207/7/1 208/8/1
f 209/5/1 210/6/1 211/7/1 212/8/1
f 213/5/1 214/6/1 215/7/1 216/8/1
f 217/5/1 218/6/1 219/7/1 220/8/1
f 221/5/1 222/6/1 223/7/1 224/8/1
f 225/5/1 226/6/1 227/7/1 228/8/1
f 229/5/1 230/6/1 231/7/1 232/8/1
f 233/5/1 234/6/1 235/7/1 236/8/1
f 237/5/1 238/6/1 239/7/1 240/8/1
f 241/5/1 242/6/1 243/7/1 244/8/1
f 245/1/1 246/2/1 247/3/1 248/4/1
f 249/5/1 250/6/1 251/7/1 252/8/1
f 253/5/1 254/6/1 255/7/1 256/8/1
f 257/5/1 258/6/1 259/7/1 260/8/1
f 261/5/1 262/6/1 263/7/1 264/8/1
f 265/5/1 266/6/1 267/7/1 268/8/1
f 269/5/1 270/6/1 271/7/1 272/8/1
f 273/5/1 274/6/1 275/7/1 276/8/1
f 277/5/1 278/6/1 279/7/1 280/8/1
f 281/5/1 282/6/1 283/7/1 284/8/1
f 285/5/1 286/6/1 287/7/1 288/8/1
f 289/5/1 290/6/1 291/7/1 292/8/1
f 293/5/1 294/6/1 295/7/1 296/8/1
f 297/5/1 298/6/1 299/7/1 300/8/1
f 301/5/1 302/6/1 303/7/1 304/8/1
f 305/5/1 306/6/1 307/7/1 308/8/1
f 309/5/1 310/6/1 311/7/1 312/8/1
f 313/1/1 314/2/1 315/3/1 316/4/1
f 317/5/1 318/6/1 319/7/1 320/8/1
f 321/5/1 322/6/1 323/7/1 324/8/1
f 325/5/1 326/6/1 327/7/1 328/8/1
f 329/5/1 330/6/1 331/7/1 332/8/1
f 333/5/1 334/6/1 335/7/1 336/8/1
f 337/5/1 338/6/1 339/7/1 340/8/1
f 341/5/1 342/6/1 343/7/1 344/8/1
f 345/5/1 346/6/1 347/7/1 348/8/1
f 349/5/1 350/6/1 351/7/1 352/8/1
f 353/5/1 354/6/1 355/7/1 356/8/1
f 357/5/1 358/6/1 359/7/1 360/8/1
f 361/5/1 362/6/1 363/7/1 364/8/1
f 365/5/1 366/6/1 367/7/1 368/8/1
f 369/5/1 370/6/1 371/7/1 372/8/1
f 373/5/1 374/6/1 375/7/1 376/8/1
f 377/5/1 378/6/1 379/7/1 380/8/1
f 381/5/1 382/6/1 383/7/1 384/8/1
f 385/5/1 386/6/1 387/7/1 388/8/1
f 389/5/1 390/6/1 391/7/1 392/8/1
f 393/5/1 394/6/1 395/7/1 396/8/1
f 397/5/1 398/6/1 399/7/1 400/8/1
f 401/5/1 402/6/1 403/7/1 404/8/1
f 405/5/1 406/6/1 407/7/1 408/8/1
f 409/5/1 410/6/1 411/7/1 412/8/1
f 413/5/1 414/6/1 415/7/1 416/8/1
f 417/5/1 418/6/1 419/7/1 420/8/1
f 421/5/1 422/6/1 423/7/1 424/8/1
f 425/5/1 426/6/1 427/7/1 428/8/1
f 429/5/1 430/6/1 431/7/1 432/8/1
f 433/5/1 434/6/1 435/7/1 436/8/1
f 437/5/1 438/6/1 439/7/1 440/8/1
f 441/5/1 442/6/1 443/7/1 444/8/1
f 445/5/1 446/6/1 447/7/1 448/8/1
f 449/5/1 450/6/1 451/7/1 452/8/1
f 453/5/1 454/6/1 455/7/1 456/8/1
f 457/5/1 458/6/1 459/7/1 460/8/1
f 461/5/1 462/6/1 463/7/1 464/8/1
f 465/5/1 466/6/1 467/7/1 468/8/1
f 469/5/1 470/6/1 471/7/1 472/8/1
f 473/5/1 474/6/1 475/7/1 476/8/1
f 477/5/1 478/6/1 479/7/1 480/8/1
f 481/5/1 482/6/1 483/7/1 484/8/1
f 485/5/1 486/6/1 487/7/1 488/8/1
f 489/5/1 490/6/1 491/7/1 492/8/1
f 493/5/1 494/6/1 495/7/1 496/8/1
f 497/5/1 498/6/1 499/7/1 500/8/1
f 501/5/1 502/6/1 503/7/1 504/8/1
f 505/5/1 506/6/1 507/7/1 508/8/1
f 509/5/1 510/6/1 511/7/1 512/8/1
f 513/5/1 514/6/1 515/7/1 516/8/1
f 517/5/1 518/6/1 519/7/1 520/8/1
f 521/5/1 522/6/1 523/7/1 524/8/1
f 525/5/1 526/6/1 527/7/1 528/8/1
f 529/5/1 530/6/1 531/7/1 532/8/1
f 533/5/1 534/6/1 535/7/1 536/8/1
f 537/5/1 538/6/1 539/7/1 540/8/1
f 541/5/1 542/6/1 543/7/1 544/8/1
f 545/5/1 546/6/1 547/7/1 548/8/1
f 549/5/1 550/6/1 551/7/1 552/8/1
f 553/5/1 554/6/1 555/7/1 556/8/1
f 557/5/1 558/6/1 559/7/1 560/8/1
f 561/5/1 562/6/1 563/7/1 564/8/1
f 565/5/1 566/6/1 567/7/1 568/8/1
f 569/5/1 570/6/1 571/7/1 572/8/1
f 573/5/1 574/6/1 575/7/1 576/8/1
f 577/5/1 578/6/1 579/7/1 580/8/1
f 581/5/1 582/6/1 583/7/1 584/8/1
f 585/5/1 586/6/1 587/7/1 588/8/1
f 589/5/1 590/6/1 591/7/1 592/8/1
f 593/5/1 594/6/1 595/7/1 596/8/1
f 597/5/1 598/6/1 599/7/1 600/8/1
f 601/5/1 602/6/1 603/7/1 604/8/1
f 605/5/1 606/6/1 607/7/1 608/8/1
f 609/5/1 610/6/1 611/7/1 612/8/1
f 613/5/1 614/6/1 615/7/1 616/8/1
f 617/5/1 618/6/1 619/7/1 620/8/1
f 621/5/1 622/6/1 623/7/1 624/8/1
f 625/1/1 626/2/1 627/3/1 628/4/1
f 629/1/1 630/2/1 631/3/1 632/4/1
f 633/1/1 634/2/1 635/3/1 636/4/1
f 637/5/1 638/6/1 639/7/1 640/8/1
f 641/5/1 642/6/1 643/7/1 644/8/1
f 645/1/1 646/2/1 647/3/1 648/4/1

