# Tiled2Unity generated file. Do not modify by hand.
# Wavefront file for 'Law_mesh_0011.obj'

# Vertices (Count = 56)
v -71.46667 -50.13334 0
v -72.53334 -50.13334 0
v -72.53334 -49.06667 0
v -71.46667 -49.06667 0
v -72.53334 -50.13334 0
v -73.60001 -50.13334 0
v -73.60001 -49.06667 0
v -72.53334 -49.06667 0
v -71.46667 -51.2 0
v -72.53334 -51.2 0
v -72.53334 -50.13334 0
v -71.46667 -50.13334 0
v -72.53334 -51.2 0
v -73.60001 -51.2 0
v -73.60001 -50.13334 0
v -72.53334 -50.13334 0
v -71.46667 -52.26667 0
v -72.53334 -52.26667 0
v -72.53334 -51.2 0
v -71.46667 -51.2 0
v -72.53334 -52.26667 0
v -73.60001 -52.26667 0
v -73.60001 -51.2 0
v -72.53334 -51.2 0
v -71.46667 -53.33334 0
v -72.53334 -53.33334 0
v -72.53334 -52.26667 0
v -71.46667 -52.26667 0
v -72.53334 -53.33334 0
v -73.60001 -53.33334 0
v -73.60001 -52.26667 0
v -72.53334 -52.26667 0
v -71.46667 -54.4 0
v -72.53334 -54.4 0
v -72.53334 -53.33334 0
v -71.46667 -53.33334 0
v -72.53334 -54.4 0
v -73.60001 -54.4 0
v -73.60001 -53.33334 0
v -72.53334 -53.33334 0
v -71.46667 -55.46667 0
v -72.53334 -55.46667 0
v -72.53334 -54.4 0
v -71.46667 -54.4 0
v -72.53334 -55.46667 0
v -73.60001 -55.46667 0
v -73.60001 -54.4 0
v -72.53334 -54.4 0
v -71.46667 -56.53334 0
v -72.53334 -56.53334 0
v -72.53334 -55.46667 0
v -71.46667 -55.46667 0
v -72.53334 -56.53334 0
v -73.60001 -56.53334 0
v -73.60001 -55.46667 0
v -72.53334 -55.46667 0

# Texture cooridinates (Count = 12)
vt 0.433121 0.4652631
vt 0.4585987 0.4652631
vt 0.4585987 0.4989474
vt 0.433121 0.4989474
vt 0.433121 0.4294737
vt 0.4585987 0.4294737
vt 0.4585987 0.4631579
vt 0.433121 0.4631579
vt 0.433121 0.3936842
vt 0.4585987 0.3936842
vt 0.4585987 0.4273684
vt 0.433121 0.4273684

# Normal
vn 0 0 -1

# Mesh description
g Law_mesh_0011

# Faces
f 1/1/1 2/2/1 3/3/1 4/4/1
f 5/1/1 6/2/1 7/3/1 8/4/1
f 9/5/1 10/6/1 11/7/1 12/8/1
f 13/5/1 14/6/1 15/7/1 16/8/1
f 17/5/1 18/6/1 19/7/1 20/8/1
f 21/5/1 22/6/1 23/7/1 24/8/1
f 25/5/1 26/6/1 27/7/1 28/8/1
f 29/5/1 30/6/1 31/7/1 32/8/1
f 33/5/1 34/6/1 35/7/1 36/8/1
f 37/5/1 38/6/1 39/7/1 40/8/1
f 41/5/1 42/6/1 43/7/1 44/8/1
f 45/5/1 46/6/1 47/7/1 48/8/1
f 49/9/1 50/10/1 51/11/1 52/12/1
f 53/9/1 54/10/1 55/11/1 56/12/1

