# Tiled2Unity generated file. Do not modify by hand.
# Wavefront file for 'Law_mesh_0010.obj'

# Vertices (Count = 284)
v -43.73334 -49.06667 0
v -44.8 -49.06667 0
v -44.8 -48 0
v -43.73334 -48 0
v -46.93333 -49.06667 0
v -48 -49.06667 0
v -48 -48 0
v -46.93333 -48 0
v -50.13334 -49.06667 0
v -51.2 -49.06667 0
v -51.2 -48 0
v -50.13334 -48 0
v -54.4 -49.06667 0
v -55.46667 -49.06667 0
v -55.46667 -48 0
v -54.4 -48 0
v -55.46667 -49.06667 0
v -56.53334 -49.06667 0
v -56.53334 -48 0
v -55.46667 -48 0
v -56.53334 -49.06667 0
v -57.6 -49.06667 0
v -57.6 -48 0
v -56.53334 -48 0
v -42.66667 -50.13334 0
v -43.73334 -50.13334 0
v -43.73334 -49.06667 0
v -42.66667 -49.06667 0
v -43.73334 -50.13334 0
v -44.8 -50.13334 0
v -44.8 -49.06667 0
v -43.73334 -49.06667 0
v -46.93333 -50.13334 0
v -48 -50.13334 0
v -48 -49.06667 0
v -46.93333 -49.06667 0
v -49.06667 -50.13334 0
v -50.13334 -50.13334 0
v -50.13334 -49.06667 0
v -49.06667 -49.06667 0
v -50.13334 -50.13334 0
v -51.2 -50.13334 0
v -51.2 -49.06667 0
v -50.13334 -49.06667 0
v -55.46667 -50.13334 0
v -56.53334 -50.13334 0
v -56.53334 -49.06667 0
v -55.46667 -49.06667 0
v -50.13334 -51.2 0
v -51.2 -51.2 0
v -51.2 -50.13334 0
v -50.13334 -50.13334 0
v -54.4 -51.2 0
v -55.46667 -51.2 0
v -55.46667 -50.13334 0
v -54.4 -50.13334 0
v -55.46667 -51.2 0
v -56.53334 -51.2 0
v -56.53334 -50.13334 0
v -55.46667 -50.13334 0
v -56.53334 -51.2 0
v -57.6 -51.2 0
v -57.6 -50.13334 0
v -56.53334 -50.13334 0
v -64 -51.2 0
v -65.06667 -51.2 0
v -65.06667 -50.13334 0
v -64 -50.13334 0
v -65.06667 -51.2 0
v -66.13334 -51.2 0
v -66.13334 -50.13334 0
v -65.06667 -50.13334 0
v -66.13334 -51.2 0
v -67.2 -51.2 0
v -67.2 -50.13334 0
v -66.13334 -50.13334 0
v -68.26667 -51.2 0
v -69.33334 -51.2 0
v -69.33334 -50.13334 0
v -68.26667 -50.13334 0
v -69.33334 -51.2 0
v -70.4 -51.2 0
v -70.4 -50.13334 0
v -69.33334 -50.13334 0
v -64 -52.26667 0
v -65.06667 -52.26667 0
v -65.06667 -51.2 0
v -64 -51.2 0
v -65.06667 -52.26667 0
v -66.13334 -52.26667 0
v -66.13334 -51.2 0
v -65.06667 -51.2 0
v -66.13334 -52.26667 0
v -67.2 -52.26667 0
v -67.2 -51.2 0
v -66.13334 -51.2 0
v -68.26667 -52.26667 0
v -69.33334 -52.26667 0
v -69.33334 -51.2 0
v -68.26667 -51.2 0
v -69.33334 -52.26667 0
v -70.4 -52.26667 0
v -70.4 -51.2 0
v -69.33334 -51.2 0
v -54.4 -53.33334 0
v -55.46667 -53.33334 0
v -55.46667 -52.26667 0
v -54.4 -52.26667 0
v -55.46667 -53.33334 0
v -56.53334 -53.33334 0
v -56.53334 -52.26667 0
v -55.46667 -52.26667 0
v -56.53334 -53.33334 0
v -57.6 -53.33334 0
v -57.6 -52.26667 0
v -56.53334 -52.26667 0
v -55.46667 -54.4 0
v -56.53334 -54.4 0
v -56.53334 -53.33334 0
v -55.46667 -53.33334 0
v -61.86667 -54.4 0
v -62.93334 -54.4 0
v -62.93334 -53.33334 0
v -61.86667 -53.33334 0
v -43.73334 -55.46667 0
v -44.8 -55.46667 0
v -44.8 -54.4 0
v -43.73334 -54.4 0
v -50.13334 -55.46667 0
v -51.2 -55.46667 0
v -51.2 -54.4 0
v -50.13334 -54.4 0
v -54.4 -55.46667 0
v -55.46667 -55.46667 0
v -55.46667 -54.4 0
v -54.4 -54.4 0
v -55.46667 -55.46667 0
v -56.53334 -55.46667 0
v -56.53334 -54.4 0
v -55.46667 -54.4 0
v -56.53334 -55.46667 0
v -57.6 -55.46667 0
v -57.6 -54.4 0
v -56.53334 -54.4 0
v -61.86667 -55.46667 0
v -62.93334 -55.46667 0
v -62.93334 -54.4 0
v -61.86667 -54.4 0
v -64 -55.46667 0
v -65.06667 -55.46667 0
v -65.06667 -54.4 0
v -64 -54.4 0
v -65.06667 -55.46667 0
v -66.13334 -55.46667 0
v -66.13334 -54.4 0
v -65.06667 -54.4 0
v -66.13334 -55.46667 0
v -67.2 -55.46667 0
v -67.2 -54.4 0
v -66.13334 -54.4 0
v -68.26667 -55.46667 0
v -69.33334 -55.46667 0
v -69.33334 -54.4 0
v -68.26667 -54.4 0
v -69.33334 -55.46667 0
v -70.4 -55.46667 0
v -70.4 -54.4 0
v -69.33334 -54.4 0
v -42.66667 -56.53334 0
v -43.73334 -56.53334 0
v -43.73334 -55.46667 0
v -42.66667 -55.46667 0
v -43.73334 -56.53334 0
v -44.8 -56.53334 0
v -44.8 -55.46667 0
v -43.73334 -55.46667 0
v -45.86667 -56.53334 0
v -46.93333 -56.53334 0
v -46.93333 -55.46667 0
v -45.86667 -55.46667 0
v -46.93333 -56.53334 0
v -48 -56.53334 0
v -48 -55.46667 0
v -46.93333 -55.46667 0
v -48 -56.53334 0
v -49.06667 -56.53334 0
v -49.06667 -55.46667 0
v -48 -55.46667 0
v -49.06667 -56.53334 0
v -50.13334 -56.53334 0
v -50.13334 -55.46667 0
v -49.06667 -55.46667 0
v -50.13334 -56.53334 0
v -51.2 -56.53334 0
v -51.2 -55.46667 0
v -50.13334 -55.46667 0
v -64 -56.53334 0
v -65.06667 -56.53334 0
v -65.06667 -55.46667 0
v -64 -55.46667 0
v -65.06667 -56.53334 0
v -66.13334 -56.53334 0
v -66.13334 -55.46667 0
v -65.06667 -55.46667 0
v -66.13334 -56.53334 0
v -67.2 -56.53334 0
v -67.2 -55.46667 0
v -66.13334 -55.46667 0
v -68.26667 -56.53334 0
v -69.33334 -56.53334 0
v -69.33334 -55.46667 0
v -68.26667 -55.46667 0
v -69.33334 -56.53334 0
v -70.4 -56.53334 0
v -70.4 -55.46667 0
v -69.33334 -55.46667 0
v -43.73334 -57.6 0
v -44.8 -57.6 0
v -44.8 -56.53334 0
v -43.73334 -56.53334 0
v -54.4 -57.6 0
v -55.46667 -57.6 0
v -55.46667 -56.53334 0
v -54.4 -56.53334 0
v -55.46667 -57.6 0
v -56.53334 -57.6 0
v -56.53334 -56.53334 0
v -55.46667 -56.53334 0
v -56.53334 -57.6 0
v -57.6 -57.6 0
v -57.6 -56.53334 0
v -56.53334 -56.53334 0
v -55.46667 -58.66667 0
v -56.53334 -58.66667 0
v -56.53334 -57.6 0
v -55.46667 -57.6 0
v -54.4 -59.73334 0
v -55.46667 -59.73334 0
v -55.46667 -58.66667 0
v -54.4 -58.66667 0
v -55.46667 -59.73334 0
v -56.53334 -59.73334 0
v -56.53334 -58.66667 0
v -55.46667 -58.66667 0
v -56.53334 -59.73334 0
v -57.6 -59.73334 0
v -57.6 -58.66667 0
v -56.53334 -58.66667 0
v -59.73334 -60.8 0
v -60.8 -60.8 0
v -60.8 -59.73334 0
v -59.73334 -59.73334 0
v -61.86667 -60.8 0
v -62.93334 -60.8 0
v -62.93334 -59.73334 0
v -61.86667 -59.73334 0
v -64 -60.8 0
v -65.06667 -60.8 0
v -65.06667 -59.73334 0
v -64 -59.73334 0
v -65.06667 -60.8 0
v -66.13334 -60.8 0
v -66.13334 -59.73334 0
v -65.06667 -59.73334 0
v -66.13334 -60.8 0
v -67.2 -60.8 0
v -67.2 -59.73334 0
v -66.13334 -59.73334 0
v -68.26667 -60.8 0
v -69.33334 -60.8 0
v -69.33334 -59.73334 0
v -68.26667 -59.73334 0
v -70.4 -60.8 0
v -71.46667 -60.8 0
v -71.46667 -59.73334 0
v -70.4 -59.73334 0
v -71.46667 -60.8 0
v -72.53334 -60.8 0
v -72.53334 -59.73334 0
v -71.46667 -59.73334 0
v -72.53334 -60.8 0
v -73.60001 -60.8 0
v -73.60001 -59.73334 0
v -72.53334 -59.73334 0

# Texture cooridinates (Count = 76)
vt 0 0.7245902
vt 0.03501094 0.7245902
vt 0.03501094 0.7770492
vt 0 0.7770492
vt 0.1487965 0.6131147
vt 0.1838074 0.6131147
vt 0.1838074 0.6655738
vt 0.1487965 0.6655738
vt 0.1859956 0.6131147
vt 0.2210066 0.6131147
vt 0.2210066 0.6655738
vt 0.1859956 0.6655738
vt 0.2603939 0.6131147
vt 0.2954048 0.6131147
vt 0.2954048 0.6655738
vt 0.2603939 0.6655738
vt 0.07439825 0.6688524
vt 0.1094092 0.6688524
vt 0.1094092 0.7213115
vt 0.07439825 0.7213115
vt 0.2603939 0.947541
vt 0.2954048 0.947541
vt 0.2954048 1
vt 0.2603939 1
vt 0.1487965 0.7803279
vt 0.1838074 0.7803279
vt 0.1838074 0.8327869
vt 0.1487965 0.8327869
vt 0.2603939 0.7245902
vt 0.2954048 0.7245902
vt 0.2954048 0.7770492
vt 0.2603939 0.7770492
vt 0.03719912 0.6688524
vt 0.07221007 0.6688524
vt 0.07221007 0.7213115
vt 0.03719912 0.7213115
vt 0.1487965 0.5016394
vt 0.1838074 0.5016394
vt 0.1838074 0.5540984
vt 0.1487965 0.5540984
vt 0.1859956 0.5016394
vt 0.2210066 0.5016394
vt 0.2210066 0.5540984
vt 0.1859956 0.5540984
vt 0.2603939 0.5016394
vt 0.2954048 0.5016394
vt 0.2954048 0.5540984
vt 0.2603939 0.5540984
vt 0.1115974 0.8360656
vt 0.1466083 0.8360656
vt 0.1466083 0.8885246
vt 0.1115974 0.8885246
vt 0.1859956 0.947541
vt 0.2210066 0.947541
vt 0.2210066 1
vt 0.1859956 1
vt 0.1859956 0.8360656
vt 0.2210066 0.8360656
vt 0.2210066 0.8885246
vt 0.1859956 0.8885246
vt 0.07439825 0.7245902
vt 0.1094092 0.7245902
vt 0.1094092 0.7770492
vt 0.07439825 0.7770492
vt 0.1115974 0.7245902
vt 0.1466083 0.7245902
vt 0.1466083 0.7770492
vt 0.1115974 0.7770492
vt 0.03719912 0.7245902
vt 0.07221007 0.7245902
vt 0.07221007 0.7770492
vt 0.03719912 0.7770492
vt 0.6323851 0.7803279
vt 0.6673961 0.7803279
vt 0.6673961 0.8327869
vt 0.6323851 0.8327869

# Normal
vn 0 0 -1

# Mesh description
g Law_mesh_0010

# Faces
f 1/1/1 2/2/1 3/3/1 4/4/1
f 5/1/1 6/2/1 7/3/1 8/4/1
f 9/1/1 10/2/1 11/3/1 12/4/1
f 13/5/1 14/6/1 15/7/1 16/8/1
f 17/9/1 18/10/1 19/11/1 20/12/1
f 21/13/1 22/14/1 23/15/1 24/16/1
f 25/17/1 26/18/1 27/19/1 28/20/1
f 29/21/1 30/22/1 31/23/1 32/24/1
f 33/25/1 34/26/1 35/27/1 36/28/1
f 37/17/1 38/18/1 39/19/1 40/20/1
f 41/21/1 42/22/1 43/23/1 44/24/1
f 45/29/1 46/30/1 47/31/1 48/32/1
f 49/33/1 50/34/1 51/35/1 52/36/1
f 53/37/1 54/38/1 55/39/1 56/40/1
f 57/41/1 58/42/1 59/43/1 60/44/1
f 61/45/1 62/46/1 63/47/1 64/48/1
f 65/49/1 66/50/1 67/51/1 68/52/1
f 69/49/1 70/50/1 71/51/1 72/52/1
f 73/49/1 74/50/1 75/51/1 76/52/1
f 77/49/1 78/50/1 79/51/1 80/52/1
f 81/49/1 82/50/1 83/51/1 84/52/1
f 85/49/1 86/50/1 87/51/1 88/52/1
f 89/49/1 90/50/1 91/51/1 92/52/1
f 93/49/1 94/50/1 95/51/1 96/52/1
f 97/49/1 98/50/1 99/51/1 100/52/1
f 101/49/1 102/50/1 103/51/1 104/52/1
f 105/5/1 106/6/1 107/7/1 108/8/1
f 109/9/1 110/10/1 111/11/1 112/12/1
f 113/13/1 114/14/1 115/15/1 116/16/1
f 117/29/1 118/30/1 119/31/1 120/32/1
f 121/53/1 122/54/1 123/55/1 124/56/1
f 125/1/1 126/2/1 127/3/1 128/4/1
f 129/1/1 130/2/1 131/3/1 132/4/1
f 133/37/1 134/38/1 135/39/1 136/40/1
f 137/41/1 138/42/1 139/43/1 140/44/1
f 141/45/1 142/46/1 143/47/1 144/48/1
f 145/57/1 146/58/1 147/59/1 148/60/1
f 149/49/1 150/50/1 151/51/1 152/52/1
f 153/49/1 154/50/1 155/51/1 156/52/1
f 157/49/1 158/50/1 159/51/1 160/52/1
f 161/49/1 162/50/1 163/51/1 164/52/1
f 165/49/1 166/50/1 167/51/1 168/52/1
f 169/17/1 170/18/1 171/19/1 172/20/1
f 173/21/1 174/22/1 175/23/1 176/24/1
f 177/61/1 178/62/1 179/63/1 180/64/1
f 181/21/1 182/22/1 183/23/1 184/24/1
f 185/65/1 186/66/1 187/67/1 188/68/1
f 189/61/1 190/62/1 191/63/1 192/64/1
f 193/25/1 194/26/1 195/27/1 196/28/1
f 197/49/1 198/50/1 199/51/1 200/52/1
f 201/49/1 202/50/1 203/51/1 204/52/1
f 205/49/1 206/50/1 207/51/1 208/52/1
f 209/49/1 210/50/1 211/51/1 212/52/1
f 213/49/1 214/50/1 215/51/1 216/52/1
f 217/69/1 218/70/1 219/71/1 220/72/1
f 221/5/1 222/6/1 223/7/1 224/8/1
f 225/9/1 226/10/1 227/11/1 228/12/1
f 229/13/1 230/14/1 231/15/1 232/16/1
f 233/29/1 234/30/1 235/31/1 236/32/1
f 237/37/1 238/38/1 239/39/1 240/40/1
f 241/41/1 242/42/1 243/43/1 244/44/1
f 245/45/1 246/46/1 247/47/1 248/48/1
f 249/73/1 250/74/1 251/75/1 252/76/1
f 253/73/1 254/74/1 255/75/1 256/76/1
f 257/73/1 258/74/1 259/75/1 260/76/1
f 261/73/1 262/74/1 263/75/1 264/76/1
f 265/73/1 266/74/1 267/75/1 268/76/1
f 269/73/1 270/74/1 271/75/1 272/76/1
f 273/73/1 274/74/1 275/75/1 276/76/1
f 277/73/1 278/74/1 279/75/1 280/76/1
f 281/73/1 282/74/1 283/75/1 284/76/1

