# Tiled2Unity generated file. Do not modify by hand.
# Wavefront file for 'Law_mesh_0005.obj'

# Vertices (Count = 92)
v -56.53334 -42.66667 0
v -57.6 -42.66667 0
v -57.6 -41.6 0
v -56.53334 -41.6 0
v -62.93334 -42.66667 0
v -64 -42.66667 0
v -64 -41.6 0
v -62.93334 -41.6 0
v -61.86667 -48 0
v -62.93334 -48 0
v -62.93334 -46.93333 0
v -61.86667 -46.93333 0
v -62.93334 -48 0
v -64 -48 0
v -64 -46.93333 0
v -62.93334 -46.93333 0
v -68.26667 -48 0
v -69.33334 -48 0
v -69.33334 -46.93333 0
v -68.26667 -46.93333 0
v -69.33334 -48 0
v -70.4 -48 0
v -70.4 -46.93333 0
v -69.33334 -46.93333 0
v -70.4 -48 0
v -71.46667 -48 0
v -71.46667 -46.93333 0
v -70.4 -46.93333 0
v -60.8 -58.66667 0
v -61.86667 -58.66667 0
v -61.86667 -57.6 0
v -60.8 -57.6 0
v -65.06667 -58.66667 0
v -66.13334 -58.66667 0
v -66.13334 -57.6 0
v -65.06667 -57.6 0
v -71.46667 -58.66667 0
v -72.53334 -58.66667 0
v -72.53334 -57.6 0
v -71.46667 -57.6 0
v -59.73334 -59.73334 0
v -60.8 -59.73334 0
v -60.8 -58.66667 0
v -59.73334 -58.66667 0
v -60.8 -59.73334 0
v -61.86667 -59.73334 0
v -61.86667 -58.66667 0
v -60.8 -58.66667 0
v -61.86667 -59.73334 0
v -62.93334 -59.73334 0
v -62.93334 -58.66667 0
v -61.86667 -58.66667 0
v -62.93334 -59.73334 0
v -64 -59.73334 0
v -64 -58.66667 0
v -62.93334 -58.66667 0
v -64 -59.73334 0
v -65.06667 -59.73334 0
v -65.06667 -58.66667 0
v -64 -58.66667 0
v -65.06667 -59.73334 0
v -66.13334 -59.73334 0
v -66.13334 -58.66667 0
v -65.06667 -58.66667 0
v -66.13334 -59.73334 0
v -67.2 -59.73334 0
v -67.2 -58.66667 0
v -66.13334 -58.66667 0
v -67.2 -59.73334 0
v -68.26667 -59.73334 0
v -68.26667 -58.66667 0
v -67.2 -58.66667 0
v -68.26667 -59.73334 0
v -69.33334 -59.73334 0
v -69.33334 -58.66667 0
v -68.26667 -58.66667 0
v -69.33334 -59.73334 0
v -70.4 -59.73334 0
v -70.4 -58.66667 0
v -69.33334 -58.66667 0
v -70.4 -59.73334 0
v -71.46667 -59.73334 0
v -71.46667 -58.66667 0
v -70.4 -58.66667 0
v -71.46667 -59.73334 0
v -72.53334 -59.73334 0
v -72.53334 -58.66667 0
v -71.46667 -58.66667 0
v -72.53334 -59.73334 0
v -73.60001 -59.73334 0
v -73.60001 -58.66667 0
v -72.53334 -58.66667 0

# Texture cooridinates (Count = 44)
vt 0.7067834 0.1672131
vt 0.7417943 0.1672131
vt 0.7417943 0.2196721
vt 0.7067834 0.2196721
vt 0.7067834 0.2229508
vt 0.7417943 0.2229508
vt 0.7417943 0.2754098
vt 0.7067834 0.2754098
vt 0.7439825 0.2786885
vt 0.7789934 0.2786885
vt 0.7789934 0.3311476
vt 0.7439825 0.3311476
vt 0.7811816 0.2786885
vt 0.8161926 0.2786885
vt 0.8161926 0.3311476
vt 0.7811816 0.3311476
vt 0.595186 0.1672131
vt 0.6301969 0.1672131
vt 0.6301969 0.2196721
vt 0.595186 0.2196721
vt 0.6323851 0.1672131
vt 0.6673961 0.1672131
vt 0.6673961 0.2196721
vt 0.6323851 0.2196721
vt 0.6695843 0.1672131
vt 0.7045952 0.1672131
vt 0.7045952 0.2196721
vt 0.6695843 0.2196721
vt 0.6695843 0.947541
vt 0.7045952 0.947541
vt 0.7045952 1
vt 0.6695843 1
vt 0.8555799 0.1672131
vt 0.8905908 0.1672131
vt 0.8905908 0.2196721
vt 0.8555799 0.2196721
vt 0.892779 0.1672131
vt 0.9277899 0.1672131
vt 0.9277899 0.2196721
vt 0.892779 0.2196721
vt 0.9299781 0.1672131
vt 0.9649891 0.1672131
vt 0.9649891 0.2196721
vt 0.9299781 0.2196721

# Normal
vn 0 0 -1

# Mesh description
g Law_mesh_0005

# Faces
f 1/1/1 2/2/1 3/3/1 4/4/1
f 5/5/1 6/6/1 7/7/1 8/8/1
f 9/9/1 10/10/1 11/11/1 12/12/1
f 13/13/1 14/14/1 15/15/1 16/16/1
f 17/17/1 18/18/1 19/19/1 20/20/1
f 21/21/1 22/22/1 23/23/1 24/24/1
f 25/25/1 26/26/1 27/27/1 28/28/1
f 29/5/1 30/6/1 31/7/1 32/8/1
f 33/1/1 34/2/1 35/3/1 36/4/1
f 37/29/1 38/30/1 39/31/1 40/32/1
f 41/33/1 42/34/1 43/35/1 44/36/1
f 45/37/1 46/38/1 47/39/1 48/40/1
f 49/37/1 50/38/1 51/39/1 52/40/1
f 53/37/1 54/38/1 55/39/1 56/40/1
f 57/37/1 58/38/1 59/39/1 60/40/1
f 61/37/1 62/38/1 63/39/1 64/40/1
f 65/37/1 66/38/1 67/39/1 68/40/1
f 69/37/1 70/38/1 71/39/1 72/40/1
f 73/37/1 74/38/1 75/39/1 76/40/1
f 77/37/1 78/38/1 79/39/1 80/40/1
f 81/37/1 82/38/1 83/39/1 84/40/1
f 85/37/1 86/38/1 87/39/1 88/40/1
f 89/41/1 90/42/1 91/43/1 92/44/1

