# Tiled2Unity generated file. Do not modify by hand.
# Wavefront file for 'WorldMap-(2)_mesh_0008.obj'

# Vertices (Count = 16)
v -768 -1184 0
v -784 -1184 0
v -784 -1168 0
v -768 -1168 0
v -736 -1184 0
v -752 -1184 0
v -752 -1168 0
v -736 -1168 0
v -1088 -1248 0
v -1104 -1248 0
v -1104 -1232 0
v -1088 -1232 0
v -1040 -1248 0
v -1056 -1248 0
v -1056 -1232 0
v -1040 -1232 0

# Texture cooridinates (Count = 4)
vt 0 0
vt 1 0
vt 1 1
vt 0 1

# Normal
vn 0 0 -1

# Mesh description
g WorldMap-(2)_mesh_0008

# Faces
f 1/1/1 2/2/1 3/3/1 4/4/1
f 5/1/1 6/2/1 7/3/1 8/4/1
f 9/1/1 10/2/1 11/3/1 12/4/1
f 13/1/1 14/2/1 15/3/1 16/4/1

