# Tiled2Unity generated file. Do not modify by hand.
# Wavefront file for 'WorldMap-(2)_mesh_0009.obj'

# Vertices (Count = 760)
v -448 -608 0
v -464 -608 0
v -464 -592 0
v -448 -592 0
v -496 -624 0
v -512 -624 0
v -512 -608 0
v -496 -608 0
v -448 -624 0
v -464 -624 0
v -464 -608 0
v -448 -608 0
v -496 -640 0
v -512 -640 0
v -512 -624 0
v -496 -624 0
v -336 -640 0
v -352 -640 0
v -352 -624 0
v -336 -624 0
v -416 -656 0
v -432 -656 0
v -432 -640 0
v -416 -640 0
v -336 -656 0
v -352 -656 0
v -352 -640 0
v -336 -640 0
v -496 -672 0
v -512 -672 0
v -512 -656 0
v -496 -656 0
v -448 -672 0
v -464 -672 0
v -464 -656 0
v -448 -656 0
v -432 -672 0
v -448 -672 0
v -448 -656 0
v -432 -656 0
v -416 -672 0
v -432 -672 0
v -432 -656 0
v -416 -656 0
v -384 -672 0
v -400 -672 0
v -400 -656 0
v -384 -656 0
v -496 -688 0
v -512 -688 0
v -512 -672 0
v -496 -672 0
v -480 -688 0
v -496 -688 0
v -496 -672 0
v -480 -672 0
v -448 -688 0
v -464 -688 0
v -464 -672 0
v -448 -672 0
v -432 -688 0
v -448 -688 0
v -448 -672 0
v -432 -672 0
v -384 -688 0
v -400 -688 0
v -400 -672 0
v -384 -672 0
v -656 -704 0
v -672 -704 0
v -672 -688 0
v -656 -688 0
v -480 -704 0
v -496 -704 0
v -496 -688 0
v -480 -688 0
v -656 -720 0
v -672 -720 0
v -672 -704 0
v -656 -704 0
v -640 -736 0
v -656 -736 0
v -656 -720 0
v -640 -720 0
v -640 -752 0
v -656 -752 0
v -656 -736 0
v -640 -736 0
v -624 -768 0
v -640 -768 0
v -640 -752 0
v -624 -752 0
v -624 -784 0
v -640 -784 0
v -640 -768 0
v -624 -768 0
v -624 -800 0
v -640 -800 0
v -640 -784 0
v -624 -784 0
v -384 -800 0
v -400 -800 0
v -400 -784 0
v -384 -784 0
v -352 -800 0
v -368 -800 0
v -368 -784 0
v -352 -784 0
v -320 -800 0
v -336 -800 0
v -336 -784 0
v -320 -784 0
v -272 -800 0
v -288 -800 0
v -288 -784 0
v -272 -784 0
v -640 -816 0
v -656 -816 0
v -656 -800 0
v -640 -800 0
v -624 -816 0
v -640 -816 0
v -640 -800 0
v -624 -800 0
v -384 -816 0
v -400 -816 0
v -400 -800 0
v -384 -800 0
v -352 -816 0
v -368 -816 0
v -368 -800 0
v -352 -800 0
v -320 -816 0
v -336 -816 0
v -336 -800 0
v -320 -800 0
v -272 -816 0
v -288 -816 0
v -288 -800 0
v -272 -800 0
v -640 -832 0
v -656 -832 0
v -656 -816 0
v -640 -816 0
v -656 -848 0
v -672 -848 0
v -672 -832 0
v -656 -832 0
v -240 -848 0
v -256 -848 0
v -256 -832 0
v -240 -832 0
v -656 -864 0
v -672 -864 0
v -672 -848 0
v -656 -848 0
v -640 -864 0
v -656 -864 0
v -656 -848 0
v -640 -848 0
v -240 -864 0
v -256 -864 0
v -256 -848 0
v -240 -848 0
v -640 -880 0
v -656 -880 0
v -656 -864 0
v -640 -864 0
v -672 -896 0
v -688 -896 0
v -688 -880 0
v -672 -880 0
v -1200 -912 0
v -1216 -912 0
v -1216 -896 0
v -1200 -896 0
v -672 -912 0
v -688 -912 0
v -688 -896 0
v -672 -896 0
v -1280 -928 0
v -1296 -928 0
v -1296 -912 0
v -1280 -912 0
v -1184 -928 0
v -1200 -928 0
v -1200 -912 0
v -1184 -912 0
v -1104 -928 0
v -1120 -928 0
v -1120 -912 0
v -1104 -912 0
v -1072 -928 0
v -1088 -928 0
v -1088 -912 0
v -1072 -912 0
v -624 -928 0
v -640 -928 0
v -640 -912 0
v -624 -912 0
v -208 -928 0
v -224 -928 0
v -224 -912 0
v -208 -912 0
v -1280 -944 0
v -1296 -944 0
v -1296 -928 0
v -1280 -928 0
v -1264 -944 0
v -1280 -944 0
v -1280 -928 0
v -1264 -928 0
v -1248 -944 0
v -1264 -944 0
v -1264 -928 0
v -1248 -928 0
v -1216 -944 0
v -1232 -944 0
v -1232 -928 0
v -1216 -928 0
v -1200 -944 0
v -1216 -944 0
v -1216 -928 0
v -1200 -928 0
v -1184 -944 0
v -1200 -944 0
v -1200 -928 0
v -1184 -928 0
v -1168 -944 0
v -1184 -944 0
v -1184 -928 0
v -1168 -928 0
v -1088 -944 0
v -1104 -944 0
v -1104 -928 0
v -1088 -928 0
v -1072 -944 0
v -1088 -944 0
v -1088 -928 0
v -1072 -928 0
v -1056 -944 0
v -1072 -944 0
v -1072 -928 0
v -1056 -928 0
v -624 -944 0
v -640 -944 0
v -640 -928 0
v -624 -928 0
v -208 -944 0
v -224 -944 0
v -224 -928 0
v -208 -928 0
v -1312 -960 0
v -1328 -960 0
v -1328 -944 0
v -1312 -944 0
v -1296 -960 0
v -1312 -960 0
v -1312 -944 0
v -1296 -944 0
v -1248 -960 0
v -1264 -960 0
v -1264 -944 0
v -1248 -944 0
v -1216 -960 0
v -1232 -960 0
v -1232 -944 0
v -1216 -944 0
v -1200 -960 0
v -1216 -960 0
v -1216 -944 0
v -1200 -944 0
v -1056 -960 0
v -1072 -960 0
v -1072 -944 0
v -1056 -944 0
v -1040 -960 0
v -1056 -960 0
v -1056 -944 0
v -1040 -944 0
v -1328 -976 0
v -1344 -976 0
v -1344 -960 0
v -1328 -960 0
v -1312 -976 0
v -1328 -976 0
v -1328 -960 0
v -1312 -960 0
v -1296 -976 0
v -1312 -976 0
v -1312 -960 0
v -1296 -960 0
v -1232 -976 0
v -1248 -976 0
v -1248 -960 0
v -1232 -960 0
v -1040 -976 0
v -1056 -976 0
v -1056 -960 0
v -1040 -960 0
v -1024 -976 0
v -1040 -976 0
v -1040 -960 0
v -1024 -960 0
v -1008 -976 0
v -1024 -976 0
v -1024 -960 0
v -1008 -960 0
v -992 -976 0
v -1008 -976 0
v -1008 -960 0
v -992 -960 0
v -1328 -992 0
v -1344 -992 0
v -1344 -976 0
v -1328 -976 0
v -1296 -992 0
v -1312 -992 0
v -1312 -976 0
v -1296 -976 0
v -1056 -992 0
v -1072 -992 0
v -1072 -976 0
v -1056 -976 0
v -1024 -992 0
v -1040 -992 0
v -1040 -976 0
v -1024 -976 0
v -1008 -992 0
v -1024 -992 0
v -1024 -976 0
v -1008 -976 0
v -992 -992 0
v -1008 -992 0
v -1008 -976 0
v -992 -976 0
v -976 -992 0
v -992 -992 0
v -992 -976 0
v -976 -976 0
v -1264 -1008 0
v -1280 -1008 0
v -1280 -992 0
v -1264 -992 0
v -1120 -1008 0
v -1136 -1008 0
v -1136 -992 0
v -1120 -992 0
v -1056 -1008 0
v -1072 -1008 0
v -1072 -992 0
v -1056 -992 0
v -976 -1008 0
v -992 -1008 0
v -992 -992 0
v -976 -992 0
v -1136 -1024 0
v -1152 -1024 0
v -1152 -1008 0
v -1136 -1008 0
v -1120 -1024 0
v -1136 -1024 0
v -1136 -1008 0
v -1120 -1008 0
v -992 -1024 0
v -1008 -1024 0
v -1008 -1008 0
v -992 -1008 0
v -192 -1024 0
v -208 -1024 0
v -208 -1008 0
v -192 -1008 0
v -1136 -1040 0
v -1152 -1040 0
v -1152 -1024 0
v -1136 -1024 0
v -1120 -1040 0
v -1136 -1040 0
v -1136 -1024 0
v -1120 -1024 0
v -1040 -1040 0
v -1056 -1040 0
v -1056 -1024 0
v -1040 -1024 0
v -992 -1040 0
v -1008 -1040 0
v -1008 -1024 0
v -992 -1024 0
v -192 -1040 0
v -208 -1040 0
v -208 -1024 0
v -192 -1024 0
v -1232 -1056 0
v -1248 -1056 0
v -1248 -1040 0
v -1232 -1040 0
v -1200 -1056 0
v -1216 -1056 0
v -1216 -1040 0
v -1200 -1040 0
v -1120 -1056 0
v -1136 -1056 0
v -1136 -1040 0
v -1120 -1040 0
v -1072 -1056 0
v -1088 -1056 0
v -1088 -1040 0
v -1072 -1040 0
v -1040 -1056 0
v -1056 -1056 0
v -1056 -1040 0
v -1040 -1040 0
v -976 -1056 0
v -992 -1056 0
v -992 -1040 0
v -976 -1040 0
v -592 -1056 0
v -608 -1056 0
v -608 -1040 0
v -592 -1040 0
v -1232 -1072 0
v -1248 -1072 0
v -1248 -1056 0
v -1232 -1056 0
v -1200 -1072 0
v -1216 -1072 0
v -1216 -1056 0
v -1200 -1056 0
v -976 -1072 0
v -992 -1072 0
v -992 -1056 0
v -976 -1056 0
v -592 -1072 0
v -608 -1072 0
v -608 -1056 0
v -592 -1056 0
v -1344 -1088 0
v -1360 -1088 0
v -1360 -1072 0
v -1344 -1072 0
v -1184 -1088 0
v -1200 -1088 0
v -1200 -1072 0
v -1184 -1072 0
v -1168 -1088 0
v -1184 -1088 0
v -1184 -1072 0
v -1168 -1072 0
v -992 -1088 0
v -1008 -1088 0
v -1008 -1072 0
v -992 -1072 0
v -592 -1088 0
v -608 -1088 0
v -608 -1072 0
v -592 -1072 0
v -528 -1088 0
v -544 -1088 0
v -544 -1072 0
v -528 -1072 0
v -512 -1088 0
v -528 -1088 0
v -528 -1072 0
v -512 -1072 0
v -496 -1088 0
v -512 -1088 0
v -512 -1072 0
v -496 -1072 0
v -480 -1088 0
v -496 -1088 0
v -496 -1072 0
v -480 -1072 0
v -320 -1088 0
v -336 -1088 0
v -336 -1072 0
v -320 -1072 0
v -1328 -1104 0
v -1344 -1104 0
v -1344 -1088 0
v -1328 -1088 0
v -1296 -1104 0
v -1312 -1104 0
v -1312 -1088 0
v -1296 -1088 0
v -1168 -1104 0
v -1184 -1104 0
v -1184 -1088 0
v -1168 -1088 0
v -1152 -1104 0
v -1168 -1104 0
v -1168 -1088 0
v -1152 -1088 0
v -1024 -1104 0
v -1040 -1104 0
v -1040 -1088 0
v -1024 -1088 0
v -1008 -1104 0
v -1024 -1104 0
v -1024 -1088 0
v -1008 -1088 0
v -992 -1104 0
v -1008 -1104 0
v -1008 -1088 0
v -992 -1088 0
v -592 -1104 0
v -608 -1104 0
v -608 -1088 0
v -592 -1088 0
v -528 -1104 0
v -544 -1104 0
v -544 -1088 0
v -528 -1088 0
v -512 -1104 0
v -528 -1104 0
v -528 -1088 0
v -512 -1088 0
v -496 -1104 0
v -512 -1104 0
v -512 -1088 0
v -496 -1088 0
v -480 -1104 0
v -496 -1104 0
v -496 -1088 0
v -480 -1088 0
v -320 -1104 0
v -336 -1104 0
v -336 -1088 0
v -320 -1088 0
v -1328 -1120 0
v -1344 -1120 0
v -1344 -1104 0
v -1328 -1104 0
v -1152 -1120 0
v -1168 -1120 0
v -1168 -1104 0
v -1152 -1104 0
v -1024 -1120 0
v -1040 -1120 0
v -1040 -1104 0
v -1024 -1104 0
v -1008 -1120 0
v -1024 -1120 0
v -1024 -1104 0
v -1008 -1104 0
v -992 -1120 0
v -1008 -1120 0
v -1008 -1104 0
v -992 -1104 0
v -592 -1120 0
v -608 -1120 0
v -608 -1104 0
v -592 -1104 0
v -528 -1120 0
v -544 -1120 0
v -544 -1104 0
v -528 -1104 0
v -352 -1120 0
v -368 -1120 0
v -368 -1104 0
v -352 -1104 0
v -1136 -1136 0
v -1152 -1136 0
v -1152 -1120 0
v -1136 -1120 0
v -992 -1136 0
v -1008 -1136 0
v -1008 -1120 0
v -992 -1120 0
v -592 -1136 0
v -608 -1136 0
v -608 -1120 0
v -592 -1120 0
v -528 -1136 0
v -544 -1136 0
v -544 -1120 0
v -528 -1120 0
v -448 -1136 0
v -464 -1136 0
v -464 -1120 0
v -448 -1120 0
v -352 -1136 0
v -368 -1136 0
v -368 -1120 0
v -352 -1120 0
v -1312 -1152 0
v -1328 -1152 0
v -1328 -1136 0
v -1312 -1136 0
v -1296 -1152 0
v -1312 -1152 0
v -1312 -1136 0
v -1296 -1136 0
v -1184 -1152 0
v -1200 -1152 0
v -1200 -1136 0
v -1184 -1136 0
v -1136 -1152 0
v -1152 -1152 0
v -1152 -1136 0
v -1136 -1136 0
v -528 -1152 0
v -544 -1152 0
v -544 -1136 0
v -528 -1136 0
v -448 -1152 0
v -464 -1152 0
v -464 -1136 0
v -448 -1136 0
v -384 -1152 0
v -400 -1152 0
v -400 -1136 0
v -384 -1136 0
v -1312 -1168 0
v -1328 -1168 0
v -1328 -1152 0
v -1312 -1152 0
v -1296 -1168 0
v -1312 -1168 0
v -1312 -1152 0
v -1296 -1152 0
v -1264 -1168 0
v -1280 -1168 0
v -1280 -1152 0
v -1264 -1152 0
v -1216 -1168 0
v -1232 -1168 0
v -1232 -1152 0
v -1216 -1152 0
v -1200 -1168 0
v -1216 -1168 0
v -1216 -1152 0
v -1200 -1152 0
v -1184 -1168 0
v -1200 -1168 0
v -1200 -1152 0
v -1184 -1152 0
v -1120 -1168 0
v -1136 -1168 0
v -1136 -1152 0
v -1120 -1152 0
v -1056 -1168 0
v -1072 -1168 0
v -1072 -1152 0
v -1056 -1152 0
v -1040 -1168 0
v -1056 -1168 0
v -1056 -1152 0
v -1040 -1152 0
v -528 -1168 0
v -544 -1168 0
v -544 -1152 0
v -528 -1152 0
v -480 -1168 0
v -496 -1168 0
v -496 -1152 0
v -480 -1152 0
v -384 -1168 0
v -400 -1168 0
v -400 -1152 0
v -384 -1152 0
v -1264 -1184 0
v -1280 -1184 0
v -1280 -1168 0
v -1264 -1168 0
v -1216 -1184 0
v -1232 -1184 0
v -1232 -1168 0
v -1216 -1168 0
v -1200 -1184 0
v -1216 -1184 0
v -1216 -1168 0
v -1200 -1168 0
v -1168 -1184 0
v -1184 -1184 0
v -1184 -1168 0
v -1168 -1168 0
v -1152 -1184 0
v -1168 -1184 0
v -1168 -1168 0
v -1152 -1168 0
v -1136 -1184 0
v -1152 -1184 0
v -1152 -1168 0
v -1136 -1168 0
v -1120 -1184 0
v -1136 -1184 0
v -1136 -1168 0
v -1120 -1168 0
v -1104 -1184 0
v -1120 -1184 0
v -1120 -1168 0
v -1104 -1168 0
v -1056 -1184 0
v -1072 -1184 0
v -1072 -1168 0
v -1056 -1168 0
v -1040 -1184 0
v -1056 -1184 0
v -1056 -1168 0
v -1040 -1168 0
v -1024 -1184 0
v -1040 -1184 0
v -1040 -1168 0
v -1024 -1168 0
v -1008 -1184 0
v -1024 -1184 0
v -1024 -1168 0
v -1008 -1168 0
v -480 -1184 0
v -496 -1184 0
v -496 -1168 0
v -480 -1168 0
v -1152 -1200 0
v -1168 -1200 0
v -1168 -1184 0
v -1152 -1184 0
v -1136 -1200 0
v -1152 -1200 0
v -1152 -1184 0
v -1136 -1184 0
v -1104 -1200 0
v -1120 -1200 0
v -1120 -1184 0
v -1104 -1184 0
v -1024 -1200 0
v -1040 -1200 0
v -1040 -1184 0
v -1024 -1184 0
v -1008 -1200 0
v -1024 -1200 0
v -1024 -1184 0
v -1008 -1184 0
v -1088 -1216 0
v -1104 -1216 0
v -1104 -1200 0
v -1088 -1200 0
v -1040 -1216 0
v -1056 -1216 0
v -1056 -1200 0
v -1040 -1200 0
v -1024 -1216 0
v -1040 -1216 0
v -1040 -1200 0
v -1024 -1200 0
v -1104 -1232 0
v -1120 -1232 0
v -1120 -1216 0
v -1104 -1216 0
v -1088 -1232 0
v -1104 -1232 0
v -1104 -1216 0
v -1088 -1216 0
v -1040 -1232 0
v -1056 -1232 0
v -1056 -1216 0
v -1040 -1216 0
v -1104 -1248 0
v -1120 -1248 0
v -1120 -1232 0
v -1104 -1232 0

# Texture cooridinates (Count = 28)
vt 0.2283058 0.6463878
vt 0.2448347 0.6463878
vt 0.2448347 0.6768061
vt 0.2283058 0.6768061
vt 0.2283058 0.6140684
vt 0.2448347 0.6140684
vt 0.2448347 0.6444867
vt 0.2283058 0.6444867
vt 0.2634298 0.6463878
vt 0.2799587 0.6463878
vt 0.2799587 0.6768061
vt 0.2634298 0.6768061
vt 0.2634298 0.6140684
vt 0.2799587 0.6140684
vt 0.2799587 0.6444867
vt 0.2634298 0.6444867
vt 0.4741735 0.6140684
vt 0.4907025 0.6140684
vt 0.4907025 0.6444867
vt 0.4741735 0.6444867
vt 0.2809917 0.6463878
vt 0.2975207 0.6463878
vt 0.2975207 0.6768061
vt 0.2809917 0.6768061
vt 0.2809917 0.6140684
vt 0.2975207 0.6140684
vt 0.2975207 0.6444867
vt 0.2809917 0.6444867

# Normal
vn 0 0 -1

# Mesh description
g WorldMap-(2)_mesh_0009

# Faces
f 1/1/1 2/2/1 3/3/1 4/4/1
f 5/1/1 6/2/1 7/3/1 8/4/1
f 9/5/1 10/6/1 11/7/1 12/8/1
f 13/5/1 14/6/1 15/7/1 16/8/1
f 17/1/1 18/2/1 19/3/1 20/4/1
f 21/9/1 22/10/1 23/11/1 24/12/1
f 25/5/1 26/6/1 27/7/1 28/8/1
f 29/9/1 30/10/1 31/11/1 32/12/1
f 33/1/1 34/2/1 35/3/1 36/4/1
f 37/1/1 38/2/1 39/3/1 40/4/1
f 41/13/1 42/14/1 43/15/1 44/16/1
f 45/1/1 46/2/1 47/3/1 48/4/1
f 49/13/1 50/14/1 51/15/1 52/16/1
f 53/1/1 54/2/1 55/3/1 56/4/1
f 57/5/1 58/6/1 59/7/1 60/8/1
f 61/5/1 62/6/1 63/7/1 64/8/1
f 65/5/1 66/6/1 67/7/1 68/8/1
f 69/1/1 70/2/1 71/3/1 72/4/1
f 73/5/1 74/6/1 75/7/1 76/8/1
f 77/5/1 78/6/1 79/7/1 80/8/1
f 81/9/1 82/10/1 83/11/1 84/12/1
f 85/13/1 86/14/1 87/15/1 88/16/1
f 89/1/1 90/2/1 91/3/1 92/4/1
f 93/5/1 94/6/1 95/7/1 96/8/1
f 97/9/1 98/10/1 99/11/1 100/12/1
f 101/9/1 102/10/1 103/11/1 104/12/1
f 105/1/1 106/2/1 107/3/1 108/4/1
f 109/9/1 110/10/1 111/11/1 112/12/1
f 113/1/1 114/2/1 115/3/1 116/4/1
f 117/1/1 118/2/1 119/3/1 120/4/1
f 121/13/1 122/14/1 123/15/1 124/16/1
f 125/13/1 126/14/1 127/15/1 128/16/1
f 129/5/1 130/6/1 131/7/1 132/8/1
f 133/13/1 134/14/1 135/15/1 136/16/1
f 137/5/1 138/6/1 139/7/1 140/8/1
f 141/5/1 142/6/1 143/7/1 144/8/1
f 145/9/1 146/10/1 147/11/1 148/12/1
f 149/9/1 150/10/1 151/11/1 152/12/1
f 153/13/1 154/14/1 155/15/1 156/16/1
f 157/1/1 158/2/1 159/3/1 160/4/1
f 161/13/1 162/14/1 163/15/1 164/16/1
f 165/5/1 166/6/1 167/7/1 168/8/1
f 169/9/1 170/10/1 171/11/1 172/12/1
f 173/17/1 174/18/1 175/19/1 176/20/1
f 177/13/1 178/14/1 179/15/1 180/16/1
f 181/1/1 182/2/1 183/3/1 184/4/1
f 185/1/1 186/2/1 187/3/1 188/4/1
f 189/17/1 190/18/1 191/19/1 192/20/1
f 193/1/1 194/2/1 195/3/1 196/4/1
f 197/1/1 198/2/1 199/3/1 200/4/1
f 201/9/1 202/10/1 203/11/1 204/12/1
f 205/5/1 206/6/1 207/7/1 208/8/1
f 209/17/1 210/18/1 211/19/1 212/20/1
f 213/9/1 214/10/1 215/11/1 216/12/1
f 217/9/1 218/10/1 219/11/1 220/12/1
f 221/1/1 222/2/1 223/3/1 224/4/1
f 225/5/1 226/6/1 227/7/1 228/8/1
f 229/17/1 230/18/1 231/19/1 232/20/1
f 233/17/1 234/18/1 235/19/1 236/20/1
f 237/5/1 238/6/1 239/7/1 240/8/1
f 241/9/1 242/10/1 243/11/1 244/12/1
f 245/5/1 246/6/1 247/7/1 248/8/1
f 249/13/1 250/14/1 251/15/1 252/16/1
f 253/1/1 254/2/1 255/3/1 256/4/1
f 257/17/1 258/18/1 259/19/1 260/20/1
f 261/13/1 262/14/1 263/15/1 264/16/1
f 265/13/1 266/14/1 267/15/1 268/16/1
f 269/5/1 270/6/1 271/7/1 272/8/1
f 273/13/1 274/14/1 275/15/1 276/16/1
f 277/1/1 278/2/1 279/3/1 280/4/1
f 281/1/1 282/2/1 283/3/1 284/4/1
f 285/5/1 286/6/1 287/7/1 288/8/1
f 289/9/1 290/10/1 291/11/1 292/12/1
f 293/17/1 294/18/1 295/19/1 296/20/1
f 297/5/1 298/6/1 299/7/1 300/8/1
f 301/9/1 302/10/1 303/11/1 304/12/1
f 305/1/1 306/2/1 307/3/1 308/4/1
f 309/1/1 310/2/1 311/3/1 312/4/1
f 313/5/1 314/6/1 315/7/1 316/8/1
f 317/13/1 318/14/1 319/15/1 320/16/1
f 321/1/1 322/2/1 323/3/1 324/4/1
f 325/13/1 326/14/1 327/15/1 328/16/1
f 329/5/1 330/6/1 331/7/1 332/8/1
f 333/5/1 334/6/1 335/7/1 336/8/1
f 337/1/1 338/2/1 339/3/1 340/4/1
f 341/17/1 342/18/1 343/19/1 344/20/1
f 345/9/1 346/10/1 347/11/1 348/12/1
f 349/5/1 350/6/1 351/7/1 352/8/1
f 353/5/1 354/6/1 355/7/1 356/8/1
f 357/17/1 358/18/1 359/19/1 360/20/1
f 361/13/1 362/14/1 363/15/1 364/16/1
f 365/1/1 366/2/1 367/3/1 368/4/1
f 369/9/1 370/10/1 371/11/1 372/12/1
f 373/5/1 374/6/1 375/7/1 376/8/1
f 377/9/1 378/10/1 379/11/1 380/12/1
f 381/9/1 382/10/1 383/11/1 384/12/1
f 385/5/1 386/6/1 387/7/1 388/8/1
f 389/13/1 390/14/1 391/15/1 392/16/1
f 393/1/1 394/2/1 395/3/1 396/4/1
f 397/9/1 398/10/1 399/11/1 400/12/1
f 401/13/1 402/14/1 403/15/1 404/16/1
f 405/17/1 406/18/1 407/19/1 408/20/1
f 409/13/1 410/14/1 411/15/1 412/16/1
f 413/1/1 414/2/1 415/3/1 416/4/1
f 417/21/1 418/22/1 419/23/1 420/24/1
f 421/5/1 422/6/1 423/7/1 424/8/1
f 425/13/1 426/14/1 427/15/1 428/16/1
f 429/5/1 430/6/1 431/7/1 432/8/1
f 433/25/1 434/26/1 435/27/1 436/28/1
f 437/17/1 438/18/1 439/19/1 440/20/1
f 441/17/1 442/18/1 443/19/1 444/20/1
f 445/1/1 446/2/1 447/3/1 448/4/1
f 449/9/1 450/10/1 451/11/1 452/12/1
f 453/21/1 454/22/1 455/23/1 456/24/1
f 457/21/1 458/22/1 459/23/1 460/24/1
f 461/21/1 462/22/1 463/23/1 464/24/1
f 465/21/1 466/22/1 467/23/1 468/24/1
f 469/21/1 470/22/1 471/23/1 472/24/1
f 473/9/1 474/10/1 475/11/1 476/12/1
f 477/9/1 478/10/1 479/11/1 480/12/1
f 481/17/1 482/18/1 483/19/1 484/20/1
f 485/5/1 486/6/1 487/7/1 488/8/1
f 489/1/1 490/2/1 491/3/1 492/4/1
f 493/1/1 494/2/1 495/3/1 496/4/1
f 497/1/1 498/2/1 499/3/1 500/4/1
f 501/13/1 502/14/1 503/15/1 504/16/1
f 505/25/1 506/26/1 507/27/1 508/28/1
f 509/25/1 510/26/1 511/27/1 512/28/1
f 513/25/1 514/26/1 515/27/1 516/28/1
f 517/25/1 518/26/1 519/27/1 520/28/1
f 521/25/1 522/26/1 523/27/1 524/28/1
f 525/13/1 526/14/1 527/15/1 528/16/1
f 529/13/1 530/14/1 531/15/1 532/16/1
f 533/5/1 534/6/1 535/7/1 536/8/1
f 537/5/1 538/6/1 539/7/1 540/8/1
f 541/5/1 542/6/1 543/7/1 544/8/1
f 545/9/1 546/10/1 547/11/1 548/12/1
f 549/21/1 550/22/1 551/23/1 552/24/1
f 553/21/1 554/22/1 555/23/1 556/24/1
f 557/1/1 558/2/1 559/3/1 560/4/1
f 561/1/1 562/2/1 563/3/1 564/4/1
f 565/13/1 566/14/1 567/15/1 568/16/1
f 569/25/1 570/26/1 571/27/1 572/28/1
f 573/25/1 574/26/1 575/27/1 576/28/1
f 577/9/1 578/10/1 579/11/1 580/12/1
f 581/5/1 582/6/1 583/7/1 584/8/1
f 585/9/1 586/10/1 587/11/1 588/12/1
f 589/1/1 590/2/1 591/3/1 592/4/1
f 593/1/1 594/2/1 595/3/1 596/4/1
f 597/5/1 598/6/1 599/7/1 600/8/1
f 601/21/1 602/22/1 603/23/1 604/24/1
f 605/13/1 606/14/1 607/15/1 608/16/1
f 609/1/1 610/2/1 611/3/1 612/4/1
f 613/13/1 614/14/1 615/15/1 616/16/1
f 617/5/1 618/6/1 619/7/1 620/8/1
f 621/1/1 622/2/1 623/3/1 624/4/1
f 625/1/1 626/2/1 627/3/1 628/4/1
f 629/9/1 630/10/1 631/11/1 632/12/1
f 633/5/1 634/6/1 635/7/1 636/8/1
f 637/9/1 638/10/1 639/11/1 640/12/1
f 641/1/1 642/2/1 643/3/1 644/4/1
f 645/1/1 646/2/1 647/3/1 648/4/1
f 649/25/1 650/26/1 651/27/1 652/28/1
f 653/1/1 654/2/1 655/3/1 656/4/1
f 657/5/1 658/6/1 659/7/1 660/8/1
f 661/5/1 662/6/1 663/7/1 664/8/1
f 665/5/1 666/6/1 667/7/1 668/8/1
f 669/13/1 670/14/1 671/15/1 672/16/1
f 673/17/1 674/18/1 675/19/1 676/20/1
f 677/1/1 678/2/1 679/3/1 680/4/1
f 681/9/1 682/10/1 683/11/1 684/12/1
f 685/13/1 686/14/1 687/15/1 688/16/1
f 689/1/1 690/2/1 691/3/1 692/4/1
f 693/5/1 694/6/1 695/7/1 696/8/1
f 697/5/1 698/6/1 699/7/1 700/8/1
f 701/17/1 702/18/1 703/19/1 704/20/1
f 705/1/1 706/2/1 707/3/1 708/4/1
f 709/5/1 710/6/1 711/7/1 712/8/1
f 713/5/1 714/6/1 715/7/1 716/8/1
f 717/13/1 718/14/1 719/15/1 720/16/1
f 721/5/1 722/6/1 723/7/1 724/8/1
f 725/1/1 726/2/1 727/3/1 728/4/1
f 729/5/1 730/6/1 731/7/1 732/8/1
f 733/1/1 734/2/1 735/3/1 736/4/1
f 737/9/1 738/10/1 739/11/1 740/12/1
f 741/5/1 742/6/1 743/7/1 744/8/1
f 745/9/1 746/10/1 747/11/1 748/12/1
f 749/5/1 750/6/1 751/7/1 752/8/1
f 753/13/1 754/14/1 755/15/1 756/16/1
f 757/13/1 758/14/1 759/15/1 760/16/1

