# Tiled2Unity generated file. Do not modify by hand.
# Wavefront file for 'WorldMap-(2)_mesh_0004.obj'

# Vertices (Count = 40)
v -560 -976 0
v -576 -976 0
v -576 -960 0
v -560 -960 0
v -560 -992 0
v -576 -992 0
v -576 -976 0
v -560 -976 0
v -560 -1008 0
v -576 -1008 0
v -576 -992 0
v -560 -992 0
v -1136 -1024 0
v -1152 -1024 0
v -1152 -1008 0
v -1136 -1008 0
v -1120 -1024 0
v -1136 -1024 0
v -1136 -1008 0
v -1120 -1008 0
v -560 -1024 0
v -576 -1024 0
v -576 -1008 0
v -560 -1008 0
v -1136 -1040 0
v -1152 -1040 0
v -1152 -1024 0
v -1136 -1024 0
v -1120 -1040 0
v -1136 -1040 0
v -1136 -1024 0
v -1120 -1024 0
v -560 -1040 0
v -576 -1040 0
v -576 -1024 0
v -560 -1024 0
v -1120 -1056 0
v -1136 -1056 0
v -1136 -1040 0
v -1120 -1040 0

# Texture cooridinates (Count = 8)
vt 0.1404959 0.8403042
vt 0.1570248 0.8403042
vt 0.1570248 0.8707224
vt 0.1404959 0.8707224
vt 0.05268595 0.4524715
vt 0.06921487 0.4524715
vt 0.06921487 0.4828897
vt 0.05268595 0.4828897

# Normal
vn 0 0 -1

# Mesh description
g WorldMap-(2)_mesh_0004

# Faces
f 1/1/1 2/2/1 3/3/1 4/4/1
f 5/1/1 6/2/1 7/3/1 8/4/1
f 9/1/1 10/2/1 11/3/1 12/4/1
f 13/5/1 14/6/1 15/7/1 16/8/1
f 17/5/1 18/6/1 19/7/1 20/8/1
f 21/1/1 22/2/1 23/3/1 24/4/1
f 25/5/1 26/6/1 27/7/1 28/8/1
f 29/5/1 30/6/1 31/7/1 32/8/1
f 33/1/1 34/2/1 35/3/1 36/4/1
f 37/5/1 38/6/1 39/7/1 40/8/1

