# Tiled2Unity generated file. Do not modify by hand.
# Wavefront file for 'CentralHall_mesh_0010.obj'

# Vertices (Count = 564)
v -43.73334 -38.4 0
v -44.8 -38.4 0
v -44.8 -37.33334 0
v -43.73334 -37.33334 0
v -44.8 -38.4 0
v -45.86667 -38.4 0
v -45.86667 -37.33334 0
v -44.8 -37.33334 0
v -45.86667 -38.4 0
v -46.93333 -38.4 0
v -46.93333 -37.33334 0
v -45.86667 -37.33334 0
v -46.93333 -38.4 0
v -48 -38.4 0
v -48 -37.33334 0
v -46.93333 -37.33334 0
v -48 -38.4 0
v -49.06667 -38.4 0
v -49.06667 -37.33334 0
v -48 -37.33334 0
v -49.06667 -38.4 0
v -50.13334 -38.4 0
v -50.13334 -37.33334 0
v -49.06667 -37.33334 0
v -50.13334 -38.4 0
v -51.2 -38.4 0
v -51.2 -37.33334 0
v -50.13334 -37.33334 0
v -51.2 -38.4 0
v -52.26667 -38.4 0
v -52.26667 -37.33334 0
v -51.2 -37.33334 0
v -52.26667 -38.4 0
v -53.33334 -38.4 0
v -53.33334 -37.33334 0
v -52.26667 -37.33334 0
v -53.33334 -38.4 0
v -54.4 -38.4 0
v -54.4 -37.33334 0
v -53.33334 -37.33334 0
v -54.4 -38.4 0
v -55.46667 -38.4 0
v -55.46667 -37.33334 0
v -54.4 -37.33334 0
v -55.46667 -38.4 0
v -56.53334 -38.4 0
v -56.53334 -37.33334 0
v -55.46667 -37.33334 0
v -56.53334 -38.4 0
v -57.6 -38.4 0
v -57.6 -37.33334 0
v -56.53334 -37.33334 0
v -37.33334 -39.46667 0
v -38.4 -39.46667 0
v -38.4 -38.4 0
v -37.33334 -38.4 0
v -39.46667 -39.46667 0
v -40.53334 -39.46667 0
v -40.53334 -38.4 0
v -39.46667 -38.4 0
v -40.53334 -39.46667 0
v -41.6 -39.46667 0
v -41.6 -38.4 0
v -40.53334 -38.4 0
v -41.6 -39.46667 0
v -42.66667 -39.46667 0
v -42.66667 -38.4 0
v -41.6 -38.4 0
v -43.73334 -39.46667 0
v -44.8 -39.46667 0
v -44.8 -38.4 0
v -43.73334 -38.4 0
v -44.8 -39.46667 0
v -45.86667 -39.46667 0
v -45.86667 -38.4 0
v -44.8 -38.4 0
v -45.86667 -39.46667 0
v -46.93333 -39.46667 0
v -46.93333 -38.4 0
v -45.86667 -38.4 0
v -46.93333 -39.46667 0
v -48 -39.46667 0
v -48 -38.4 0
v -46.93333 -38.4 0
v -48 -39.46667 0
v -49.06667 -39.46667 0
v -49.06667 -38.4 0
v -48 -38.4 0
v -49.06667 -39.46667 0
v -50.13334 -39.46667 0
v -50.13334 -38.4 0
v -49.06667 -38.4 0
v -50.13334 -39.46667 0
v -51.2 -39.46667 0
v -51.2 -38.4 0
v -50.13334 -38.4 0
v -51.2 -39.46667 0
v -52.26667 -39.46667 0
v -52.26667 -38.4 0
v -51.2 -38.4 0
v -52.26667 -39.46667 0
v -53.33334 -39.46667 0
v -53.33334 -38.4 0
v -52.26667 -38.4 0
v -53.33334 -39.46667 0
v -54.4 -39.46667 0
v -54.4 -38.4 0
v -53.33334 -38.4 0
v -54.4 -39.46667 0
v -55.46667 -39.46667 0
v -55.46667 -38.4 0
v -54.4 -38.4 0
v -55.46667 -39.46667 0
v -56.53334 -39.46667 0
v -56.53334 -38.4 0
v -55.46667 -38.4 0
v -56.53334 -39.46667 0
v -57.6 -39.46667 0
v -57.6 -38.4 0
v -56.53334 -38.4 0
v -59.73334 -39.46667 0
v -60.8 -39.46667 0
v -60.8 -38.4 0
v -59.73334 -38.4 0
v -60.8 -39.46667 0
v -61.86667 -39.46667 0
v -61.86667 -38.4 0
v -60.8 -38.4 0
v -61.86667 -39.46667 0
v -62.93334 -39.46667 0
v -62.93334 -38.4 0
v -61.86667 -38.4 0
v -62.93334 -39.46667 0
v -64 -39.46667 0
v -64 -38.4 0
v -62.93334 -38.4 0
v -37.33334 -40.53334 0
v -38.4 -40.53334 0
v -38.4 -39.46667 0
v -37.33334 -39.46667 0
v -38.4 -40.53334 0
v -39.46667 -40.53334 0
v -39.46667 -39.46667 0
v -38.4 -39.46667 0
v -39.46667 -40.53334 0
v -40.53334 -40.53334 0
v -40.53334 -39.46667 0
v -39.46667 -39.46667 0
v -40.53334 -40.53334 0
v -41.6 -40.53334 0
v -41.6 -39.46667 0
v -40.53334 -39.46667 0
v -41.6 -40.53334 0
v -42.66667 -40.53334 0
v -42.66667 -39.46667 0
v -41.6 -39.46667 0
v -43.73334 -40.53334 0
v -44.8 -40.53334 0
v -44.8 -39.46667 0
v -43.73334 -39.46667 0
v -44.8 -40.53334 0
v -45.86667 -40.53334 0
v -45.86667 -39.46667 0
v -44.8 -39.46667 0
v -45.86667 -40.53334 0
v -46.93333 -40.53334 0
v -46.93333 -39.46667 0
v -45.86667 -39.46667 0
v -46.93333 -40.53334 0
v -48 -40.53334 0
v -48 -39.46667 0
v -46.93333 -39.46667 0
v -48 -40.53334 0
v -49.06667 -40.53334 0
v -49.06667 -39.46667 0
v -48 -39.46667 0
v -49.06667 -40.53334 0
v -50.13334 -40.53334 0
v -50.13334 -39.46667 0
v -49.06667 -39.46667 0
v -50.13334 -40.53334 0
v -51.2 -40.53334 0
v -51.2 -39.46667 0
v -50.13334 -39.46667 0
v -51.2 -40.53334 0
v -52.26667 -40.53334 0
v -52.26667 -39.46667 0
v -51.2 -39.46667 0
v -52.26667 -40.53334 0
v -53.33334 -40.53334 0
v -53.33334 -39.46667 0
v -52.26667 -39.46667 0
v -53.33334 -40.53334 0
v -54.4 -40.53334 0
v -54.4 -39.46667 0
v -53.33334 -39.46667 0
v -54.4 -40.53334 0
v -55.46667 -40.53334 0
v -55.46667 -39.46667 0
v -54.4 -39.46667 0
v -55.46667 -40.53334 0
v -56.53334 -40.53334 0
v -56.53334 -39.46667 0
v -55.46667 -39.46667 0
v -56.53334 -40.53334 0
v -57.6 -40.53334 0
v -57.6 -39.46667 0
v -56.53334 -39.46667 0
v -58.66667 -40.53334 0
v -59.73334 -40.53334 0
v -59.73334 -39.46667 0
v -58.66667 -39.46667 0
v -59.73334 -40.53334 0
v -60.8 -40.53334 0
v -60.8 -39.46667 0
v -59.73334 -39.46667 0
v -60.8 -40.53334 0
v -61.86667 -40.53334 0
v -61.86667 -39.46667 0
v -60.8 -39.46667 0
v -61.86667 -40.53334 0
v -62.93334 -40.53334 0
v -62.93334 -39.46667 0
v -61.86667 -39.46667 0
v -62.93334 -40.53334 0
v -64 -40.53334 0
v -64 -39.46667 0
v -62.93334 -39.46667 0
v -37.33334 -41.6 0
v -38.4 -41.6 0
v -38.4 -40.53334 0
v -37.33334 -40.53334 0
v -38.4 -41.6 0
v -39.46667 -41.6 0
v -39.46667 -40.53334 0
v -38.4 -40.53334 0
v -39.46667 -41.6 0
v -40.53334 -41.6 0
v -40.53334 -40.53334 0
v -39.46667 -40.53334 0
v -43.73334 -41.6 0
v -44.8 -41.6 0
v -44.8 -40.53334 0
v -43.73334 -40.53334 0
v -44.8 -41.6 0
v -45.86667 -41.6 0
v -45.86667 -40.53334 0
v -44.8 -40.53334 0
v -45.86667 -41.6 0
v -46.93333 -41.6 0
v -46.93333 -40.53334 0
v -45.86667 -40.53334 0
v -46.93333 -41.6 0
v -48 -41.6 0
v -48 -40.53334 0
v -46.93333 -40.53334 0
v -48 -41.6 0
v -49.06667 -41.6 0
v -49.06667 -40.53334 0
v -48 -40.53334 0
v -49.06667 -41.6 0
v -50.13334 -41.6 0
v -50.13334 -40.53334 0
v -49.06667 -40.53334 0
v -50.13334 -41.6 0
v -51.2 -41.6 0
v -51.2 -40.53334 0
v -50.13334 -40.53334 0
v -51.2 -41.6 0
v -52.26667 -41.6 0
v -52.26667 -40.53334 0
v -51.2 -40.53334 0
v -52.26667 -41.6 0
v -53.33334 -41.6 0
v -53.33334 -40.53334 0
v -52.26667 -40.53334 0
v -53.33334 -41.6 0
v -54.4 -41.6 0
v -54.4 -40.53334 0
v -53.33334 -40.53334 0
v -54.4 -41.6 0
v -55.46667 -41.6 0
v -55.46667 -40.53334 0
v -54.4 -40.53334 0
v -55.46667 -41.6 0
v -56.53334 -41.6 0
v -56.53334 -40.53334 0
v -55.46667 -40.53334 0
v -56.53334 -41.6 0
v -57.6 -41.6 0
v -57.6 -40.53334 0
v -56.53334 -40.53334 0
v -58.66667 -41.6 0
v -59.73334 -41.6 0
v -59.73334 -40.53334 0
v -58.66667 -40.53334 0
v -59.73334 -41.6 0
v -60.8 -41.6 0
v -60.8 -40.53334 0
v -59.73334 -40.53334 0
v -60.8 -41.6 0
v -61.86667 -41.6 0
v -61.86667 -40.53334 0
v -60.8 -40.53334 0
v -61.86667 -41.6 0
v -62.93334 -41.6 0
v -62.93334 -40.53334 0
v -61.86667 -40.53334 0
v -62.93334 -41.6 0
v -64 -41.6 0
v -64 -40.53334 0
v -62.93334 -40.53334 0
v -37.33334 -42.66667 0
v -38.4 -42.66667 0
v -38.4 -41.6 0
v -37.33334 -41.6 0
v -38.4 -42.66667 0
v -39.46667 -42.66667 0
v -39.46667 -41.6 0
v -38.4 -41.6 0
v -39.46667 -42.66667 0
v -40.53334 -42.66667 0
v -40.53334 -41.6 0
v -39.46667 -41.6 0
v -40.53334 -42.66667 0
v -41.6 -42.66667 0
v -41.6 -41.6 0
v -40.53334 -41.6 0
v -43.73334 -42.66667 0
v -44.8 -42.66667 0
v -44.8 -41.6 0
v -43.73334 -41.6 0
v -44.8 -42.66667 0
v -45.86667 -42.66667 0
v -45.86667 -41.6 0
v -44.8 -41.6 0
v -45.86667 -42.66667 0
v -46.93333 -42.66667 0
v -46.93333 -41.6 0
v -45.86667 -41.6 0
v -46.93333 -42.66667 0
v -48 -42.66667 0
v -48 -41.6 0
v -46.93333 -41.6 0
v -48 -42.66667 0
v -49.06667 -42.66667 0
v -49.06667 -41.6 0
v -48 -41.6 0
v -49.06667 -42.66667 0
v -50.13334 -42.66667 0
v -50.13334 -41.6 0
v -49.06667 -41.6 0
v -50.13334 -42.66667 0
v -51.2 -42.66667 0
v -51.2 -41.6 0
v -50.13334 -41.6 0
v -51.2 -42.66667 0
v -52.26667 -42.66667 0
v -52.26667 -41.6 0
v -51.2 -41.6 0
v -52.26667 -42.66667 0
v -53.33334 -42.66667 0
v -53.33334 -41.6 0
v -52.26667 -41.6 0
v -53.33334 -42.66667 0
v -54.4 -42.66667 0
v -54.4 -41.6 0
v -53.33334 -41.6 0
v -54.4 -42.66667 0
v -55.46667 -42.66667 0
v -55.46667 -41.6 0
v -54.4 -41.6 0
v -55.46667 -42.66667 0
v -56.53334 -42.66667 0
v -56.53334 -41.6 0
v -55.46667 -41.6 0
v -56.53334 -42.66667 0
v -57.6 -42.66667 0
v -57.6 -41.6 0
v -56.53334 -41.6 0
v -58.66667 -42.66667 0
v -59.73334 -42.66667 0
v -59.73334 -41.6 0
v -58.66667 -41.6 0
v -59.73334 -42.66667 0
v -60.8 -42.66667 0
v -60.8 -41.6 0
v -59.73334 -41.6 0
v -61.86667 -42.66667 0
v -62.93334 -42.66667 0
v -62.93334 -41.6 0
v -61.86667 -41.6 0
v -62.93334 -42.66667 0
v -64 -42.66667 0
v -64 -41.6 0
v -62.93334 -41.6 0
v -37.33334 -43.73334 0
v -38.4 -43.73334 0
v -38.4 -42.66667 0
v -37.33334 -42.66667 0
v -39.46667 -43.73334 0
v -40.53334 -43.73334 0
v -40.53334 -42.66667 0
v -39.46667 -42.66667 0
v -40.53334 -43.73334 0
v -41.6 -43.73334 0
v -41.6 -42.66667 0
v -40.53334 -42.66667 0
v -41.6 -43.73334 0
v -42.66667 -43.73334 0
v -42.66667 -42.66667 0
v -41.6 -42.66667 0
v -43.73334 -43.73334 0
v -44.8 -43.73334 0
v -44.8 -42.66667 0
v -43.73334 -42.66667 0
v -44.8 -43.73334 0
v -45.86667 -43.73334 0
v -45.86667 -42.66667 0
v -44.8 -42.66667 0
v -45.86667 -43.73334 0
v -46.93333 -43.73334 0
v -46.93333 -42.66667 0
v -45.86667 -42.66667 0
v -46.93333 -43.73334 0
v -48 -43.73334 0
v -48 -42.66667 0
v -46.93333 -42.66667 0
v -48 -43.73334 0
v -49.06667 -43.73334 0
v -49.06667 -42.66667 0
v -48 -42.66667 0
v -49.06667 -43.73334 0
v -50.13334 -43.73334 0
v -50.13334 -42.66667 0
v -49.06667 -42.66667 0
v -50.13334 -43.73334 0
v -51.2 -43.73334 0
v -51.2 -42.66667 0
v -50.13334 -42.66667 0
v -51.2 -43.73334 0
v -52.26667 -43.73334 0
v -52.26667 -42.66667 0
v -51.2 -42.66667 0
v -52.26667 -43.73334 0
v -53.33334 -43.73334 0
v -53.33334 -42.66667 0
v -52.26667 -42.66667 0
v -53.33334 -43.73334 0
v -54.4 -43.73334 0
v -54.4 -42.66667 0
v -53.33334 -42.66667 0
v -54.4 -43.73334 0
v -55.46667 -43.73334 0
v -55.46667 -42.66667 0
v -54.4 -42.66667 0
v -55.46667 -43.73334 0
v -56.53334 -43.73334 0
v -56.53334 -42.66667 0
v -55.46667 -42.66667 0
v -56.53334 -43.73334 0
v -57.6 -43.73334 0
v -57.6 -42.66667 0
v -56.53334 -42.66667 0
v -59.73334 -43.73334 0
v -60.8 -43.73334 0
v -60.8 -42.66667 0
v -59.73334 -42.66667 0
v -60.8 -43.73334 0
v -61.86667 -43.73334 0
v -61.86667 -42.66667 0
v -60.8 -42.66667 0
v -61.86667 -43.73334 0
v -62.93334 -43.73334 0
v -62.93334 -42.66667 0
v -61.86667 -42.66667 0
v -37.33334 -44.8 0
v -38.4 -44.8 0
v -38.4 -43.73334 0
v -37.33334 -43.73334 0
v -38.4 -44.8 0
v -39.46667 -44.8 0
v -39.46667 -43.73334 0
v -38.4 -43.73334 0
v -39.46667 -44.8 0
v -40.53334 -44.8 0
v -40.53334 -43.73334 0
v -39.46667 -43.73334 0
v -40.53334 -44.8 0
v -41.6 -44.8 0
v -41.6 -43.73334 0
v -40.53334 -43.73334 0
v -41.6 -44.8 0
v -42.66667 -44.8 0
v -42.66667 -43.73334 0
v -41.6 -43.73334 0
v -43.73334 -44.8 0
v -44.8 -44.8 0
v -44.8 -43.73334 0
v -43.73334 -43.73334 0
v -44.8 -44.8 0
v -45.86667 -44.8 0
v -45.86667 -43.73334 0
v -44.8 -43.73334 0
v -45.86667 -44.8 0
v -46.93333 -44.8 0
v -46.93333 -43.73334 0
v -45.86667 -43.73334 0
v -46.93333 -44.8 0
v -48 -44.8 0
v -48 -43.73334 0
v -46.93333 -43.73334 0
v -48 -44.8 0
v -49.06667 -44.8 0
v -49.06667 -43.73334 0
v -48 -43.73334 0
v -49.06667 -44.8 0
v -50.13334 -44.8 0
v -50.13334 -43.73334 0
v -49.06667 -43.73334 0
v -50.13334 -44.8 0
v -51.2 -44.8 0
v -51.2 -43.73334 0
v -50.13334 -43.73334 0
v -51.2 -44.8 0
v -52.26667 -44.8 0
v -52.26667 -43.73334 0
v -51.2 -43.73334 0
v -52.26667 -44.8 0
v -53.33334 -44.8 0
v -53.33334 -43.73334 0
v -52.26667 -43.73334 0
v -53.33334 -44.8 0
v -54.4 -44.8 0
v -54.4 -43.73334 0
v -53.33334 -43.73334 0
v -54.4 -44.8 0
v -55.46667 -44.8 0
v -55.46667 -43.73334 0
v -54.4 -43.73334 0
v -55.46667 -44.8 0
v -56.53334 -44.8 0
v -56.53334 -43.73334 0
v -55.46667 -43.73334 0
v -56.53334 -44.8 0
v -57.6 -44.8 0
v -57.6 -43.73334 0
v -56.53334 -43.73334 0
v -59.73334 -44.8 0
v -60.8 -44.8 0
v -60.8 -43.73334 0
v -59.73334 -43.73334 0
v -60.8 -44.8 0
v -61.86667 -44.8 0
v -61.86667 -43.73334 0
v -60.8 -43.73334 0
v -61.86667 -44.8 0
v -62.93334 -44.8 0
v -62.93334 -43.73334 0
v -61.86667 -43.73334 0
v -62.93334 -44.8 0
v -64 -44.8 0
v -64 -43.73334 0
v -62.93334 -43.73334 0

# Texture cooridinates (Count = 36)
vt 0.6673554 0.2908745
vt 0.6838843 0.2908745
vt 0.6838843 0.3212928
vt 0.6673554 0.3212928
vt 0.6849173 0.2908745
vt 0.7014463 0.2908745
vt 0.7014463 0.3212928
vt 0.6849173 0.3212928
vt 0.7024794 0.2908745
vt 0.7190083 0.2908745
vt 0.7190083 0.3212928
vt 0.7024794 0.3212928
vt 0.3688017 0.904943
vt 0.3853306 0.904943
vt 0.3853306 0.9353612
vt 0.3688017 0.9353612
vt 0.6673554 0.2585551
vt 0.6838843 0.2585551
vt 0.6838843 0.2889734
vt 0.6673554 0.2889734
vt 0.6849173 0.2585551
vt 0.7014463 0.2585551
vt 0.7014463 0.2889734
vt 0.6849173 0.2889734
vt 0.7024794 0.2585551
vt 0.7190083 0.2585551
vt 0.7190083 0.2889734
vt 0.7024794 0.2889734
vt 0.3863636 0.8726236
vt 0.4028926 0.8726236
vt 0.4028926 0.9030418
vt 0.3863636 0.9030418
vt 0.7727273 0.5494297
vt 0.7892562 0.5494297
vt 0.7892562 0.5798479
vt 0.7727273 0.5798479

# Normal
vn 0 0 -1

# Mesh description
g CentralHall_mesh_0010

# Faces
f 1/1/1 2/2/1 3/3/1 4/4/1
f 5/5/1 6/6/1 7/7/1 8/8/1
f 9/5/1 10/6/1 11/7/1 12/8/1
f 13/5/1 14/6/1 15/7/1 16/8/1
f 17/5/1 18/6/1 19/7/1 20/8/1
f 21/5/1 22/6/1 23/7/1 24/8/1
f 25/5/1 26/6/1 27/7/1 28/8/1
f 29/5/1 30/6/1 31/7/1 32/8/1
f 33/5/1 34/6/1 35/7/1 36/8/1
f 37/5/1 38/6/1 39/7/1 40/8/1
f 41/5/1 42/6/1 43/7/1 44/8/1
f 45/5/1 46/6/1 47/7/1 48/8/1
f 49/9/1 50/10/1 51/11/1 52/12/1
f 53/13/1 54/14/1 55/15/1 56/16/1
f 57/13/1 58/14/1 59/15/1 60/16/1
f 61/13/1 62/14/1 63/15/1 64/16/1
f 65/13/1 66/14/1 67/15/1 68/16/1
f 69/17/1 70/18/1 71/19/1 72/20/1
f 73/21/1 74/22/1 75/23/1 76/24/1
f 77/21/1 78/22/1 79/23/1 80/24/1
f 81/21/1 82/22/1 83/23/1 84/24/1
f 85/21/1 86/22/1 87/23/1 88/24/1
f 89/21/1 90/22/1 91/23/1 92/24/1
f 93/21/1 94/22/1 95/23/1 96/24/1
f 97/21/1 98/22/1 99/23/1 100/24/1
f 101/21/1 102/22/1 103/23/1 104/24/1
f 105/21/1 106/22/1 107/23/1 108/24/1
f 109/21/1 110/22/1 111/23/1 112/24/1
f 113/21/1 114/22/1 115/23/1 116/24/1
f 117/25/1 118/26/1 119/27/1 120/28/1
f 121/29/1 122/30/1 123/31/1 124/32/1
f 125/29/1 126/30/1 127/31/1 128/32/1
f 129/29/1 130/30/1 131/31/1 132/32/1
f 133/29/1 134/30/1 135/31/1 136/32/1
f 137/13/1 138/14/1 139/15/1 140/16/1
f 141/13/1 142/14/1 143/15/1 144/16/1
f 145/13/1 146/14/1 147/15/1 148/16/1
f 149/13/1 150/14/1 151/15/1 152/16/1
f 153/13/1 154/14/1 155/15/1 156/16/1
f 157/17/1 158/18/1 159/19/1 160/20/1
f 161/21/1 162/22/1 163/23/1 164/24/1
f 165/21/1 166/22/1 167/23/1 168/24/1
f 169/21/1 170/22/1 171/23/1 172/24/1
f 173/21/1 174/22/1 175/23/1 176/24/1
f 177/21/1 178/22/1 179/23/1 180/24/1
f 181/33/1 182/34/1 183/35/1 184/36/1
f 185/21/1 186/22/1 187/23/1 188/24/1
f 189/21/1 190/22/1 191/23/1 192/24/1
f 193/21/1 194/22/1 195/23/1 196/24/1
f 197/21/1 198/22/1 199/23/1 200/24/1
f 201/21/1 202/22/1 203/23/1 204/24/1
f 205/25/1 206/26/1 207/27/1 208/28/1
f 209/29/1 210/30/1 211/31/1 212/32/1
f 213/29/1 214/30/1 215/31/1 216/32/1
f 217/29/1 218/30/1 219/31/1 220/32/1
f 221/29/1 222/30/1 223/31/1 224/32/1
f 225/29/1 226/30/1 227/31/1 228/32/1
f 229/13/1 230/14/1 231/15/1 232/16/1
f 233/13/1 234/14/1 235/15/1 236/16/1
f 237/13/1 238/14/1 239/15/1 240/16/1
f 241/17/1 242/18/1 243/19/1 244/20/1
f 245/21/1 246/22/1 247/23/1 248/24/1
f 249/21/1 250/22/1 251/23/1 252/24/1
f 253/21/1 254/22/1 255/23/1 256/24/1
f 257/21/1 258/22/1 259/23/1 260/24/1
f 261/21/1 262/22/1 263/23/1 264/24/1
f 265/21/1 266/22/1 267/23/1 268/24/1
f 269/21/1 270/22/1 271/23/1 272/24/1
f 273/21/1 274/22/1 275/23/1 276/24/1
f 277/21/1 278/22/1 279/23/1 280/24/1
f 281/21/1 282/22/1 283/23/1 284/24/1
f 285/21/1 286/22/1 287/23/1 288/24/1
f 289/25/1 290/26/1 291/27/1 292/28/1
f 293/29/1 294/30/1 295/31/1 296/32/1
f 297/29/1 298/30/1 299/31/1 300/32/1
f 301/29/1 302/30/1 303/31/1 304/32/1
f 305/29/1 306/30/1 307/31/1 308/32/1
f 309/29/1 310/30/1 311/31/1 312/32/1
f 313/13/1 314/14/1 315/15/1 316/16/1
f 317/13/1 318/14/1 319/15/1 320/16/1
f 321/13/1 322/14/1 323/15/1 324/16/1
f 325/13/1 326/14/1 327/15/1 328/16/1
f 329/17/1 330/18/1 331/19/1 332/20/1
f 333/21/1 334/22/1 335/23/1 336/24/1
f 337/21/1 338/22/1 339/23/1 340/24/1
f 341/21/1 342/22/1 343/23/1 344/24/1
f 345/21/1 346/22/1 347/23/1 348/24/1
f 349/21/1 350/22/1 351/23/1 352/24/1
f 353/21/1 354/22/1 355/23/1 356/24/1
f 357/21/1 358/22/1 359/23/1 360/24/1
f 361/21/1 362/22/1 363/23/1 364/24/1
f 365/21/1 366/22/1 367/23/1 368/24/1
f 369/21/1 370/22/1 371/23/1 372/24/1
f 373/21/1 374/22/1 375/23/1 376/24/1
f 377/25/1 378/26/1 379/27/1 380/28/1
f 381/29/1 382/30/1 383/31/1 384/32/1
f 385/29/1 386/30/1 387/31/1 388/32/1
f 389/29/1 390/30/1 391/31/1 392/32/1
f 393/29/1 394/30/1 395/31/1 396/32/1
f 397/13/1 398/14/1 399/15/1 400/16/1
f 401/13/1 402/14/1 403/15/1 404/16/1
f 405/13/1 406/14/1 407/15/1 408/16/1
f 409/13/1 410/14/1 411/15/1 412/16/1
f 413/17/1 414/18/1 415/19/1 416/20/1
f 417/21/1 418/22/1 419/23/1 420/24/1
f 421/21/1 422/22/1 423/23/1 424/24/1
f 425/21/1 426/22/1 427/23/1 428/24/1
f 429/21/1 430/22/1 431/23/1 432/24/1
f 433/21/1 434/22/1 435/23/1 436/24/1
f 437/21/1 438/22/1 439/23/1 440/24/1
f 441/21/1 442/22/1 443/23/1 444/24/1
f 445/21/1 446/22/1 447/23/1 448/24/1
f 449/21/1 450/22/1 451/23/1 452/24/1
f 453/21/1 454/22/1 455/23/1 456/24/1
f 457/21/1 458/22/1 459/23/1 460/24/1
f 461/25/1 462/26/1 463/27/1 464/28/1
f 465/29/1 466/30/1 467/31/1 468/32/1
f 469/29/1 470/30/1 471/31/1 472/32/1
f 473/29/1 474/30/1 475/31/1 476/32/1
f 477/13/1 478/14/1 479/15/1 480/16/1
f 481/13/1 482/14/1 483/15/1 484/16/1
f 485/13/1 486/14/1 487/15/1 488/16/1
f 489/13/1 490/14/1 491/15/1 492/16/1
f 493/13/1 494/14/1 495/15/1 496/16/1
f 497/17/1 498/18/1 499/19/1 500/20/1
f 501/21/1 502/22/1 503/23/1 504/24/1
f 505/21/1 506/22/1 507/23/1 508/24/1
f 509/21/1 510/22/1 511/23/1 512/24/1
f 513/21/1 514/22/1 515/23/1 516/24/1
f 517/21/1 518/22/1 519/23/1 520/24/1
f 521/21/1 522/22/1 523/23/1 524/24/1
f 525/21/1 526/22/1 527/23/1 528/24/1
f 529/21/1 530/22/1 531/23/1 532/24/1
f 533/21/1 534/22/1 535/23/1 536/24/1
f 537/21/1 538/22/1 539/23/1 540/24/1
f 541/21/1 542/22/1 543/23/1 544/24/1
f 545/25/1 546/26/1 547/27/1 548/28/1
f 549/29/1 550/30/1 551/31/1 552/32/1
f 553/29/1 554/30/1 555/31/1 556/32/1
f 557/29/1 558/30/1 559/31/1 560/32/1
f 561/29/1 562/30/1 563/31/1 564/32/1

