# Tiled2Unity generated file. Do not modify by hand.
# Wavefront file for 'CentralHall_mesh_0011.obj'

# Vertices (Count = 64)
v -45.86667 -23.46667 0
v -46.93333 -23.46667 0
v -46.93333 -22.4 0
v -45.86667 -22.4 0
v -55.46667 -24.53333 0
v -56.53334 -24.53333 0
v -56.53334 -23.46667 0
v -55.46667 -23.46667 0
v -50.13334 -26.66667 0
v -51.2 -26.66667 0
v -51.2 -25.6 0
v -50.13334 -25.6 0
v -58.66667 -28.8 0
v -59.73334 -28.8 0
v -59.73334 -27.73334 0
v -58.66667 -27.73334 0
v -39.46667 -29.86667 0
v -40.53334 -29.86667 0
v -40.53334 -28.8 0
v -39.46667 -28.8 0
v -53.33334 -29.86667 0
v -54.4 -29.86667 0
v -54.4 -28.8 0
v -53.33334 -28.8 0
v -48 -30.93333 0
v -49.06667 -30.93333 0
v -49.06667 -29.86667 0
v -48 -29.86667 0
v -41.6 -32 0
v -42.66667 -32 0
v -42.66667 -30.93333 0
v -41.6 -30.93333 0
v -41.6 -34.13334 0
v -42.66667 -34.13334 0
v -42.66667 -33.06667 0
v -41.6 -33.06667 0
v -59.73334 -34.13334 0
v -60.8 -34.13334 0
v -60.8 -33.06667 0
v -59.73334 -33.06667 0
v -54.4 -36.26667 0
v -55.46667 -36.26667 0
v -55.46667 -35.2 0
v -54.4 -35.2 0
v -60.8 -37.33334 0
v -61.86667 -37.33334 0
v -61.86667 -36.26667 0
v -60.8 -36.26667 0
v -38.4 -38.4 0
v -39.46667 -38.4 0
v -39.46667 -37.33334 0
v -38.4 -37.33334 0
v -54.4 -39.46667 0
v -55.46667 -39.46667 0
v -55.46667 -38.4 0
v -54.4 -38.4 0
v -60.8 -42.66667 0
v -61.86667 -42.66667 0
v -61.86667 -41.6 0
v -60.8 -41.6 0
v -46.93333 -44.8 0
v -48 -44.8 0
v -48 -43.73334 0
v -46.93333 -43.73334 0

# Texture cooridinates (Count = 8)
vt 0.2418699 0.947541
vt 0.2743903 0.947541
vt 0.2743903 1
vt 0.2418699 1
vt 0.2418699 0.8918033
vt 0.2743903 0.8918033
vt 0.2743903 0.9442623
vt 0.2418699 0.9442623

# Normal
vn 0 0 -1

# Mesh description
g CentralHall_mesh_0011

# Faces
f 1/1/1 2/2/1 3/3/1 4/4/1
f 5/5/1 6/6/1 7/7/1 8/8/1
f 9/1/1 10/2/1 11/3/1 12/4/1
f 13/5/1 14/6/1 15/7/1 16/8/1
f 17/5/1 18/6/1 19/7/1 20/8/1
f 21/1/1 22/2/1 23/3/1 24/4/1
f 25/5/1 26/6/1 27/7/1 28/8/1
f 29/5/1 30/6/1 31/7/1 32/8/1
f 33/1/1 34/2/1 35/3/1 36/4/1
f 37/1/1 38/2/1 39/3/1 40/4/1
f 41/5/1 42/6/1 43/7/1 44/8/1
f 45/5/1 46/6/1 47/7/1 48/8/1
f 49/1/1 50/2/1 51/3/1 52/4/1
f 53/1/1 54/2/1 55/3/1 56/4/1
f 57/1/1 58/2/1 59/3/1 60/4/1
f 61/5/1 62/6/1 63/7/1 64/8/1

