# Tiled2Unity generated file. Do not modify by hand.
# Wavefront file for 'Biology_mesh_0005.obj'

# Vertices (Count = 356)
v -26.66667 -23.46667 0
v -27.73334 -23.46667 0
v -27.73334 -22.4 0
v -26.66667 -22.4 0
v -27.73334 -23.46667 0
v -28.8 -23.46667 0
v -28.8 -22.4 0
v -27.73334 -22.4 0
v -28.8 -23.46667 0
v -29.86667 -23.46667 0
v -29.86667 -22.4 0
v -28.8 -22.4 0
v -29.86667 -23.46667 0
v -30.93333 -23.46667 0
v -30.93333 -22.4 0
v -29.86667 -22.4 0
v -30.93333 -23.46667 0
v -32 -23.46667 0
v -32 -22.4 0
v -30.93333 -22.4 0
v -32 -23.46667 0
v -33.06667 -23.46667 0
v -33.06667 -22.4 0
v -32 -22.4 0
v -33.06667 -23.46667 0
v -34.13334 -23.46667 0
v -34.13334 -22.4 0
v -33.06667 -22.4 0
v -41.6 -23.46667 0
v -42.66667 -23.46667 0
v -42.66667 -22.4 0
v -41.6 -22.4 0
v -42.66667 -23.46667 0
v -43.73334 -23.46667 0
v -43.73334 -22.4 0
v -42.66667 -22.4 0
v -43.73334 -23.46667 0
v -44.8 -23.46667 0
v -44.8 -22.4 0
v -43.73334 -22.4 0
v -44.8 -23.46667 0
v -45.86667 -23.46667 0
v -45.86667 -22.4 0
v -44.8 -22.4 0
v -48 -23.46667 0
v -49.06667 -23.46667 0
v -49.06667 -22.4 0
v -48 -22.4 0
v -52.26667 -23.46667 0
v -53.33334 -23.46667 0
v -53.33334 -22.4 0
v -52.26667 -22.4 0
v -53.33334 -23.46667 0
v -54.4 -23.46667 0
v -54.4 -22.4 0
v -53.33334 -22.4 0
v -55.46667 -23.46667 0
v -56.53334 -23.46667 0
v -56.53334 -22.4 0
v -55.46667 -22.4 0
v -59.73334 -23.46667 0
v -60.8 -23.46667 0
v -60.8 -22.4 0
v -59.73334 -22.4 0
v -64 -23.46667 0
v -65.06667 -23.46667 0
v -65.06667 -22.4 0
v -64 -22.4 0
v -27.73334 -24.53333 0
v -28.8 -24.53333 0
v -28.8 -23.46667 0
v -27.73334 -23.46667 0
v -32 -24.53333 0
v -33.06667 -24.53333 0
v -33.06667 -23.46667 0
v -32 -23.46667 0
v -41.6 -24.53333 0
v -42.66667 -24.53333 0
v -42.66667 -23.46667 0
v -41.6 -23.46667 0
v -42.66667 -24.53333 0
v -43.73334 -24.53333 0
v -43.73334 -23.46667 0
v -42.66667 -23.46667 0
v -43.73334 -24.53333 0
v -44.8 -24.53333 0
v -44.8 -23.46667 0
v -43.73334 -23.46667 0
v -44.8 -24.53333 0
v -45.86667 -24.53333 0
v -45.86667 -23.46667 0
v -44.8 -23.46667 0
v -55.46667 -24.53333 0
v -56.53334 -24.53333 0
v -56.53334 -23.46667 0
v -55.46667 -23.46667 0
v -64 -24.53333 0
v -65.06667 -24.53333 0
v -65.06667 -23.46667 0
v -64 -23.46667 0
v -27.73334 -25.6 0
v -28.8 -25.6 0
v -28.8 -24.53333 0
v -27.73334 -24.53333 0
v -40.53334 -26.66667 0
v -41.6 -26.66667 0
v -41.6 -25.6 0
v -40.53334 -25.6 0
v -55.46667 -26.66667 0
v -56.53334 -26.66667 0
v -56.53334 -25.6 0
v -55.46667 -25.6 0
v -54.4 -35.2 0
v -55.46667 -35.2 0
v -55.46667 -34.13334 0
v -54.4 -34.13334 0
v -56.53334 -35.2 0
v -57.6 -35.2 0
v -57.6 -34.13334 0
v -56.53334 -34.13334 0
v -59.73334 -35.2 0
v -60.8 -35.2 0
v -60.8 -34.13334 0
v -59.73334 -34.13334 0
v -62.93334 -35.2 0
v -64 -35.2 0
v -64 -34.13334 0
v -62.93334 -34.13334 0
v -65.06667 -35.2 0
v -66.13334 -35.2 0
v -66.13334 -34.13334 0
v -65.06667 -34.13334 0
v -66.13334 -35.2 0
v -67.2 -35.2 0
v -67.2 -34.13334 0
v -66.13334 -34.13334 0
v -67.2 -35.2 0
v -68.26667 -35.2 0
v -68.26667 -34.13334 0
v -67.2 -34.13334 0
v -68.26667 -35.2 0
v -69.33334 -35.2 0
v -69.33334 -34.13334 0
v -68.26667 -34.13334 0
v -74.66667 -35.2 0
v -75.73334 -35.2 0
v -75.73334 -34.13334 0
v -74.66667 -34.13334 0
v -28.8 -36.26667 0
v -29.86667 -36.26667 0
v -29.86667 -35.2 0
v -28.8 -35.2 0
v -54.4 -36.26667 0
v -55.46667 -36.26667 0
v -55.46667 -35.2 0
v -54.4 -35.2 0
v -59.73334 -36.26667 0
v -60.8 -36.26667 0
v -60.8 -35.2 0
v -59.73334 -35.2 0
v -65.06667 -36.26667 0
v -66.13334 -36.26667 0
v -66.13334 -35.2 0
v -65.06667 -35.2 0
v -66.13334 -36.26667 0
v -67.2 -36.26667 0
v -67.2 -35.2 0
v -66.13334 -35.2 0
v -67.2 -36.26667 0
v -68.26667 -36.26667 0
v -68.26667 -35.2 0
v -67.2 -35.2 0
v -68.26667 -36.26667 0
v -69.33334 -36.26667 0
v -69.33334 -35.2 0
v -68.26667 -35.2 0
v -34.13334 -37.33334 0
v -35.2 -37.33334 0
v -35.2 -36.26667 0
v -34.13334 -36.26667 0
v -35.2 -37.33334 0
v -36.26667 -37.33334 0
v -36.26667 -36.26667 0
v -35.2 -36.26667 0
v -36.26667 -37.33334 0
v -37.33334 -37.33334 0
v -37.33334 -36.26667 0
v -36.26667 -36.26667 0
v -37.33334 -37.33334 0
v -38.4 -37.33334 0
v -38.4 -36.26667 0
v -37.33334 -36.26667 0
v -38.4 -37.33334 0
v -39.46667 -37.33334 0
v -39.46667 -36.26667 0
v -38.4 -36.26667 0
v -27.73334 -38.4 0
v -28.8 -38.4 0
v -28.8 -37.33334 0
v -27.73334 -37.33334 0
v -34.13334 -38.4 0
v -35.2 -38.4 0
v -35.2 -37.33334 0
v -34.13334 -37.33334 0
v -35.2 -38.4 0
v -36.26667 -38.4 0
v -36.26667 -37.33334 0
v -35.2 -37.33334 0
v -37.33334 -38.4 0
v -38.4 -38.4 0
v -38.4 -37.33334 0
v -37.33334 -37.33334 0
v -38.4 -38.4 0
v -39.46667 -38.4 0
v -39.46667 -37.33334 0
v -38.4 -37.33334 0
v -55.46667 -39.46667 0
v -56.53334 -39.46667 0
v -56.53334 -38.4 0
v -55.46667 -38.4 0
v -73.60001 -40.53334 0
v -74.66667 -40.53334 0
v -74.66667 -39.46667 0
v -73.60001 -39.46667 0
v -46.93333 -42.66667 0
v -48 -42.66667 0
v -48 -41.6 0
v -46.93333 -41.6 0
v -49.06667 -42.66667 0
v -50.13334 -42.66667 0
v -50.13334 -41.6 0
v -49.06667 -41.6 0
v -51.2 -42.66667 0
v -52.26667 -42.66667 0
v -52.26667 -41.6 0
v -51.2 -41.6 0
v -22.4 -43.73334 0
v -23.46667 -43.73334 0
v -23.46667 -42.66667 0
v -22.4 -42.66667 0
v -24.53333 -43.73334 0
v -25.6 -43.73334 0
v -25.6 -42.66667 0
v -24.53333 -42.66667 0
v -58.66667 -45.86667 0
v -59.73334 -45.86667 0
v -59.73334 -44.8 0
v -58.66667 -44.8 0
v -32 -49.06667 0
v -33.06667 -49.06667 0
v -33.06667 -48 0
v -32 -48 0
v -40.53334 -55.46667 0
v -41.6 -55.46667 0
v -41.6 -54.4 0
v -40.53334 -54.4 0
v -52.26667 -55.46667 0
v -53.33334 -55.46667 0
v -53.33334 -54.4 0
v -52.26667 -54.4 0
v -61.86667 -56.53334 0
v -62.93334 -56.53334 0
v -62.93334 -55.46667 0
v -61.86667 -55.46667 0
v -38.4 -57.6 0
v -39.46667 -57.6 0
v -39.46667 -56.53334 0
v -38.4 -56.53334 0
v -37.33334 -59.73334 0
v -38.4 -59.73334 0
v -38.4 -58.66667 0
v -37.33334 -58.66667 0
v -41.6 -60.8 0
v -42.66667 -60.8 0
v -42.66667 -59.73334 0
v -41.6 -59.73334 0
v -54.4 -62.93334 0
v -55.46667 -62.93334 0
v -55.46667 -61.86667 0
v -54.4 -61.86667 0
v -40.53334 -68.26667 0
v -41.6 -68.26667 0
v -41.6 -67.2 0
v -40.53334 -67.2 0
v -37.33334 -69.33334 0
v -38.4 -69.33334 0
v -38.4 -68.26667 0
v -37.33334 -68.26667 0
v -41.6 -70.4 0
v -42.66667 -70.4 0
v -42.66667 -69.33334 0
v -41.6 -69.33334 0
v -52.26667 -70.4 0
v -53.33334 -70.4 0
v -53.33334 -69.33334 0
v -52.26667 -69.33334 0
v -42.66667 -71.46667 0
v -43.73334 -71.46667 0
v -43.73334 -70.4 0
v -42.66667 -70.4 0
v -38.4 -72.53334 0
v -39.46667 -72.53334 0
v -39.46667 -71.46667 0
v -38.4 -71.46667 0
v -54.4 -72.53334 0
v -55.46667 -72.53334 0
v -55.46667 -71.46667 0
v -54.4 -71.46667 0
v -36.26667 -73.60001 0
v -37.33334 -73.60001 0
v -37.33334 -72.53334 0
v -36.26667 -72.53334 0
v -37.33334 -73.60001 0
v -38.4 -73.60001 0
v -38.4 -72.53334 0
v -37.33334 -72.53334 0
v -42.66667 -73.60001 0
v -43.73334 -73.60001 0
v -43.73334 -72.53334 0
v -42.66667 -72.53334 0
v -36.26667 -74.66667 0
v -37.33334 -74.66667 0
v -37.33334 -73.60001 0
v -36.26667 -73.60001 0
v -42.66667 -74.66667 0
v -43.73334 -74.66667 0
v -43.73334 -73.60001 0
v -42.66667 -73.60001 0
v -36.26667 -75.73334 0
v -37.33334 -75.73334 0
v -37.33334 -74.66667 0
v -36.26667 -74.66667 0
v -42.66667 -75.73334 0
v -43.73334 -75.73334 0
v -43.73334 -74.66667 0
v -42.66667 -74.66667 0
v -52.26667 -76.8 0
v -53.33334 -76.8 0
v -53.33334 -75.73334 0
v -52.26667 -75.73334 0
v -56.53334 -80.00001 0
v -57.6 -80.00001 0
v -57.6 -78.93333 0
v -56.53334 -78.93333 0
v -57.6 -80.00001 0
v -58.66667 -80.00001 0
v -58.66667 -78.93333 0
v -57.6 -78.93333 0
v -58.66667 -84.26667 0
v -59.73334 -84.26667 0
v -59.73334 -83.2 0
v -58.66667 -83.2 0
v -51.2 -86.4 0
v -52.26667 -86.4 0
v -52.26667 -85.33334 0
v -51.2 -85.33334 0

# Texture cooridinates (Count = 48)
vt 0.1382114 0.7245902
vt 0.1707317 0.7245902
vt 0.1707317 0.7770492
vt 0.1382114 0.7770492
vt 0.1382114 0.7803279
vt 0.1707317 0.7803279
vt 0.1707317 0.8327869
vt 0.1382114 0.8327869
vt 0.1727642 0.7245902
vt 0.2052846 0.7245902
vt 0.2052846 0.7770492
vt 0.1727642 0.7770492
vt 0.1727642 0.7803279
vt 0.2052846 0.7803279
vt 0.2052846 0.8327869
vt 0.1727642 0.8327869
vt 0.2418699 0.8918033
vt 0.2743903 0.8918033
vt 0.2743903 0.9442623
vt 0.2418699 0.9442623
vt 0.03455285 0.7803279
vt 0.06707317 0.7803279
vt 0.06707317 0.8327869
vt 0.03455285 0.8327869
vt 0.2418699 0.947541
vt 0.2743903 0.947541
vt 0.2743903 1
vt 0.2418699 1
vt 0.1036585 0.7245902
vt 0.1361789 0.7245902
vt 0.1361789 0.7770492
vt 0.1036585 0.7770492
vt 0.06910569 0.7245902
vt 0.101626 0.7245902
vt 0.101626 0.7770492
vt 0.06910569 0.7770492
vt 0.06910569 0.7803279
vt 0.101626 0.7803279
vt 0.101626 0.8327869
vt 0.06910569 0.8327869
vt 0 0.7803279
vt 0.03252032 0.7803279
vt 0.03252032 0.8327869
vt 0 0.8327869
vt 0.03455285 0.7245902
vt 0.06707317 0.7245902
vt 0.06707317 0.7770492
vt 0.03455285 0.7770492

# Normal
vn 0 0 -1

# Mesh description
g Biology_mesh_0005

# Faces
f 1/1/1 2/2/1 3/3/1 4/4/1
f 5/5/1 6/6/1 7/7/1 8/8/1
f 9/1/1 10/2/1 11/3/1 12/4/1
f 13/9/1 14/10/1 15/11/1 16/12/1
f 17/1/1 18/2/1 19/3/1 20/4/1
f 21/13/1 22/14/1 23/15/1 24/16/1
f 25/1/1 26/2/1 27/3/1 28/4/1
f 29/5/1 30/6/1 31/7/1 32/8/1
f 33/5/1 34/6/1 35/7/1 36/8/1
f 37/5/1 38/6/1 39/7/1 40/8/1
f 41/5/1 42/6/1 43/7/1 44/8/1
f 45/9/1 46/10/1 47/11/1 48/12/1
f 49/9/1 50/10/1 51/11/1 52/12/1
f 53/9/1 54/10/1 55/11/1 56/12/1
f 57/5/1 58/6/1 59/7/1 60/8/1
f 61/9/1 62/10/1 63/11/1 64/12/1
f 65/5/1 66/6/1 67/7/1 68/8/1
f 69/5/1 70/6/1 71/7/1 72/8/1
f 73/9/1 74/10/1 75/11/1 76/12/1
f 77/1/1 78/2/1 79/3/1 80/4/1
f 81/1/1 82/2/1 83/3/1 84/4/1
f 85/1/1 86/2/1 87/3/1 88/4/1
f 89/1/1 90/2/1 91/3/1 92/4/1
f 93/1/1 94/2/1 95/3/1 96/4/1
f 97/1/1 98/2/1 99/3/1 100/4/1
f 101/1/1 102/2/1 103/3/1 104/4/1
f 105/17/1 106/18/1 107/19/1 108/20/1
f 109/17/1 110/18/1 111/19/1 112/20/1
f 113/5/1 114/6/1 115/7/1 116/8/1
f 117/9/1 118/10/1 119/11/1 120/12/1
f 121/5/1 122/6/1 123/7/1 124/8/1
f 125/9/1 126/10/1 127/11/1 128/12/1
f 129/5/1 130/6/1 131/7/1 132/8/1
f 133/5/1 134/6/1 135/7/1 136/8/1
f 137/5/1 138/6/1 139/7/1 140/8/1
f 141/5/1 142/6/1 143/7/1 144/8/1
f 145/9/1 146/10/1 147/11/1 148/12/1
f 149/21/1 150/22/1 151/23/1 152/24/1
f 153/1/1 154/2/1 155/3/1 156/4/1
f 157/1/1 158/2/1 159/3/1 160/4/1
f 161/1/1 162/2/1 163/3/1 164/4/1
f 165/1/1 166/2/1 167/3/1 168/4/1
f 169/1/1 170/2/1 171/3/1 172/4/1
f 173/1/1 174/2/1 175/3/1 176/4/1
f 177/13/1 178/14/1 179/15/1 180/16/1
f 181/5/1 182/6/1 183/7/1 184/8/1
f 185/9/1 186/10/1 187/11/1 188/12/1
f 189/13/1 190/14/1 191/15/1 192/16/1
f 193/5/1 194/6/1 195/7/1 196/8/1
f 197/17/1 198/18/1 199/19/1 200/20/1
f 201/9/1 202/10/1 203/11/1 204/12/1
f 205/1/1 206/2/1 207/3/1 208/4/1
f 209/9/1 210/10/1 211/11/1 212/12/1
f 213/1/1 214/2/1 215/3/1 216/4/1
f 217/17/1 218/18/1 219/19/1 220/20/1
f 221/17/1 222/18/1 223/19/1 224/20/1
f 225/9/1 226/10/1 227/11/1 228/12/1
f 229/1/1 230/2/1 231/3/1 232/4/1
f 233/9/1 234/10/1 235/11/1 236/12/1
f 237/1/1 238/2/1 239/3/1 240/4/1
f 241/1/1 242/2/1 243/3/1 244/4/1
f 245/25/1 246/26/1 247/27/1 248/28/1
f 249/17/1 250/18/1 251/19/1 252/20/1
f 253/17/1 254/18/1 255/19/1 256/20/1
f 257/17/1 258/18/1 259/19/1 260/20/1
f 261/25/1 262/26/1 263/27/1 264/28/1
f 265/29/1 266/30/1 267/31/1 268/32/1
f 269/33/1 270/34/1 271/35/1 272/36/1
f 273/29/1 274/30/1 275/31/1 276/32/1
f 277/33/1 278/34/1 279/35/1 280/36/1
f 281/33/1 282/34/1 283/35/1 284/36/1
f 285/33/1 286/34/1 287/35/1 288/36/1
f 289/29/1 290/30/1 291/31/1 292/32/1
f 293/33/1 294/34/1 295/35/1 296/36/1
f 297/1/1 298/2/1 299/3/1 300/4/1
f 301/25/1 302/26/1 303/27/1 304/28/1
f 305/33/1 306/34/1 307/35/1 308/36/1
f 309/37/1 310/38/1 311/39/1 312/40/1
f 313/21/1 314/22/1 315/23/1 316/24/1
f 317/41/1 318/42/1 319/43/1 320/44/1
f 321/41/1 322/42/1 323/43/1 324/44/1
f 325/21/1 326/22/1 327/23/1 328/24/1
f 329/21/1 330/22/1 331/23/1 332/24/1
f 333/21/1 334/22/1 335/23/1 336/24/1
f 337/25/1 338/26/1 339/27/1 340/28/1
f 341/1/1 342/2/1 343/3/1 344/4/1
f 345/9/1 346/10/1 347/11/1 348/12/1
f 349/45/1 350/46/1 351/47/1 352/48/1
f 353/45/1 354/46/1 355/47/1 356/48/1

