# Tiled2Unity generated file. Do not modify by hand.
# Wavefront file for 'Biology_mesh_0007.obj'

# Vertices (Count = 112)
v -51.2 -59.73334 0
v -52.26667 -59.73334 0
v -52.26667 -58.66667 0
v -51.2 -58.66667 0
v -55.46667 -59.73334 0
v -56.53334 -59.73334 0
v -56.53334 -58.66667 0
v -55.46667 -58.66667 0
v -51.2 -60.8 0
v -52.26667 -60.8 0
v -52.26667 -59.73334 0
v -51.2 -59.73334 0
v -55.46667 -60.8 0
v -56.53334 -60.8 0
v -56.53334 -59.73334 0
v -55.46667 -59.73334 0
v -51.2 -61.86667 0
v -52.26667 -61.86667 0
v -52.26667 -60.8 0
v -51.2 -60.8 0
v -51.2 -62.93334 0
v -52.26667 -62.93334 0
v -52.26667 -61.86667 0
v -51.2 -61.86667 0
v -51.2 -64 0
v -52.26667 -64 0
v -52.26667 -62.93334 0
v -51.2 -62.93334 0
v -55.46667 -64 0
v -56.53334 -64 0
v -56.53334 -62.93334 0
v -55.46667 -62.93334 0
v -51.2 -65.06667 0
v -52.26667 -65.06667 0
v -52.26667 -64 0
v -51.2 -64 0
v -55.46667 -65.06667 0
v -56.53334 -65.06667 0
v -56.53334 -64 0
v -55.46667 -64 0
v -51.2 -66.13334 0
v -52.26667 -66.13334 0
v -52.26667 -65.06667 0
v -51.2 -65.06667 0
v -51.2 -67.2 0
v -52.26667 -67.2 0
v -52.26667 -66.13334 0
v -51.2 -66.13334 0
v -55.46667 -68.26667 0
v -56.53334 -68.26667 0
v -56.53334 -67.2 0
v -55.46667 -67.2 0
v -55.46667 -69.33334 0
v -56.53334 -69.33334 0
v -56.53334 -68.26667 0
v -55.46667 -68.26667 0
v -51.2 -70.4 0
v -52.26667 -70.4 0
v -52.26667 -69.33334 0
v -51.2 -69.33334 0
v -55.46667 -70.4 0
v -56.53334 -70.4 0
v -56.53334 -69.33334 0
v -55.46667 -69.33334 0
v -51.2 -71.46667 0
v -52.26667 -71.46667 0
v -52.26667 -70.4 0
v -51.2 -70.4 0
v -55.46667 -71.46667 0
v -56.53334 -71.46667 0
v -56.53334 -70.4 0
v -55.46667 -70.4 0
v -51.2 -72.53334 0
v -52.26667 -72.53334 0
v -52.26667 -71.46667 0
v -51.2 -71.46667 0
v -51.2 -73.60001 0
v -52.26667 -73.60001 0
v -52.26667 -72.53334 0
v -51.2 -72.53334 0
v -51.2 -74.66667 0
v -52.26667 -74.66667 0
v -52.26667 -73.60001 0
v -51.2 -73.60001 0
v -55.46667 -74.66667 0
v -56.53334 -74.66667 0
v -56.53334 -73.60001 0
v -55.46667 -73.60001 0
v -51.2 -75.73334 0
v -52.26667 -75.73334 0
v -52.26667 -74.66667 0
v -51.2 -74.66667 0
v -55.46667 -75.73334 0
v -56.53334 -75.73334 0
v -56.53334 -74.66667 0
v -55.46667 -74.66667 0
v -51.2 -78.93333 0
v -52.26667 -78.93333 0
v -52.26667 -77.86667 0
v -51.2 -77.86667 0
v -55.46667 -78.93333 0
v -56.53334 -78.93333 0
v -56.53334 -77.86667 0
v -55.46667 -77.86667 0
v -51.2 -80.00001 0
v -52.26667 -80.00001 0
v -52.26667 -78.93333 0
v -51.2 -78.93333 0
v -55.46667 -80.00001 0
v -56.53334 -80.00001 0
v -56.53334 -78.93333 0
v -55.46667 -78.93333 0

# Texture cooridinates (Count = 40)
vt 0.9745223 0.6084211
vt 1 0.6084211
vt 1 0.6421052
vt 0.9745223 0.6421052
vt 0.8662421 0.6084211
vt 0.8917198 0.6084211
vt 0.8917198 0.6421052
vt 0.8662421 0.6421052
vt 0.9745223 0.5726316
vt 1 0.5726316
vt 1 0.6063158
vt 0.9745223 0.6063158
vt 0.8662421 0.5726316
vt 0.8917198 0.5726316
vt 0.8917198 0.6063158
vt 0.8662421 0.6063158
vt 0.9474522 0.6084211
vt 0.97293 0.6084211
vt 0.97293 0.6421052
vt 0.9474522 0.6421052
vt 0.9474522 0.5726316
vt 0.97293 0.5726316
vt 0.97293 0.6063158
vt 0.9474522 0.6063158
vt 0.9203821 0.6084211
vt 0.9458598 0.6084211
vt 0.9458598 0.6421052
vt 0.9203821 0.6421052
vt 0.8933121 0.6084211
vt 0.9187898 0.6084211
vt 0.9187898 0.6421052
vt 0.8933121 0.6421052
vt 0.9203821 0.5726316
vt 0.9458598 0.5726316
vt 0.9458598 0.6063158
vt 0.9203821 0.6063158
vt 0.8933121 0.5726316
vt 0.9187898 0.5726316
vt 0.9187898 0.6063158
vt 0.8933121 0.6063158

# Normal
vn 0 0 -1

# Mesh description
g Biology_mesh_0007

# Faces
f 1/1/1 2/2/1 3/3/1 4/4/1
f 5/5/1 6/6/1 7/7/1 8/8/1
f 9/9/1 10/10/1 11/11/1 12/12/1
f 13/13/1 14/14/1 15/15/1 16/16/1
f 17/17/1 18/18/1 19/19/1 20/20/1
f 21/21/1 22/22/1 23/23/1 24/24/1
f 25/25/1 26/26/1 27/27/1 28/28/1
f 29/29/1 30/30/1 31/31/1 32/32/1
f 33/33/1 34/34/1 35/35/1 36/36/1
f 37/37/1 38/38/1 39/39/1 40/40/1
f 41/1/1 42/2/1 43/3/1 44/4/1
f 45/9/1 46/10/1 47/11/1 48/12/1
f 49/5/1 50/6/1 51/7/1 52/8/1
f 53/13/1 54/14/1 55/15/1 56/16/1
f 57/5/1 58/6/1 59/7/1 60/8/1
f 61/25/1 62/26/1 63/27/1 64/28/1
f 65/13/1 66/14/1 67/15/1 68/16/1
f 69/33/1 70/34/1 71/35/1 72/36/1
f 73/29/1 74/30/1 75/31/1 76/32/1
f 77/37/1 78/38/1 79/39/1 80/40/1
f 81/17/1 82/18/1 83/19/1 84/20/1
f 85/1/1 86/2/1 87/3/1 88/4/1
f 89/21/1 90/22/1 91/23/1 92/24/1
f 93/9/1 94/10/1 95/11/1 96/12/1
f 97/5/1 98/6/1 99/7/1 100/8/1
f 101/29/1 102/30/1 103/31/1 104/32/1
f 105/13/1 106/14/1 107/15/1 108/16/1
f 109/37/1 110/38/1 111/39/1 112/40/1

