# Tiled2Unity generated file. Do not modify by hand.
# Wavefront file for 'LMB_mesh_0006.obj'

# Vertices (Count = 360)
v -41.6 -16 0
v -42.66667 -16 0
v -42.66667 -14.93333 0
v -41.6 -14.93333 0
v -42.66667 -16 0
v -43.73334 -16 0
v -43.73334 -14.93333 0
v -42.66667 -14.93333 0
v -43.73334 -16 0
v -44.8 -16 0
v -44.8 -14.93333 0
v -43.73334 -14.93333 0
v -44.8 -16 0
v -45.86667 -16 0
v -45.86667 -14.93333 0
v -44.8 -14.93333 0
v -45.86667 -16 0
v -46.93333 -16 0
v -46.93333 -14.93333 0
v -45.86667 -14.93333 0
v -46.93333 -16 0
v -48 -16 0
v -48 -14.93333 0
v -46.93333 -14.93333 0
v -48 -16 0
v -49.06667 -16 0
v -49.06667 -14.93333 0
v -48 -14.93333 0
v -41.6 -17.06667 0
v -42.66667 -17.06667 0
v -42.66667 -16 0
v -41.6 -16 0
v -42.66667 -17.06667 0
v -43.73334 -17.06667 0
v -43.73334 -16 0
v -42.66667 -16 0
v -43.73334 -17.06667 0
v -44.8 -17.06667 0
v -44.8 -16 0
v -43.73334 -16 0
v -44.8 -17.06667 0
v -45.86667 -17.06667 0
v -45.86667 -16 0
v -44.8 -16 0
v -45.86667 -17.06667 0
v -46.93333 -17.06667 0
v -46.93333 -16 0
v -45.86667 -16 0
v -46.93333 -17.06667 0
v -48 -17.06667 0
v -48 -16 0
v -46.93333 -16 0
v -48 -17.06667 0
v -49.06667 -17.06667 0
v -49.06667 -16 0
v -48 -16 0
v -41.6 -18.13334 0
v -42.66667 -18.13334 0
v -42.66667 -17.06667 0
v -41.6 -17.06667 0
v -42.66667 -18.13334 0
v -43.73334 -18.13334 0
v -43.73334 -17.06667 0
v -42.66667 -17.06667 0
v -43.73334 -18.13334 0
v -44.8 -18.13334 0
v -44.8 -17.06667 0
v -43.73334 -17.06667 0
v -44.8 -18.13334 0
v -45.86667 -18.13334 0
v -45.86667 -17.06667 0
v -44.8 -17.06667 0
v -45.86667 -18.13334 0
v -46.93333 -18.13334 0
v -46.93333 -17.06667 0
v -45.86667 -17.06667 0
v -46.93333 -18.13334 0
v -48 -18.13334 0
v -48 -17.06667 0
v -46.93333 -17.06667 0
v -48 -18.13334 0
v -49.06667 -18.13334 0
v -49.06667 -17.06667 0
v -48 -17.06667 0
v -41.6 -19.2 0
v -42.66667 -19.2 0
v -42.66667 -18.13334 0
v -41.6 -18.13334 0
v -42.66667 -19.2 0
v -43.73334 -19.2 0
v -43.73334 -18.13334 0
v -42.66667 -18.13334 0
v -43.73334 -19.2 0
v -44.8 -19.2 0
v -44.8 -18.13334 0
v -43.73334 -18.13334 0
v -44.8 -19.2 0
v -45.86667 -19.2 0
v -45.86667 -18.13334 0
v -44.8 -18.13334 0
v -45.86667 -19.2 0
v -46.93333 -19.2 0
v -46.93333 -18.13334 0
v -45.86667 -18.13334 0
v -46.93333 -19.2 0
v -48 -19.2 0
v -48 -18.13334 0
v -46.93333 -18.13334 0
v -48 -19.2 0
v -49.06667 -19.2 0
v -49.06667 -18.13334 0
v -48 -18.13334 0
v -41.6 -20.26667 0
v -42.66667 -20.26667 0
v -42.66667 -19.2 0
v -41.6 -19.2 0
v -42.66667 -20.26667 0
v -43.73334 -20.26667 0
v -43.73334 -19.2 0
v -42.66667 -19.2 0
v -43.73334 -20.26667 0
v -44.8 -20.26667 0
v -44.8 -19.2 0
v -43.73334 -19.2 0
v -44.8 -20.26667 0
v -45.86667 -20.26667 0
v -45.86667 -19.2 0
v -44.8 -19.2 0
v -45.86667 -20.26667 0
v -46.93333 -20.26667 0
v -46.93333 -19.2 0
v -45.86667 -19.2 0
v -46.93333 -20.26667 0
v -48 -20.26667 0
v -48 -19.2 0
v -46.93333 -19.2 0
v -48 -20.26667 0
v -49.06667 -20.26667 0
v -49.06667 -19.2 0
v -48 -19.2 0
v -41.6 -22.4 0
v -42.66667 -22.4 0
v -42.66667 -21.33333 0
v -41.6 -21.33333 0
v -42.66667 -22.4 0
v -43.73334 -22.4 0
v -43.73334 -21.33333 0
v -42.66667 -21.33333 0
v -43.73334 -22.4 0
v -44.8 -22.4 0
v -44.8 -21.33333 0
v -43.73334 -21.33333 0
v -45.86667 -22.4 0
v -46.93333 -22.4 0
v -46.93333 -21.33333 0
v -45.86667 -21.33333 0
v -46.93333 -22.4 0
v -48 -22.4 0
v -48 -21.33333 0
v -46.93333 -21.33333 0
v -48 -22.4 0
v -49.06667 -22.4 0
v -49.06667 -21.33333 0
v -48 -21.33333 0
v -41.6 -23.46667 0
v -42.66667 -23.46667 0
v -42.66667 -22.4 0
v -41.6 -22.4 0
v -42.66667 -23.46667 0
v -43.73334 -23.46667 0
v -43.73334 -22.4 0
v -42.66667 -22.4 0
v -43.73334 -23.46667 0
v -44.8 -23.46667 0
v -44.8 -22.4 0
v -43.73334 -22.4 0
v -45.86667 -23.46667 0
v -46.93333 -23.46667 0
v -46.93333 -22.4 0
v -45.86667 -22.4 0
v -46.93333 -23.46667 0
v -48 -23.46667 0
v -48 -22.4 0
v -46.93333 -22.4 0
v -48 -23.46667 0
v -49.06667 -23.46667 0
v -49.06667 -22.4 0
v -48 -22.4 0
v -41.6 -24.53333 0
v -42.66667 -24.53333 0
v -42.66667 -23.46667 0
v -41.6 -23.46667 0
v -42.66667 -24.53333 0
v -43.73334 -24.53333 0
v -43.73334 -23.46667 0
v -42.66667 -23.46667 0
v -43.73334 -24.53333 0
v -44.8 -24.53333 0
v -44.8 -23.46667 0
v -43.73334 -23.46667 0
v -45.86667 -24.53333 0
v -46.93333 -24.53333 0
v -46.93333 -23.46667 0
v -45.86667 -23.46667 0
v -46.93333 -24.53333 0
v -48 -24.53333 0
v -48 -23.46667 0
v -46.93333 -23.46667 0
v -48 -24.53333 0
v -49.06667 -24.53333 0
v -49.06667 -23.46667 0
v -48 -23.46667 0
v -41.6 -25.6 0
v -42.66667 -25.6 0
v -42.66667 -24.53333 0
v -41.6 -24.53333 0
v -42.66667 -25.6 0
v -43.73334 -25.6 0
v -43.73334 -24.53333 0
v -42.66667 -24.53333 0
v -43.73334 -25.6 0
v -44.8 -25.6 0
v -44.8 -24.53333 0
v -43.73334 -24.53333 0
v -45.86667 -25.6 0
v -46.93333 -25.6 0
v -46.93333 -24.53333 0
v -45.86667 -24.53333 0
v -46.93333 -25.6 0
v -48 -25.6 0
v -48 -24.53333 0
v -46.93333 -24.53333 0
v -48 -25.6 0
v -49.06667 -25.6 0
v -49.06667 -24.53333 0
v -48 -24.53333 0
v -41.6 -26.66667 0
v -42.66667 -26.66667 0
v -42.66667 -25.6 0
v -41.6 -25.6 0
v -42.66667 -26.66667 0
v -43.73334 -26.66667 0
v -43.73334 -25.6 0
v -42.66667 -25.6 0
v -43.73334 -26.66667 0
v -44.8 -26.66667 0
v -44.8 -25.6 0
v -43.73334 -25.6 0
v -45.86667 -26.66667 0
v -46.93333 -26.66667 0
v -46.93333 -25.6 0
v -45.86667 -25.6 0
v -46.93333 -26.66667 0
v -48 -26.66667 0
v -48 -25.6 0
v -46.93333 -25.6 0
v -48 -26.66667 0
v -49.06667 -26.66667 0
v -49.06667 -25.6 0
v -48 -25.6 0
v -41.6 -27.73334 0
v -42.66667 -27.73334 0
v -42.66667 -26.66667 0
v -41.6 -26.66667 0
v -42.66667 -27.73334 0
v -43.73334 -27.73334 0
v -43.73334 -26.66667 0
v -42.66667 -26.66667 0
v -43.73334 -27.73334 0
v -44.8 -27.73334 0
v -44.8 -26.66667 0
v -43.73334 -26.66667 0
v -45.86667 -27.73334 0
v -46.93333 -27.73334 0
v -46.93333 -26.66667 0
v -45.86667 -26.66667 0
v -46.93333 -27.73334 0
v -48 -27.73334 0
v -48 -26.66667 0
v -46.93333 -26.66667 0
v -48 -27.73334 0
v -49.06667 -27.73334 0
v -49.06667 -26.66667 0
v -48 -26.66667 0
v -45.86667 -29.86667 0
v -46.93333 -29.86667 0
v -46.93333 -28.8 0
v -45.86667 -28.8 0
v -46.93333 -29.86667 0
v -48 -29.86667 0
v -48 -28.8 0
v -46.93333 -28.8 0
v -41.6 -36.26667 0
v -42.66667 -36.26667 0
v -42.66667 -35.2 0
v -41.6 -35.2 0
v -43.73334 -36.26667 0
v -44.8 -36.26667 0
v -44.8 -35.2 0
v -43.73334 -35.2 0
v -45.86667 -36.26667 0
v -46.93333 -36.26667 0
v -46.93333 -35.2 0
v -45.86667 -35.2 0
v -48 -36.26667 0
v -49.06667 -36.26667 0
v -49.06667 -35.2 0
v -48 -35.2 0
v -41.6 -37.33334 0
v -42.66667 -37.33334 0
v -42.66667 -36.26667 0
v -41.6 -36.26667 0
v -43.73334 -37.33334 0
v -44.8 -37.33334 0
v -44.8 -36.26667 0
v -43.73334 -36.26667 0
v -45.86667 -37.33334 0
v -46.93333 -37.33334 0
v -46.93333 -36.26667 0
v -45.86667 -36.26667 0
v -48 -37.33334 0
v -49.06667 -37.33334 0
v -49.06667 -36.26667 0
v -48 -36.26667 0
v -42.66667 -44.8 0
v -43.73334 -44.8 0
v -43.73334 -43.73334 0
v -42.66667 -43.73334 0
v -43.73334 -44.8 0
v -44.8 -44.8 0
v -44.8 -43.73334 0
v -43.73334 -43.73334 0
v -44.8 -44.8 0
v -45.86667 -44.8 0
v -45.86667 -43.73334 0
v -44.8 -43.73334 0
v -42.66667 -46.93333 0
v -43.73334 -46.93333 0
v -43.73334 -45.86667 0
v -42.66667 -45.86667 0
v -43.73334 -46.93333 0
v -44.8 -46.93333 0
v -44.8 -45.86667 0
v -43.73334 -45.86667 0
v -44.8 -46.93333 0
v -45.86667 -46.93333 0
v -45.86667 -45.86667 0
v -44.8 -45.86667 0
v -42.66667 -49.06667 0
v -43.73334 -49.06667 0
v -43.73334 -48 0
v -42.66667 -48 0
v -43.73334 -49.06667 0
v -44.8 -49.06667 0
v -44.8 -48 0
v -43.73334 -48 0
v -44.8 -49.06667 0
v -45.86667 -49.06667 0
v -45.86667 -48 0
v -44.8 -48 0

# Texture cooridinates (Count = 40)
vt 0.9649891 0.3868852
vt 0.9649891 0.3344262
vt 0.9299781 0.3344262
vt 0.9299781 0.3868852
vt 0.8905908 0.2786885
vt 0.8905908 0.3311476
vt 0.8555799 0.3311476
vt 0.8555799 0.2786885
vt 0 0.6688524
vt 0.03501094 0.6688524
vt 0.03501094 0.7213115
vt 0 0.7213115
vt 0 0.8918033
vt 0.03501094 0.8918033
vt 0.03501094 0.9442623
vt 0 0.9442623
vt 0.07439825 0.8918033
vt 0.1094092 0.8918033
vt 0.1094092 0.9442623
vt 0.07439825 0.9442623
vt 0.1859956 0.8918033
vt 0.2210066 0.8918033
vt 0.2210066 0.9442623
vt 0.1859956 0.9442623
vt 0.1859956 0.8360656
vt 0.2210066 0.8360656
vt 0.2210066 0.8885246
vt 0.1859956 0.8885246
vt 0.07439825 0.6688524
vt 0.1094092 0.6688524
vt 0.1094092 0.7213115
vt 0.07439825 0.7213115
vt 0.2603939 0.947541
vt 0.2954048 0.947541
vt 0.2954048 1
vt 0.2603939 1
vt 0.1115974 0.6688524
vt 0.1466083 0.6688524
vt 0.1466083 0.7213115
vt 0.1115974 0.7213115

# Normal
vn 0 0 -1

# Mesh description
g LMB_mesh_0006

# Faces
f 1/1/1 2/2/1 3/3/1 4/4/1
f 5/5/1 6/6/1 7/7/1 8/8/1
f 9/5/1 10/6/1 11/7/1 12/8/1
f 13/5/1 14/6/1 15/7/1 16/8/1
f 17/5/1 18/6/1 19/7/1 20/8/1
f 21/5/1 22/6/1 23/7/1 24/8/1
f 25/2/1 26/1/1 27/4/1 28/3/1
f 29/1/1 30/2/1 31/3/1 32/4/1
f 33/5/1 34/6/1 35/7/1 36/8/1
f 37/5/1 38/6/1 39/7/1 40/8/1
f 41/5/1 42/6/1 43/7/1 44/8/1
f 45/5/1 46/6/1 47/7/1 48/8/1
f 49/5/1 50/6/1 51/7/1 52/8/1
f 53/2/1 54/1/1 55/4/1 56/3/1
f 57/1/1 58/2/1 59/3/1 60/4/1
f 61/5/1 62/6/1 63/7/1 64/8/1
f 65/5/1 66/6/1 67/7/1 68/8/1
f 69/5/1 70/6/1 71/7/1 72/8/1
f 73/5/1 74/6/1 75/7/1 76/8/1
f 77/5/1 78/6/1 79/7/1 80/8/1
f 81/2/1 82/1/1 83/4/1 84/3/1
f 85/1/1 86/2/1 87/3/1 88/4/1
f 89/5/1 90/6/1 91/7/1 92/8/1
f 93/5/1 94/6/1 95/7/1 96/8/1
f 97/5/1 98/6/1 99/7/1 100/8/1
f 101/5/1 102/6/1 103/7/1 104/8/1
f 105/5/1 106/6/1 107/7/1 108/8/1
f 109/2/1 110/1/1 111/4/1 112/3/1
f 113/1/1 114/2/1 115/3/1 116/4/1
f 117/5/1 118/6/1 119/7/1 120/8/1
f 121/5/1 122/6/1 123/7/1 124/8/1
f 125/5/1 126/6/1 127/7/1 128/8/1
f 129/5/1 130/6/1 131/7/1 132/8/1
f 133/5/1 134/6/1 135/7/1 136/8/1
f 137/2/1 138/1/1 139/4/1 140/3/1
f 141/9/1 142/10/1 143/11/1 144/12/1
f 145/9/1 146/10/1 147/11/1 148/12/1
f 149/9/1 150/10/1 151/11/1 152/12/1
f 153/9/1 154/10/1 155/11/1 156/12/1
f 157/9/1 158/10/1 159/11/1 160/12/1
f 161/9/1 162/10/1 163/11/1 164/12/1
f 165/9/1 166/10/1 167/11/1 168/12/1
f 169/9/1 170/10/1 171/11/1 172/12/1
f 173/9/1 174/10/1 175/11/1 176/12/1
f 177/9/1 178/10/1 179/11/1 180/12/1
f 181/9/1 182/10/1 183/11/1 184/12/1
f 185/9/1 186/10/1 187/11/1 188/12/1
f 189/9/1 190/10/1 191/11/1 192/12/1
f 193/9/1 194/10/1 195/11/1 196/12/1
f 197/9/1 198/10/1 199/11/1 200/12/1
f 201/9/1 202/10/1 203/11/1 204/12/1
f 205/9/1 206/10/1 207/11/1 208/12/1
f 209/9/1 210/10/1 211/11/1 212/12/1
f 213/9/1 214/10/1 215/11/1 216/12/1
f 217/9/1 218/10/1 219/11/1 220/12/1
f 221/9/1 222/10/1 223/11/1 224/12/1
f 225/9/1 226/10/1 227/11/1 228/12/1
f 229/9/1 230/10/1 231/11/1 232/12/1
f 233/9/1 234/10/1 235/11/1 236/12/1
f 237/9/1 238/10/1 239/11/1 240/12/1
f 241/9/1 242/10/1 243/11/1 244/12/1
f 245/9/1 246/10/1 247/11/1 248/12/1
f 249/9/1 250/10/1 251/11/1 252/12/1
f 253/9/1 254/10/1 255/11/1 256/12/1
f 257/9/1 258/10/1 259/11/1 260/12/1
f 261/9/1 262/10/1 263/11/1 264/12/1
f 265/9/1 266/10/1 267/11/1 268/12/1
f 269/9/1 270/10/1 271/11/1 272/12/1
f 273/9/1 274/10/1 275/11/1 276/12/1
f 277/9/1 278/10/1 279/11/1 280/12/1
f 281/9/1 282/10/1 283/11/1 284/12/1
f 285/13/1 286/14/1 287/15/1 288/16/1
f 289/17/1 290/18/1 291/19/1 292/20/1
f 293/21/1 294/22/1 295/23/1 296/24/1
f 297/21/1 298/22/1 299/23/1 300/24/1
f 301/21/1 302/22/1 303/23/1 304/24/1
f 305/21/1 306/22/1 307/23/1 308/24/1
f 309/25/1 310/26/1 311/27/1 312/28/1
f 313/25/1 314/26/1 315/27/1 316/28/1
f 317/25/1 318/26/1 319/27/1 320/28/1
f 321/25/1 322/26/1 323/27/1 324/28/1
f 325/29/1 326/30/1 327/31/1 328/32/1
f 329/33/1 330/34/1 331/35/1 332/36/1
f 333/37/1 334/38/1 335/39/1 336/40/1
f 337/29/1 338/30/1 339/31/1 340/32/1
f 341/33/1 342/34/1 343/35/1 344/36/1
f 345/37/1 346/38/1 347/39/1 348/40/1
f 349/29/1 350/30/1 351/31/1 352/32/1
f 353/33/1 354/34/1 355/35/1 356/36/1
f 357/37/1 358/38/1 359/39/1 360/40/1

