# Tiled2Unity generated file. Do not modify by hand.
# Wavefront file for 'LMB_mesh_0005.obj'

# Vertices (Count = 664)
v -38.4 -13.86667 0
v -39.46667 -13.86667 0
v -39.46667 -12.8 0
v -38.4 -12.8 0
v -39.46667 -13.86667 0
v -40.53334 -13.86667 0
v -40.53334 -12.8 0
v -39.46667 -12.8 0
v -40.53334 -13.86667 0
v -41.6 -13.86667 0
v -41.6 -12.8 0
v -40.53334 -12.8 0
v -41.6 -13.86667 0
v -42.66667 -13.86667 0
v -42.66667 -12.8 0
v -41.6 -12.8 0
v -42.66667 -13.86667 0
v -43.73334 -13.86667 0
v -43.73334 -12.8 0
v -42.66667 -12.8 0
v -43.73334 -13.86667 0
v -44.8 -13.86667 0
v -44.8 -12.8 0
v -43.73334 -12.8 0
v -44.8 -13.86667 0
v -45.86667 -13.86667 0
v -45.86667 -12.8 0
v -44.8 -12.8 0
v -45.86667 -13.86667 0
v -46.93333 -13.86667 0
v -46.93333 -12.8 0
v -45.86667 -12.8 0
v -46.93333 -13.86667 0
v -48 -13.86667 0
v -48 -12.8 0
v -46.93333 -12.8 0
v -48 -13.86667 0
v -49.06667 -13.86667 0
v -49.06667 -12.8 0
v -48 -12.8 0
v -49.06667 -13.86667 0
v -50.13334 -13.86667 0
v -50.13334 -12.8 0
v -49.06667 -12.8 0
v -50.13334 -13.86667 0
v -51.2 -13.86667 0
v -51.2 -12.8 0
v -50.13334 -12.8 0
v -51.2 -13.86667 0
v -52.26667 -13.86667 0
v -52.26667 -12.8 0
v -51.2 -12.8 0
v -38.4 -14.93333 0
v -39.46667 -14.93333 0
v -39.46667 -13.86667 0
v -38.4 -13.86667 0
v -39.46667 -14.93333 0
v -40.53334 -14.93333 0
v -40.53334 -13.86667 0
v -39.46667 -13.86667 0
v -40.53334 -14.93333 0
v -41.6 -14.93333 0
v -41.6 -13.86667 0
v -40.53334 -13.86667 0
v -49.06667 -14.93333 0
v -50.13334 -14.93333 0
v -50.13334 -13.86667 0
v -49.06667 -13.86667 0
v -50.13334 -14.93333 0
v -51.2 -14.93333 0
v -51.2 -13.86667 0
v -50.13334 -13.86667 0
v -51.2 -14.93333 0
v -52.26667 -14.93333 0
v -52.26667 -13.86667 0
v -51.2 -13.86667 0
v -38.4 -16 0
v -39.46667 -16 0
v -39.46667 -14.93333 0
v -38.4 -14.93333 0
v -40.53334 -16 0
v -41.6 -16 0
v -41.6 -14.93333 0
v -40.53334 -14.93333 0
v -49.06667 -16 0
v -50.13334 -16 0
v -50.13334 -14.93333 0
v -49.06667 -14.93333 0
v -51.2 -16 0
v -52.26667 -16 0
v -52.26667 -14.93333 0
v -51.2 -14.93333 0
v -38.4 -17.06667 0
v -39.46667 -17.06667 0
v -39.46667 -16 0
v -38.4 -16 0
v -40.53334 -17.06667 0
v -41.6 -17.06667 0
v -41.6 -16 0
v -40.53334 -16 0
v -49.06667 -17.06667 0
v -50.13334 -17.06667 0
v -50.13334 -16 0
v -49.06667 -16 0
v -51.2 -17.06667 0
v -52.26667 -17.06667 0
v -52.26667 -16 0
v -51.2 -16 0
v -38.4 -18.13334 0
v -39.46667 -18.13334 0
v -39.46667 -17.06667 0
v -38.4 -17.06667 0
v -40.53334 -18.13334 0
v -41.6 -18.13334 0
v -41.6 -17.06667 0
v -40.53334 -17.06667 0
v -49.06667 -18.13334 0
v -50.13334 -18.13334 0
v -50.13334 -17.06667 0
v -49.06667 -17.06667 0
v -51.2 -18.13334 0
v -52.26667 -18.13334 0
v -52.26667 -17.06667 0
v -51.2 -17.06667 0
v -38.4 -19.2 0
v -39.46667 -19.2 0
v -39.46667 -18.13334 0
v -38.4 -18.13334 0
v -40.53334 -19.2 0
v -41.6 -19.2 0
v -41.6 -18.13334 0
v -40.53334 -18.13334 0
v -49.06667 -19.2 0
v -50.13334 -19.2 0
v -50.13334 -18.13334 0
v -49.06667 -18.13334 0
v -51.2 -19.2 0
v -52.26667 -19.2 0
v -52.26667 -18.13334 0
v -51.2 -18.13334 0
v -38.4 -20.26667 0
v -39.46667 -20.26667 0
v -39.46667 -19.2 0
v -38.4 -19.2 0
v -40.53334 -20.26667 0
v -41.6 -20.26667 0
v -41.6 -19.2 0
v -40.53334 -19.2 0
v -49.06667 -20.26667 0
v -50.13334 -20.26667 0
v -50.13334 -19.2 0
v -49.06667 -19.2 0
v -51.2 -20.26667 0
v -52.26667 -20.26667 0
v -52.26667 -19.2 0
v -51.2 -19.2 0
v -38.4 -21.33333 0
v -39.46667 -21.33333 0
v -39.46667 -20.26667 0
v -38.4 -20.26667 0
v -40.53334 -21.33333 0
v -41.6 -21.33333 0
v -41.6 -20.26667 0
v -40.53334 -20.26667 0
v -49.06667 -21.33333 0
v -50.13334 -21.33333 0
v -50.13334 -20.26667 0
v -49.06667 -20.26667 0
v -51.2 -21.33333 0
v -52.26667 -21.33333 0
v -52.26667 -20.26667 0
v -51.2 -20.26667 0
v -38.4 -22.4 0
v -39.46667 -22.4 0
v -39.46667 -21.33333 0
v -38.4 -21.33333 0
v -40.53334 -22.4 0
v -41.6 -22.4 0
v -41.6 -21.33333 0
v -40.53334 -21.33333 0
v -49.06667 -22.4 0
v -50.13334 -22.4 0
v -50.13334 -21.33333 0
v -49.06667 -21.33333 0
v -51.2 -22.4 0
v -52.26667 -22.4 0
v -52.26667 -21.33333 0
v -51.2 -21.33333 0
v -38.4 -23.46667 0
v -39.46667 -23.46667 0
v -39.46667 -22.4 0
v -38.4 -22.4 0
v -40.53334 -23.46667 0
v -41.6 -23.46667 0
v -41.6 -22.4 0
v -40.53334 -22.4 0
v -49.06667 -23.46667 0
v -50.13334 -23.46667 0
v -50.13334 -22.4 0
v -49.06667 -22.4 0
v -51.2 -23.46667 0
v -52.26667 -23.46667 0
v -52.26667 -22.4 0
v -51.2 -22.4 0
v -38.4 -24.53333 0
v -39.46667 -24.53333 0
v -39.46667 -23.46667 0
v -38.4 -23.46667 0
v -40.53334 -24.53333 0
v -41.6 -24.53333 0
v -41.6 -23.46667 0
v -40.53334 -23.46667 0
v -49.06667 -24.53333 0
v -50.13334 -24.53333 0
v -50.13334 -23.46667 0
v -49.06667 -23.46667 0
v -51.2 -24.53333 0
v -52.26667 -24.53333 0
v -52.26667 -23.46667 0
v -51.2 -23.46667 0
v -38.4 -25.6 0
v -39.46667 -25.6 0
v -39.46667 -24.53333 0
v -38.4 -24.53333 0
v -40.53334 -25.6 0
v -41.6 -25.6 0
v -41.6 -24.53333 0
v -40.53334 -24.53333 0
v -49.06667 -25.6 0
v -50.13334 -25.6 0
v -50.13334 -24.53333 0
v -49.06667 -24.53333 0
v -51.2 -25.6 0
v -52.26667 -25.6 0
v -52.26667 -24.53333 0
v -51.2 -24.53333 0
v -38.4 -26.66667 0
v -39.46667 -26.66667 0
v -39.46667 -25.6 0
v -38.4 -25.6 0
v -40.53334 -26.66667 0
v -41.6 -26.66667 0
v -41.6 -25.6 0
v -40.53334 -25.6 0
v -49.06667 -26.66667 0
v -50.13334 -26.66667 0
v -50.13334 -25.6 0
v -49.06667 -25.6 0
v -51.2 -26.66667 0
v -52.26667 -26.66667 0
v -52.26667 -25.6 0
v -51.2 -25.6 0
v -38.4 -27.73334 0
v -39.46667 -27.73334 0
v -39.46667 -26.66667 0
v -38.4 -26.66667 0
v -40.53334 -27.73334 0
v -41.6 -27.73334 0
v -41.6 -26.66667 0
v -40.53334 -26.66667 0
v -49.06667 -27.73334 0
v -50.13334 -27.73334 0
v -50.13334 -26.66667 0
v -49.06667 -26.66667 0
v -51.2 -27.73334 0
v -52.26667 -27.73334 0
v -52.26667 -26.66667 0
v -51.2 -26.66667 0
v -38.4 -28.8 0
v -39.46667 -28.8 0
v -39.46667 -27.73334 0
v -38.4 -27.73334 0
v -40.53334 -28.8 0
v -41.6 -28.8 0
v -41.6 -27.73334 0
v -40.53334 -27.73334 0
v -49.06667 -28.8 0
v -50.13334 -28.8 0
v -50.13334 -27.73334 0
v -49.06667 -27.73334 0
v -51.2 -28.8 0
v -52.26667 -28.8 0
v -52.26667 -27.73334 0
v -51.2 -27.73334 0
v -38.4 -29.86667 0
v -39.46667 -29.86667 0
v -39.46667 -28.8 0
v -38.4 -28.8 0
v -40.53334 -29.86667 0
v -41.6 -29.86667 0
v -41.6 -28.8 0
v -40.53334 -28.8 0
v -49.06667 -29.86667 0
v -50.13334 -29.86667 0
v -50.13334 -28.8 0
v -49.06667 -28.8 0
v -51.2 -29.86667 0
v -52.26667 -29.86667 0
v -52.26667 -28.8 0
v -51.2 -28.8 0
v -38.4 -30.93333 0
v -39.46667 -30.93333 0
v -39.46667 -29.86667 0
v -38.4 -29.86667 0
v -40.53334 -30.93333 0
v -41.6 -30.93333 0
v -41.6 -29.86667 0
v -40.53334 -29.86667 0
v -41.6 -30.93333 0
v -42.66667 -30.93333 0
v -42.66667 -29.86667 0
v -41.6 -29.86667 0
v -42.66667 -30.93333 0
v -43.73334 -30.93333 0
v -43.73334 -29.86667 0
v -42.66667 -29.86667 0
v -43.73334 -30.93333 0
v -44.8 -30.93333 0
v -44.8 -29.86667 0
v -43.73334 -29.86667 0
v -44.8 -30.93333 0
v -45.86667 -30.93333 0
v -45.86667 -29.86667 0
v -44.8 -29.86667 0
v -45.86667 -30.93333 0
v -46.93333 -30.93333 0
v -46.93333 -29.86667 0
v -45.86667 -29.86667 0
v -46.93333 -30.93333 0
v -48 -30.93333 0
v -48 -29.86667 0
v -46.93333 -29.86667 0
v -48 -30.93333 0
v -49.06667 -30.93333 0
v -49.06667 -29.86667 0
v -48 -29.86667 0
v -49.06667 -30.93333 0
v -50.13334 -30.93333 0
v -50.13334 -29.86667 0
v -49.06667 -29.86667 0
v -51.2 -30.93333 0
v -52.26667 -30.93333 0
v -52.26667 -29.86667 0
v -51.2 -29.86667 0
v -38.4 -32 0
v -39.46667 -32 0
v -39.46667 -30.93333 0
v -38.4 -30.93333 0
v -40.53334 -32 0
v -41.6 -32 0
v -41.6 -30.93333 0
v -40.53334 -30.93333 0
v -41.6 -32 0
v -42.66667 -32 0
v -42.66667 -30.93333 0
v -41.6 -30.93333 0
v -42.66667 -32 0
v -43.73334 -32 0
v -43.73334 -30.93333 0
v -42.66667 -30.93333 0
v -43.73334 -32 0
v -44.8 -32 0
v -44.8 -30.93333 0
v -43.73334 -30.93333 0
v -44.8 -32 0
v -45.86667 -32 0
v -45.86667 -30.93333 0
v -44.8 -30.93333 0
v -45.86667 -32 0
v -46.93333 -32 0
v -46.93333 -30.93333 0
v -45.86667 -30.93333 0
v -46.93333 -32 0
v -48 -32 0
v -48 -30.93333 0
v -46.93333 -30.93333 0
v -48 -32 0
v -49.06667 -32 0
v -49.06667 -30.93333 0
v -48 -30.93333 0
v -49.06667 -32 0
v -50.13334 -32 0
v -50.13334 -30.93333 0
v -49.06667 -30.93333 0
v -51.2 -32 0
v -52.26667 -32 0
v -52.26667 -30.93333 0
v -51.2 -30.93333 0
v -38.4 -33.06667 0
v -39.46667 -33.06667 0
v -39.46667 -32 0
v -38.4 -32 0
v -51.2 -33.06667 0
v -52.26667 -33.06667 0
v -52.26667 -32 0
v -51.2 -32 0
v -38.4 -34.13334 0
v -39.46667 -34.13334 0
v -39.46667 -33.06667 0
v -38.4 -33.06667 0
v -51.2 -34.13334 0
v -52.26667 -34.13334 0
v -52.26667 -33.06667 0
v -51.2 -33.06667 0
v -38.4 -35.2 0
v -39.46667 -35.2 0
v -39.46667 -34.13334 0
v -38.4 -34.13334 0
v -51.2 -35.2 0
v -52.26667 -35.2 0
v -52.26667 -34.13334 0
v -51.2 -34.13334 0
v -38.4 -36.26667 0
v -39.46667 -36.26667 0
v -39.46667 -35.2 0
v -38.4 -35.2 0
v -51.2 -36.26667 0
v -52.26667 -36.26667 0
v -52.26667 -35.2 0
v -51.2 -35.2 0
v -38.4 -37.33334 0
v -39.46667 -37.33334 0
v -39.46667 -36.26667 0
v -38.4 -36.26667 0
v -51.2 -37.33334 0
v -52.26667 -37.33334 0
v -52.26667 -36.26667 0
v -51.2 -36.26667 0
v -38.4 -38.4 0
v -39.46667 -38.4 0
v -39.46667 -37.33334 0
v -38.4 -37.33334 0
v -51.2 -38.4 0
v -52.26667 -38.4 0
v -52.26667 -37.33334 0
v -51.2 -37.33334 0
v -38.4 -39.46667 0
v -39.46667 -39.46667 0
v -39.46667 -38.4 0
v -38.4 -38.4 0
v -48 -39.46667 0
v -49.06667 -39.46667 0
v -49.06667 -38.4 0
v -48 -38.4 0
v -49.06667 -39.46667 0
v -50.13334 -39.46667 0
v -50.13334 -38.4 0
v -49.06667 -38.4 0
v -51.2 -39.46667 0
v -52.26667 -39.46667 0
v -52.26667 -38.4 0
v -51.2 -38.4 0
v -38.4 -40.53334 0
v -39.46667 -40.53334 0
v -39.46667 -39.46667 0
v -38.4 -39.46667 0
v -48 -40.53334 0
v -49.06667 -40.53334 0
v -49.06667 -39.46667 0
v -48 -39.46667 0
v -49.06667 -40.53334 0
v -50.13334 -40.53334 0
v -50.13334 -39.46667 0
v -49.06667 -39.46667 0
v -51.2 -40.53334 0
v -52.26667 -40.53334 0
v -52.26667 -39.46667 0
v -51.2 -39.46667 0
v -38.4 -41.6 0
v -39.46667 -41.6 0
v -39.46667 -40.53334 0
v -38.4 -40.53334 0
v -48 -41.6 0
v -49.06667 -41.6 0
v -49.06667 -40.53334 0
v -48 -40.53334 0
v -49.06667 -41.6 0
v -50.13334 -41.6 0
v -50.13334 -40.53334 0
v -49.06667 -40.53334 0
v -51.2 -41.6 0
v -52.26667 -41.6 0
v -52.26667 -40.53334 0
v -51.2 -40.53334 0
v -38.4 -42.66667 0
v -39.46667 -42.66667 0
v -39.46667 -41.6 0
v -38.4 -41.6 0
v -40.53334 -42.66667 0
v -41.6 -42.66667 0
v -41.6 -41.6 0
v -40.53334 -41.6 0
v -41.6 -42.66667 0
v -42.66667 -42.66667 0
v -42.66667 -41.6 0
v -41.6 -41.6 0
v -48 -42.66667 0
v -49.06667 -42.66667 0
v -49.06667 -41.6 0
v -48 -41.6 0
v -49.06667 -42.66667 0
v -50.13334 -42.66667 0
v -50.13334 -41.6 0
v -49.06667 -41.6 0
v -51.2 -42.66667 0
v -52.26667 -42.66667 0
v -52.26667 -41.6 0
v -51.2 -41.6 0
v -38.4 -43.73334 0
v -39.46667 -43.73334 0
v -39.46667 -42.66667 0
v -38.4 -42.66667 0
v -40.53334 -43.73334 0
v -41.6 -43.73334 0
v -41.6 -42.66667 0
v -40.53334 -42.66667 0
v -41.6 -43.73334 0
v -42.66667 -43.73334 0
v -42.66667 -42.66667 0
v -41.6 -42.66667 0
v -48 -43.73334 0
v -49.06667 -43.73334 0
v -49.06667 -42.66667 0
v -48 -42.66667 0
v -49.06667 -43.73334 0
v -50.13334 -43.73334 0
v -50.13334 -42.66667 0
v -49.06667 -42.66667 0
v -51.2 -43.73334 0
v -52.26667 -43.73334 0
v -52.26667 -42.66667 0
v -51.2 -42.66667 0
v -38.4 -44.8 0
v -39.46667 -44.8 0
v -39.46667 -43.73334 0
v -38.4 -43.73334 0
v -40.53334 -44.8 0
v -41.6 -44.8 0
v -41.6 -43.73334 0
v -40.53334 -43.73334 0
v -41.6 -44.8 0
v -42.66667 -44.8 0
v -42.66667 -43.73334 0
v -41.6 -43.73334 0
v -48 -44.8 0
v -49.06667 -44.8 0
v -49.06667 -43.73334 0
v -48 -43.73334 0
v -49.06667 -44.8 0
v -50.13334 -44.8 0
v -50.13334 -43.73334 0
v -49.06667 -43.73334 0
v -51.2 -44.8 0
v -52.26667 -44.8 0
v -52.26667 -43.73334 0
v -51.2 -43.73334 0
v -38.4 -45.86667 0
v -39.46667 -45.86667 0
v -39.46667 -44.8 0
v -38.4 -44.8 0
v -40.53334 -45.86667 0
v -41.6 -45.86667 0
v -41.6 -44.8 0
v -40.53334 -44.8 0
v -41.6 -45.86667 0
v -42.66667 -45.86667 0
v -42.66667 -44.8 0
v -41.6 -44.8 0
v -48 -45.86667 0
v -49.06667 -45.86667 0
v -49.06667 -44.8 0
v -48 -44.8 0
v -49.06667 -45.86667 0
v -50.13334 -45.86667 0
v -50.13334 -44.8 0
v -49.06667 -44.8 0
v -52.26667 -45.86667 0
v -53.33334 -45.86667 0
v -53.33334 -44.8 0
v -52.26667 -44.8 0
v -38.4 -46.93333 0
v -39.46667 -46.93333 0
v -39.46667 -45.86667 0
v -38.4 -45.86667 0
v -40.53334 -46.93333 0
v -41.6 -46.93333 0
v -41.6 -45.86667 0
v -40.53334 -45.86667 0
v -41.6 -46.93333 0
v -42.66667 -46.93333 0
v -42.66667 -45.86667 0
v -41.6 -45.86667 0
v -48 -46.93333 0
v -49.06667 -46.93333 0
v -49.06667 -45.86667 0
v -48 -45.86667 0
v -49.06667 -46.93333 0
v -50.13334 -46.93333 0
v -50.13334 -45.86667 0
v -49.06667 -45.86667 0
v -53.33334 -46.93333 0
v -54.4 -46.93333 0
v -54.4 -45.86667 0
v -53.33334 -45.86667 0
v -38.4 -48 0
v -39.46667 -48 0
v -39.46667 -46.93333 0
v -38.4 -46.93333 0
v -40.53334 -48 0
v -41.6 -48 0
v -41.6 -46.93333 0
v -40.53334 -46.93333 0
v -41.6 -48 0
v -42.66667 -48 0
v -42.66667 -46.93333 0
v -41.6 -46.93333 0
v -54.4 -48 0
v -55.46667 -48 0
v -55.46667 -46.93333 0
v -54.4 -46.93333 0
v -38.4 -49.06667 0
v -39.46667 -49.06667 0
v -39.46667 -48 0
v -38.4 -48 0
v -40.53334 -49.06667 0
v -41.6 -49.06667 0
v -41.6 -48 0
v -40.53334 -48 0
v -41.6 -49.06667 0
v -42.66667 -49.06667 0
v -42.66667 -48 0
v -41.6 -48 0
v -55.46667 -49.06667 0
v -56.53334 -49.06667 0
v -56.53334 -48 0
v -55.46667 -48 0
v -38.4 -50.13334 0
v -39.46667 -50.13334 0
v -39.46667 -49.06667 0
v -38.4 -49.06667 0
v -40.53334 -50.13334 0
v -41.6 -50.13334 0
v -41.6 -49.06667 0
v -40.53334 -49.06667 0
v -41.6 -50.13334 0
v -42.66667 -50.13334 0
v -42.66667 -49.06667 0
v -41.6 -49.06667 0
v -56.53334 -50.13334 0
v -57.6 -50.13334 0
v -57.6 -49.06667 0
v -56.53334 -49.06667 0
v -38.4 -51.2 0
v -39.46667 -51.2 0
v -39.46667 -50.13334 0
v -38.4 -50.13334 0
v -38.4 -52.26667 0
v -39.46667 -52.26667 0
v -39.46667 -51.2 0
v -38.4 -51.2 0
v -38.4 -53.33334 0
v -39.46667 -53.33334 0
v -39.46667 -52.26667 0
v -38.4 -52.26667 0

# Texture cooridinates (Count = 36)
vt 0.4204545 0.5152091
vt 0.4039256 0.5152091
vt 0.4039256 0.4847909
vt 0.4204545 0.4847909
vt 0.3677686 0.5152091
vt 0.3512397 0.5152091
vt 0.3512397 0.4847909
vt 0.3677686 0.4847909
vt 0.3853306 0.5152091
vt 0.3688017 0.5152091
vt 0.3688017 0.4847909
vt 0.3853306 0.4847909
vt 0.5268595 0.7756654
vt 0.5433884 0.7756654
vt 0.5433884 0.8060837
vt 0.5268595 0.8060837
vt 0.5444215 0.7756654
vt 0.5609504 0.7756654
vt 0.5609504 0.8060837
vt 0.5444215 0.8060837
vt 0.6849173 0.4505703
vt 0.6849173 0.4201521
vt 0.7014463 0.4201521
vt 0.7014463 0.4505703
vt 0.3161157 0.8726236
vt 0.3326446 0.8726236
vt 0.3326446 0.9030418
vt 0.3161157 0.9030418
vt 0.3161157 0.904943
vt 0.3326446 0.904943
vt 0.3326446 0.9353612
vt 0.3161157 0.9353612
vt 0.7014463 0.7414448
vt 0.6849173 0.7414448
vt 0.6849173 0.7110266
vt 0.7014463 0.7110266

# Normal
vn 0 0 -1

# Mesh description
g LMB_mesh_0005

# Faces
f 1/1/1 2/2/1 3/3/1 4/4/1
f 5/5/1 6/6/1 7/7/1 8/8/1
f 9/5/1 10/6/1 11/7/1 12/8/1
f 13/5/1 14/6/1 15/7/1 16/8/1
f 17/5/1 18/6/1 19/7/1 20/8/1
f 21/5/1 22/6/1 23/7/1 24/8/1
f 25/5/1 26/6/1 27/7/1 28/8/1
f 29/5/1 30/6/1 31/7/1 32/8/1
f 33/5/1 34/6/1 35/7/1 36/8/1
f 37/5/1 38/6/1 39/7/1 40/8/1
f 41/5/1 42/6/1 43/7/1 44/8/1
f 45/5/1 46/6/1 47/7/1 48/8/1
f 49/9/1 50/10/1 51/11/1 52/12/1
f 53/13/1 54/14/1 55/15/1 56/16/1
f 57/17/1 58/18/1 59/19/1 60/20/1
f 61/21/1 62/22/1 63/23/1 64/24/1
f 65/23/1 66/24/1 67/21/1 68/22/1
f 69/13/1 70/14/1 71/15/1 72/16/1
f 73/17/1 74/18/1 75/19/1 76/20/1
f 77/21/1 78/22/1 79/23/1 80/24/1
f 81/21/1 82/22/1 83/23/1 84/24/1
f 85/23/1 86/24/1 87/21/1 88/22/1
f 89/23/1 90/24/1 91/21/1 92/22/1
f 93/21/1 94/22/1 95/23/1 96/24/1
f 97/21/1 98/22/1 99/23/1 100/24/1
f 101/23/1 102/24/1 103/21/1 104/22/1
f 105/23/1 106/24/1 107/21/1 108/22/1
f 109/21/1 110/22/1 111/23/1 112/24/1
f 113/21/1 114/22/1 115/23/1 116/24/1
f 117/23/1 118/24/1 119/21/1 120/22/1
f 121/23/1 122/24/1 123/21/1 124/22/1
f 125/21/1 126/22/1 127/23/1 128/24/1
f 129/21/1 130/22/1 131/23/1 132/24/1
f 133/23/1 134/24/1 135/21/1 136/22/1
f 137/23/1 138/24/1 139/21/1 140/22/1
f 141/21/1 142/22/1 143/23/1 144/24/1
f 145/21/1 146/22/1 147/23/1 148/24/1
f 149/23/1 150/24/1 151/21/1 152/22/1
f 153/23/1 154/24/1 155/21/1 156/22/1
f 157/21/1 158/22/1 159/23/1 160/24/1
f 161/21/1 162/22/1 163/23/1 164/24/1
f 165/23/1 166/24/1 167/21/1 168/22/1
f 169/23/1 170/24/1 171/21/1 172/22/1
f 173/21/1 174/22/1 175/23/1 176/24/1
f 177/21/1 178/22/1 179/23/1 180/24/1
f 181/23/1 182/24/1 183/21/1 184/22/1
f 185/23/1 186/24/1 187/21/1 188/22/1
f 189/21/1 190/22/1 191/23/1 192/24/1
f 193/21/1 194/22/1 195/23/1 196/24/1
f 197/23/1 198/24/1 199/21/1 200/22/1
f 201/23/1 202/24/1 203/21/1 204/22/1
f 205/21/1 206/22/1 207/23/1 208/24/1
f 209/21/1 210/22/1 211/23/1 212/24/1
f 213/23/1 214/24/1 215/21/1 216/22/1
f 217/23/1 218/24/1 219/21/1 220/22/1
f 221/21/1 222/22/1 223/23/1 224/24/1
f 225/21/1 226/22/1 227/23/1 228/24/1
f 229/23/1 230/24/1 231/21/1 232/22/1
f 233/23/1 234/24/1 235/21/1 236/22/1
f 237/21/1 238/22/1 239/23/1 240/24/1
f 241/21/1 242/22/1 243/23/1 244/24/1
f 245/23/1 246/24/1 247/21/1 248/22/1
f 249/23/1 250/24/1 251/21/1 252/22/1
f 253/21/1 254/22/1 255/23/1 256/24/1
f 257/21/1 258/22/1 259/23/1 260/24/1
f 261/23/1 262/24/1 263/21/1 264/22/1
f 265/23/1 266/24/1 267/21/1 268/22/1
f 269/21/1 270/22/1 271/23/1 272/24/1
f 273/21/1 274/22/1 275/23/1 276/24/1
f 277/23/1 278/24/1 279/21/1 280/22/1
f 281/23/1 282/24/1 283/21/1 284/22/1
f 285/21/1 286/22/1 287/23/1 288/24/1
f 289/21/1 290/22/1 291/23/1 292/24/1
f 293/23/1 294/24/1 295/21/1 296/22/1
f 297/23/1 298/24/1 299/21/1 300/22/1
f 301/21/1 302/22/1 303/23/1 304/24/1
f 305/1/1 306/2/1 307/3/1 308/4/1
f 309/5/1 310/6/1 311/7/1 312/8/1
f 313/5/1 314/6/1 315/7/1 316/8/1
f 317/5/1 318/6/1 319/7/1 320/8/1
f 321/5/1 322/6/1 323/7/1 324/8/1
f 325/5/1 326/6/1 327/7/1 328/8/1
f 329/5/1 330/6/1 331/7/1 332/8/1
f 333/5/1 334/6/1 335/7/1 336/8/1
f 337/9/1 338/10/1 339/11/1 340/12/1
f 341/23/1 342/24/1 343/21/1 344/22/1
f 345/21/1 346/22/1 347/23/1 348/24/1
f 349/11/1 350/12/1 351/9/1 352/10/1
f 353/25/1 354/26/1 355/27/1 356/28/1
f 357/11/1 358/12/1 359/9/1 360/10/1
f 361/7/1 362/8/1 363/5/1 364/6/1
f 365/7/1 366/8/1 367/5/1 368/6/1
f 369/7/1 370/8/1 371/5/1 372/6/1
f 373/3/1 374/4/1 375/1/1 376/2/1
f 377/29/1 378/30/1 379/31/1 380/32/1
f 381/3/1 382/4/1 383/1/1 384/2/1
f 385/23/1 386/24/1 387/21/1 388/22/1
f 389/21/1 390/22/1 391/23/1 392/24/1
f 393/23/1 394/24/1 395/21/1 396/22/1
f 397/21/1 398/22/1 399/23/1 400/24/1
f 401/23/1 402/24/1 403/21/1 404/22/1
f 405/21/1 406/22/1 407/23/1 408/24/1
f 409/23/1 410/24/1 411/21/1 412/22/1
f 413/21/1 414/22/1 415/23/1 416/24/1
f 417/23/1 418/24/1 419/21/1 420/22/1
f 421/21/1 422/22/1 423/23/1 424/24/1
f 425/23/1 426/24/1 427/21/1 428/22/1
f 429/21/1 430/22/1 431/23/1 432/24/1
f 433/23/1 434/24/1 435/21/1 436/22/1
f 437/21/1 438/22/1 439/23/1 440/24/1
f 441/33/1 442/34/1 443/35/1 444/36/1
f 445/33/1 446/34/1 447/35/1 448/36/1
f 449/23/1 450/24/1 451/21/1 452/22/1
f 453/21/1 454/22/1 455/23/1 456/24/1
f 457/33/1 458/34/1 459/35/1 460/36/1
f 461/33/1 462/34/1 463/35/1 464/36/1
f 465/23/1 466/24/1 467/21/1 468/22/1
f 469/21/1 470/22/1 471/23/1 472/24/1
f 473/33/1 474/34/1 475/35/1 476/36/1
f 477/33/1 478/34/1 479/35/1 480/36/1
f 481/23/1 482/24/1 483/21/1 484/22/1
f 485/21/1 486/22/1 487/23/1 488/24/1
f 489/35/1 490/36/1 491/33/1 492/34/1
f 493/35/1 494/36/1 495/33/1 496/34/1
f 497/33/1 498/34/1 499/35/1 500/36/1
f 501/33/1 502/34/1 503/35/1 504/36/1
f 505/23/1 506/24/1 507/21/1 508/22/1
f 509/21/1 510/22/1 511/23/1 512/24/1
f 513/35/1 514/36/1 515/33/1 516/34/1
f 517/35/1 518/36/1 519/33/1 520/34/1
f 521/33/1 522/34/1 523/35/1 524/36/1
f 525/33/1 526/34/1 527/35/1 528/36/1
f 529/23/1 530/24/1 531/21/1 532/22/1
f 533/21/1 534/22/1 535/23/1 536/24/1
f 537/35/1 538/36/1 539/33/1 540/34/1
f 541/35/1 542/36/1 543/33/1 544/34/1
f 545/33/1 546/34/1 547/35/1 548/36/1
f 549/33/1 550/34/1 551/35/1 552/36/1
f 553/23/1 554/24/1 555/21/1 556/22/1
f 557/21/1 558/22/1 559/23/1 560/24/1
f 561/35/1 562/36/1 563/33/1 564/34/1
f 565/35/1 566/36/1 567/33/1 568/34/1
f 569/33/1 570/34/1 571/35/1 572/36/1
f 573/33/1 574/34/1 575/35/1 576/36/1
f 577/22/1 578/23/1 579/24/1 580/21/1
f 581/21/1 582/22/1 583/23/1 584/24/1
f 585/35/1 586/36/1 587/33/1 588/34/1
f 589/35/1 590/36/1 591/33/1 592/34/1
f 593/33/1 594/34/1 595/35/1 596/36/1
f 597/33/1 598/34/1 599/35/1 600/36/1
f 601/22/1 602/23/1 603/24/1 604/21/1
f 605/21/1 606/22/1 607/23/1 608/24/1
f 609/35/1 610/36/1 611/33/1 612/34/1
f 613/35/1 614/36/1 615/33/1 616/34/1
f 617/22/1 618/23/1 619/24/1 620/21/1
f 621/21/1 622/22/1 623/23/1 624/24/1
f 625/35/1 626/36/1 627/33/1 628/34/1
f 629/35/1 630/36/1 631/33/1 632/34/1
f 633/22/1 634/23/1 635/24/1 636/21/1
f 637/21/1 638/22/1 639/23/1 640/24/1
f 641/35/1 642/36/1 643/33/1 644/34/1
f 645/35/1 646/36/1 647/33/1 648/34/1
f 649/22/1 650/23/1 651/24/1 652/21/1
f 653/21/1 654/22/1 655/23/1 656/24/1
f 657/21/1 658/22/1 659/23/1 660/24/1
f 661/21/1 662/22/1 663/23/1 664/24/1

