# Tiled2Unity generated file. Do not modify by hand.
# Wavefront file for 'HesHall-Floor1_mesh_0007.obj'

# Vertices (Count = 48)
v -59.73334 -34.13334 0
v -60.8 -34.13334 0
v -60.8 -33.06667 0
v -59.73334 -33.06667 0
v -66.13334 -34.13334 0
v -67.2 -34.13334 0
v -67.2 -33.06667 0
v -66.13334 -33.06667 0
v -72.53334 -34.13334 0
v -73.60001 -34.13334 0
v -73.60001 -33.06667 0
v -72.53334 -33.06667 0
v -78.93333 -34.13334 0
v -80.00001 -34.13334 0
v -80.00001 -33.06667 0
v -78.93333 -33.06667 0
v -85.33334 -34.13334 0
v -86.4 -34.13334 0
v -86.4 -33.06667 0
v -85.33334 -33.06667 0
v -49.06667 -72.53334 0
v -50.13334 -72.53334 0
v -50.13334 -71.46667 0
v -49.06667 -71.46667 0
v -60.8 -72.53334 0
v -61.86667 -72.53334 0
v -61.86667 -71.46667 0
v -60.8 -71.46667 0
v -69.33334 -72.53334 0
v -70.4 -72.53334 0
v -70.4 -71.46667 0
v -69.33334 -71.46667 0
v -80.00001 -72.53334 0
v -81.06667 -72.53334 0
v -81.06667 -71.46667 0
v -80.00001 -71.46667 0
v -20.26667 -82.13334 0
v -21.33333 -82.13334 0
v -21.33333 -81.06667 0
v -20.26667 -81.06667 0
v -23.46667 -82.13334 0
v -24.53333 -82.13334 0
v -24.53333 -81.06667 0
v -23.46667 -81.06667 0
v -26.66667 -82.13334 0
v -27.73334 -82.13334 0
v -27.73334 -81.06667 0
v -26.66667 -81.06667 0

# Texture cooridinates (Count = 4)
vt 0.3161157 0.743346
vt 0.3326446 0.743346
vt 0.3326446 0.7737643
vt 0.3161157 0.7737643

# Normal
vn 0 0 -1

# Mesh description
g HesHall-Floor1_mesh_0007

# Faces
f 1/1/1 2/2/1 3/3/1 4/4/1
f 5/1/1 6/2/1 7/3/1 8/4/1
f 9/1/1 10/2/1 11/3/1 12/4/1
f 13/1/1 14/2/1 15/3/1 16/4/1
f 17/1/1 18/2/1 19/3/1 20/4/1
f 21/1/1 22/2/1 23/3/1 24/4/1
f 25/1/1 26/2/1 27/3/1 28/4/1
f 29/1/1 30/2/1 31/3/1 32/4/1
f 33/1/1 34/2/1 35/3/1 36/4/1
f 37/1/1 38/2/1 39/3/1 40/4/1
f 41/1/1 42/2/1 43/3/1 44/4/1
f 45/1/1 46/2/1 47/3/1 48/4/1

