# Tiled2Unity generated file. Do not modify by hand.
# Wavefront file for 'HesHall-Floor1_mesh_0003.obj'

# Vertices (Count = 292)
v -42.66667 -28.8 0
v -43.73334 -28.8 0
v -43.73334 -27.73334 0
v -42.66667 -27.73334 0
v -43.73334 -28.8 0
v -44.8 -28.8 0
v -44.8 -27.73334 0
v -43.73334 -27.73334 0
v -48 -28.8 0
v -49.06667 -28.8 0
v -49.06667 -27.73334 0
v -48 -27.73334 0
v -50.13334 -28.8 0
v -51.2 -28.8 0
v -51.2 -27.73334 0
v -50.13334 -27.73334 0
v -54.4 -28.8 0
v -55.46667 -28.8 0
v -55.46667 -27.73334 0
v -54.4 -27.73334 0
v -41.6 -30.93333 0
v -42.66667 -30.93333 0
v -42.66667 -29.86667 0
v -41.6 -29.86667 0
v -42.66667 -30.93333 0
v -43.73334 -30.93333 0
v -43.73334 -29.86667 0
v -42.66667 -29.86667 0
v -43.73334 -30.93333 0
v -44.8 -30.93333 0
v -44.8 -29.86667 0
v -43.73334 -29.86667 0
v -44.8 -30.93333 0
v -45.86667 -30.93333 0
v -45.86667 -29.86667 0
v -44.8 -29.86667 0
v -45.86667 -30.93333 0
v -46.93333 -30.93333 0
v -46.93333 -29.86667 0
v -45.86667 -29.86667 0
v -46.93333 -30.93333 0
v -48 -30.93333 0
v -48 -29.86667 0
v -46.93333 -29.86667 0
v -48 -30.93333 0
v -49.06667 -30.93333 0
v -49.06667 -29.86667 0
v -48 -29.86667 0
v -50.13334 -30.93333 0
v -51.2 -30.93333 0
v -51.2 -29.86667 0
v -50.13334 -29.86667 0
v -51.2 -30.93333 0
v -52.26667 -30.93333 0
v -52.26667 -29.86667 0
v -51.2 -29.86667 0
v -52.26667 -30.93333 0
v -53.33334 -30.93333 0
v -53.33334 -29.86667 0
v -52.26667 -29.86667 0
v -53.33334 -30.93333 0
v -54.4 -30.93333 0
v -54.4 -29.86667 0
v -53.33334 -29.86667 0
v -54.4 -30.93333 0
v -55.46667 -30.93333 0
v -55.46667 -29.86667 0
v -54.4 -29.86667 0
v -55.46667 -30.93333 0
v -56.53334 -30.93333 0
v -56.53334 -29.86667 0
v -55.46667 -29.86667 0
v -56.53334 -30.93333 0
v -57.6 -30.93333 0
v -57.6 -29.86667 0
v -56.53334 -29.86667 0
v -42.66667 -32 0
v -43.73334 -32 0
v -43.73334 -30.93333 0
v -42.66667 -30.93333 0
v -50.13334 -32 0
v -51.2 -32 0
v -51.2 -30.93333 0
v -50.13334 -30.93333 0
v -32 -33.06667 0
v -33.06667 -33.06667 0
v -33.06667 -32 0
v -32 -32 0
v -35.2 -33.06667 0
v -36.26667 -33.06667 0
v -36.26667 -32 0
v -35.2 -32 0
v -38.4 -33.06667 0
v -39.46667 -33.06667 0
v -39.46667 -32 0
v -38.4 -32 0
v -41.6 -34.13334 0
v -42.66667 -34.13334 0
v -42.66667 -33.06667 0
v -41.6 -33.06667 0
v -21.33333 -45.86667 0
v -22.4 -45.86667 0
v -22.4 -44.8 0
v -21.33333 -44.8 0
v -22.4 -45.86667 0
v -23.46667 -45.86667 0
v -23.46667 -44.8 0
v -22.4 -44.8 0
v -17.06667 -50.13334 0
v -18.13334 -50.13334 0
v -18.13334 -49.06667 0
v -17.06667 -49.06667 0
v -18.13334 -50.13334 0
v -19.2 -50.13334 0
v -19.2 -49.06667 0
v -18.13334 -49.06667 0
v -19.2 -50.13334 0
v -20.26667 -50.13334 0
v -20.26667 -49.06667 0
v -19.2 -49.06667 0
v -17.06667 -53.33334 0
v -18.13334 -53.33334 0
v -18.13334 -52.26667 0
v -17.06667 -52.26667 0
v -18.13334 -53.33334 0
v -19.2 -53.33334 0
v -19.2 -52.26667 0
v -18.13334 -52.26667 0
v -19.2 -53.33334 0
v -20.26667 -53.33334 0
v -20.26667 -52.26667 0
v -19.2 -52.26667 0
v -17.06667 -54.4 0
v -18.13334 -54.4 0
v -18.13334 -53.33334 0
v -17.06667 -53.33334 0
v -17.06667 -55.46667 0
v -18.13334 -55.46667 0
v -18.13334 -54.4 0
v -17.06667 -54.4 0
v -17.06667 -56.53334 0
v -18.13334 -56.53334 0
v -18.13334 -55.46667 0
v -17.06667 -55.46667 0
v -18.13334 -56.53334 0
v -19.2 -56.53334 0
v -19.2 -55.46667 0
v -18.13334 -55.46667 0
v -19.2 -56.53334 0
v -20.26667 -56.53334 0
v -20.26667 -55.46667 0
v -19.2 -55.46667 0
v -36.26667 -72.53334 0
v -37.33334 -72.53334 0
v -37.33334 -71.46667 0
v -36.26667 -71.46667 0
v -41.6 -72.53334 0
v -42.66667 -72.53334 0
v -42.66667 -71.46667 0
v -41.6 -71.46667 0
v -42.66667 -72.53334 0
v -43.73334 -72.53334 0
v -43.73334 -71.46667 0
v -42.66667 -71.46667 0
v -43.73334 -72.53334 0
v -44.8 -72.53334 0
v -44.8 -71.46667 0
v -43.73334 -71.46667 0
v -36.26667 -73.60001 0
v -37.33334 -73.60001 0
v -37.33334 -72.53334 0
v -36.26667 -72.53334 0
v -21.33333 -86.4 0
v -22.4 -86.4 0
v -22.4 -85.33334 0
v -21.33333 -85.33334 0
v -24.53333 -86.4 0
v -25.6 -86.4 0
v -25.6 -85.33334 0
v -24.53333 -85.33334 0
v -27.73334 -86.4 0
v -28.8 -86.4 0
v -28.8 -85.33334 0
v -27.73334 -85.33334 0
v -21.33333 -87.46667 0
v -22.4 -87.46667 0
v -22.4 -86.4 0
v -21.33333 -86.4 0
v -24.53333 -87.46667 0
v -25.6 -87.46667 0
v -25.6 -86.4 0
v -24.53333 -86.4 0
v -27.73334 -87.46667 0
v -28.8 -87.46667 0
v -28.8 -86.4 0
v -27.73334 -86.4 0
v -21.33333 -88.53334 0
v -22.4 -88.53334 0
v -22.4 -87.46667 0
v -21.33333 -87.46667 0
v -24.53333 -88.53334 0
v -25.6 -88.53334 0
v -25.6 -87.46667 0
v -24.53333 -87.46667 0
v -27.73334 -88.53334 0
v -28.8 -88.53334 0
v -28.8 -87.46667 0
v -27.73334 -87.46667 0
v -21.33333 -89.60001 0
v -22.4 -89.60001 0
v -22.4 -88.53334 0
v -21.33333 -88.53334 0
v -24.53333 -89.60001 0
v -25.6 -89.60001 0
v -25.6 -88.53334 0
v -24.53333 -88.53334 0
v -27.73334 -89.60001 0
v -28.8 -89.60001 0
v -28.8 -88.53334 0
v -27.73334 -88.53334 0
v -21.33333 -90.66667 0
v -22.4 -90.66667 0
v -22.4 -89.60001 0
v -21.33333 -89.60001 0
v -24.53333 -90.66667 0
v -25.6 -90.66667 0
v -25.6 -89.60001 0
v -24.53333 -89.60001 0
v -27.73334 -90.66667 0
v -28.8 -90.66667 0
v -28.8 -89.60001 0
v -27.73334 -89.60001 0
v -21.33333 -92.8 0
v -22.4 -92.8 0
v -22.4 -91.73334 0
v -21.33333 -91.73334 0
v -24.53333 -92.8 0
v -25.6 -92.8 0
v -25.6 -91.73334 0
v -24.53333 -91.73334 0
v -27.73334 -92.8 0
v -28.8 -92.8 0
v -28.8 -91.73334 0
v -27.73334 -91.73334 0
v -21.33333 -93.86667 0
v -22.4 -93.86667 0
v -22.4 -92.8 0
v -21.33333 -92.8 0
v -24.53333 -93.86667 0
v -25.6 -93.86667 0
v -25.6 -92.8 0
v -24.53333 -92.8 0
v -27.73334 -93.86667 0
v -28.8 -93.86667 0
v -28.8 -92.8 0
v -27.73334 -92.8 0
v -21.33333 -94.93334 0
v -22.4 -94.93334 0
v -22.4 -93.86667 0
v -21.33333 -93.86667 0
v -24.53333 -94.93334 0
v -25.6 -94.93334 0
v -25.6 -93.86667 0
v -24.53333 -93.86667 0
v -27.73334 -94.93334 0
v -28.8 -94.93334 0
v -28.8 -93.86667 0
v -27.73334 -93.86667 0
v -21.33333 -96.00001 0
v -22.4 -96.00001 0
v -22.4 -94.93334 0
v -21.33333 -94.93334 0
v -24.53333 -96.00001 0
v -25.6 -96.00001 0
v -25.6 -94.93334 0
v -24.53333 -94.93334 0
v -27.73334 -96.00001 0
v -28.8 -96.00001 0
v -28.8 -94.93334 0
v -27.73334 -94.93334 0
v -21.33333 -97.06667 0
v -22.4 -97.06667 0
v -22.4 -96.00001 0
v -21.33333 -96.00001 0
v -24.53333 -97.06667 0
v -25.6 -97.06667 0
v -25.6 -96.00001 0
v -24.53333 -96.00001 0
v -27.73334 -97.06667 0
v -28.8 -97.06667 0
v -28.8 -96.00001 0
v -27.73334 -96.00001 0

# Texture cooridinates (Count = 136)
vt 0.7439825 0.2229508
vt 0.7789934 0.2229508
vt 0.7789934 0.2754098
vt 0.7439825 0.2754098
vt 0.7811816 0.2229508
vt 0.8161926 0.2229508
vt 0.8161926 0.2754098
vt 0.7811816 0.2754098
vt 0.595186 0.1114754
vt 0.6301969 0.1114754
vt 0.6301969 0.1639344
vt 0.595186 0.1639344
vt 0.6695843 0.1114754
vt 0.7045952 0.1114754
vt 0.7045952 0.1639344
vt 0.6695843 0.1639344
vt 0.7439825 0.2786885
vt 0.7789934 0.2786885
vt 0.7789934 0.3311476
vt 0.7439825 0.3311476
vt 0.595186 0.4459016
vt 0.6301969 0.4459016
vt 0.6301969 0.4983606
vt 0.595186 0.4983606
vt 0.6323851 0.4459016
vt 0.6673961 0.4459016
vt 0.6673961 0.4983606
vt 0.6323851 0.4983606
vt 0.6695843 0.4459016
vt 0.7045952 0.4459016
vt 0.7045952 0.4983606
vt 0.6695843 0.4983606
vt 0.6323851 0.2786885
vt 0.6673961 0.2786885
vt 0.6673961 0.3311476
vt 0.6323851 0.3311476
vt 0.6323851 0.1114754
vt 0.6673961 0.1114754
vt 0.6673961 0.1639344
vt 0.6323851 0.1639344
vt 0.8183808 0.390164
vt 0.8533917 0.390164
vt 0.8533917 0.442623
vt 0.8183808 0.442623
vt 0.8183808 0.3344262
vt 0.8533917 0.3344262
vt 0.8533917 0.3868852
vt 0.8183808 0.3868852
vt 0.8183808 0.4459016
vt 0.8533917 0.4459016
vt 0.8533917 0.4983606
vt 0.8183808 0.4983606
vt 0.595186 0.2229508
vt 0.6301969 0.2229508
vt 0.6301969 0.2754098
vt 0.595186 0.2754098
vt 0.5207878 0.1114754
vt 0.5557987 0.1114754
vt 0.5557987 0.1639344
vt 0.5207878 0.1639344
vt 0.5207878 0.1672131
vt 0.5557987 0.1672131
vt 0.5557987 0.2196721
vt 0.5207878 0.2196721
vt 0.297593 0.1114754
vt 0.3326039 0.1114754
vt 0.3326039 0.1639344
vt 0.297593 0.1639344
vt 0.3347921 0.1114754
vt 0.3698031 0.1114754
vt 0.3698031 0.1639344
vt 0.3347921 0.1639344
vt 0.3719912 0.1114754
vt 0.4070022 0.1114754
vt 0.4070022 0.1639344
vt 0.3719912 0.1639344
vt 0.3719912 0.2786885
vt 0.4070022 0.2786885
vt 0.4070022 0.3311476
vt 0.3719912 0.3311476
vt 0.03719912 0.2786885
vt 0.07221007 0.2786885
vt 0.07221007 0.3311476
vt 0.03719912 0.3311476
vt 0.3347921 0.2786885
vt 0.3698031 0.2786885
vt 0.3698031 0.3311476
vt 0.3347921 0.3311476
vt 0.3719912 0.2229508
vt 0.4070022 0.2229508
vt 0.4070022 0.2754098
vt 0.3719912 0.2754098
vt 0.4463895 0.2786885
vt 0.4814004 0.2786885
vt 0.4814004 0.3311476
vt 0.4463895 0.3311476
vt 0.07439825 0.2786885
vt 0.1094092 0.2786885
vt 0.1094092 0.3311476
vt 0.07439825 0.3311476
vt 0.4835886 0.2786885
vt 0.5185996 0.2786885
vt 0.5185996 0.3311476
vt 0.4835886 0.3311476
vt 0.7439825 0.1114754
vt 0.7789934 0.1114754
vt 0.7789934 0.1639344
vt 0.7439825 0.1639344
vt 0.595186 0.1672131
vt 0.6301969 0.1672131
vt 0.6301969 0.2196721
vt 0.595186 0.2196721
vt 0.6323851 0.1672131
vt 0.6673961 0.1672131
vt 0.6673961 0.2196721
vt 0.6323851 0.2196721
vt 0.6695843 0.1672131
vt 0.7045952 0.1672131
vt 0.7045952 0.2196721
vt 0.6695843 0.2196721
vt 0.7439825 0.05573773
vt 0.7789934 0.05573773
vt 0.7789934 0.1081967
vt 0.7439825 0.1081967
vt 0.1859956 0.4459016
vt 0.2210066 0.4459016
vt 0.2210066 0.4983606
vt 0.1859956 0.4983606
vt 0.1859956 0.390164
vt 0.2210066 0.390164
vt 0.2210066 0.442623
vt 0.1859956 0.442623
vt 0.1487965 0.3344262
vt 0.1838074 0.3344262
vt 0.1838074 0.3868852
vt 0.1487965 0.3868852

# Normal
vn 0 0 -1

# Mesh description
g HesHall-Floor1_mesh_0003

# Faces
f 1/1/1 2/2/1 3/3/1 4/4/1
f 5/5/1 6/6/1 7/7/1 8/8/1
f 9/9/1 10/10/1 11/11/1 12/12/1
f 13/13/1 14/14/1 15/15/1 16/16/1
f 17/17/1 18/18/1 19/19/1 20/20/1
f 21/21/1 22/22/1 23/23/1 24/24/1
f 25/25/1 26/26/1 27/27/1 28/28/1
f 29/25/1 30/26/1 31/27/1 32/28/1
f 33/25/1 34/26/1 35/27/1 36/28/1
f 37/25/1 38/26/1 39/27/1 40/28/1
f 41/25/1 42/26/1 43/27/1 44/28/1
f 45/29/1 46/30/1 47/31/1 48/32/1
f 49/21/1 50/22/1 51/23/1 52/24/1
f 53/25/1 54/26/1 55/27/1 56/28/1
f 57/25/1 58/26/1 59/27/1 60/28/1
f 61/25/1 62/26/1 63/27/1 64/28/1
f 65/25/1 66/26/1 67/27/1 68/28/1
f 69/25/1 70/26/1 71/27/1 72/28/1
f 73/29/1 74/30/1 75/31/1 76/32/1
f 77/33/1 78/34/1 79/35/1 80/36/1
f 81/37/1 82/38/1 83/39/1 84/40/1
f 85/41/1 86/42/1 87/43/1 88/44/1
f 89/45/1 90/46/1 91/47/1 92/48/1
f 93/49/1 94/50/1 95/51/1 96/52/1
f 97/53/1 98/54/1 99/55/1 100/56/1
f 101/57/1 102/58/1 103/59/1 104/60/1
f 105/61/1 106/62/1 107/63/1 108/64/1
f 109/65/1 110/66/1 111/67/1 112/68/1
f 113/69/1 114/70/1 115/71/1 116/72/1
f 117/73/1 118/74/1 119/75/1 120/76/1
f 121/77/1 122/78/1 123/79/1 124/80/1
f 125/81/1 126/82/1 127/83/1 128/84/1
f 129/85/1 130/86/1 131/87/1 132/88/1
f 133/89/1 134/90/1 135/91/1 136/92/1
f 137/89/1 138/90/1 139/91/1 140/92/1
f 141/93/1 142/94/1 143/95/1 144/96/1
f 145/97/1 146/98/1 147/99/1 148/100/1
f 149/101/1 150/102/1 151/103/1 152/104/1
f 153/105/1 154/106/1 155/107/1 156/108/1
f 157/109/1 158/110/1 159/111/1 160/112/1
f 161/113/1 162/114/1 163/115/1 164/116/1
f 165/117/1 166/118/1 167/119/1 168/120/1
f 169/121/1 170/122/1 171/123/1 172/124/1
f 173/125/1 174/126/1 175/127/1 176/128/1
f 177/125/1 178/126/1 179/127/1 180/128/1
f 181/125/1 182/126/1 183/127/1 184/128/1
f 185/129/1 186/130/1 187/131/1 188/132/1
f 189/129/1 190/130/1 191/131/1 192/132/1
f 193/129/1 194/130/1 195/131/1 196/132/1
f 197/129/1 198/130/1 199/131/1 200/132/1
f 201/129/1 202/130/1 203/131/1 204/132/1
f 205/129/1 206/130/1 207/131/1 208/132/1
f 209/129/1 210/130/1 211/131/1 212/132/1
f 213/129/1 214/130/1 215/131/1 216/132/1
f 217/129/1 218/130/1 219/131/1 220/132/1
f 221/133/1 222/134/1 223/135/1 224/136/1
f 225/133/1 226/134/1 227/135/1 228/136/1
f 229/133/1 230/134/1 231/135/1 232/136/1
f 233/125/1 234/126/1 235/127/1 236/128/1
f 237/125/1 238/126/1 239/127/1 240/128/1
f 241/125/1 242/126/1 243/127/1 244/128/1
f 245/129/1 246/130/1 247/131/1 248/132/1
f 249/129/1 250/130/1 251/131/1 252/132/1
f 253/129/1 254/130/1 255/131/1 256/132/1
f 257/129/1 258/130/1 259/131/1 260/132/1
f 261/129/1 262/130/1 263/131/1 264/132/1
f 265/129/1 266/130/1 267/131/1 268/132/1
f 269/129/1 270/130/1 271/131/1 272/132/1
f 273/129/1 274/130/1 275/131/1 276/132/1
f 277/129/1 278/130/1 279/131/1 280/132/1
f 281/133/1 282/134/1 283/135/1 284/136/1
f 285/133/1 286/134/1 287/135/1 288/136/1
f 289/133/1 290/134/1 291/135/1 292/136/1

