# Tiled2Unity generated file. Do not modify by hand.
# Wavefront file for 'HesHall_mesh_0006.obj'

# Vertices (Count = 76)
v -57.6 -14.93333 0
v -58.66667 -14.93333 0
v -58.66667 -13.86667 0
v -57.6 -13.86667 0
v -68.26667 -18.13334 0
v -69.33334 -18.13334 0
v -69.33334 -17.06667 0
v -68.26667 -17.06667 0
v -99.2 -20.26667 0
v -100.2667 -20.26667 0
v -100.2667 -19.2 0
v -99.2 -19.2 0
v -62.93334 -25.6 0
v -64 -25.6 0
v -64 -24.53333 0
v -62.93334 -24.53333 0
v -38.4 -26.66667 0
v -39.46667 -26.66667 0
v -39.46667 -25.6 0
v -38.4 -25.6 0
v -41.6 -37.33334 0
v -42.66667 -37.33334 0
v -42.66667 -36.26667 0
v -41.6 -36.26667 0
v -46.93333 -42.66667 0
v -48 -42.66667 0
v -48 -41.6 0
v -46.93333 -41.6 0
v -39.46667 -45.86667 0
v -40.53334 -45.86667 0
v -40.53334 -44.8 0
v -39.46667 -44.8 0
v -37.33334 -55.46667 0
v -38.4 -55.46667 0
v -38.4 -54.4 0
v -37.33334 -54.4 0
v -57.6 -58.66667 0
v -58.66667 -58.66667 0
v -58.66667 -57.6 0
v -57.6 -57.6 0
v -48 -62.93334 0
v -49.06667 -62.93334 0
v -49.06667 -61.86667 0
v -48 -61.86667 0
v -74.66667 -65.06667 0
v -75.73334 -65.06667 0
v -75.73334 -64 0
v -74.66667 -64 0
v -66.13334 -68.26667 0
v -67.2 -68.26667 0
v -67.2 -67.2 0
v -66.13334 -67.2 0
v -94.93334 -69.33334 0
v -96.00001 -69.33334 0
v -96.00001 -68.26667 0
v -94.93334 -68.26667 0
v -43.73334 -73.60001 0
v -44.8 -73.60001 0
v -44.8 -72.53334 0
v -43.73334 -72.53334 0
v -74.66667 -75.73334 0
v -75.73334 -75.73334 0
v -75.73334 -74.66667 0
v -74.66667 -74.66667 0
v -37.33334 -77.86667 0
v -38.4 -77.86667 0
v -38.4 -76.8 0
v -37.33334 -76.8 0
v -98.13334 -77.86667 0
v -99.2 -77.86667 0
v -99.2 -76.8 0
v -98.13334 -76.8 0
v -42.66667 -81.06667 0
v -43.73334 -81.06667 0
v -43.73334 -80.00001 0
v -42.66667 -80.00001 0

# Texture cooridinates (Count = 8)
vt 0.2418699 0.8918033
vt 0.2743903 0.8918033
vt 0.2743903 0.9442623
vt 0.2418699 0.9442623
vt 0.2418699 0.947541
vt 0.2743903 0.947541
vt 0.2743903 1
vt 0.2418699 1

# Normal
vn 0 0 -1

# Mesh description
g HesHall_mesh_0006

# Faces
f 1/1/1 2/2/1 3/3/1 4/4/1
f 5/1/1 6/2/1 7/3/1 8/4/1
f 9/1/1 10/2/1 11/3/1 12/4/1
f 13/1/1 14/2/1 15/3/1 16/4/1
f 17/5/1 18/6/1 19/7/1 20/8/1
f 21/1/1 22/2/1 23/3/1 24/4/1
f 25/5/1 26/6/1 27/7/1 28/8/1
f 29/1/1 30/2/1 31/3/1 32/4/1
f 33/1/1 34/2/1 35/3/1 36/4/1
f 37/5/1 38/6/1 39/7/1 40/8/1
f 41/1/1 42/2/1 43/3/1 44/4/1
f 45/1/1 46/2/1 47/3/1 48/4/1
f 49/5/1 50/6/1 51/7/1 52/8/1
f 53/5/1 54/6/1 55/7/1 56/8/1
f 57/5/1 58/6/1 59/7/1 60/8/1
f 61/5/1 62/6/1 63/7/1 64/8/1
f 65/1/1 66/2/1 67/3/1 68/4/1
f 69/1/1 70/2/1 71/3/1 72/4/1
f 73/1/1 74/2/1 75/3/1 76/4/1

