# Tiled2Unity generated file. Do not modify by hand.
# Wavefront file for 'HesHall_mesh_0007.obj'

# Vertices (Count = 80)
v -67.2 -67.2 0
v -68.26667 -67.2 0
v -68.26667 -66.13334 0
v -67.2 -66.13334 0
v -73.60001 -67.2 0
v -74.66667 -67.2 0
v -74.66667 -66.13334 0
v -73.60001 -66.13334 0
v -67.2 -68.26667 0
v -68.26667 -68.26667 0
v -68.26667 -67.2 0
v -67.2 -67.2 0
v -73.60001 -68.26667 0
v -74.66667 -68.26667 0
v -74.66667 -67.2 0
v -73.60001 -67.2 0
v -67.2 -70.4 0
v -68.26667 -70.4 0
v -68.26667 -69.33334 0
v -67.2 -69.33334 0
v -73.60001 -70.4 0
v -74.66667 -70.4 0
v -74.66667 -69.33334 0
v -73.60001 -69.33334 0
v -67.2 -71.46667 0
v -68.26667 -71.46667 0
v -68.26667 -70.4 0
v -67.2 -70.4 0
v -73.60001 -71.46667 0
v -74.66667 -71.46667 0
v -74.66667 -70.4 0
v -73.60001 -70.4 0
v -67.2 -73.60001 0
v -68.26667 -73.60001 0
v -68.26667 -72.53334 0
v -67.2 -72.53334 0
v -73.60001 -73.60001 0
v -74.66667 -73.60001 0
v -74.66667 -72.53334 0
v -73.60001 -72.53334 0
v -67.2 -74.66667 0
v -68.26667 -74.66667 0
v -68.26667 -73.60001 0
v -67.2 -73.60001 0
v -73.60001 -74.66667 0
v -74.66667 -74.66667 0
v -74.66667 -73.60001 0
v -73.60001 -73.60001 0
v -67.2 -76.8 0
v -68.26667 -76.8 0
v -68.26667 -75.73334 0
v -67.2 -75.73334 0
v -73.60001 -76.8 0
v -74.66667 -76.8 0
v -74.66667 -75.73334 0
v -73.60001 -75.73334 0
v -67.2 -77.86667 0
v -68.26667 -77.86667 0
v -68.26667 -76.8 0
v -67.2 -76.8 0
v -73.60001 -77.86667 0
v -74.66667 -77.86667 0
v -74.66667 -76.8 0
v -73.60001 -76.8 0
v -67.2 -80.00001 0
v -68.26667 -80.00001 0
v -68.26667 -78.93333 0
v -67.2 -78.93333 0
v -73.60001 -80.00001 0
v -74.66667 -80.00001 0
v -74.66667 -78.93333 0
v -73.60001 -78.93333 0
v -67.2 -81.06667 0
v -68.26667 -81.06667 0
v -68.26667 -80.00001 0
v -67.2 -80.00001 0
v -73.60001 -81.06667 0
v -74.66667 -81.06667 0
v -74.66667 -80.00001 0
v -73.60001 -80.00001 0

# Texture cooridinates (Count = 8)
vt 0.8391719 0.6084211
vt 0.8646497 0.6084211
vt 0.8646497 0.6421052
vt 0.8391719 0.6421052
vt 0.8391719 0.5368421
vt 0.8646497 0.5368421
vt 0.8646497 0.5705263
vt 0.8391719 0.5705263

# Normal
vn 0 0 -1

# Mesh description
g HesHall_mesh_0007

# Faces
f 1/1/1 2/2/1 3/3/1 4/4/1
f 5/1/1 6/2/1 7/3/1 8/4/1
f 9/5/1 10/6/1 11/7/1 12/8/1
f 13/5/1 14/6/1 15/7/1 16/8/1
f 17/1/1 18/2/1 19/3/1 20/4/1
f 21/1/1 22/2/1 23/3/1 24/4/1
f 25/5/1 26/6/1 27/7/1 28/8/1
f 29/5/1 30/6/1 31/7/1 32/8/1
f 33/1/1 34/2/1 35/3/1 36/4/1
f 37/1/1 38/2/1 39/3/1 40/4/1
f 41/5/1 42/6/1 43/7/1 44/8/1
f 45/5/1 46/6/1 47/7/1 48/8/1
f 49/1/1 50/2/1 51/3/1 52/4/1
f 53/1/1 54/2/1 55/3/1 56/4/1
f 57/5/1 58/6/1 59/7/1 60/8/1
f 61/5/1 62/6/1 63/7/1 64/8/1
f 65/1/1 66/2/1 67/3/1 68/4/1
f 69/1/1 70/2/1 71/3/1 72/4/1
f 73/5/1 74/6/1 75/7/1 76/8/1
f 77/5/1 78/6/1 79/7/1 80/8/1

