# Tiled2Unity generated file. Do not modify by hand.
# Wavefront file for 'HesHall_mesh_0005.obj'

# Vertices (Count = 684)
v -26.66667 -45.86667 0
v -27.73334 -45.86667 0
v -27.73334 -44.8 0
v -26.66667 -44.8 0
v -27.73334 -45.86667 0
v -28.8 -45.86667 0
v -28.8 -44.8 0
v -27.73334 -44.8 0
v -28.8 -45.86667 0
v -29.86667 -45.86667 0
v -29.86667 -44.8 0
v -28.8 -44.8 0
v -29.86667 -45.86667 0
v -30.93333 -45.86667 0
v -30.93333 -44.8 0
v -29.86667 -44.8 0
v -30.93333 -45.86667 0
v -32 -45.86667 0
v -32 -44.8 0
v -30.93333 -44.8 0
v -32 -45.86667 0
v -33.06667 -45.86667 0
v -33.06667 -44.8 0
v -32 -44.8 0
v -33.06667 -45.86667 0
v -34.13334 -45.86667 0
v -34.13334 -44.8 0
v -33.06667 -44.8 0
v -26.66667 -46.93333 0
v -27.73334 -46.93333 0
v -27.73334 -45.86667 0
v -26.66667 -45.86667 0
v -27.73334 -46.93333 0
v -28.8 -46.93333 0
v -28.8 -45.86667 0
v -27.73334 -45.86667 0
v -28.8 -46.93333 0
v -29.86667 -46.93333 0
v -29.86667 -45.86667 0
v -28.8 -45.86667 0
v -29.86667 -46.93333 0
v -30.93333 -46.93333 0
v -30.93333 -45.86667 0
v -29.86667 -45.86667 0
v -30.93333 -46.93333 0
v -32 -46.93333 0
v -32 -45.86667 0
v -30.93333 -45.86667 0
v -32 -46.93333 0
v -33.06667 -46.93333 0
v -33.06667 -45.86667 0
v -32 -45.86667 0
v -33.06667 -46.93333 0
v -34.13334 -46.93333 0
v -34.13334 -45.86667 0
v -33.06667 -45.86667 0
v -26.66667 -48 0
v -27.73334 -48 0
v -27.73334 -46.93333 0
v -26.66667 -46.93333 0
v -27.73334 -48 0
v -28.8 -48 0
v -28.8 -46.93333 0
v -27.73334 -46.93333 0
v -28.8 -48 0
v -29.86667 -48 0
v -29.86667 -46.93333 0
v -28.8 -46.93333 0
v -29.86667 -48 0
v -30.93333 -48 0
v -30.93333 -46.93333 0
v -29.86667 -46.93333 0
v -30.93333 -48 0
v -32 -48 0
v -32 -46.93333 0
v -30.93333 -46.93333 0
v -32 -48 0
v -33.06667 -48 0
v -33.06667 -46.93333 0
v -32 -46.93333 0
v -33.06667 -48 0
v -34.13334 -48 0
v -34.13334 -46.93333 0
v -33.06667 -46.93333 0
v -26.66667 -49.06667 0
v -27.73334 -49.06667 0
v -27.73334 -48 0
v -26.66667 -48 0
v -27.73334 -49.06667 0
v -28.8 -49.06667 0
v -28.8 -48 0
v -27.73334 -48 0
v -28.8 -49.06667 0
v -29.86667 -49.06667 0
v -29.86667 -48 0
v -28.8 -48 0
v -29.86667 -49.06667 0
v -30.93333 -49.06667 0
v -30.93333 -48 0
v -29.86667 -48 0
v -30.93333 -49.06667 0
v -32 -49.06667 0
v -32 -48 0
v -30.93333 -48 0
v -32 -49.06667 0
v -33.06667 -49.06667 0
v -33.06667 -48 0
v -32 -48 0
v -33.06667 -49.06667 0
v -34.13334 -49.06667 0
v -34.13334 -48 0
v -33.06667 -48 0
v -26.66667 -50.13334 0
v -27.73334 -50.13334 0
v -27.73334 -49.06667 0
v -26.66667 -49.06667 0
v -27.73334 -50.13334 0
v -28.8 -50.13334 0
v -28.8 -49.06667 0
v -27.73334 -49.06667 0
v -28.8 -50.13334 0
v -29.86667 -50.13334 0
v -29.86667 -49.06667 0
v -28.8 -49.06667 0
v -29.86667 -50.13334 0
v -30.93333 -50.13334 0
v -30.93333 -49.06667 0
v -29.86667 -49.06667 0
v -30.93333 -50.13334 0
v -32 -50.13334 0
v -32 -49.06667 0
v -30.93333 -49.06667 0
v -32 -50.13334 0
v -33.06667 -50.13334 0
v -33.06667 -49.06667 0
v -32 -49.06667 0
v -33.06667 -50.13334 0
v -34.13334 -50.13334 0
v -34.13334 -49.06667 0
v -33.06667 -49.06667 0
v -26.66667 -51.2 0
v -27.73334 -51.2 0
v -27.73334 -50.13334 0
v -26.66667 -50.13334 0
v -27.73334 -51.2 0
v -28.8 -51.2 0
v -28.8 -50.13334 0
v -27.73334 -50.13334 0
v -28.8 -51.2 0
v -29.86667 -51.2 0
v -29.86667 -50.13334 0
v -28.8 -50.13334 0
v -29.86667 -51.2 0
v -30.93333 -51.2 0
v -30.93333 -50.13334 0
v -29.86667 -50.13334 0
v -30.93333 -51.2 0
v -32 -51.2 0
v -32 -50.13334 0
v -30.93333 -50.13334 0
v -32 -51.2 0
v -33.06667 -51.2 0
v -33.06667 -50.13334 0
v -32 -50.13334 0
v -33.06667 -51.2 0
v -34.13334 -51.2 0
v -34.13334 -50.13334 0
v -33.06667 -50.13334 0
v -26.66667 -52.26667 0
v -27.73334 -52.26667 0
v -27.73334 -51.2 0
v -26.66667 -51.2 0
v -27.73334 -52.26667 0
v -28.8 -52.26667 0
v -28.8 -51.2 0
v -27.73334 -51.2 0
v -28.8 -52.26667 0
v -29.86667 -52.26667 0
v -29.86667 -51.2 0
v -28.8 -51.2 0
v -29.86667 -52.26667 0
v -30.93333 -52.26667 0
v -30.93333 -51.2 0
v -29.86667 -51.2 0
v -30.93333 -52.26667 0
v -32 -52.26667 0
v -32 -51.2 0
v -30.93333 -51.2 0
v -32 -52.26667 0
v -33.06667 -52.26667 0
v -33.06667 -51.2 0
v -32 -51.2 0
v -33.06667 -52.26667 0
v -34.13334 -52.26667 0
v -34.13334 -51.2 0
v -33.06667 -51.2 0
v -26.66667 -53.33334 0
v -27.73334 -53.33334 0
v -27.73334 -52.26667 0
v -26.66667 -52.26667 0
v -27.73334 -53.33334 0
v -28.8 -53.33334 0
v -28.8 -52.26667 0
v -27.73334 -52.26667 0
v -28.8 -53.33334 0
v -29.86667 -53.33334 0
v -29.86667 -52.26667 0
v -28.8 -52.26667 0
v -29.86667 -53.33334 0
v -30.93333 -53.33334 0
v -30.93333 -52.26667 0
v -29.86667 -52.26667 0
v -30.93333 -53.33334 0
v -32 -53.33334 0
v -32 -52.26667 0
v -30.93333 -52.26667 0
v -32 -53.33334 0
v -33.06667 -53.33334 0
v -33.06667 -52.26667 0
v -32 -52.26667 0
v -33.06667 -53.33334 0
v -34.13334 -53.33334 0
v -34.13334 -52.26667 0
v -33.06667 -52.26667 0
v -26.66667 -54.4 0
v -27.73334 -54.4 0
v -27.73334 -53.33334 0
v -26.66667 -53.33334 0
v -27.73334 -54.4 0
v -28.8 -54.4 0
v -28.8 -53.33334 0
v -27.73334 -53.33334 0
v -28.8 -54.4 0
v -29.86667 -54.4 0
v -29.86667 -53.33334 0
v -28.8 -53.33334 0
v -29.86667 -54.4 0
v -30.93333 -54.4 0
v -30.93333 -53.33334 0
v -29.86667 -53.33334 0
v -30.93333 -54.4 0
v -32 -54.4 0
v -32 -53.33334 0
v -30.93333 -53.33334 0
v -32 -54.4 0
v -33.06667 -54.4 0
v -33.06667 -53.33334 0
v -32 -53.33334 0
v -33.06667 -54.4 0
v -34.13334 -54.4 0
v -34.13334 -53.33334 0
v -33.06667 -53.33334 0
v -26.66667 -55.46667 0
v -27.73334 -55.46667 0
v -27.73334 -54.4 0
v -26.66667 -54.4 0
v -27.73334 -55.46667 0
v -28.8 -55.46667 0
v -28.8 -54.4 0
v -27.73334 -54.4 0
v -28.8 -55.46667 0
v -29.86667 -55.46667 0
v -29.86667 -54.4 0
v -28.8 -54.4 0
v -29.86667 -55.46667 0
v -30.93333 -55.46667 0
v -30.93333 -54.4 0
v -29.86667 -54.4 0
v -30.93333 -55.46667 0
v -32 -55.46667 0
v -32 -54.4 0
v -30.93333 -54.4 0
v -32 -55.46667 0
v -33.06667 -55.46667 0
v -33.06667 -54.4 0
v -32 -54.4 0
v -33.06667 -55.46667 0
v -34.13334 -55.46667 0
v -34.13334 -54.4 0
v -33.06667 -54.4 0
v -26.66667 -56.53334 0
v -27.73334 -56.53334 0
v -27.73334 -55.46667 0
v -26.66667 -55.46667 0
v -27.73334 -56.53334 0
v -28.8 -56.53334 0
v -28.8 -55.46667 0
v -27.73334 -55.46667 0
v -28.8 -56.53334 0
v -29.86667 -56.53334 0
v -29.86667 -55.46667 0
v -28.8 -55.46667 0
v -29.86667 -56.53334 0
v -30.93333 -56.53334 0
v -30.93333 -55.46667 0
v -29.86667 -55.46667 0
v -30.93333 -56.53334 0
v -32 -56.53334 0
v -32 -55.46667 0
v -30.93333 -55.46667 0
v -32 -56.53334 0
v -33.06667 -56.53334 0
v -33.06667 -55.46667 0
v -32 -55.46667 0
v -33.06667 -56.53334 0
v -34.13334 -56.53334 0
v -34.13334 -55.46667 0
v -33.06667 -55.46667 0
v -26.66667 -57.6 0
v -27.73334 -57.6 0
v -27.73334 -56.53334 0
v -26.66667 -56.53334 0
v -27.73334 -57.6 0
v -28.8 -57.6 0
v -28.8 -56.53334 0
v -27.73334 -56.53334 0
v -28.8 -57.6 0
v -29.86667 -57.6 0
v -29.86667 -56.53334 0
v -28.8 -56.53334 0
v -29.86667 -57.6 0
v -30.93333 -57.6 0
v -30.93333 -56.53334 0
v -29.86667 -56.53334 0
v -30.93333 -57.6 0
v -32 -57.6 0
v -32 -56.53334 0
v -30.93333 -56.53334 0
v -32 -57.6 0
v -33.06667 -57.6 0
v -33.06667 -56.53334 0
v -32 -56.53334 0
v -33.06667 -57.6 0
v -34.13334 -57.6 0
v -34.13334 -56.53334 0
v -33.06667 -56.53334 0
v -26.66667 -58.66667 0
v -27.73334 -58.66667 0
v -27.73334 -57.6 0
v -26.66667 -57.6 0
v -27.73334 -58.66667 0
v -28.8 -58.66667 0
v -28.8 -57.6 0
v -27.73334 -57.6 0
v -28.8 -58.66667 0
v -29.86667 -58.66667 0
v -29.86667 -57.6 0
v -28.8 -57.6 0
v -29.86667 -58.66667 0
v -30.93333 -58.66667 0
v -30.93333 -57.6 0
v -29.86667 -57.6 0
v -30.93333 -58.66667 0
v -32 -58.66667 0
v -32 -57.6 0
v -30.93333 -57.6 0
v -32 -58.66667 0
v -33.06667 -58.66667 0
v -33.06667 -57.6 0
v -32 -57.6 0
v -33.06667 -58.66667 0
v -34.13334 -58.66667 0
v -34.13334 -57.6 0
v -33.06667 -57.6 0
v -26.66667 -59.73334 0
v -27.73334 -59.73334 0
v -27.73334 -58.66667 0
v -26.66667 -58.66667 0
v -27.73334 -59.73334 0
v -28.8 -59.73334 0
v -28.8 -58.66667 0
v -27.73334 -58.66667 0
v -28.8 -59.73334 0
v -29.86667 -59.73334 0
v -29.86667 -58.66667 0
v -28.8 -58.66667 0
v -29.86667 -59.73334 0
v -30.93333 -59.73334 0
v -30.93333 -58.66667 0
v -29.86667 -58.66667 0
v -30.93333 -59.73334 0
v -32 -59.73334 0
v -32 -58.66667 0
v -30.93333 -58.66667 0
v -32 -59.73334 0
v -33.06667 -59.73334 0
v -33.06667 -58.66667 0
v -32 -58.66667 0
v -33.06667 -59.73334 0
v -34.13334 -59.73334 0
v -34.13334 -58.66667 0
v -33.06667 -58.66667 0
v -26.66667 -60.8 0
v -27.73334 -60.8 0
v -27.73334 -59.73334 0
v -26.66667 -59.73334 0
v -27.73334 -60.8 0
v -28.8 -60.8 0
v -28.8 -59.73334 0
v -27.73334 -59.73334 0
v -28.8 -60.8 0
v -29.86667 -60.8 0
v -29.86667 -59.73334 0
v -28.8 -59.73334 0
v -29.86667 -60.8 0
v -30.93333 -60.8 0
v -30.93333 -59.73334 0
v -29.86667 -59.73334 0
v -30.93333 -60.8 0
v -32 -60.8 0
v -32 -59.73334 0
v -30.93333 -59.73334 0
v -32 -60.8 0
v -33.06667 -60.8 0
v -33.06667 -59.73334 0
v -32 -59.73334 0
v -33.06667 -60.8 0
v -34.13334 -60.8 0
v -34.13334 -59.73334 0
v -33.06667 -59.73334 0
v -17.06667 -61.86667 0
v -18.13334 -61.86667 0
v -18.13334 -60.8 0
v -17.06667 -60.8 0
v -26.66667 -61.86667 0
v -27.73334 -61.86667 0
v -27.73334 -60.8 0
v -26.66667 -60.8 0
v -27.73334 -61.86667 0
v -28.8 -61.86667 0
v -28.8 -60.8 0
v -27.73334 -60.8 0
v -28.8 -61.86667 0
v -29.86667 -61.86667 0
v -29.86667 -60.8 0
v -28.8 -60.8 0
v -29.86667 -61.86667 0
v -30.93333 -61.86667 0
v -30.93333 -60.8 0
v -29.86667 -60.8 0
v -30.93333 -61.86667 0
v -32 -61.86667 0
v -32 -60.8 0
v -30.93333 -60.8 0
v -32 -61.86667 0
v -33.06667 -61.86667 0
v -33.06667 -60.8 0
v -32 -60.8 0
v -33.06667 -61.86667 0
v -34.13334 -61.86667 0
v -34.13334 -60.8 0
v -33.06667 -60.8 0
v -42.66667 -61.86667 0
v -43.73334 -61.86667 0
v -43.73334 -60.8 0
v -42.66667 -60.8 0
v -26.66667 -62.93334 0
v -27.73334 -62.93334 0
v -27.73334 -61.86667 0
v -26.66667 -61.86667 0
v -27.73334 -62.93334 0
v -28.8 -62.93334 0
v -28.8 -61.86667 0
v -27.73334 -61.86667 0
v -28.8 -62.93334 0
v -29.86667 -62.93334 0
v -29.86667 -61.86667 0
v -28.8 -61.86667 0
v -29.86667 -62.93334 0
v -30.93333 -62.93334 0
v -30.93333 -61.86667 0
v -29.86667 -61.86667 0
v -30.93333 -62.93334 0
v -32 -62.93334 0
v -32 -61.86667 0
v -30.93333 -61.86667 0
v -32 -62.93334 0
v -33.06667 -62.93334 0
v -33.06667 -61.86667 0
v -32 -61.86667 0
v -33.06667 -62.93334 0
v -34.13334 -62.93334 0
v -34.13334 -61.86667 0
v -33.06667 -61.86667 0
v -17.06667 -66.13334 0
v -18.13334 -66.13334 0
v -18.13334 -65.06667 0
v -17.06667 -65.06667 0
v -42.66667 -66.13334 0
v -43.73334 -66.13334 0
v -43.73334 -65.06667 0
v -42.66667 -65.06667 0
v -16 -69.33334 0
v -17.06667 -69.33334 0
v -17.06667 -68.26667 0
v -16 -68.26667 0
v -17.06667 -69.33334 0
v -18.13334 -69.33334 0
v -18.13334 -68.26667 0
v -17.06667 -68.26667 0
v -18.13334 -69.33334 0
v -19.2 -69.33334 0
v -19.2 -68.26667 0
v -18.13334 -68.26667 0
v -19.2 -69.33334 0
v -20.26667 -69.33334 0
v -20.26667 -68.26667 0
v -19.2 -68.26667 0
v -20.26667 -69.33334 0
v -21.33333 -69.33334 0
v -21.33333 -68.26667 0
v -20.26667 -68.26667 0
v -21.33333 -69.33334 0
v -22.4 -69.33334 0
v -22.4 -68.26667 0
v -21.33333 -68.26667 0
v -22.4 -69.33334 0
v -23.46667 -69.33334 0
v -23.46667 -68.26667 0
v -22.4 -68.26667 0
v -23.46667 -69.33334 0
v -24.53333 -69.33334 0
v -24.53333 -68.26667 0
v -23.46667 -68.26667 0
v -36.26667 -69.33334 0
v -37.33334 -69.33334 0
v -37.33334 -68.26667 0
v -36.26667 -68.26667 0
v -37.33334 -69.33334 0
v -38.4 -69.33334 0
v -38.4 -68.26667 0
v -37.33334 -68.26667 0
v -38.4 -69.33334 0
v -39.46667 -69.33334 0
v -39.46667 -68.26667 0
v -38.4 -68.26667 0
v -39.46667 -69.33334 0
v -40.53334 -69.33334 0
v -40.53334 -68.26667 0
v -39.46667 -68.26667 0
v -40.53334 -69.33334 0
v -41.6 -69.33334 0
v -41.6 -68.26667 0
v -40.53334 -68.26667 0
v -41.6 -69.33334 0
v -42.66667 -69.33334 0
v -42.66667 -68.26667 0
v -41.6 -68.26667 0
v -42.66667 -69.33334 0
v -43.73334 -69.33334 0
v -43.73334 -68.26667 0
v -42.66667 -68.26667 0
v -43.73334 -69.33334 0
v -44.8 -69.33334 0
v -44.8 -68.26667 0
v -43.73334 -68.26667 0
v -16 -70.4 0
v -17.06667 -70.4 0
v -17.06667 -69.33334 0
v -16 -69.33334 0
v -17.06667 -70.4 0
v -18.13334 -70.4 0
v -18.13334 -69.33334 0
v -17.06667 -69.33334 0
v -18.13334 -70.4 0
v -19.2 -70.4 0
v -19.2 -69.33334 0
v -18.13334 -69.33334 0
v -19.2 -70.4 0
v -20.26667 -70.4 0
v -20.26667 -69.33334 0
v -19.2 -69.33334 0
v -20.26667 -70.4 0
v -21.33333 -70.4 0
v -21.33333 -69.33334 0
v -20.26667 -69.33334 0
v -21.33333 -70.4 0
v -22.4 -70.4 0
v -22.4 -69.33334 0
v -21.33333 -69.33334 0
v -22.4 -70.4 0
v -23.46667 -70.4 0
v -23.46667 -69.33334 0
v -22.4 -69.33334 0
v -23.46667 -70.4 0
v -24.53333 -70.4 0
v -24.53333 -69.33334 0
v -23.46667 -69.33334 0
v -36.26667 -70.4 0
v -37.33334 -70.4 0
v -37.33334 -69.33334 0
v -36.26667 -69.33334 0
v -37.33334 -70.4 0
v -38.4 -70.4 0
v -38.4 -69.33334 0
v -37.33334 -69.33334 0
v -38.4 -70.4 0
v -39.46667 -70.4 0
v -39.46667 -69.33334 0
v -38.4 -69.33334 0
v -39.46667 -70.4 0
v -40.53334 -70.4 0
v -40.53334 -69.33334 0
v -39.46667 -69.33334 0
v -40.53334 -70.4 0
v -41.6 -70.4 0
v -41.6 -69.33334 0
v -40.53334 -69.33334 0
v -41.6 -70.4 0
v -42.66667 -70.4 0
v -42.66667 -69.33334 0
v -41.6 -69.33334 0
v -42.66667 -70.4 0
v -43.73334 -70.4 0
v -43.73334 -69.33334 0
v -42.66667 -69.33334 0
v -43.73334 -70.4 0
v -44.8 -70.4 0
v -44.8 -69.33334 0
v -43.73334 -69.33334 0
v -16 -71.46667 0
v -17.06667 -71.46667 0
v -17.06667 -70.4 0
v -16 -70.4 0
v -17.06667 -71.46667 0
v -18.13334 -71.46667 0
v -18.13334 -70.4 0
v -17.06667 -70.4 0
v -18.13334 -71.46667 0
v -19.2 -71.46667 0
v -19.2 -70.4 0
v -18.13334 -70.4 0
v -19.2 -71.46667 0
v -20.26667 -71.46667 0
v -20.26667 -70.4 0
v -19.2 -70.4 0
v -20.26667 -71.46667 0
v -21.33333 -71.46667 0
v -21.33333 -70.4 0
v -20.26667 -70.4 0
v -21.33333 -71.46667 0
v -22.4 -71.46667 0
v -22.4 -70.4 0
v -21.33333 -70.4 0
v -22.4 -71.46667 0
v -23.46667 -71.46667 0
v -23.46667 -70.4 0
v -22.4 -70.4 0
v -23.46667 -71.46667 0
v -24.53333 -71.46667 0
v -24.53333 -70.4 0
v -23.46667 -70.4 0
v -36.26667 -71.46667 0
v -37.33334 -71.46667 0
v -37.33334 -70.4 0
v -36.26667 -70.4 0
v -37.33334 -71.46667 0
v -38.4 -71.46667 0
v -38.4 -70.4 0
v -37.33334 -70.4 0
v -38.4 -71.46667 0
v -39.46667 -71.46667 0
v -39.46667 -70.4 0
v -38.4 -70.4 0
v -39.46667 -71.46667 0
v -40.53334 -71.46667 0
v -40.53334 -70.4 0
v -39.46667 -70.4 0
v -40.53334 -71.46667 0
v -41.6 -71.46667 0
v -41.6 -70.4 0
v -40.53334 -70.4 0
v -41.6 -71.46667 0
v -42.66667 -71.46667 0
v -42.66667 -70.4 0
v -41.6 -70.4 0
v -42.66667 -71.46667 0
v -43.73334 -71.46667 0
v -43.73334 -70.4 0
v -42.66667 -70.4 0
v -43.73334 -71.46667 0
v -44.8 -71.46667 0
v -44.8 -70.4 0
v -43.73334 -70.4 0

# Texture cooridinates (Count = 88)
vt 0.4039256 0.6787072
vt 0.4204545 0.6787072
vt 0.4204545 0.7091255
vt 0.4039256 0.7091255
vt 0.05268595 0.743346
vt 0.06921487 0.743346
vt 0.06921487 0.7737643
vt 0.05268595 0.7737643
vt 0.05268595 0.5494297
vt 0.06921487 0.5494297
vt 0.06921487 0.5798479
vt 0.05268595 0.5798479
vt 0.05268595 0.4524715
vt 0.06921487 0.4524715
vt 0.06921487 0.4828897
vt 0.05268595 0.4828897
vt 0.05268595 0.6463878
vt 0.06921487 0.6463878
vt 0.06921487 0.6768061
vt 0.05268595 0.6768061
vt 0.2634298 0.6787072
vt 0.2799587 0.6787072
vt 0.2799587 0.7091255
vt 0.2634298 0.7091255
vt 0.03512397 0.5817491
vt 0.05165289 0.5817491
vt 0.05165289 0.6121673
vt 0.03512397 0.6121673
vt 0.05268595 0.5817491
vt 0.06921487 0.5817491
vt 0.06921487 0.6121673
vt 0.05268595 0.6121673
vt 0.07024793 0.5817491
vt 0.08677686 0.5817491
vt 0.08677686 0.6121673
vt 0.07024793 0.6121673
vt 0.03512397 0.7756654
vt 0.05165289 0.7756654
vt 0.05165289 0.8060837
vt 0.03512397 0.8060837
vt 0.05268595 0.7756654
vt 0.06921487 0.7756654
vt 0.06921487 0.8060837
vt 0.05268595 0.8060837
vt 0.07024793 0.7756654
vt 0.08677686 0.7756654
vt 0.08677686 0.8060837
vt 0.07024793 0.8060837
vt 0.03512397 0.5494297
vt 0.05165289 0.5494297
vt 0.05165289 0.5798479
vt 0.03512397 0.5798479
vt 0.07024793 0.5494297
vt 0.08677686 0.5494297
vt 0.08677686 0.5798479
vt 0.07024793 0.5798479
vt 0.03512397 0.743346
vt 0.05165289 0.743346
vt 0.05165289 0.7737643
vt 0.03512397 0.7737643
vt 0.07024793 0.743346
vt 0.08677686 0.743346
vt 0.08677686 0.7737643
vt 0.07024793 0.7737643
vt 0.03512397 0.5171102
vt 0.05165289 0.5171102
vt 0.05165289 0.5475285
vt 0.03512397 0.5475285
vt 0.05268595 0.5171102
vt 0.06921487 0.5171102
vt 0.06921487 0.5475285
vt 0.05268595 0.5475285
vt 0.07024793 0.5171102
vt 0.08677686 0.5171102
vt 0.08677686 0.5475285
vt 0.07024793 0.5475285
vt 0.03512397 0.7110266
vt 0.05165289 0.7110266
vt 0.05165289 0.7414448
vt 0.03512397 0.7414448
vt 0.05268595 0.7110266
vt 0.06921487 0.7110266
vt 0.06921487 0.7414448
vt 0.05268595 0.7414448
vt 0.07024793 0.7110266
vt 0.08677686 0.7110266
vt 0.08677686 0.7414448
vt 0.07024793 0.7414448

# Normal
vn 0 0 -1

# Mesh description
g HesHall_mesh_0005

# Faces
f 1/1/1 2/2/1 3/3/1 4/4/1
f 5/5/1 6/6/1 7/7/1 8/8/1
f 9/5/1 10/6/1 11/7/1 12/8/1
f 13/9/1 14/10/1 15/11/1 16/12/1
f 17/9/1 18/10/1 19/11/1 20/12/1
f 21/9/1 22/10/1 23/11/1 24/12/1
f 25/1/1 26/2/1 27/3/1 28/4/1
f 29/5/1 30/6/1 31/7/1 32/8/1
f 33/13/1 34/14/1 35/15/1 36/16/1
f 37/17/1 38/18/1 39/19/1 40/20/1
f 41/17/1 42/18/1 43/19/1 44/20/1
f 45/13/1 46/14/1 47/15/1 48/16/1
f 49/9/1 50/10/1 51/11/1 52/12/1
f 53/13/1 54/14/1 55/15/1 56/16/1
f 57/13/1 58/14/1 59/15/1 60/16/1
f 61/17/1 62/18/1 63/19/1 64/20/1
f 65/5/1 66/6/1 67/7/1 68/8/1
f 69/5/1 70/6/1 71/7/1 72/8/1
f 73/5/1 74/6/1 75/7/1 76/8/1
f 77/17/1 78/18/1 79/19/1 80/20/1
f 81/5/1 82/6/1 83/7/1 84/8/1
f 85/13/1 86/14/1 87/15/1 88/16/1
f 89/17/1 90/18/1 91/19/1 92/20/1
f 93/5/1 94/6/1 95/7/1 96/8/1
f 97/13/1 98/14/1 99/15/1 100/16/1
f 101/13/1 102/14/1 103/15/1 104/16/1
f 105/5/1 106/6/1 107/7/1 108/8/1
f 109/13/1 110/14/1 111/15/1 112/16/1
f 113/17/1 114/18/1 115/19/1 116/20/1
f 117/9/1 118/10/1 119/11/1 120/12/1
f 121/9/1 122/10/1 123/11/1 124/12/1
f 125/9/1 126/10/1 127/11/1 128/12/1
f 129/9/1 130/10/1 131/11/1 132/12/1
f 133/13/1 134/14/1 135/15/1 136/16/1
f 137/9/1 138/10/1 139/11/1 140/12/1
f 141/13/1 142/14/1 143/15/1 144/16/1
f 145/17/1 146/18/1 147/19/1 148/20/1
f 149/13/1 150/14/1 151/15/1 152/16/1
f 153/9/1 154/10/1 155/11/1 156/12/1
f 157/13/1 158/14/1 159/15/1 160/16/1
f 161/17/1 162/18/1 163/19/1 164/20/1
f 165/13/1 166/14/1 167/15/1 168/16/1
f 169/13/1 170/14/1 171/15/1 172/16/1
f 173/5/1 174/6/1 175/7/1 176/8/1
f 177/5/1 178/6/1 179/7/1 180/8/1
f 181/5/1 182/6/1 183/7/1 184/8/1
f 185/17/1 186/18/1 187/19/1 188/20/1
f 189/9/1 190/10/1 191/11/1 192/12/1
f 193/13/1 194/14/1 195/15/1 196/16/1
f 197/5/1 198/6/1 199/7/1 200/8/1
f 201/5/1 202/6/1 203/7/1 204/8/1
f 205/5/1 206/6/1 207/7/1 208/8/1
f 209/9/1 210/10/1 211/11/1 212/12/1
f 213/13/1 214/14/1 215/15/1 216/16/1
f 217/9/1 218/10/1 219/11/1 220/12/1
f 221/5/1 222/6/1 223/7/1 224/8/1
f 225/13/1 226/14/1 227/15/1 228/16/1
f 229/17/1 230/18/1 231/19/1 232/20/1
f 233/5/1 234/6/1 235/7/1 236/8/1
f 237/5/1 238/6/1 239/7/1 240/8/1
f 241/9/1 242/10/1 243/11/1 244/12/1
f 245/17/1 246/18/1 247/19/1 248/20/1
f 249/5/1 250/6/1 251/7/1 252/8/1
f 253/5/1 254/6/1 255/7/1 256/8/1
f 257/9/1 258/10/1 259/11/1 260/12/1
f 261/13/1 262/14/1 263/15/1 264/16/1
f 265/9/1 266/10/1 267/11/1 268/12/1
f 269/17/1 270/18/1 271/19/1 272/20/1
f 273/5/1 274/6/1 275/7/1 276/8/1
f 277/17/1 278/18/1 279/19/1 280/20/1
f 281/9/1 282/10/1 283/11/1 284/12/1
f 285/9/1 286/10/1 287/11/1 288/12/1
f 289/9/1 290/10/1 291/11/1 292/12/1
f 293/5/1 294/6/1 295/7/1 296/8/1
f 297/13/1 298/14/1 299/15/1 300/16/1
f 301/5/1 302/6/1 303/7/1 304/8/1
f 305/9/1 306/10/1 307/11/1 308/12/1
f 309/13/1 310/14/1 311/15/1 312/16/1
f 313/5/1 314/6/1 315/7/1 316/8/1
f 317/17/1 318/18/1 319/19/1 320/20/1
f 321/9/1 322/10/1 323/11/1 324/12/1
f 325/9/1 326/10/1 327/11/1 328/12/1
f 329/9/1 330/10/1 331/11/1 332/12/1
f 333/17/1 334/18/1 335/19/1 336/20/1
f 337/17/1 338/18/1 339/19/1 340/20/1
f 341/13/1 342/14/1 343/15/1 344/16/1
f 345/13/1 346/14/1 347/15/1 348/16/1
f 349/5/1 350/6/1 351/7/1 352/8/1
f 353/5/1 354/6/1 355/7/1 356/8/1
f 357/13/1 358/14/1 359/15/1 360/16/1
f 361/5/1 362/6/1 363/7/1 364/8/1
f 365/9/1 366/10/1 367/11/1 368/12/1
f 369/13/1 370/14/1 371/15/1 372/16/1
f 373/5/1 374/6/1 375/7/1 376/8/1
f 377/9/1 378/10/1 379/11/1 380/12/1
f 381/17/1 382/18/1 383/19/1 384/20/1
f 385/9/1 386/10/1 387/11/1 388/12/1
f 389/9/1 390/10/1 391/11/1 392/12/1
f 393/5/1 394/6/1 395/7/1 396/8/1
f 397/13/1 398/14/1 399/15/1 400/16/1
f 401/17/1 402/18/1 403/19/1 404/20/1
f 405/13/1 406/14/1 407/15/1 408/16/1
f 409/17/1 410/18/1 411/19/1 412/20/1
f 413/13/1 414/14/1 415/15/1 416/16/1
f 417/17/1 418/18/1 419/19/1 420/20/1
f 421/21/1 422/22/1 423/23/1 424/24/1
f 425/17/1 426/18/1 427/19/1 428/20/1
f 429/17/1 430/18/1 431/19/1 432/20/1
f 433/5/1 434/6/1 435/7/1 436/8/1
f 437/9/1 438/10/1 439/11/1 440/12/1
f 441/9/1 442/10/1 443/11/1 444/12/1
f 445/17/1 446/18/1 447/19/1 448/20/1
f 449/5/1 450/6/1 451/7/1 452/8/1
f 453/21/1 454/22/1 455/23/1 456/24/1
f 457/1/1 458/2/1 459/3/1 460/4/1
f 461/5/1 462/6/1 463/7/1 464/8/1
f 465/5/1 466/6/1 467/7/1 468/8/1
f 469/13/1 470/14/1 471/15/1 472/16/1
f 473/5/1 474/6/1 475/7/1 476/8/1
f 477/9/1 478/10/1 479/11/1 480/12/1
f 481/1/1 482/2/1 483/3/1 484/4/1
f 485/21/1 486/22/1 487/23/1 488/24/1
f 489/21/1 490/22/1 491/23/1 492/24/1
f 493/25/1 494/26/1 495/27/1 496/28/1
f 497/29/1 498/30/1 499/31/1 500/32/1
f 501/29/1 502/30/1 503/31/1 504/32/1
f 505/29/1 506/30/1 507/31/1 508/32/1
f 509/29/1 510/30/1 511/31/1 512/32/1
f 513/29/1 514/30/1 515/31/1 516/32/1
f 517/29/1 518/30/1 519/31/1 520/32/1
f 521/33/1 522/34/1 523/35/1 524/36/1
f 525/37/1 526/38/1 527/39/1 528/40/1
f 529/41/1 530/42/1 531/43/1 532/44/1
f 533/41/1 534/42/1 535/43/1 536/44/1
f 537/41/1 538/42/1 539/43/1 540/44/1
f 541/41/1 542/42/1 543/43/1 544/44/1
f 545/41/1 546/42/1 547/43/1 548/44/1
f 549/41/1 550/42/1 551/43/1 552/44/1
f 553/45/1 554/46/1 555/47/1 556/48/1
f 557/49/1 558/50/1 559/51/1 560/52/1
f 561/9/1 562/10/1 563/11/1 564/12/1
f 565/9/1 566/10/1 567/11/1 568/12/1
f 569/9/1 570/10/1 571/11/1 572/12/1
f 573/9/1 574/10/1 575/11/1 576/12/1
f 577/9/1 578/10/1 579/11/1 580/12/1
f 581/9/1 582/10/1 583/11/1 584/12/1
f 585/53/1 586/54/1 587/55/1 588/56/1
f 589/57/1 590/58/1 591/59/1 592/60/1
f 593/5/1 594/6/1 595/7/1 596/8/1
f 597/5/1 598/6/1 599/7/1 600/8/1
f 601/5/1 602/6/1 603/7/1 604/8/1
f 605/5/1 606/6/1 607/7/1 608/8/1
f 609/5/1 610/6/1 611/7/1 612/8/1
f 613/5/1 614/6/1 615/7/1 616/8/1
f 617/61/1 618/62/1 619/63/1 620/64/1
f 621/65/1 622/66/1 623/67/1 624/68/1
f 625/69/1 626/70/1 627/71/1 628/72/1
f 629/69/1 630/70/1 631/71/1 632/72/1
f 633/69/1 634/70/1 635/71/1 636/72/1
f 637/69/1 638/70/1 639/71/1 640/72/1
f 641/69/1 642/70/1 643/71/1 644/72/1
f 645/69/1 646/70/1 647/71/1 648/72/1
f 649/73/1 650/74/1 651/75/1 652/76/1
f 653/77/1 654/78/1 655/79/1 656/80/1
f 657/81/1 658/82/1 659/83/1 660/84/1
f 661/81/1 662/82/1 663/83/1 664/84/1
f 665/81/1 666/82/1 667/83/1 668/84/1
f 669/81/1 670/82/1 671/83/1 672/84/1
f 673/81/1 674/82/1 675/83/1 676/84/1
f 677/81/1 678/82/1 679/83/1 680/84/1
f 681/85/1 682/86/1 683/87/1 684/88/1

