# Tiled2Unity generated file. Do not modify by hand.
# Wavefront file for 'Music-Entrance_mesh_0006.obj'

# Vertices (Count = 24)
v -54.4 -30.93333 0
v -55.46667 -30.93333 0
v -55.46667 -29.86667 0
v -54.4 -29.86667 0
v -55.46667 -30.93333 0
v -56.53334 -30.93333 0
v -56.53334 -29.86667 0
v -55.46667 -29.86667 0
v -56.53334 -30.93333 0
v -57.6 -30.93333 0
v -57.6 -29.86667 0
v -56.53334 -29.86667 0
v -54.4 -32 0
v -55.46667 -32 0
v -55.46667 -30.93333 0
v -54.4 -30.93333 0
v -55.46667 -32 0
v -56.53334 -32 0
v -56.53334 -30.93333 0
v -55.46667 -30.93333 0
v -56.53334 -32 0
v -57.6 -32 0
v -57.6 -30.93333 0
v -56.53334 -30.93333 0

# Texture cooridinates (Count = 24)
vt 0.7256098 0.2229508
vt 0.7581301 0.2229508
vt 0.7581301 0.2754098
vt 0.7256098 0.2754098
vt 0.7601626 0.2229508
vt 0.7926829 0.2229508
vt 0.7926829 0.2754098
vt 0.7601626 0.2754098
vt 0.7947155 0.2229508
vt 0.8272358 0.2229508
vt 0.8272358 0.2754098
vt 0.7947155 0.2754098
vt 0.7256098 0.1114754
vt 0.7581301 0.1114754
vt 0.7581301 0.1639344
vt 0.7256098 0.1639344
vt 0.7601626 0.1114754
vt 0.7926829 0.1114754
vt 0.7926829 0.1639344
vt 0.7601626 0.1639344
vt 0.7947155 0.1114754
vt 0.8272358 0.1114754
vt 0.8272358 0.1639344
vt 0.7947155 0.1639344

# Normal
vn 0 0 -1

# Mesh description
g Music-Entrance_mesh_0006

# Faces
f 1/1/1 2/2/1 3/3/1 4/4/1
f 5/5/1 6/6/1 7/7/1 8/8/1
f 9/9/1 10/10/1 11/11/1 12/12/1
f 13/13/1 14/14/1 15/15/1 16/16/1
f 17/17/1 18/18/1 19/19/1 20/20/1
f 21/21/1 22/22/1 23/23/1 24/24/1

