# Tiled2Unity generated file. Do not modify by hand.
# Wavefront file for 'Music-Entrance_mesh_0009.obj'

# Vertices (Count = 20)
v -40.53334 -18.13334 0
v -41.6 -18.13334 0
v -41.6 -17.06667 0
v -40.53334 -17.06667 0
v -51.2 -18.13334 0
v -52.26667 -18.13334 0
v -52.26667 -17.06667 0
v -51.2 -17.06667 0
v -58.66667 -18.13334 0
v -59.73334 -18.13334 0
v -59.73334 -17.06667 0
v -58.66667 -17.06667 0
v -66.13334 -18.13334 0
v -67.2 -18.13334 0
v -67.2 -17.06667 0
v -66.13334 -17.06667 0
v -72.53334 -18.13334 0
v -73.60001 -18.13334 0
v -73.60001 -17.06667 0
v -72.53334 -17.06667 0

# Texture cooridinates (Count = 4)
vt 0.3161157 0.743346
vt 0.3326446 0.743346
vt 0.3326446 0.7737643
vt 0.3161157 0.7737643

# Normal
vn 0 0 -1

# Mesh description
g Music-Entrance_mesh_0009

# Faces
f 1/1/1 2/2/1 3/3/1 4/4/1
f 5/1/1 6/2/1 7/3/1 8/4/1
f 9/1/1 10/2/1 11/3/1 12/4/1
f 13/1/1 14/2/1 15/3/1 16/4/1
f 17/1/1 18/2/1 19/3/1 20/4/1

