# Tiled2Unity generated file. Do not modify by hand.
# Wavefront file for 'musicentrance_mesh_0011.obj'

# Vertices (Count = 332)
v -48 -19.2 0
v -49.06667 -19.2 0
v -49.06667 -18.13334 0
v -48 -18.13334 0
v -74.66667 -24.53333 0
v -75.73334 -24.53333 0
v -75.73334 -23.46667 0
v -74.66667 -23.46667 0
v -76.8 -24.53333 0
v -77.86667 -24.53333 0
v -77.86667 -23.46667 0
v -76.8 -23.46667 0
v -77.86667 -24.53333 0
v -78.93333 -24.53333 0
v -78.93333 -23.46667 0
v -77.86667 -23.46667 0
v -77.86667 -25.6 0
v -78.93333 -25.6 0
v -78.93333 -24.53333 0
v -77.86667 -24.53333 0
v -78.93333 -25.6 0
v -80.00001 -25.6 0
v -80.00001 -24.53333 0
v -78.93333 -24.53333 0
v -70.4 -26.66667 0
v -71.46667 -26.66667 0
v -71.46667 -25.6 0
v -70.4 -25.6 0
v -76.8 -26.66667 0
v -77.86667 -26.66667 0
v -77.86667 -25.6 0
v -76.8 -25.6 0
v -77.86667 -26.66667 0
v -78.93333 -26.66667 0
v -78.93333 -25.6 0
v -77.86667 -25.6 0
v -70.4 -28.8 0
v -71.46667 -28.8 0
v -71.46667 -27.73334 0
v -70.4 -27.73334 0
v -73.60001 -28.8 0
v -74.66667 -28.8 0
v -74.66667 -27.73334 0
v -73.60001 -27.73334 0
v -75.73334 -28.8 0
v -76.8 -28.8 0
v -76.8 -27.73334 0
v -75.73334 -27.73334 0
v -72.53334 -29.86667 0
v -73.60001 -29.86667 0
v -73.60001 -28.8 0
v -72.53334 -28.8 0
v -73.60001 -29.86667 0
v -74.66667 -29.86667 0
v -74.66667 -28.8 0
v -73.60001 -28.8 0
v -74.66667 -29.86667 0
v -75.73334 -29.86667 0
v -75.73334 -28.8 0
v -74.66667 -28.8 0
v -73.60001 -30.93333 0
v -74.66667 -30.93333 0
v -74.66667 -29.86667 0
v -73.60001 -29.86667 0
v -82.13334 -30.93333 0
v -83.2 -30.93333 0
v -83.2 -29.86667 0
v -82.13334 -29.86667 0
v -83.2 -30.93333 0
v -84.26667 -30.93333 0
v -84.26667 -29.86667 0
v -83.2 -29.86667 0
v -84.26667 -30.93333 0
v -85.33334 -30.93333 0
v -85.33334 -29.86667 0
v -84.26667 -29.86667 0
v -76.8 -33.06667 0
v -77.86667 -33.06667 0
v -77.86667 -32 0
v -76.8 -32 0
v -77.86667 -33.06667 0
v -78.93333 -33.06667 0
v -78.93333 -32 0
v -77.86667 -32 0
v -78.93333 -33.06667 0
v -80.00001 -33.06667 0
v -80.00001 -32 0
v -78.93333 -32 0
v -83.2 -33.06667 0
v -84.26667 -33.06667 0
v -84.26667 -32 0
v -83.2 -32 0
v -84.26667 -33.06667 0
v -85.33334 -33.06667 0
v -85.33334 -32 0
v -84.26667 -32 0
v -85.33334 -33.06667 0
v -86.4 -33.06667 0
v -86.4 -32 0
v -85.33334 -32 0
v -86.4 -33.06667 0
v -87.46667 -33.06667 0
v -87.46667 -32 0
v -86.4 -32 0
v -77.86667 -34.13334 0
v -78.93333 -34.13334 0
v -78.93333 -33.06667 0
v -77.86667 -33.06667 0
v -78.93333 -34.13334 0
v -80.00001 -34.13334 0
v -80.00001 -33.06667 0
v -78.93333 -33.06667 0
v -86.4 -34.13334 0
v -87.46667 -34.13334 0
v -87.46667 -33.06667 0
v -86.4 -33.06667 0
v -87.46667 -34.13334 0
v -88.53334 -34.13334 0
v -88.53334 -33.06667 0
v -87.46667 -33.06667 0
v -77.86667 -35.2 0
v -78.93333 -35.2 0
v -78.93333 -34.13334 0
v -77.86667 -34.13334 0
v -78.93333 -35.2 0
v -80.00001 -35.2 0
v -80.00001 -34.13334 0
v -78.93333 -34.13334 0
v -80.00001 -35.2 0
v -81.06667 -35.2 0
v -81.06667 -34.13334 0
v -80.00001 -34.13334 0
v -85.33334 -35.2 0
v -86.4 -35.2 0
v -86.4 -34.13334 0
v -85.33334 -34.13334 0
v -86.4 -35.2 0
v -87.46667 -35.2 0
v -87.46667 -34.13334 0
v -86.4 -34.13334 0
v -87.46667 -35.2 0
v -88.53334 -35.2 0
v -88.53334 -34.13334 0
v -87.46667 -34.13334 0
v -88.53334 -35.2 0
v -89.60001 -35.2 0
v -89.60001 -34.13334 0
v -88.53334 -34.13334 0
v -80.00001 -36.26667 0
v -81.06667 -36.26667 0
v -81.06667 -35.2 0
v -80.00001 -35.2 0
v -87.46667 -36.26667 0
v -88.53334 -36.26667 0
v -88.53334 -35.2 0
v -87.46667 -35.2 0
v -88.53334 -36.26667 0
v -89.60001 -36.26667 0
v -89.60001 -35.2 0
v -88.53334 -35.2 0
v -89.60001 -36.26667 0
v -90.66667 -36.26667 0
v -90.66667 -35.2 0
v -89.60001 -35.2 0
v -80.00001 -37.33334 0
v -81.06667 -37.33334 0
v -81.06667 -36.26667 0
v -80.00001 -36.26667 0
v -81.06667 -37.33334 0
v -82.13334 -37.33334 0
v -82.13334 -36.26667 0
v -81.06667 -36.26667 0
v -82.13334 -37.33334 0
v -83.2 -37.33334 0
v -83.2 -36.26667 0
v -82.13334 -36.26667 0
v -86.4 -37.33334 0
v -87.46667 -37.33334 0
v -87.46667 -36.26667 0
v -86.4 -36.26667 0
v -87.46667 -37.33334 0
v -88.53334 -37.33334 0
v -88.53334 -36.26667 0
v -87.46667 -36.26667 0
v -88.53334 -37.33334 0
v -89.60001 -37.33334 0
v -89.60001 -36.26667 0
v -88.53334 -36.26667 0
v -89.60001 -37.33334 0
v -90.66667 -37.33334 0
v -90.66667 -36.26667 0
v -89.60001 -36.26667 0
v -90.66667 -37.33334 0
v -91.73334 -37.33334 0
v -91.73334 -36.26667 0
v -90.66667 -36.26667 0
v -82.13334 -38.4 0
v -83.2 -38.4 0
v -83.2 -37.33334 0
v -82.13334 -37.33334 0
v -83.2 -38.4 0
v -84.26667 -38.4 0
v -84.26667 -37.33334 0
v -83.2 -37.33334 0
v -88.53334 -38.4 0
v -89.60001 -38.4 0
v -89.60001 -37.33334 0
v -88.53334 -37.33334 0
v -89.60001 -38.4 0
v -90.66667 -38.4 0
v -90.66667 -37.33334 0
v -89.60001 -37.33334 0
v -82.13334 -39.46667 0
v -83.2 -39.46667 0
v -83.2 -38.4 0
v -82.13334 -38.4 0
v -83.2 -39.46667 0
v -84.26667 -39.46667 0
v -84.26667 -38.4 0
v -83.2 -38.4 0
v -84.26667 -39.46667 0
v -85.33334 -39.46667 0
v -85.33334 -38.4 0
v -84.26667 -38.4 0
v -89.60001 -39.46667 0
v -90.66667 -39.46667 0
v -90.66667 -38.4 0
v -89.60001 -38.4 0
v -90.66667 -39.46667 0
v -91.73334 -39.46667 0
v -91.73334 -38.4 0
v -90.66667 -38.4 0
v -91.73334 -39.46667 0
v -92.8 -39.46667 0
v -92.8 -38.4 0
v -91.73334 -38.4 0
v -92.8 -39.46667 0
v -93.86667 -39.46667 0
v -93.86667 -38.4 0
v -92.8 -38.4 0
v -93.86667 -40.53334 0
v -94.93334 -40.53334 0
v -94.93334 -39.46667 0
v -93.86667 -39.46667 0
v -84.26667 -41.6 0
v -85.33334 -41.6 0
v -85.33334 -40.53334 0
v -84.26667 -40.53334 0
v -85.33334 -41.6 0
v -86.4 -41.6 0
v -86.4 -40.53334 0
v -85.33334 -40.53334 0
v -86.4 -41.6 0
v -87.46667 -41.6 0
v -87.46667 -40.53334 0
v -86.4 -40.53334 0
v -87.46667 -41.6 0
v -88.53334 -41.6 0
v -88.53334 -40.53334 0
v -87.46667 -40.53334 0
v -92.8 -41.6 0
v -93.86667 -41.6 0
v -93.86667 -40.53334 0
v -92.8 -40.53334 0
v -93.86667 -41.6 0
v -94.93334 -41.6 0
v -94.93334 -40.53334 0
v -93.86667 -40.53334 0
v -94.93334 -41.6 0
v -96.00001 -41.6 0
v -96.00001 -40.53334 0
v -94.93334 -40.53334 0
v -96.00001 -41.6 0
v -97.06667 -41.6 0
v -97.06667 -40.53334 0
v -96.00001 -40.53334 0
v -86.4 -42.66667 0
v -87.46667 -42.66667 0
v -87.46667 -41.6 0
v -86.4 -41.6 0
v -87.46667 -42.66667 0
v -88.53334 -42.66667 0
v -88.53334 -41.6 0
v -87.46667 -41.6 0
v -88.53334 -42.66667 0
v -89.60001 -42.66667 0
v -89.60001 -41.6 0
v -88.53334 -41.6 0
v -93.86667 -42.66667 0
v -94.93334 -42.66667 0
v -94.93334 -41.6 0
v -93.86667 -41.6 0
v -94.93334 -42.66667 0
v -96.00001 -42.66667 0
v -96.00001 -41.6 0
v -94.93334 -41.6 0
v -86.4 -43.73334 0
v -87.46667 -43.73334 0
v -87.46667 -42.66667 0
v -86.4 -42.66667 0
v -87.46667 -43.73334 0
v -88.53334 -43.73334 0
v -88.53334 -42.66667 0
v -87.46667 -42.66667 0
v -88.53334 -43.73334 0
v -89.60001 -43.73334 0
v -89.60001 -42.66667 0
v -88.53334 -42.66667 0
v -89.60001 -43.73334 0
v -90.66667 -43.73334 0
v -90.66667 -42.66667 0
v -89.60001 -42.66667 0
v -93.86667 -43.73334 0
v -94.93334 -43.73334 0
v -94.93334 -42.66667 0
v -93.86667 -42.66667 0
v -88.53334 -44.8 0
v -89.60001 -44.8 0
v -89.60001 -43.73334 0
v -88.53334 -43.73334 0
v -88.53334 -45.86667 0
v -89.60001 -45.86667 0
v -89.60001 -44.8 0
v -88.53334 -44.8 0
v -89.60001 -45.86667 0
v -90.66667 -45.86667 0
v -90.66667 -44.8 0
v -89.60001 -44.8 0
v -90.66667 -45.86667 0
v -91.73334 -45.86667 0
v -91.73334 -44.8 0
v -90.66667 -44.8 0

# Texture cooridinates (Count = 84)
vt 0.3512397 0.9695817
vt 0.3677686 0.9695817
vt 0.3677686 1
vt 0.3512397 1
vt 0.8956612 0.4847909
vt 0.9121901 0.4847909
vt 0.9121901 0.5152091
vt 0.8956612 0.5152091
vt 0.8780992 0.4847909
vt 0.8946281 0.4847909
vt 0.8946281 0.5152091
vt 0.8780992 0.5152091
vt 0.8078513 0.4847909
vt 0.8243802 0.4847909
vt 0.8243802 0.5152091
vt 0.8078513 0.5152091
vt 0.8429752 0.4847909
vt 0.8595041 0.4847909
vt 0.8595041 0.5152091
vt 0.8429752 0.5152091
vt 0.8605372 0.4847909
vt 0.8770661 0.4847909
vt 0.8770661 0.5152091
vt 0.8605372 0.5152091
vt 0.7902893 0.5817491
vt 0.8068182 0.5817491
vt 0.8068182 0.6121673
vt 0.7902893 0.6121673
vt 0.8254132 0.5817491
vt 0.8419421 0.5817491
vt 0.8419421 0.6121673
vt 0.8254132 0.6121673
vt 0.8605372 0.5817491
vt 0.8770661 0.5817491
vt 0.8770661 0.6121673
vt 0.8605372 0.6121673
vt 0.8078513 0.5817491
vt 0.8243802 0.5817491
vt 0.8243802 0.6121673
vt 0.8078513 0.6121673
vt 0.8780992 0.5171102
vt 0.8946281 0.5171102
vt 0.8946281 0.5475285
vt 0.8780992 0.5475285
vt 0.8254132 0.5171102
vt 0.8419421 0.5171102
vt 0.8419421 0.5475285
vt 0.8254132 0.5475285
vt 0.9132231 0.4847909
vt 0.9297521 0.4847909
vt 0.9297521 0.5152091
vt 0.9132231 0.5152091
vt 0.8429752 0.5494297
vt 0.8595041 0.5494297
vt 0.8595041 0.5798479
vt 0.8429752 0.5798479
vt 0.8780992 0.5817491
vt 0.8946281 0.5817491
vt 0.8946281 0.6121673
vt 0.8780992 0.6121673
vt 0.8780992 0.5494297
vt 0.8946281 0.5494297
vt 0.8946281 0.5798479
vt 0.8780992 0.5798479
vt 0.8254132 0.5494297
vt 0.8419421 0.5494297
vt 0.8419421 0.5798479
vt 0.8254132 0.5798479
vt 0.8429752 0.5171102
vt 0.8595041 0.5171102
vt 0.8595041 0.5475285
vt 0.8429752 0.5475285
vt 0.7902893 0.5171102
vt 0.8068182 0.5171102
vt 0.8068182 0.5475285
vt 0.7902893 0.5475285
vt 0.8429752 0.5817491
vt 0.8595041 0.5817491
vt 0.8595041 0.6121673
vt 0.8429752 0.6121673
vt 0.6673554 0.6463878
vt 0.6838843 0.6463878
vt 0.6838843 0.6768061
vt 0.6673554 0.6768061

# Normal
vn 0 0 -1

# Mesh description
g musicentrance_mesh_0011

# Faces
f 1/1/1 2/2/1 3/3/1 4/4/1
f 5/5/1 6/6/1 7/7/1 8/8/1
f 9/9/1 10/10/1 11/11/1 12/12/1
f 13/13/1 14/14/1 15/15/1 16/16/1
f 17/17/1 18/18/1 19/19/1 20/20/1
f 21/13/1 22/14/1 23/15/1 24/16/1
f 25/17/1 26/18/1 27/19/1 28/20/1
f 29/17/1 30/18/1 31/19/1 32/20/1
f 33/21/1 34/22/1 35/23/1 36/24/1
f 37/5/1 38/6/1 39/7/1 40/8/1
f 41/5/1 42/6/1 43/7/1 44/8/1
f 45/13/1 46/14/1 47/15/1 48/16/1
f 49/17/1 50/18/1 51/19/1 52/20/1
f 53/21/1 54/22/1 55/23/1 56/24/1
f 57/5/1 58/6/1 59/7/1 60/8/1
f 61/21/1 62/22/1 63/23/1 64/24/1
f 65/25/1 66/26/1 67/27/1 68/28/1
f 69/29/1 70/30/1 71/31/1 72/32/1
f 73/33/1 74/34/1 75/35/1 76/36/1
f 77/37/1 78/38/1 79/39/1 80/40/1
f 81/29/1 82/30/1 83/31/1 84/32/1
f 85/41/1 86/42/1 87/43/1 88/44/1
f 89/25/1 90/26/1 91/27/1 92/28/1
f 93/45/1 94/46/1 95/47/1 96/48/1
f 97/29/1 98/30/1 99/31/1 100/32/1
f 101/33/1 102/34/1 103/35/1 104/36/1
f 105/17/1 106/18/1 107/19/1 108/20/1
f 109/49/1 110/50/1 111/51/1 112/52/1
f 113/9/1 114/10/1 115/11/1 116/12/1
f 117/17/1 118/18/1 119/19/1 120/20/1
f 121/25/1 122/26/1 123/27/1 124/28/1
f 125/29/1 126/30/1 127/31/1 128/32/1
f 129/41/1 130/42/1 131/43/1 132/44/1
f 133/25/1 134/26/1 135/27/1 136/28/1
f 137/29/1 138/30/1 139/31/1 140/32/1
f 141/53/1 142/54/1 143/55/1 144/56/1
f 145/57/1 146/58/1 147/59/1 148/60/1
f 149/9/1 150/10/1 151/11/1 152/12/1
f 153/9/1 154/10/1 155/11/1 156/12/1
f 157/21/1 158/22/1 159/23/1 160/24/1
f 161/17/1 162/18/1 163/19/1 164/20/1
f 165/25/1 166/26/1 167/27/1 168/28/1
f 169/29/1 170/30/1 171/31/1 172/32/1
f 173/61/1 174/62/1 175/63/1 176/64/1
f 177/5/1 178/6/1 179/7/1 180/8/1
f 181/25/1 182/26/1 183/27/1 184/28/1
f 185/45/1 186/46/1 187/47/1 188/48/1
f 189/45/1 190/46/1 191/47/1 192/48/1
f 193/57/1 194/58/1 195/59/1 196/60/1
f 197/17/1 198/18/1 199/19/1 200/20/1
f 201/13/1 202/14/1 203/15/1 204/16/1
f 205/21/1 206/22/1 207/23/1 208/24/1
f 209/9/1 210/10/1 211/11/1 212/12/1
f 213/25/1 214/26/1 215/27/1 216/28/1
f 217/45/1 218/46/1 219/47/1 220/48/1
f 221/57/1 222/58/1 223/59/1 224/60/1
f 225/25/1 226/26/1 227/27/1 228/28/1
f 229/65/1 230/66/1 231/67/1 232/68/1
f 233/69/1 234/70/1 235/71/1 236/72/1
f 237/57/1 238/58/1 239/59/1 240/60/1
f 241/5/1 242/6/1 243/7/1 244/8/1
f 245/25/1 246/26/1 247/27/1 248/28/1
f 249/45/1 250/46/1 251/47/1 252/48/1
f 253/61/1 254/62/1 255/63/1 256/64/1
f 257/21/1 258/22/1 259/23/1 260/24/1
f 261/73/1 262/74/1 263/75/1 264/76/1
f 265/53/1 266/54/1 267/55/1 268/56/1
f 269/69/1 270/70/1 271/71/1 272/72/1
f 273/57/1 274/58/1 275/59/1 276/60/1
f 277/5/1 278/6/1 279/7/1 280/8/1
f 281/49/1 282/50/1 283/51/1 284/52/1
f 285/21/1 286/22/1 287/23/1 288/24/1
f 289/13/1 290/14/1 291/15/1 292/16/1
f 293/9/1 294/10/1 295/11/1 296/12/1
f 297/25/1 298/26/1 299/27/1 300/28/1
f 301/77/1 302/78/1 303/79/1 304/80/1
f 305/53/1 306/54/1 307/55/1 308/56/1
f 309/33/1 310/34/1 311/35/1 312/36/1
f 313/49/1 314/50/1 315/51/1 316/52/1
f 317/81/1 318/82/1 319/83/1 320/84/1
f 321/37/1 322/38/1 323/39/1 324/40/1
f 325/45/1 326/46/1 327/47/1 328/48/1
f 329/61/1 330/62/1 331/63/1 332/64/1

