# Tiled2Unity generated file. Do not modify by hand.
# Wavefront file for 'musicentrance_mesh_0002.obj'

# Vertices (Count = 8)
v -38.4 -33.06667 0
v -39.46667 -33.06667 0
v -39.46667 -32 0
v -38.4 -32 0
v -38.4 -34.13334 0
v -39.46667 -34.13334 0
v -39.46667 -33.06667 0
v -38.4 -33.06667 0

# Texture cooridinates (Count = 8)
vt 0.406051 0.6442105
vt 0.4315287 0.6442105
vt 0.4315287 0.6778947
vt 0.406051 0.6778947
vt 0.406051 0.6084211
vt 0.4315287 0.6084211
vt 0.4315287 0.6421052
vt 0.406051 0.6421052

# Normal
vn 0 0 -1

# Mesh description
g musicentrance_mesh_0002

# Faces
f 1/1/1 2/2/1 3/3/1 4/4/1
f 5/5/1 6/6/1 7/7/1 8/8/1

