# Tiled2Unity generated file. Do not modify by hand.
# Wavefront file for 'Derwent_mesh_0007.obj'

# Vertices (Count = 196)
v -50.13334 -22.4 0
v -51.2 -22.4 0
v -51.2 -21.33333 0
v -50.13334 -21.33333 0
v -61.86667 -22.4 0
v -62.93334 -22.4 0
v -62.93334 -21.33333 0
v -61.86667 -21.33333 0
v -35.2 -23.46667 0
v -36.26667 -23.46667 0
v -36.26667 -22.4 0
v -35.2 -22.4 0
v -36.26667 -23.46667 0
v -37.33334 -23.46667 0
v -37.33334 -22.4 0
v -36.26667 -22.4 0
v -37.33334 -23.46667 0
v -38.4 -23.46667 0
v -38.4 -22.4 0
v -37.33334 -22.4 0
v -39.46667 -23.46667 0
v -40.53334 -23.46667 0
v -40.53334 -22.4 0
v -39.46667 -22.4 0
v -40.53334 -23.46667 0
v -41.6 -23.46667 0
v -41.6 -22.4 0
v -40.53334 -22.4 0
v -41.6 -23.46667 0
v -42.66667 -23.46667 0
v -42.66667 -22.4 0
v -41.6 -22.4 0
v -43.73334 -23.46667 0
v -44.8 -23.46667 0
v -44.8 -22.4 0
v -43.73334 -22.4 0
v -44.8 -23.46667 0
v -45.86667 -23.46667 0
v -45.86667 -22.4 0
v -44.8 -22.4 0
v -45.86667 -23.46667 0
v -46.93333 -23.46667 0
v -46.93333 -22.4 0
v -45.86667 -22.4 0
v -50.13334 -23.46667 0
v -51.2 -23.46667 0
v -51.2 -22.4 0
v -50.13334 -22.4 0
v -61.86667 -23.46667 0
v -62.93334 -23.46667 0
v -62.93334 -22.4 0
v -61.86667 -22.4 0
v -48 -24.53333 0
v -49.06667 -24.53333 0
v -49.06667 -23.46667 0
v -48 -23.46667 0
v -49.06667 -24.53333 0
v -50.13334 -24.53333 0
v -50.13334 -23.46667 0
v -49.06667 -23.46667 0
v -50.13334 -24.53333 0
v -51.2 -24.53333 0
v -51.2 -23.46667 0
v -50.13334 -23.46667 0
v -61.86667 -24.53333 0
v -62.93334 -24.53333 0
v -62.93334 -23.46667 0
v -61.86667 -23.46667 0
v -50.13334 -25.6 0
v -51.2 -25.6 0
v -51.2 -24.53333 0
v -50.13334 -24.53333 0
v -61.86667 -25.6 0
v -62.93334 -25.6 0
v -62.93334 -24.53333 0
v -61.86667 -24.53333 0
v -50.13334 -26.66667 0
v -51.2 -26.66667 0
v -51.2 -25.6 0
v -50.13334 -25.6 0
v -61.86667 -26.66667 0
v -62.93334 -26.66667 0
v -62.93334 -25.6 0
v -61.86667 -25.6 0
v -50.13334 -27.73334 0
v -51.2 -27.73334 0
v -51.2 -26.66667 0
v -50.13334 -26.66667 0
v -61.86667 -27.73334 0
v -62.93334 -27.73334 0
v -62.93334 -26.66667 0
v -61.86667 -26.66667 0
v -50.13334 -28.8 0
v -51.2 -28.8 0
v -51.2 -27.73334 0
v -50.13334 -27.73334 0
v -61.86667 -28.8 0
v -62.93334 -28.8 0
v -62.93334 -27.73334 0
v -61.86667 -27.73334 0
v -50.13334 -29.86667 0
v -51.2 -29.86667 0
v -51.2 -28.8 0
v -50.13334 -28.8 0
v -61.86667 -29.86667 0
v -62.93334 -29.86667 0
v -62.93334 -28.8 0
v -61.86667 -28.8 0
v -50.13334 -30.93333 0
v -51.2 -30.93333 0
v -51.2 -29.86667 0
v -50.13334 -29.86667 0
v -61.86667 -30.93333 0
v -62.93334 -30.93333 0
v -62.93334 -29.86667 0
v -61.86667 -29.86667 0
v -50.13334 -32 0
v -51.2 -32 0
v -51.2 -30.93333 0
v -50.13334 -30.93333 0
v -61.86667 -32 0
v -62.93334 -32 0
v -62.93334 -30.93333 0
v -61.86667 -30.93333 0
v -50.13334 -33.06667 0
v -51.2 -33.06667 0
v -51.2 -32 0
v -50.13334 -32 0
v -61.86667 -33.06667 0
v -62.93334 -33.06667 0
v -62.93334 -32 0
v -61.86667 -32 0
v -50.13334 -34.13334 0
v -51.2 -34.13334 0
v -51.2 -33.06667 0
v -50.13334 -33.06667 0
v -61.86667 -34.13334 0
v -62.93334 -34.13334 0
v -62.93334 -33.06667 0
v -61.86667 -33.06667 0
v -50.13334 -35.2 0
v -51.2 -35.2 0
v -51.2 -34.13334 0
v -50.13334 -34.13334 0
v -61.86667 -35.2 0
v -62.93334 -35.2 0
v -62.93334 -34.13334 0
v -61.86667 -34.13334 0
v -50.13334 -36.26667 0
v -51.2 -36.26667 0
v -51.2 -35.2 0
v -50.13334 -35.2 0
v -61.86667 -36.26667 0
v -62.93334 -36.26667 0
v -62.93334 -35.2 0
v -61.86667 -35.2 0
v -51.2 -38.4 0
v -52.26667 -38.4 0
v -52.26667 -37.33334 0
v -51.2 -37.33334 0
v -52.26667 -38.4 0
v -53.33334 -38.4 0
v -53.33334 -37.33334 0
v -52.26667 -37.33334 0
v -53.33334 -38.4 0
v -54.4 -38.4 0
v -54.4 -37.33334 0
v -53.33334 -37.33334 0
v -54.4 -38.4 0
v -55.46667 -38.4 0
v -55.46667 -37.33334 0
v -54.4 -37.33334 0
v -55.46667 -38.4 0
v -56.53334 -38.4 0
v -56.53334 -37.33334 0
v -55.46667 -37.33334 0
v -56.53334 -38.4 0
v -57.6 -38.4 0
v -57.6 -37.33334 0
v -56.53334 -37.33334 0
v -57.6 -38.4 0
v -58.66667 -38.4 0
v -58.66667 -37.33334 0
v -57.6 -37.33334 0
v -58.66667 -38.4 0
v -59.73334 -38.4 0
v -59.73334 -37.33334 0
v -58.66667 -37.33334 0
v -59.73334 -38.4 0
v -60.8 -38.4 0
v -60.8 -37.33334 0
v -59.73334 -37.33334 0
v -60.8 -38.4 0
v -61.86667 -38.4 0
v -61.86667 -37.33334 0
v -60.8 -37.33334 0

# Texture cooridinates (Count = 20)
vt 0.1756198 0.8726236
vt 0.1921488 0.8726236
vt 0.1921488 0.9030418
vt 0.1756198 0.9030418
vt 0.7200413 0.9695817
vt 0.7365702 0.9695817
vt 0.7365702 1
vt 0.7200413 1
vt 0.5971074 0.7756654
vt 0.6136364 0.7756654
vt 0.6136364 0.8060837
vt 0.5971074 0.8060837
vt 0.6146694 0.7756654
vt 0.6311983 0.7756654
vt 0.6311983 0.8060837
vt 0.6146694 0.8060837
vt 0.3326446 0.8726236
vt 0.3326446 0.9030418
vt 0.3161157 0.9030418
vt 0.3161157 0.8726236

# Normal
vn 0 0 -1

# Mesh description
g Derwent_mesh_0007

# Faces
f 1/1/1 2/2/1 3/3/1 4/4/1
f 5/2/1 6/1/1 7/4/1 8/3/1
f 9/5/1 10/6/1 11/7/1 12/8/1
f 13/5/1 14/6/1 15/7/1 16/8/1
f 17/5/1 18/6/1 19/7/1 20/8/1
f 21/5/1 22/6/1 23/7/1 24/8/1
f 25/5/1 26/6/1 27/7/1 28/8/1
f 29/5/1 30/6/1 31/7/1 32/8/1
f 33/5/1 34/6/1 35/7/1 36/8/1
f 37/5/1 38/6/1 39/7/1 40/8/1
f 41/5/1 42/6/1 43/7/1 44/8/1
f 45/1/1 46/2/1 47/3/1 48/4/1
f 49/2/1 50/1/1 51/4/1 52/3/1
f 53/9/1 54/10/1 55/11/1 56/12/1
f 57/13/1 58/14/1 59/15/1 60/16/1
f 61/1/1 62/2/1 63/3/1 64/4/1
f 65/2/1 66/1/1 67/4/1 68/3/1
f 69/1/1 70/2/1 71/3/1 72/4/1
f 73/2/1 74/1/1 75/4/1 76/3/1
f 77/1/1 78/2/1 79/3/1 80/4/1
f 81/2/1 82/1/1 83/4/1 84/3/1
f 85/1/1 86/2/1 87/3/1 88/4/1
f 89/2/1 90/1/1 91/4/1 92/3/1
f 93/17/1 94/18/1 95/19/1 96/20/1
f 97/2/1 98/1/1 99/4/1 100/3/1
f 101/1/1 102/2/1 103/3/1 104/4/1
f 105/2/1 106/1/1 107/4/1 108/3/1
f 109/1/1 110/2/1 111/3/1 112/4/1
f 113/2/1 114/1/1 115/4/1 116/3/1
f 117/1/1 118/2/1 119/3/1 120/4/1
f 121/2/1 122/1/1 123/4/1 124/3/1
f 125/1/1 126/2/1 127/3/1 128/4/1
f 129/2/1 130/1/1 131/4/1 132/3/1
f 133/1/1 134/2/1 135/3/1 136/4/1
f 137/2/1 138/1/1 139/4/1 140/3/1
f 141/1/1 142/2/1 143/3/1 144/4/1
f 145/2/1 146/1/1 147/4/1 148/3/1
f 149/1/1 150/2/1 151/3/1 152/4/1
f 153/2/1 154/1/1 155/4/1 156/3/1
f 157/5/1 158/6/1 159/7/1 160/8/1
f 161/5/1 162/6/1 163/7/1 164/8/1
f 165/5/1 166/6/1 167/7/1 168/8/1
f 169/5/1 170/6/1 171/7/1 172/8/1
f 173/5/1 174/6/1 175/7/1 176/8/1
f 177/5/1 178/6/1 179/7/1 180/8/1
f 181/5/1 182/6/1 183/7/1 184/8/1
f 185/5/1 186/6/1 187/7/1 188/8/1
f 189/5/1 190/6/1 191/7/1 192/8/1
f 193/5/1 194/6/1 195/7/1 196/8/1

