# Tiled2Unity generated file. Do not modify by hand.
# Wavefront file for 'Derwent_mesh_0006.obj'

# Vertices (Count = 480)
v -33.06667 -22.4 0
v -34.13334 -22.4 0
v -34.13334 -21.33333 0
v -33.06667 -21.33333 0
v -34.13334 -22.4 0
v -35.2 -22.4 0
v -35.2 -21.33333 0
v -34.13334 -21.33333 0
v -35.2 -22.4 0
v -36.26667 -22.4 0
v -36.26667 -21.33333 0
v -35.2 -21.33333 0
v -36.26667 -22.4 0
v -37.33334 -22.4 0
v -37.33334 -21.33333 0
v -36.26667 -21.33333 0
v -37.33334 -22.4 0
v -38.4 -22.4 0
v -38.4 -21.33333 0
v -37.33334 -21.33333 0
v -38.4 -22.4 0
v -39.46667 -22.4 0
v -39.46667 -21.33333 0
v -38.4 -21.33333 0
v -39.46667 -22.4 0
v -40.53334 -22.4 0
v -40.53334 -21.33333 0
v -39.46667 -21.33333 0
v -40.53334 -22.4 0
v -41.6 -22.4 0
v -41.6 -21.33333 0
v -40.53334 -21.33333 0
v -41.6 -22.4 0
v -42.66667 -22.4 0
v -42.66667 -21.33333 0
v -41.6 -21.33333 0
v -42.66667 -22.4 0
v -43.73334 -22.4 0
v -43.73334 -21.33333 0
v -42.66667 -21.33333 0
v -43.73334 -22.4 0
v -44.8 -22.4 0
v -44.8 -21.33333 0
v -43.73334 -21.33333 0
v -44.8 -22.4 0
v -45.86667 -22.4 0
v -45.86667 -21.33333 0
v -44.8 -21.33333 0
v -45.86667 -22.4 0
v -46.93333 -22.4 0
v -46.93333 -21.33333 0
v -45.86667 -21.33333 0
v -46.93333 -22.4 0
v -48 -22.4 0
v -48 -21.33333 0
v -46.93333 -21.33333 0
v -48 -22.4 0
v -49.06667 -22.4 0
v -49.06667 -21.33333 0
v -48 -21.33333 0
v -49.06667 -22.4 0
v -50.13334 -22.4 0
v -50.13334 -21.33333 0
v -49.06667 -21.33333 0
v -50.13334 -22.4 0
v -51.2 -22.4 0
v -51.2 -21.33333 0
v -50.13334 -21.33333 0
v -51.2 -22.4 0
v -52.26667 -22.4 0
v -52.26667 -21.33333 0
v -51.2 -21.33333 0
v -52.26667 -22.4 0
v -53.33334 -22.4 0
v -53.33334 -21.33333 0
v -52.26667 -21.33333 0
v -53.33334 -22.4 0
v -54.4 -22.4 0
v -54.4 -21.33333 0
v -53.33334 -21.33333 0
v -54.4 -22.4 0
v -55.46667 -22.4 0
v -55.46667 -21.33333 0
v -54.4 -21.33333 0
v -55.46667 -22.4 0
v -56.53334 -22.4 0
v -56.53334 -21.33333 0
v -55.46667 -21.33333 0
v -56.53334 -22.4 0
v -57.6 -22.4 0
v -57.6 -21.33333 0
v -56.53334 -21.33333 0
v -57.6 -22.4 0
v -58.66667 -22.4 0
v -58.66667 -21.33333 0
v -57.6 -21.33333 0
v -58.66667 -22.4 0
v -59.73334 -22.4 0
v -59.73334 -21.33333 0
v -58.66667 -21.33333 0
v -59.73334 -22.4 0
v -60.8 -22.4 0
v -60.8 -21.33333 0
v -59.73334 -21.33333 0
v -60.8 -22.4 0
v -61.86667 -22.4 0
v -61.86667 -21.33333 0
v -60.8 -21.33333 0
v -61.86667 -22.4 0
v -62.93334 -22.4 0
v -62.93334 -21.33333 0
v -61.86667 -21.33333 0
v -33.06667 -23.46667 0
v -34.13334 -23.46667 0
v -34.13334 -22.4 0
v -33.06667 -22.4 0
v -34.13334 -23.46667 0
v -35.2 -23.46667 0
v -35.2 -22.4 0
v -34.13334 -22.4 0
v -35.2 -23.46667 0
v -36.26667 -23.46667 0
v -36.26667 -22.4 0
v -35.2 -22.4 0
v -36.26667 -23.46667 0
v -37.33334 -23.46667 0
v -37.33334 -22.4 0
v -36.26667 -22.4 0
v -37.33334 -23.46667 0
v -38.4 -23.46667 0
v -38.4 -22.4 0
v -37.33334 -22.4 0
v -38.4 -23.46667 0
v -39.46667 -23.46667 0
v -39.46667 -22.4 0
v -38.4 -22.4 0
v -39.46667 -23.46667 0
v -40.53334 -23.46667 0
v -40.53334 -22.4 0
v -39.46667 -22.4 0
v -40.53334 -23.46667 0
v -41.6 -23.46667 0
v -41.6 -22.4 0
v -40.53334 -22.4 0
v -41.6 -23.46667 0
v -42.66667 -23.46667 0
v -42.66667 -22.4 0
v -41.6 -22.4 0
v -42.66667 -23.46667 0
v -43.73334 -23.46667 0
v -43.73334 -22.4 0
v -42.66667 -22.4 0
v -43.73334 -23.46667 0
v -44.8 -23.46667 0
v -44.8 -22.4 0
v -43.73334 -22.4 0
v -44.8 -23.46667 0
v -45.86667 -23.46667 0
v -45.86667 -22.4 0
v -44.8 -22.4 0
v -45.86667 -23.46667 0
v -46.93333 -23.46667 0
v -46.93333 -22.4 0
v -45.86667 -22.4 0
v -46.93333 -23.46667 0
v -48 -23.46667 0
v -48 -22.4 0
v -46.93333 -22.4 0
v -48 -23.46667 0
v -49.06667 -23.46667 0
v -49.06667 -22.4 0
v -48 -22.4 0
v -49.06667 -23.46667 0
v -50.13334 -23.46667 0
v -50.13334 -22.4 0
v -49.06667 -22.4 0
v -50.13334 -23.46667 0
v -51.2 -23.46667 0
v -51.2 -22.4 0
v -50.13334 -22.4 0
v -51.2 -23.46667 0
v -52.26667 -23.46667 0
v -52.26667 -22.4 0
v -51.2 -22.4 0
v -52.26667 -23.46667 0
v -53.33334 -23.46667 0
v -53.33334 -22.4 0
v -52.26667 -22.4 0
v -53.33334 -23.46667 0
v -54.4 -23.46667 0
v -54.4 -22.4 0
v -53.33334 -22.4 0
v -54.4 -23.46667 0
v -55.46667 -23.46667 0
v -55.46667 -22.4 0
v -54.4 -22.4 0
v -55.46667 -23.46667 0
v -56.53334 -23.46667 0
v -56.53334 -22.4 0
v -55.46667 -22.4 0
v -56.53334 -23.46667 0
v -57.6 -23.46667 0
v -57.6 -22.4 0
v -56.53334 -22.4 0
v -57.6 -23.46667 0
v -58.66667 -23.46667 0
v -58.66667 -22.4 0
v -57.6 -22.4 0
v -58.66667 -23.46667 0
v -59.73334 -23.46667 0
v -59.73334 -22.4 0
v -58.66667 -22.4 0
v -59.73334 -23.46667 0
v -60.8 -23.46667 0
v -60.8 -22.4 0
v -59.73334 -22.4 0
v -60.8 -23.46667 0
v -61.86667 -23.46667 0
v -61.86667 -22.4 0
v -60.8 -22.4 0
v -61.86667 -23.46667 0
v -62.93334 -23.46667 0
v -62.93334 -22.4 0
v -61.86667 -22.4 0
v -33.06667 -24.53333 0
v -34.13334 -24.53333 0
v -34.13334 -23.46667 0
v -33.06667 -23.46667 0
v -34.13334 -24.53333 0
v -35.2 -24.53333 0
v -35.2 -23.46667 0
v -34.13334 -23.46667 0
v -35.2 -24.53333 0
v -36.26667 -24.53333 0
v -36.26667 -23.46667 0
v -35.2 -23.46667 0
v -36.26667 -24.53333 0
v -37.33334 -24.53333 0
v -37.33334 -23.46667 0
v -36.26667 -23.46667 0
v -37.33334 -24.53333 0
v -38.4 -24.53333 0
v -38.4 -23.46667 0
v -37.33334 -23.46667 0
v -38.4 -24.53333 0
v -39.46667 -24.53333 0
v -39.46667 -23.46667 0
v -38.4 -23.46667 0
v -39.46667 -24.53333 0
v -40.53334 -24.53333 0
v -40.53334 -23.46667 0
v -39.46667 -23.46667 0
v -40.53334 -24.53333 0
v -41.6 -24.53333 0
v -41.6 -23.46667 0
v -40.53334 -23.46667 0
v -41.6 -24.53333 0
v -42.66667 -24.53333 0
v -42.66667 -23.46667 0
v -41.6 -23.46667 0
v -42.66667 -24.53333 0
v -43.73334 -24.53333 0
v -43.73334 -23.46667 0
v -42.66667 -23.46667 0
v -43.73334 -24.53333 0
v -44.8 -24.53333 0
v -44.8 -23.46667 0
v -43.73334 -23.46667 0
v -44.8 -24.53333 0
v -45.86667 -24.53333 0
v -45.86667 -23.46667 0
v -44.8 -23.46667 0
v -45.86667 -24.53333 0
v -46.93333 -24.53333 0
v -46.93333 -23.46667 0
v -45.86667 -23.46667 0
v -46.93333 -24.53333 0
v -48 -24.53333 0
v -48 -23.46667 0
v -46.93333 -23.46667 0
v -48 -24.53333 0
v -49.06667 -24.53333 0
v -49.06667 -23.46667 0
v -48 -23.46667 0
v -49.06667 -24.53333 0
v -50.13334 -24.53333 0
v -50.13334 -23.46667 0
v -49.06667 -23.46667 0
v -50.13334 -24.53333 0
v -51.2 -24.53333 0
v -51.2 -23.46667 0
v -50.13334 -23.46667 0
v -51.2 -24.53333 0
v -52.26667 -24.53333 0
v -52.26667 -23.46667 0
v -51.2 -23.46667 0
v -52.26667 -24.53333 0
v -53.33334 -24.53333 0
v -53.33334 -23.46667 0
v -52.26667 -23.46667 0
v -53.33334 -24.53333 0
v -54.4 -24.53333 0
v -54.4 -23.46667 0
v -53.33334 -23.46667 0
v -54.4 -24.53333 0
v -55.46667 -24.53333 0
v -55.46667 -23.46667 0
v -54.4 -23.46667 0
v -55.46667 -24.53333 0
v -56.53334 -24.53333 0
v -56.53334 -23.46667 0
v -55.46667 -23.46667 0
v -56.53334 -24.53333 0
v -57.6 -24.53333 0
v -57.6 -23.46667 0
v -56.53334 -23.46667 0
v -57.6 -24.53333 0
v -58.66667 -24.53333 0
v -58.66667 -23.46667 0
v -57.6 -23.46667 0
v -58.66667 -24.53333 0
v -59.73334 -24.53333 0
v -59.73334 -23.46667 0
v -58.66667 -23.46667 0
v -59.73334 -24.53333 0
v -60.8 -24.53333 0
v -60.8 -23.46667 0
v -59.73334 -23.46667 0
v -60.8 -24.53333 0
v -61.86667 -24.53333 0
v -61.86667 -23.46667 0
v -60.8 -23.46667 0
v -61.86667 -24.53333 0
v -62.93334 -24.53333 0
v -62.93334 -23.46667 0
v -61.86667 -23.46667 0
v -50.13334 -37.33334 0
v -51.2 -37.33334 0
v -51.2 -36.26667 0
v -50.13334 -36.26667 0
v -51.2 -37.33334 0
v -52.26667 -37.33334 0
v -52.26667 -36.26667 0
v -51.2 -36.26667 0
v -52.26667 -37.33334 0
v -53.33334 -37.33334 0
v -53.33334 -36.26667 0
v -52.26667 -36.26667 0
v -53.33334 -37.33334 0
v -54.4 -37.33334 0
v -54.4 -36.26667 0
v -53.33334 -36.26667 0
v -54.4 -37.33334 0
v -55.46667 -37.33334 0
v -55.46667 -36.26667 0
v -54.4 -36.26667 0
v -55.46667 -37.33334 0
v -56.53334 -37.33334 0
v -56.53334 -36.26667 0
v -55.46667 -36.26667 0
v -56.53334 -37.33334 0
v -57.6 -37.33334 0
v -57.6 -36.26667 0
v -56.53334 -36.26667 0
v -57.6 -37.33334 0
v -58.66667 -37.33334 0
v -58.66667 -36.26667 0
v -57.6 -36.26667 0
v -58.66667 -37.33334 0
v -59.73334 -37.33334 0
v -59.73334 -36.26667 0
v -58.66667 -36.26667 0
v -59.73334 -37.33334 0
v -60.8 -37.33334 0
v -60.8 -36.26667 0
v -59.73334 -36.26667 0
v -60.8 -37.33334 0
v -61.86667 -37.33334 0
v -61.86667 -36.26667 0
v -60.8 -36.26667 0
v -61.86667 -37.33334 0
v -62.93334 -37.33334 0
v -62.93334 -36.26667 0
v -61.86667 -36.26667 0
v -50.13334 -38.4 0
v -51.2 -38.4 0
v -51.2 -37.33334 0
v -50.13334 -37.33334 0
v -51.2 -38.4 0
v -52.26667 -38.4 0
v -52.26667 -37.33334 0
v -51.2 -37.33334 0
v -52.26667 -38.4 0
v -53.33334 -38.4 0
v -53.33334 -37.33334 0
v -52.26667 -37.33334 0
v -53.33334 -38.4 0
v -54.4 -38.4 0
v -54.4 -37.33334 0
v -53.33334 -37.33334 0
v -54.4 -38.4 0
v -55.46667 -38.4 0
v -55.46667 -37.33334 0
v -54.4 -37.33334 0
v -55.46667 -38.4 0
v -56.53334 -38.4 0
v -56.53334 -37.33334 0
v -55.46667 -37.33334 0
v -56.53334 -38.4 0
v -57.6 -38.4 0
v -57.6 -37.33334 0
v -56.53334 -37.33334 0
v -57.6 -38.4 0
v -58.66667 -38.4 0
v -58.66667 -37.33334 0
v -57.6 -37.33334 0
v -58.66667 -38.4 0
v -59.73334 -38.4 0
v -59.73334 -37.33334 0
v -58.66667 -37.33334 0
v -59.73334 -38.4 0
v -60.8 -38.4 0
v -60.8 -37.33334 0
v -59.73334 -37.33334 0
v -60.8 -38.4 0
v -61.86667 -38.4 0
v -61.86667 -37.33334 0
v -60.8 -37.33334 0
v -61.86667 -38.4 0
v -62.93334 -38.4 0
v -62.93334 -37.33334 0
v -61.86667 -37.33334 0
v -50.13334 -39.46667 0
v -51.2 -39.46667 0
v -51.2 -38.4 0
v -50.13334 -38.4 0
v -51.2 -39.46667 0
v -52.26667 -39.46667 0
v -52.26667 -38.4 0
v -51.2 -38.4 0
v -52.26667 -39.46667 0
v -53.33334 -39.46667 0
v -53.33334 -38.4 0
v -52.26667 -38.4 0
v -53.33334 -39.46667 0
v -54.4 -39.46667 0
v -54.4 -38.4 0
v -53.33334 -38.4 0
v -54.4 -39.46667 0
v -55.46667 -39.46667 0
v -55.46667 -38.4 0
v -54.4 -38.4 0
v -55.46667 -39.46667 0
v -56.53334 -39.46667 0
v -56.53334 -38.4 0
v -55.46667 -38.4 0
v -56.53334 -39.46667 0
v -57.6 -39.46667 0
v -57.6 -38.4 0
v -56.53334 -38.4 0
v -57.6 -39.46667 0
v -58.66667 -39.46667 0
v -58.66667 -38.4 0
v -57.6 -38.4 0
v -58.66667 -39.46667 0
v -59.73334 -39.46667 0
v -59.73334 -38.4 0
v -58.66667 -38.4 0
v -59.73334 -39.46667 0
v -60.8 -39.46667 0
v -60.8 -38.4 0
v -59.73334 -38.4 0
v -60.8 -39.46667 0
v -61.86667 -39.46667 0
v -61.86667 -38.4 0
v -60.8 -38.4 0
v -61.86667 -39.46667 0
v -62.93334 -39.46667 0
v -62.93334 -38.4 0
v -61.86667 -38.4 0

# Texture cooridinates (Count = 48)
vt 0.5444215 0.4524715
vt 0.5609504 0.4524715
vt 0.5609504 0.4828897
vt 0.5444215 0.4828897
vt 0.5619835 0.4524715
vt 0.5785124 0.4524715
vt 0.5785124 0.4828897
vt 0.5619835 0.4828897
vt 0.5795454 0.4524715
vt 0.5960744 0.4524715
vt 0.5960744 0.4828897
vt 0.5795454 0.4828897
vt 0.5444215 0.3555133
vt 0.5609504 0.3555133
vt 0.5609504 0.3859316
vt 0.5444215 0.3859316
vt 0.5444215 0.4847909
vt 0.5609504 0.4847909
vt 0.5609504 0.5152091
vt 0.5444215 0.5152091
vt 0.5619835 0.4847909
vt 0.5785124 0.4847909
vt 0.5785124 0.5152091
vt 0.5619835 0.5152091
vt 0.5795454 0.4847909
vt 0.5960744 0.4847909
vt 0.5960744 0.5152091
vt 0.5795454 0.5152091
vt 0.4917355 0.4847909
vt 0.5082645 0.4847909
vt 0.5082645 0.5152091
vt 0.4917355 0.5152091
vt 0.4741735 0.4847909
vt 0.4907025 0.4847909
vt 0.4907025 0.5152091
vt 0.4741735 0.5152091
vt 0.5268595 0.3231939
vt 0.5433884 0.3231939
vt 0.5433884 0.3536122
vt 0.5268595 0.3536122
vt 0.5444215 0.3231939
vt 0.5609504 0.3231939
vt 0.5609504 0.3536122
vt 0.5444215 0.3536122
vt 0.5268595 0.4847909
vt 0.5433884 0.4847909
vt 0.5433884 0.5152091
vt 0.5268595 0.5152091

# Normal
vn 0 0 -1

# Mesh description
g Derwent_mesh_0006

# Faces
f 1/1/1 2/2/1 3/3/1 4/4/1
f 5/5/1 6/6/1 7/7/1 8/8/1
f 9/5/1 10/6/1 11/7/1 12/8/1
f 13/5/1 14/6/1 15/7/1 16/8/1
f 17/5/1 18/6/1 19/7/1 20/8/1
f 21/5/1 22/6/1 23/7/1 24/8/1
f 25/5/1 26/6/1 27/7/1 28/8/1
f 29/5/1 30/6/1 31/7/1 32/8/1
f 33/5/1 34/6/1 35/7/1 36/8/1
f 37/5/1 38/6/1 39/7/1 40/8/1
f 41/5/1 42/6/1 43/7/1 44/8/1
f 45/5/1 46/6/1 47/7/1 48/8/1
f 49/5/1 50/6/1 51/7/1 52/8/1
f 53/5/1 54/6/1 55/7/1 56/8/1
f 57/5/1 58/6/1 59/7/1 60/8/1
f 61/9/1 62/10/1 63/11/1 64/12/1
f 65/1/1 66/2/1 67/3/1 68/4/1
f 69/13/1 70/14/1 71/15/1 72/16/1
f 73/5/1 74/6/1 75/7/1 76/8/1
f 77/5/1 78/6/1 79/7/1 80/8/1
f 81/13/1 82/14/1 83/15/1 84/16/1
f 85/5/1 86/6/1 87/7/1 88/8/1
f 89/5/1 90/6/1 91/7/1 92/8/1
f 93/5/1 94/6/1 95/7/1 96/8/1
f 97/5/1 98/6/1 99/7/1 100/8/1
f 101/5/1 102/6/1 103/7/1 104/8/1
f 105/13/1 106/14/1 107/15/1 108/16/1
f 109/9/1 110/10/1 111/11/1 112/12/1
f 113/17/1 114/18/1 115/19/1 116/20/1
f 117/21/1 118/22/1 119/23/1 120/24/1
f 121/21/1 122/22/1 123/23/1 124/24/1
f 125/21/1 126/22/1 127/23/1 128/24/1
f 129/21/1 130/22/1 131/23/1 132/24/1
f 133/21/1 134/22/1 135/23/1 136/24/1
f 137/21/1 138/22/1 139/23/1 140/24/1
f 141/21/1 142/22/1 143/23/1 144/24/1
f 145/21/1 146/22/1 147/23/1 148/24/1
f 149/21/1 150/22/1 151/23/1 152/24/1
f 153/21/1 154/22/1 155/23/1 156/24/1
f 157/21/1 158/22/1 159/23/1 160/24/1
f 161/21/1 162/22/1 163/23/1 164/24/1
f 165/21/1 166/22/1 167/23/1 168/24/1
f 169/21/1 170/22/1 171/23/1 172/24/1
f 173/25/1 174/26/1 175/27/1 176/28/1
f 177/17/1 178/18/1 179/19/1 180/20/1
f 181/21/1 182/22/1 183/23/1 184/24/1
f 185/21/1 186/22/1 187/23/1 188/24/1
f 189/21/1 190/22/1 191/23/1 192/24/1
f 193/21/1 194/22/1 195/23/1 196/24/1
f 197/21/1 198/22/1 199/23/1 200/24/1
f 201/21/1 202/22/1 203/23/1 204/24/1
f 205/21/1 206/22/1 207/23/1 208/24/1
f 209/21/1 210/22/1 211/23/1 212/24/1
f 213/21/1 214/22/1 215/23/1 216/24/1
f 217/21/1 218/22/1 219/23/1 220/24/1
f 221/25/1 222/26/1 223/27/1 224/28/1
f 225/29/1 226/30/1 227/31/1 228/32/1
f 229/33/1 230/34/1 231/35/1 232/36/1
f 233/33/1 234/34/1 235/35/1 236/36/1
f 237/33/1 238/34/1 239/35/1 240/36/1
f 241/33/1 242/34/1 243/35/1 244/36/1
f 245/33/1 246/34/1 247/35/1 248/36/1
f 249/33/1 250/34/1 251/35/1 252/36/1
f 253/33/1 254/34/1 255/35/1 256/36/1
f 257/33/1 258/34/1 259/35/1 260/36/1
f 261/33/1 262/34/1 263/35/1 264/36/1
f 265/33/1 266/34/1 267/35/1 268/36/1
f 269/33/1 270/34/1 271/35/1 272/36/1
f 273/33/1 274/34/1 275/35/1 276/36/1
f 277/33/1 278/34/1 279/35/1 280/36/1
f 281/21/1 282/22/1 283/23/1 284/24/1
f 285/25/1 286/26/1 287/27/1 288/28/1
f 289/37/1 290/38/1 291/39/1 292/40/1
f 293/41/1 294/42/1 295/43/1 296/44/1
f 297/33/1 298/34/1 299/35/1 300/36/1
f 301/33/1 302/34/1 303/35/1 304/36/1
f 305/33/1 306/34/1 307/35/1 308/36/1
f 309/41/1 310/42/1 311/43/1 312/44/1
f 313/33/1 314/34/1 315/35/1 316/36/1
f 317/33/1 318/34/1 319/35/1 320/36/1
f 321/33/1 322/34/1 323/35/1 324/36/1
f 325/33/1 326/34/1 327/35/1 328/36/1
f 329/33/1 330/34/1 331/35/1 332/36/1
f 333/45/1 334/46/1 335/47/1 336/48/1
f 337/1/1 338/2/1 339/3/1 340/4/1
f 341/13/1 342/14/1 343/15/1 344/16/1
f 345/5/1 346/6/1 347/7/1 348/8/1
f 349/5/1 350/6/1 351/7/1 352/8/1
f 353/13/1 354/14/1 355/15/1 356/16/1
f 357/5/1 358/6/1 359/7/1 360/8/1
f 361/5/1 362/6/1 363/7/1 364/8/1
f 365/5/1 366/6/1 367/7/1 368/8/1
f 369/5/1 370/6/1 371/7/1 372/8/1
f 373/5/1 374/6/1 375/7/1 376/8/1
f 377/13/1 378/14/1 379/15/1 380/16/1
f 381/9/1 382/10/1 383/11/1 384/12/1
f 385/17/1 386/18/1 387/19/1 388/20/1
f 389/21/1 390/22/1 391/23/1 392/24/1
f 393/21/1 394/22/1 395/23/1 396/24/1
f 397/21/1 398/22/1 399/23/1 400/24/1
f 401/21/1 402/22/1 403/23/1 404/24/1
f 405/21/1 406/22/1 407/23/1 408/24/1
f 409/21/1 410/22/1 411/23/1 412/24/1
f 413/21/1 414/22/1 415/23/1 416/24/1
f 417/21/1 418/22/1 419/23/1 420/24/1
f 421/21/1 422/22/1 423/23/1 424/24/1
f 425/21/1 426/22/1 427/23/1 428/24/1
f 429/25/1 430/26/1 431/27/1 432/28/1
f 433/37/1 434/38/1 435/39/1 436/40/1
f 437/41/1 438/42/1 439/43/1 440/44/1
f 441/33/1 442/34/1 443/35/1 444/36/1
f 445/33/1 446/34/1 447/35/1 448/36/1
f 449/33/1 450/34/1 451/35/1 452/36/1
f 453/41/1 454/42/1 455/43/1 456/44/1
f 457/33/1 458/34/1 459/35/1 460/36/1
f 461/33/1 462/34/1 463/35/1 464/36/1
f 465/33/1 466/34/1 467/35/1 468/36/1
f 469/33/1 470/34/1 471/35/1 472/36/1
f 473/33/1 474/34/1 475/35/1 476/36/1
f 477/45/1 478/46/1 479/47/1 480/48/1

