# Tiled2Unity generated file. Do not modify by hand.
# Wavefront file for 'WorldMap_mesh_0008.obj'

# Vertices (Count = 16)
v -59.2 -118.4 0
v -60.8 -118.4 0
v -60.8 -116.8 0
v -59.2 -116.8 0
v -52.8 -118.4 0
v -54.4 -118.4 0
v -54.4 -116.8 0
v -52.8 -116.8 0
v -108.8 -124.8 0
v -110.4 -124.8 0
v -110.4 -123.2 0
v -108.8 -123.2 0
v -104 -124.8 0
v -105.6 -124.8 0
v -105.6 -123.2 0
v -104 -123.2 0

# Texture cooridinates (Count = 4)
vt 0 0
vt 1 0
vt 1 1
vt 0 1

# Normal
vn 0 0 -1

# Mesh description
g WorldMap_mesh_0008

# Faces
f 1/1/1 2/2/1 3/3/1 4/4/1
f 5/1/1 6/2/1 7/3/1 8/4/1
f 9/1/1 10/2/1 11/3/1 12/4/1
f 13/1/1 14/2/1 15/3/1 16/4/1

