# Tiled2Unity generated file. Do not modify by hand.
# Wavefront file for 'WorldMap_mesh_0011.obj'

# Vertices (Count = 132)
v -132.8 -99.2 0
v -134.4 -99.2 0
v -134.4 -97.6 0
v -132.8 -97.6 0
v -134.4 -100.8 0
v -136 -100.8 0
v -136 -99.2 0
v -134.4 -99.2 0
v -132.8 -100.8 0
v -134.4 -100.8 0
v -134.4 -99.2 0
v -132.8 -99.2 0
v -97.6 -100.8 0
v -99.2 -100.8 0
v -99.2 -99.2 0
v -97.6 -99.2 0
v -113.6 -102.4 0
v -115.2 -102.4 0
v -115.2 -100.8 0
v -113.6 -100.8 0
v -97.6 -102.4 0
v -99.2 -102.4 0
v -99.2 -100.8 0
v -97.6 -100.8 0
v -113.6 -104 0
v -115.2 -104 0
v -115.2 -102.4 0
v -113.6 -102.4 0
v -99.2 -104 0
v -100.8 -104 0
v -100.8 -102.4 0
v -99.2 -102.4 0
v -99.2 -105.6 0
v -100.8 -105.6 0
v -100.8 -104 0
v -99.2 -104 0
v -97.6 -107.2 0
v -99.2 -107.2 0
v -99.2 -105.6 0
v -97.6 -105.6 0
v -134.4 -108.8 0
v -136 -108.8 0
v -136 -107.2 0
v -134.4 -107.2 0
v -97.6 -108.8 0
v -99.2 -108.8 0
v -99.2 -107.2 0
v -97.6 -107.2 0
v -134.4 -110.4 0
v -136 -110.4 0
v -136 -108.8 0
v -134.4 -108.8 0
v -51.2 -110.4 0
v -52.8 -110.4 0
v -52.8 -108.8 0
v -51.2 -108.8 0
v -132.8 -112 0
v -134.4 -112 0
v -134.4 -110.4 0
v -132.8 -110.4 0
v -115.2 -112 0
v -116.8 -112 0
v -116.8 -110.4 0
v -115.2 -110.4 0
v -51.2 -112 0
v -52.8 -112 0
v -52.8 -110.4 0
v -51.2 -110.4 0
v -132.8 -113.6 0
v -134.4 -113.6 0
v -134.4 -112 0
v -132.8 -112 0
v -115.2 -113.6 0
v -116.8 -113.6 0
v -116.8 -112 0
v -115.2 -112 0
v -99.2 -113.6 0
v -100.8 -113.6 0
v -100.8 -112 0
v -99.2 -112 0
v -132.8 -115.2 0
v -134.4 -115.2 0
v -134.4 -113.6 0
v -132.8 -113.6 0
v -100.8 -115.2 0
v -102.4 -115.2 0
v -102.4 -113.6 0
v -100.8 -113.6 0
v -99.2 -115.2 0
v -100.8 -115.2 0
v -100.8 -113.6 0
v -99.2 -113.6 0
v -124.8 -116.8 0
v -126.4 -116.8 0
v -126.4 -115.2 0
v -124.8 -115.2 0
v -123.2 -116.8 0
v -124.8 -116.8 0
v -124.8 -115.2 0
v -123.2 -115.2 0
v -100.8 -116.8 0
v -102.4 -116.8 0
v -102.4 -115.2 0
v -100.8 -115.2 0
v -128 -118.4 0
v -129.6 -118.4 0
v -129.6 -116.8 0
v -128 -116.8 0
v -124.8 -118.4 0
v -126.4 -118.4 0
v -126.4 -116.8 0
v -124.8 -116.8 0
v -123.2 -118.4 0
v -124.8 -118.4 0
v -124.8 -116.8 0
v -123.2 -116.8 0
v -110.4 -120 0
v -112 -120 0
v -112 -118.4 0
v -110.4 -118.4 0
v -110.4 -121.6 0
v -112 -121.6 0
v -112 -120 0
v -110.4 -120 0
v -102.4 -123.2 0
v -104 -123.2 0
v -104 -121.6 0
v -102.4 -121.6 0
v -102.4 -124.8 0
v -104 -124.8 0
v -104 -123.2 0
v -102.4 -123.2 0

# Texture cooridinates (Count = 28)
vt 0.2634298 0.6463878
vt 0.2799587 0.6463878
vt 0.2799587 0.6768061
vt 0.2634298 0.6768061
vt 0.4741735 0.6140684
vt 0.4907025 0.6140684
vt 0.4907025 0.6444867
vt 0.4741735 0.6444867
vt 0.2634298 0.6140684
vt 0.2799587 0.6140684
vt 0.2799587 0.6444867
vt 0.2634298 0.6444867
vt 0.2283058 0.6463878
vt 0.2448347 0.6463878
vt 0.2448347 0.6768061
vt 0.2283058 0.6768061
vt 0.2283058 0.6140684
vt 0.2448347 0.6140684
vt 0.2448347 0.6444867
vt 0.2283058 0.6444867
vt 0.2809917 0.6463878
vt 0.2975207 0.6463878
vt 0.2975207 0.6768061
vt 0.2809917 0.6768061
vt 0.2809917 0.6140684
vt 0.2975207 0.6140684
vt 0.2975207 0.6444867
vt 0.2809917 0.6444867

# Normal
vn 0 0 -1

# Mesh description
g WorldMap_mesh_0011

# Faces
f 1/1/1 2/2/1 3/3/1 4/4/1
f 5/5/1 6/6/1 7/7/1 8/8/1
f 9/9/1 10/10/1 11/11/1 12/12/1
f 13/1/1 14/2/1 15/3/1 16/4/1
f 17/1/1 18/2/1 19/3/1 20/4/1
f 21/9/1 22/10/1 23/11/1 24/12/1
f 25/9/1 26/10/1 27/11/1 28/12/1
f 29/1/1 30/2/1 31/3/1 32/4/1
f 33/9/1 34/10/1 35/11/1 36/12/1
f 37/13/1 38/14/1 39/15/1 40/16/1
f 41/1/1 42/2/1 43/3/1 44/4/1
f 45/17/1 46/18/1 47/19/1 48/20/1
f 49/9/1 50/10/1 51/11/1 52/12/1
f 53/13/1 54/14/1 55/15/1 56/16/1
f 57/13/1 58/14/1 59/15/1 60/16/1
f 61/1/1 62/2/1 63/3/1 64/4/1
f 65/17/1 66/18/1 67/19/1 68/20/1
f 69/17/1 70/18/1 71/19/1 72/20/1
f 73/9/1 74/10/1 75/11/1 76/12/1
f 77/1/1 78/2/1 79/3/1 80/4/1
f 81/5/1 82/6/1 83/7/1 84/8/1
f 85/13/1 86/14/1 87/15/1 88/16/1
f 89/9/1 90/10/1 91/11/1 92/12/1
f 93/21/1 94/22/1 95/23/1 96/24/1
f 97/1/1 98/2/1 99/3/1 100/4/1
f 101/17/1 102/18/1 103/19/1 104/20/1
f 105/5/1 106/6/1 107/7/1 108/8/1
f 109/25/1 110/26/1 111/27/1 112/28/1
f 113/9/1 114/10/1 115/11/1 116/12/1
f 117/1/1 118/2/1 119/3/1 120/4/1
f 121/9/1 122/10/1 123/11/1 124/12/1
f 125/1/1 126/2/1 127/3/1 128/4/1
f 129/9/1 130/10/1 131/11/1 132/12/1

