# Tiled2Unity generated file. Do not modify by hand.
# Wavefront file for 'HesHall(Inside)_mesh_0004.obj'

# Vertices (Count = 380)
v -40.53334 -35.2 0
v -41.6 -35.2 0
v -41.6 -34.13334 0
v -40.53334 -34.13334 0
v -41.6 -35.2 0
v -42.66667 -35.2 0
v -42.66667 -34.13334 0
v -41.6 -34.13334 0
v -42.66667 -35.2 0
v -43.73334 -35.2 0
v -43.73334 -34.13334 0
v -42.66667 -34.13334 0
v -43.73334 -35.2 0
v -44.8 -35.2 0
v -44.8 -34.13334 0
v -43.73334 -34.13334 0
v -44.8 -35.2 0
v -45.86667 -35.2 0
v -45.86667 -34.13334 0
v -44.8 -34.13334 0
v -45.86667 -35.2 0
v -46.93333 -35.2 0
v -46.93333 -34.13334 0
v -45.86667 -34.13334 0
v -46.93333 -35.2 0
v -48 -35.2 0
v -48 -34.13334 0
v -46.93333 -34.13334 0
v -48 -35.2 0
v -49.06667 -35.2 0
v -49.06667 -34.13334 0
v -48 -34.13334 0
v -49.06667 -35.2 0
v -50.13334 -35.2 0
v -50.13334 -34.13334 0
v -49.06667 -34.13334 0
v -50.13334 -35.2 0
v -51.2 -35.2 0
v -51.2 -34.13334 0
v -50.13334 -34.13334 0
v -51.2 -35.2 0
v -52.26667 -35.2 0
v -52.26667 -34.13334 0
v -51.2 -34.13334 0
v -52.26667 -35.2 0
v -53.33334 -35.2 0
v -53.33334 -34.13334 0
v -52.26667 -34.13334 0
v -53.33334 -35.2 0
v -54.4 -35.2 0
v -54.4 -34.13334 0
v -53.33334 -34.13334 0
v -54.4 -35.2 0
v -55.46667 -35.2 0
v -55.46667 -34.13334 0
v -54.4 -34.13334 0
v -55.46667 -35.2 0
v -56.53334 -35.2 0
v -56.53334 -34.13334 0
v -55.46667 -34.13334 0
v -56.53334 -35.2 0
v -57.6 -35.2 0
v -57.6 -34.13334 0
v -56.53334 -34.13334 0
v -57.6 -35.2 0
v -58.66667 -35.2 0
v -58.66667 -34.13334 0
v -57.6 -34.13334 0
v -58.66667 -35.2 0
v -59.73334 -35.2 0
v -59.73334 -34.13334 0
v -58.66667 -34.13334 0
v -59.73334 -35.2 0
v -60.8 -35.2 0
v -60.8 -34.13334 0
v -59.73334 -34.13334 0
v -60.8 -35.2 0
v -61.86667 -35.2 0
v -61.86667 -34.13334 0
v -60.8 -34.13334 0
v -61.86667 -35.2 0
v -62.93334 -35.2 0
v -62.93334 -34.13334 0
v -61.86667 -34.13334 0
v -40.53334 -36.26667 0
v -41.6 -36.26667 0
v -41.6 -35.2 0
v -40.53334 -35.2 0
v -41.6 -36.26667 0
v -42.66667 -36.26667 0
v -42.66667 -35.2 0
v -41.6 -35.2 0
v -42.66667 -36.26667 0
v -43.73334 -36.26667 0
v -43.73334 -35.2 0
v -42.66667 -35.2 0
v -43.73334 -36.26667 0
v -44.8 -36.26667 0
v -44.8 -35.2 0
v -43.73334 -35.2 0
v -44.8 -36.26667 0
v -45.86667 -36.26667 0
v -45.86667 -35.2 0
v -44.8 -35.2 0
v -45.86667 -36.26667 0
v -46.93333 -36.26667 0
v -46.93333 -35.2 0
v -45.86667 -35.2 0
v -46.93333 -36.26667 0
v -48 -36.26667 0
v -48 -35.2 0
v -46.93333 -35.2 0
v -48 -36.26667 0
v -49.06667 -36.26667 0
v -49.06667 -35.2 0
v -48 -35.2 0
v -49.06667 -36.26667 0
v -50.13334 -36.26667 0
v -50.13334 -35.2 0
v -49.06667 -35.2 0
v -50.13334 -36.26667 0
v -51.2 -36.26667 0
v -51.2 -35.2 0
v -50.13334 -35.2 0
v -51.2 -36.26667 0
v -52.26667 -36.26667 0
v -52.26667 -35.2 0
v -51.2 -35.2 0
v -52.26667 -36.26667 0
v -53.33334 -36.26667 0
v -53.33334 -35.2 0
v -52.26667 -35.2 0
v -53.33334 -36.26667 0
v -54.4 -36.26667 0
v -54.4 -35.2 0
v -53.33334 -35.2 0
v -54.4 -36.26667 0
v -55.46667 -36.26667 0
v -55.46667 -35.2 0
v -54.4 -35.2 0
v -55.46667 -36.26667 0
v -56.53334 -36.26667 0
v -56.53334 -35.2 0
v -55.46667 -35.2 0
v -56.53334 -36.26667 0
v -57.6 -36.26667 0
v -57.6 -35.2 0
v -56.53334 -35.2 0
v -57.6 -36.26667 0
v -58.66667 -36.26667 0
v -58.66667 -35.2 0
v -57.6 -35.2 0
v -58.66667 -36.26667 0
v -59.73334 -36.26667 0
v -59.73334 -35.2 0
v -58.66667 -35.2 0
v -59.73334 -36.26667 0
v -60.8 -36.26667 0
v -60.8 -35.2 0
v -59.73334 -35.2 0
v -60.8 -36.26667 0
v -61.86667 -36.26667 0
v -61.86667 -35.2 0
v -60.8 -35.2 0
v -61.86667 -36.26667 0
v -62.93334 -36.26667 0
v -62.93334 -35.2 0
v -61.86667 -35.2 0
v -41.6 -37.33334 0
v -42.66667 -37.33334 0
v -42.66667 -36.26667 0
v -41.6 -36.26667 0
v -43.73334 -37.33334 0
v -44.8 -37.33334 0
v -44.8 -36.26667 0
v -43.73334 -36.26667 0
v -45.86667 -37.33334 0
v -46.93333 -37.33334 0
v -46.93333 -36.26667 0
v -45.86667 -36.26667 0
v -48 -37.33334 0
v -49.06667 -37.33334 0
v -49.06667 -36.26667 0
v -48 -36.26667 0
v -50.13334 -37.33334 0
v -51.2 -37.33334 0
v -51.2 -36.26667 0
v -50.13334 -36.26667 0
v -52.26667 -37.33334 0
v -53.33334 -37.33334 0
v -53.33334 -36.26667 0
v -52.26667 -36.26667 0
v -54.4 -37.33334 0
v -55.46667 -37.33334 0
v -55.46667 -36.26667 0
v -54.4 -36.26667 0
v -56.53334 -37.33334 0
v -57.6 -37.33334 0
v -57.6 -36.26667 0
v -56.53334 -36.26667 0
v -58.66667 -37.33334 0
v -59.73334 -37.33334 0
v -59.73334 -36.26667 0
v -58.66667 -36.26667 0
v -60.8 -37.33334 0
v -61.86667 -37.33334 0
v -61.86667 -36.26667 0
v -60.8 -36.26667 0
v -41.6 -39.46667 0
v -42.66667 -39.46667 0
v -42.66667 -38.4 0
v -41.6 -38.4 0
v -43.73334 -39.46667 0
v -44.8 -39.46667 0
v -44.8 -38.4 0
v -43.73334 -38.4 0
v -45.86667 -39.46667 0
v -46.93333 -39.46667 0
v -46.93333 -38.4 0
v -45.86667 -38.4 0
v -48 -39.46667 0
v -49.06667 -39.46667 0
v -49.06667 -38.4 0
v -48 -38.4 0
v -50.13334 -39.46667 0
v -51.2 -39.46667 0
v -51.2 -38.4 0
v -50.13334 -38.4 0
v -51.2 -39.46667 0
v -52.26667 -39.46667 0
v -52.26667 -38.4 0
v -51.2 -38.4 0
v -52.26667 -39.46667 0
v -53.33334 -39.46667 0
v -53.33334 -38.4 0
v -52.26667 -38.4 0
v -54.4 -39.46667 0
v -55.46667 -39.46667 0
v -55.46667 -38.4 0
v -54.4 -38.4 0
v -56.53334 -39.46667 0
v -57.6 -39.46667 0
v -57.6 -38.4 0
v -56.53334 -38.4 0
v -58.66667 -39.46667 0
v -59.73334 -39.46667 0
v -59.73334 -38.4 0
v -58.66667 -38.4 0
v -60.8 -39.46667 0
v -61.86667 -39.46667 0
v -61.86667 -38.4 0
v -60.8 -38.4 0
v -40.53334 -40.53334 0
v -41.6 -40.53334 0
v -41.6 -39.46667 0
v -40.53334 -39.46667 0
v -41.6 -40.53334 0
v -42.66667 -40.53334 0
v -42.66667 -39.46667 0
v -41.6 -39.46667 0
v -42.66667 -40.53334 0
v -43.73334 -40.53334 0
v -43.73334 -39.46667 0
v -42.66667 -39.46667 0
v -43.73334 -40.53334 0
v -44.8 -40.53334 0
v -44.8 -39.46667 0
v -43.73334 -39.46667 0
v -44.8 -40.53334 0
v -45.86667 -40.53334 0
v -45.86667 -39.46667 0
v -44.8 -39.46667 0
v -45.86667 -40.53334 0
v -46.93333 -40.53334 0
v -46.93333 -39.46667 0
v -45.86667 -39.46667 0
v -46.93333 -40.53334 0
v -48 -40.53334 0
v -48 -39.46667 0
v -46.93333 -39.46667 0
v -49.06667 -40.53334 0
v -50.13334 -40.53334 0
v -50.13334 -39.46667 0
v -49.06667 -39.46667 0
v -53.33334 -40.53334 0
v -54.4 -40.53334 0
v -54.4 -39.46667 0
v -53.33334 -39.46667 0
v -54.4 -40.53334 0
v -55.46667 -40.53334 0
v -55.46667 -39.46667 0
v -54.4 -39.46667 0
v -55.46667 -40.53334 0
v -56.53334 -40.53334 0
v -56.53334 -39.46667 0
v -55.46667 -39.46667 0
v -56.53334 -40.53334 0
v -57.6 -40.53334 0
v -57.6 -39.46667 0
v -56.53334 -39.46667 0
v -57.6 -40.53334 0
v -58.66667 -40.53334 0
v -58.66667 -39.46667 0
v -57.6 -39.46667 0
v -58.66667 -40.53334 0
v -59.73334 -40.53334 0
v -59.73334 -39.46667 0
v -58.66667 -39.46667 0
v -59.73334 -40.53334 0
v -60.8 -40.53334 0
v -60.8 -39.46667 0
v -59.73334 -39.46667 0
v -61.86667 -40.53334 0
v -62.93334 -40.53334 0
v -62.93334 -39.46667 0
v -61.86667 -39.46667 0
v -40.53334 -41.6 0
v -41.6 -41.6 0
v -41.6 -40.53334 0
v -40.53334 -40.53334 0
v -41.6 -41.6 0
v -42.66667 -41.6 0
v -42.66667 -40.53334 0
v -41.6 -40.53334 0
v -42.66667 -41.6 0
v -43.73334 -41.6 0
v -43.73334 -40.53334 0
v -42.66667 -40.53334 0
v -44.8 -41.6 0
v -45.86667 -41.6 0
v -45.86667 -40.53334 0
v -44.8 -40.53334 0
v -45.86667 -41.6 0
v -46.93333 -41.6 0
v -46.93333 -40.53334 0
v -45.86667 -40.53334 0
v -46.93333 -41.6 0
v -48 -41.6 0
v -48 -40.53334 0
v -46.93333 -40.53334 0
v -48 -41.6 0
v -49.06667 -41.6 0
v -49.06667 -40.53334 0
v -48 -40.53334 0
v -49.06667 -41.6 0
v -50.13334 -41.6 0
v -50.13334 -40.53334 0
v -49.06667 -40.53334 0
v -51.2 -41.6 0
v -52.26667 -41.6 0
v -52.26667 -40.53334 0
v -51.2 -40.53334 0
v -53.33334 -41.6 0
v -54.4 -41.6 0
v -54.4 -40.53334 0
v -53.33334 -40.53334 0
v -55.46667 -41.6 0
v -56.53334 -41.6 0
v -56.53334 -40.53334 0
v -55.46667 -40.53334 0
v -57.6 -41.6 0
v -58.66667 -41.6 0
v -58.66667 -40.53334 0
v -57.6 -40.53334 0
v -58.66667 -41.6 0
v -59.73334 -41.6 0
v -59.73334 -40.53334 0
v -58.66667 -40.53334 0
v -59.73334 -41.6 0
v -60.8 -41.6 0
v -60.8 -40.53334 0
v -59.73334 -40.53334 0
v -61.86667 -41.6 0
v -62.93334 -41.6 0
v -62.93334 -40.53334 0
v -61.86667 -40.53334 0
v -51.2 -42.66667 0
v -52.26667 -42.66667 0
v -52.26667 -41.6 0
v -51.2 -41.6 0

# Texture cooridinates (Count = 96)
vt 0.8254132 0.904943
vt 0.8419421 0.904943
vt 0.8419421 0.9353612
vt 0.8254132 0.9353612
vt 0.8780992 0.8726236
vt 0.8946281 0.8726236
vt 0.8946281 0.9030418
vt 0.8780992 0.9030418
vt 0.8605372 0.8726236
vt 0.8770661 0.8726236
vt 0.8770661 0.9030418
vt 0.8605372 0.9030418
vt 0.8254132 0.8726236
vt 0.8419421 0.8726236
vt 0.8419421 0.9030418
vt 0.8254132 0.9030418
vt 0.8780992 0.8403042
vt 0.8946281 0.8403042
vt 0.8946281 0.8707224
vt 0.8780992 0.8707224
vt 0.8605372 0.8403042
vt 0.8770661 0.8403042
vt 0.8770661 0.8707224
vt 0.8605372 0.8707224
vt 0.8780992 0.8079848
vt 0.8946281 0.8079848
vt 0.8946281 0.838403
vt 0.8780992 0.838403
vt 0.8605372 0.8079848
vt 0.8770661 0.8079848
vt 0.8770661 0.838403
vt 0.8605372 0.838403
vt 0.9483471 0.3878327
vt 0.9648761 0.3878327
vt 0.9648761 0.418251
vt 0.9483471 0.418251
vt 0.8956612 0.8079848
vt 0.9121901 0.8079848
vt 0.9121901 0.838403
vt 0.8956612 0.838403
vt 0.9132231 0.8079848
vt 0.9297521 0.8079848
vt 0.9297521 0.838403
vt 0.9132231 0.838403
vt 0.9307851 0.8079848
vt 0.947314 0.8079848
vt 0.947314 0.838403
vt 0.9307851 0.838403
vt 0.5092975 0.6140684
vt 0.5258265 0.6140684
vt 0.5258265 0.6444867
vt 0.5092975 0.6444867
vt 0.4566116 0.7110266
vt 0.4731405 0.7110266
vt 0.4731405 0.7414448
vt 0.4566116 0.7414448
vt 0.4214876 0.7110266
vt 0.4380165 0.7110266
vt 0.4380165 0.7414448
vt 0.4214876 0.7414448
vt 0.7376033 0.4847909
vt 0.7541322 0.4847909
vt 0.7541322 0.5152091
vt 0.7376033 0.5152091
vt 0.5092975 0.6463878
vt 0.5258265 0.6463878
vt 0.5258265 0.6768061
vt 0.5092975 0.6768061
vt 0.7727273 0.4847909
vt 0.7892562 0.4847909
vt 0.7892562 0.5152091
vt 0.7727273 0.5152091
vt 0.4039256 0.7110266
vt 0.4204545 0.7110266
vt 0.4204545 0.7414448
vt 0.4039256 0.7414448
vt 0.5444215 0.6140684
vt 0.5609504 0.6140684
vt 0.5609504 0.6444867
vt 0.5444215 0.6444867
vt 0.5268595 0.6463878
vt 0.5433884 0.6463878
vt 0.5433884 0.6768061
vt 0.5268595 0.6768061
vt 0.9834711 0.6787072
vt 1 0.6787072
vt 1 0.7091255
vt 0.9834711 0.7091255
vt 0.5268595 0.6140684
vt 0.5433884 0.6140684
vt 0.5433884 0.6444867
vt 0.5268595 0.6444867
vt 0.9834711 0.6463878
vt 1 0.6463878
vt 1 0.6768061
vt 0.9834711 0.6768061

# Normal
vn 0 0 -1

# Mesh description
g HesHall(Inside)_mesh_0004

# Faces
f 1/1/1 2/2/1 3/3/1 4/4/1
f 5/5/1 6/6/1 7/7/1 8/8/1
f 9/1/1 10/2/1 11/3/1 12/4/1
f 13/9/1 14/10/1 15/11/1 16/12/1
f 17/1/1 18/2/1 19/3/1 20/4/1
f 21/5/1 22/6/1 23/7/1 24/8/1
f 25/1/1 26/2/1 27/3/1 28/4/1
f 29/9/1 30/10/1 31/11/1 32/12/1
f 33/1/1 34/2/1 35/3/1 36/4/1
f 37/5/1 38/6/1 39/7/1 40/8/1
f 41/1/1 42/2/1 43/3/1 44/4/1
f 45/5/1 46/6/1 47/7/1 48/8/1
f 49/1/1 50/2/1 51/3/1 52/4/1
f 53/9/1 54/10/1 55/11/1 56/12/1
f 57/1/1 58/2/1 59/3/1 60/4/1
f 61/5/1 62/6/1 63/7/1 64/8/1
f 65/1/1 66/2/1 67/3/1 68/4/1
f 69/9/1 70/10/1 71/11/1 72/12/1
f 73/1/1 74/2/1 75/3/1 76/4/1
f 77/5/1 78/6/1 79/7/1 80/8/1
f 81/1/1 82/2/1 83/3/1 84/4/1
f 85/13/1 86/14/1 87/15/1 88/16/1
f 89/17/1 90/18/1 91/19/1 92/20/1
f 93/13/1 94/14/1 95/15/1 96/16/1
f 97/21/1 98/22/1 99/23/1 100/24/1
f 101/13/1 102/14/1 103/15/1 104/16/1
f 105/17/1 106/18/1 107/19/1 108/20/1
f 109/13/1 110/14/1 111/15/1 112/16/1
f 113/21/1 114/22/1 115/23/1 116/24/1
f 117/13/1 118/14/1 119/15/1 120/16/1
f 121/17/1 122/18/1 123/19/1 124/20/1
f 125/13/1 126/14/1 127/15/1 128/16/1
f 129/17/1 130/18/1 131/19/1 132/20/1
f 133/13/1 134/14/1 135/15/1 136/16/1
f 137/21/1 138/22/1 139/23/1 140/24/1
f 141/13/1 142/14/1 143/15/1 144/16/1
f 145/17/1 146/18/1 147/19/1 148/20/1
f 149/13/1 150/14/1 151/15/1 152/16/1
f 153/21/1 154/22/1 155/23/1 156/24/1
f 157/13/1 158/14/1 159/15/1 160/16/1
f 161/17/1 162/18/1 163/19/1 164/20/1
f 165/13/1 166/14/1 167/15/1 168/16/1
f 169/25/1 170/26/1 171/27/1 172/28/1
f 173/29/1 174/30/1 175/31/1 176/32/1
f 177/25/1 178/26/1 179/27/1 180/28/1
f 181/29/1 182/30/1 183/31/1 184/32/1
f 185/25/1 186/26/1 187/27/1 188/28/1
f 189/25/1 190/26/1 191/27/1 192/28/1
f 193/29/1 194/30/1 195/31/1 196/32/1
f 197/25/1 198/26/1 199/27/1 200/28/1
f 201/29/1 202/30/1 203/31/1 204/32/1
f 205/25/1 206/26/1 207/27/1 208/28/1
f 209/33/1 210/34/1 211/35/1 212/36/1
f 213/33/1 214/34/1 215/35/1 216/36/1
f 217/33/1 218/34/1 219/35/1 220/36/1
f 221/33/1 222/34/1 223/35/1 224/36/1
f 225/37/1 226/38/1 227/39/1 228/40/1
f 229/41/1 230/42/1 231/43/1 232/44/1
f 233/45/1 234/46/1 235/47/1 236/48/1
f 237/33/1 238/34/1 239/35/1 240/36/1
f 241/33/1 242/34/1 243/35/1 244/36/1
f 245/33/1 246/34/1 247/35/1 248/36/1
f 249/33/1 250/34/1 251/35/1 252/36/1
f 253/1/1 254/2/1 255/3/1 256/4/1
f 257/49/1 258/50/1 259/51/1 260/52/1
f 261/1/1 262/2/1 263/3/1 264/4/1
f 265/53/1 266/54/1 267/55/1 268/56/1
f 269/1/1 270/2/1 271/3/1 272/4/1
f 273/57/1 274/58/1 275/59/1 276/60/1
f 277/1/1 278/2/1 279/3/1 280/4/1
f 281/1/1 282/2/1 283/3/1 284/4/1
f 285/1/1 286/2/1 287/3/1 288/4/1
f 289/61/1 290/62/1 291/63/1 292/64/1
f 293/1/1 294/2/1 295/3/1 296/4/1
f 297/65/1 298/66/1 299/67/1 300/68/1
f 301/1/1 302/2/1 303/3/1 304/4/1
f 305/69/1 306/70/1 307/71/1 308/72/1
f 309/1/1 310/2/1 311/3/1 312/4/1
f 313/1/1 314/2/1 315/3/1 316/4/1
f 317/13/1 318/14/1 319/15/1 320/16/1
f 321/73/1 322/74/1 323/75/1 324/76/1
f 325/13/1 326/14/1 327/15/1 328/16/1
f 329/13/1 330/14/1 331/15/1 332/16/1
f 333/77/1 334/78/1 335/79/1 336/80/1
f 337/13/1 338/14/1 339/15/1 340/16/1
f 341/81/1 342/82/1 343/83/1 344/84/1
f 345/13/1 346/14/1 347/15/1 348/16/1
f 349/85/1 350/86/1 351/87/1 352/88/1
f 353/13/1 354/14/1 355/15/1 356/16/1
f 357/13/1 358/14/1 359/15/1 360/16/1
f 361/13/1 362/14/1 363/15/1 364/16/1
f 365/89/1 366/90/1 367/91/1 368/92/1
f 369/13/1 370/14/1 371/15/1 372/16/1
f 373/13/1 374/14/1 375/15/1 376/16/1
f 377/93/1 378/94/1 379/95/1 380/96/1

