# Tiled2Unity generated file. Do not modify by hand.
# Wavefront file for 'HesHall(Inside)_mesh_0005.obj'

# Vertices (Count = 40)
v -48 -40.53334 0
v -49.06667 -40.53334 0
v -49.06667 -39.46667 0
v -48 -39.46667 0
v -50.13334 -40.53334 0
v -51.2 -40.53334 0
v -51.2 -39.46667 0
v -50.13334 -39.46667 0
v -51.2 -40.53334 0
v -52.26667 -40.53334 0
v -52.26667 -39.46667 0
v -51.2 -39.46667 0
v -52.26667 -40.53334 0
v -53.33334 -40.53334 0
v -53.33334 -39.46667 0
v -52.26667 -39.46667 0
v -60.8 -40.53334 0
v -61.86667 -40.53334 0
v -61.86667 -39.46667 0
v -60.8 -39.46667 0
v -50.13334 -41.6 0
v -51.2 -41.6 0
v -51.2 -40.53334 0
v -50.13334 -40.53334 0
v -52.26667 -41.6 0
v -53.33334 -41.6 0
v -53.33334 -40.53334 0
v -52.26667 -40.53334 0
v -60.8 -41.6 0
v -61.86667 -41.6 0
v -61.86667 -40.53334 0
v -60.8 -40.53334 0
v -50.13334 -42.66667 0
v -51.2 -42.66667 0
v -51.2 -41.6 0
v -50.13334 -41.6 0
v -52.26667 -42.66667 0
v -53.33334 -42.66667 0
v -53.33334 -41.6 0
v -52.26667 -41.6 0

# Texture cooridinates (Count = 40)
vt 0.8183808 0.390164
vt 0.8533917 0.390164
vt 0.8533917 0.442623
vt 0.8183808 0.442623
vt 0.595186 0.1672131
vt 0.6301969 0.1672131
vt 0.6301969 0.2196721
vt 0.595186 0.2196721
vt 0.6323851 0.1672131
vt 0.6673961 0.1672131
vt 0.6673961 0.2196721
vt 0.6323851 0.2196721
vt 0.6695843 0.1672131
vt 0.7045952 0.1672131
vt 0.7045952 0.2196721
vt 0.6695843 0.2196721
vt 0.8183808 0.05573773
vt 0.8533917 0.05573773
vt 0.8533917 0.1081967
vt 0.8183808 0.1081967
vt 0.7811816 0.1114754
vt 0.8161926 0.1114754
vt 0.8161926 0.1639344
vt 0.7811816 0.1639344
vt 0.6695843 0.2229508
vt 0.7045952 0.2229508
vt 0.7045952 0.2754098
vt 0.6695843 0.2754098
vt 0.8183808 0
vt 0.8533917 0
vt 0.8533917 0.052459
vt 0.8183808 0.052459
vt 0.7811816 0.05573773
vt 0.8161926 0.05573773
vt 0.8161926 0.1081967
vt 0.7811816 0.1081967
vt 0.7067834 0.1672131
vt 0.7417943 0.1672131
vt 0.7417943 0.2196721
vt 0.7067834 0.2196721

# Normal
vn 0 0 -1

# Mesh description
g HesHall(Inside)_mesh_0005

# Faces
f 1/1/1 2/2/1 3/3/1 4/4/1
f 5/5/1 6/6/1 7/7/1 8/8/1
f 9/9/1 10/10/1 11/11/1 12/12/1
f 13/13/1 14/14/1 15/15/1 16/16/1
f 17/17/1 18/18/1 19/19/1 20/20/1
f 21/21/1 22/22/1 23/23/1 24/24/1
f 25/25/1 26/26/1 27/27/1 28/28/1
f 29/29/1 30/30/1 31/31/1 32/32/1
f 33/33/1 34/34/1 35/35/1 36/36/1
f 37/37/1 38/38/1 39/39/1 40/40/1

