# Tiled2Unity generated file. Do not modify by hand.
# Wavefront file for 'Music-Main_mesh_0003.obj'

# Vertices (Count = 600)
v -32 -24.53333 0
v -33.06667 -24.53333 0
v -33.06667 -23.46667 0
v -32 -23.46667 0
v -33.06667 -24.53333 0
v -34.13334 -24.53333 0
v -34.13334 -23.46667 0
v -33.06667 -23.46667 0
v -34.13334 -24.53333 0
v -35.2 -24.53333 0
v -35.2 -23.46667 0
v -34.13334 -23.46667 0
v -35.2 -24.53333 0
v -36.26667 -24.53333 0
v -36.26667 -23.46667 0
v -35.2 -23.46667 0
v -36.26667 -24.53333 0
v -37.33334 -24.53333 0
v -37.33334 -23.46667 0
v -36.26667 -23.46667 0
v -37.33334 -24.53333 0
v -38.4 -24.53333 0
v -38.4 -23.46667 0
v -37.33334 -23.46667 0
v -38.4 -24.53333 0
v -39.46667 -24.53333 0
v -39.46667 -23.46667 0
v -38.4 -23.46667 0
v -39.46667 -24.53333 0
v -40.53334 -24.53333 0
v -40.53334 -23.46667 0
v -39.46667 -23.46667 0
v -40.53334 -24.53333 0
v -41.6 -24.53333 0
v -41.6 -23.46667 0
v -40.53334 -23.46667 0
v -41.6 -24.53333 0
v -42.66667 -24.53333 0
v -42.66667 -23.46667 0
v -41.6 -23.46667 0
v -42.66667 -24.53333 0
v -43.73334 -24.53333 0
v -43.73334 -23.46667 0
v -42.66667 -23.46667 0
v -43.73334 -24.53333 0
v -44.8 -24.53333 0
v -44.8 -23.46667 0
v -43.73334 -23.46667 0
v -44.8 -24.53333 0
v -45.86667 -24.53333 0
v -45.86667 -23.46667 0
v -44.8 -23.46667 0
v -45.86667 -24.53333 0
v -46.93333 -24.53333 0
v -46.93333 -23.46667 0
v -45.86667 -23.46667 0
v -46.93333 -24.53333 0
v -48 -24.53333 0
v -48 -23.46667 0
v -46.93333 -23.46667 0
v -48 -24.53333 0
v -49.06667 -24.53333 0
v -49.06667 -23.46667 0
v -48 -23.46667 0
v -49.06667 -24.53333 0
v -50.13334 -24.53333 0
v -50.13334 -23.46667 0
v -49.06667 -23.46667 0
v -50.13334 -24.53333 0
v -51.2 -24.53333 0
v -51.2 -23.46667 0
v -50.13334 -23.46667 0
v -51.2 -24.53333 0
v -52.26667 -24.53333 0
v -52.26667 -23.46667 0
v -51.2 -23.46667 0
v -52.26667 -24.53333 0
v -53.33334 -24.53333 0
v -53.33334 -23.46667 0
v -52.26667 -23.46667 0
v -32 -25.6 0
v -33.06667 -25.6 0
v -33.06667 -24.53333 0
v -32 -24.53333 0
v -33.06667 -25.6 0
v -34.13334 -25.6 0
v -34.13334 -24.53333 0
v -33.06667 -24.53333 0
v -34.13334 -25.6 0
v -35.2 -25.6 0
v -35.2 -24.53333 0
v -34.13334 -24.53333 0
v -35.2 -25.6 0
v -36.26667 -25.6 0
v -36.26667 -24.53333 0
v -35.2 -24.53333 0
v -36.26667 -25.6 0
v -37.33334 -25.6 0
v -37.33334 -24.53333 0
v -36.26667 -24.53333 0
v -37.33334 -25.6 0
v -38.4 -25.6 0
v -38.4 -24.53333 0
v -37.33334 -24.53333 0
v -38.4 -25.6 0
v -39.46667 -25.6 0
v -39.46667 -24.53333 0
v -38.4 -24.53333 0
v -39.46667 -25.6 0
v -40.53334 -25.6 0
v -40.53334 -24.53333 0
v -39.46667 -24.53333 0
v -40.53334 -25.6 0
v -41.6 -25.6 0
v -41.6 -24.53333 0
v -40.53334 -24.53333 0
v -41.6 -25.6 0
v -42.66667 -25.6 0
v -42.66667 -24.53333 0
v -41.6 -24.53333 0
v -42.66667 -25.6 0
v -43.73334 -25.6 0
v -43.73334 -24.53333 0
v -42.66667 -24.53333 0
v -43.73334 -25.6 0
v -44.8 -25.6 0
v -44.8 -24.53333 0
v -43.73334 -24.53333 0
v -44.8 -25.6 0
v -45.86667 -25.6 0
v -45.86667 -24.53333 0
v -44.8 -24.53333 0
v -45.86667 -25.6 0
v -46.93333 -25.6 0
v -46.93333 -24.53333 0
v -45.86667 -24.53333 0
v -46.93333 -25.6 0
v -48 -25.6 0
v -48 -24.53333 0
v -46.93333 -24.53333 0
v -48 -25.6 0
v -49.06667 -25.6 0
v -49.06667 -24.53333 0
v -48 -24.53333 0
v -49.06667 -25.6 0
v -50.13334 -25.6 0
v -50.13334 -24.53333 0
v -49.06667 -24.53333 0
v -50.13334 -25.6 0
v -51.2 -25.6 0
v -51.2 -24.53333 0
v -50.13334 -24.53333 0
v -51.2 -25.6 0
v -52.26667 -25.6 0
v -52.26667 -24.53333 0
v -51.2 -24.53333 0
v -52.26667 -25.6 0
v -53.33334 -25.6 0
v -53.33334 -24.53333 0
v -52.26667 -24.53333 0
v -32 -26.66667 0
v -33.06667 -26.66667 0
v -33.06667 -25.6 0
v -32 -25.6 0
v -33.06667 -26.66667 0
v -34.13334 -26.66667 0
v -34.13334 -25.6 0
v -33.06667 -25.6 0
v -34.13334 -26.66667 0
v -35.2 -26.66667 0
v -35.2 -25.6 0
v -34.13334 -25.6 0
v -35.2 -26.66667 0
v -36.26667 -26.66667 0
v -36.26667 -25.6 0
v -35.2 -25.6 0
v -36.26667 -26.66667 0
v -37.33334 -26.66667 0
v -37.33334 -25.6 0
v -36.26667 -25.6 0
v -37.33334 -26.66667 0
v -38.4 -26.66667 0
v -38.4 -25.6 0
v -37.33334 -25.6 0
v -38.4 -26.66667 0
v -39.46667 -26.66667 0
v -39.46667 -25.6 0
v -38.4 -25.6 0
v -39.46667 -26.66667 0
v -40.53334 -26.66667 0
v -40.53334 -25.6 0
v -39.46667 -25.6 0
v -40.53334 -26.66667 0
v -41.6 -26.66667 0
v -41.6 -25.6 0
v -40.53334 -25.6 0
v -41.6 -26.66667 0
v -42.66667 -26.66667 0
v -42.66667 -25.6 0
v -41.6 -25.6 0
v -42.66667 -26.66667 0
v -43.73334 -26.66667 0
v -43.73334 -25.6 0
v -42.66667 -25.6 0
v -43.73334 -26.66667 0
v -44.8 -26.66667 0
v -44.8 -25.6 0
v -43.73334 -25.6 0
v -44.8 -26.66667 0
v -45.86667 -26.66667 0
v -45.86667 -25.6 0
v -44.8 -25.6 0
v -45.86667 -26.66667 0
v -46.93333 -26.66667 0
v -46.93333 -25.6 0
v -45.86667 -25.6 0
v -46.93333 -26.66667 0
v -48 -26.66667 0
v -48 -25.6 0
v -46.93333 -25.6 0
v -48 -26.66667 0
v -49.06667 -26.66667 0
v -49.06667 -25.6 0
v -48 -25.6 0
v -49.06667 -26.66667 0
v -50.13334 -26.66667 0
v -50.13334 -25.6 0
v -49.06667 -25.6 0
v -50.13334 -26.66667 0
v -51.2 -26.66667 0
v -51.2 -25.6 0
v -50.13334 -25.6 0
v -51.2 -26.66667 0
v -52.26667 -26.66667 0
v -52.26667 -25.6 0
v -51.2 -25.6 0
v -52.26667 -26.66667 0
v -53.33334 -26.66667 0
v -53.33334 -25.6 0
v -52.26667 -25.6 0
v -32 -27.73334 0
v -33.06667 -27.73334 0
v -33.06667 -26.66667 0
v -32 -26.66667 0
v -52.26667 -27.73334 0
v -53.33334 -27.73334 0
v -53.33334 -26.66667 0
v -52.26667 -26.66667 0
v -32 -28.8 0
v -33.06667 -28.8 0
v -33.06667 -27.73334 0
v -32 -27.73334 0
v -52.26667 -28.8 0
v -53.33334 -28.8 0
v -53.33334 -27.73334 0
v -52.26667 -27.73334 0
v -32 -29.86667 0
v -33.06667 -29.86667 0
v -33.06667 -28.8 0
v -32 -28.8 0
v -52.26667 -29.86667 0
v -53.33334 -29.86667 0
v -53.33334 -28.8 0
v -52.26667 -28.8 0
v -32 -30.93333 0
v -33.06667 -30.93333 0
v -33.06667 -29.86667 0
v -32 -29.86667 0
v -33.06667 -30.93333 0
v -34.13334 -30.93333 0
v -34.13334 -29.86667 0
v -33.06667 -29.86667 0
v -51.2 -30.93333 0
v -52.26667 -30.93333 0
v -52.26667 -29.86667 0
v -51.2 -29.86667 0
v -52.26667 -30.93333 0
v -53.33334 -30.93333 0
v -53.33334 -29.86667 0
v -52.26667 -29.86667 0
v -32 -32 0
v -33.06667 -32 0
v -33.06667 -30.93333 0
v -32 -30.93333 0
v -33.06667 -32 0
v -34.13334 -32 0
v -34.13334 -30.93333 0
v -33.06667 -30.93333 0
v -34.13334 -32 0
v -35.2 -32 0
v -35.2 -30.93333 0
v -34.13334 -30.93333 0
v -50.13334 -32 0
v -51.2 -32 0
v -51.2 -30.93333 0
v -50.13334 -30.93333 0
v -51.2 -32 0
v -52.26667 -32 0
v -52.26667 -30.93333 0
v -51.2 -30.93333 0
v -52.26667 -32 0
v -53.33334 -32 0
v -53.33334 -30.93333 0
v -52.26667 -30.93333 0
v -32 -33.06667 0
v -33.06667 -33.06667 0
v -33.06667 -32 0
v -32 -32 0
v -33.06667 -33.06667 0
v -34.13334 -33.06667 0
v -34.13334 -32 0
v -33.06667 -32 0
v -34.13334 -33.06667 0
v -35.2 -33.06667 0
v -35.2 -32 0
v -34.13334 -32 0
v -50.13334 -33.06667 0
v -51.2 -33.06667 0
v -51.2 -32 0
v -50.13334 -32 0
v -51.2 -33.06667 0
v -52.26667 -33.06667 0
v -52.26667 -32 0
v -51.2 -32 0
v -52.26667 -33.06667 0
v -53.33334 -33.06667 0
v -53.33334 -32 0
v -52.26667 -32 0
v -33.06667 -34.13334 0
v -34.13334 -34.13334 0
v -34.13334 -33.06667 0
v -33.06667 -33.06667 0
v -34.13334 -34.13334 0
v -35.2 -34.13334 0
v -35.2 -33.06667 0
v -34.13334 -33.06667 0
v -50.13334 -34.13334 0
v -51.2 -34.13334 0
v -51.2 -33.06667 0
v -50.13334 -33.06667 0
v -51.2 -34.13334 0
v -52.26667 -34.13334 0
v -52.26667 -33.06667 0
v -51.2 -33.06667 0
v -34.13334 -35.2 0
v -35.2 -35.2 0
v -35.2 -34.13334 0
v -34.13334 -34.13334 0
v -50.13334 -35.2 0
v -51.2 -35.2 0
v -51.2 -34.13334 0
v -50.13334 -34.13334 0
v -34.13334 -36.26667 0
v -35.2 -36.26667 0
v -35.2 -35.2 0
v -34.13334 -35.2 0
v -50.13334 -36.26667 0
v -51.2 -36.26667 0
v -51.2 -35.2 0
v -50.13334 -35.2 0
v -34.13334 -37.33334 0
v -35.2 -37.33334 0
v -35.2 -36.26667 0
v -34.13334 -36.26667 0
v -50.13334 -37.33334 0
v -51.2 -37.33334 0
v -51.2 -36.26667 0
v -50.13334 -36.26667 0
v -34.13334 -38.4 0
v -35.2 -38.4 0
v -35.2 -37.33334 0
v -34.13334 -37.33334 0
v -50.13334 -38.4 0
v -51.2 -38.4 0
v -51.2 -37.33334 0
v -50.13334 -37.33334 0
v -34.13334 -39.46667 0
v -35.2 -39.46667 0
v -35.2 -38.4 0
v -34.13334 -38.4 0
v -50.13334 -39.46667 0
v -51.2 -39.46667 0
v -51.2 -38.4 0
v -50.13334 -38.4 0
v -34.13334 -40.53334 0
v -35.2 -40.53334 0
v -35.2 -39.46667 0
v -34.13334 -39.46667 0
v -50.13334 -40.53334 0
v -51.2 -40.53334 0
v -51.2 -39.46667 0
v -50.13334 -39.46667 0
v -34.13334 -41.6 0
v -35.2 -41.6 0
v -35.2 -40.53334 0
v -34.13334 -40.53334 0
v -50.13334 -41.6 0
v -51.2 -41.6 0
v -51.2 -40.53334 0
v -50.13334 -40.53334 0
v -34.13334 -42.66667 0
v -35.2 -42.66667 0
v -35.2 -41.6 0
v -34.13334 -41.6 0
v -50.13334 -42.66667 0
v -51.2 -42.66667 0
v -51.2 -41.6 0
v -50.13334 -41.6 0
v -34.13334 -43.73334 0
v -35.2 -43.73334 0
v -35.2 -42.66667 0
v -34.13334 -42.66667 0
v -35.2 -43.73334 0
v -36.26667 -43.73334 0
v -36.26667 -42.66667 0
v -35.2 -42.66667 0
v -36.26667 -43.73334 0
v -37.33334 -43.73334 0
v -37.33334 -42.66667 0
v -36.26667 -42.66667 0
v -37.33334 -43.73334 0
v -38.4 -43.73334 0
v -38.4 -42.66667 0
v -37.33334 -42.66667 0
v -38.4 -43.73334 0
v -39.46667 -43.73334 0
v -39.46667 -42.66667 0
v -38.4 -42.66667 0
v -39.46667 -43.73334 0
v -40.53334 -43.73334 0
v -40.53334 -42.66667 0
v -39.46667 -42.66667 0
v -40.53334 -43.73334 0
v -41.6 -43.73334 0
v -41.6 -42.66667 0
v -40.53334 -42.66667 0
v -41.6 -43.73334 0
v -42.66667 -43.73334 0
v -42.66667 -42.66667 0
v -41.6 -42.66667 0
v -42.66667 -43.73334 0
v -43.73334 -43.73334 0
v -43.73334 -42.66667 0
v -42.66667 -42.66667 0
v -43.73334 -43.73334 0
v -44.8 -43.73334 0
v -44.8 -42.66667 0
v -43.73334 -42.66667 0
v -44.8 -43.73334 0
v -45.86667 -43.73334 0
v -45.86667 -42.66667 0
v -44.8 -42.66667 0
v -45.86667 -43.73334 0
v -46.93333 -43.73334 0
v -46.93333 -42.66667 0
v -45.86667 -42.66667 0
v -46.93333 -43.73334 0
v -48 -43.73334 0
v -48 -42.66667 0
v -46.93333 -42.66667 0
v -48 -43.73334 0
v -49.06667 -43.73334 0
v -49.06667 -42.66667 0
v -48 -42.66667 0
v -49.06667 -43.73334 0
v -50.13334 -43.73334 0
v -50.13334 -42.66667 0
v -49.06667 -42.66667 0
v -50.13334 -43.73334 0
v -51.2 -43.73334 0
v -51.2 -42.66667 0
v -50.13334 -42.66667 0
v -34.13334 -44.8 0
v -35.2 -44.8 0
v -35.2 -43.73334 0
v -34.13334 -43.73334 0
v -35.2 -44.8 0
v -36.26667 -44.8 0
v -36.26667 -43.73334 0
v -35.2 -43.73334 0
v -36.26667 -44.8 0
v -37.33334 -44.8 0
v -37.33334 -43.73334 0
v -36.26667 -43.73334 0
v -37.33334 -44.8 0
v -38.4 -44.8 0
v -38.4 -43.73334 0
v -37.33334 -43.73334 0
v -38.4 -44.8 0
v -39.46667 -44.8 0
v -39.46667 -43.73334 0
v -38.4 -43.73334 0
v -39.46667 -44.8 0
v -40.53334 -44.8 0
v -40.53334 -43.73334 0
v -39.46667 -43.73334 0
v -40.53334 -44.8 0
v -41.6 -44.8 0
v -41.6 -43.73334 0
v -40.53334 -43.73334 0
v -41.6 -44.8 0
v -42.66667 -44.8 0
v -42.66667 -43.73334 0
v -41.6 -43.73334 0
v -42.66667 -44.8 0
v -43.73334 -44.8 0
v -43.73334 -43.73334 0
v -42.66667 -43.73334 0
v -43.73334 -44.8 0
v -44.8 -44.8 0
v -44.8 -43.73334 0
v -43.73334 -43.73334 0
v -44.8 -44.8 0
v -45.86667 -44.8 0
v -45.86667 -43.73334 0
v -44.8 -43.73334 0
v -45.86667 -44.8 0
v -46.93333 -44.8 0
v -46.93333 -43.73334 0
v -45.86667 -43.73334 0
v -46.93333 -44.8 0
v -48 -44.8 0
v -48 -43.73334 0
v -46.93333 -43.73334 0
v -48 -44.8 0
v -49.06667 -44.8 0
v -49.06667 -43.73334 0
v -48 -43.73334 0
v -49.06667 -44.8 0
v -50.13334 -44.8 0
v -50.13334 -43.73334 0
v -49.06667 -43.73334 0
v -50.13334 -44.8 0
v -51.2 -44.8 0
v -51.2 -43.73334 0
v -50.13334 -43.73334 0
v -34.13334 -45.86667 0
v -35.2 -45.86667 0
v -35.2 -44.8 0
v -34.13334 -44.8 0
v -35.2 -45.86667 0
v -36.26667 -45.86667 0
v -36.26667 -44.8 0
v -35.2 -44.8 0
v -36.26667 -45.86667 0
v -37.33334 -45.86667 0
v -37.33334 -44.8 0
v -36.26667 -44.8 0
v -37.33334 -45.86667 0
v -38.4 -45.86667 0
v -38.4 -44.8 0
v -37.33334 -44.8 0
v -38.4 -45.86667 0
v -39.46667 -45.86667 0
v -39.46667 -44.8 0
v -38.4 -44.8 0
v -39.46667 -45.86667 0
v -40.53334 -45.86667 0
v -40.53334 -44.8 0
v -39.46667 -44.8 0
v -40.53334 -45.86667 0
v -41.6 -45.86667 0
v -41.6 -44.8 0
v -40.53334 -44.8 0
v -41.6 -45.86667 0
v -42.66667 -45.86667 0
v -42.66667 -44.8 0
v -41.6 -44.8 0
v -42.66667 -45.86667 0
v -43.73334 -45.86667 0
v -43.73334 -44.8 0
v -42.66667 -44.8 0
v -43.73334 -45.86667 0
v -44.8 -45.86667 0
v -44.8 -44.8 0
v -43.73334 -44.8 0
v -44.8 -45.86667 0
v -45.86667 -45.86667 0
v -45.86667 -44.8 0
v -44.8 -44.8 0
v -45.86667 -45.86667 0
v -46.93333 -45.86667 0
v -46.93333 -44.8 0
v -45.86667 -44.8 0
v -46.93333 -45.86667 0
v -48 -45.86667 0
v -48 -44.8 0
v -46.93333 -44.8 0
v -48 -45.86667 0
v -49.06667 -45.86667 0
v -49.06667 -44.8 0
v -48 -44.8 0
v -49.06667 -45.86667 0
v -50.13334 -45.86667 0
v -50.13334 -44.8 0
v -49.06667 -44.8 0
v -50.13334 -45.86667 0
v -51.2 -45.86667 0
v -51.2 -44.8 0
v -50.13334 -44.8 0

# Texture cooridinates (Count = 48)
vt 0.2809917 0.5817491
vt 0.2975207 0.5817491
vt 0.2975207 0.6121673
vt 0.2809917 0.6121673
vt 0.2458678 0.5817491
vt 0.2623967 0.5817491
vt 0.2623967 0.6121673
vt 0.2458678 0.6121673
vt 0.2985537 0.5817491
vt 0.3150826 0.5817491
vt 0.3150826 0.6121673
vt 0.2985537 0.6121673
vt 0.2634298 0.5494297
vt 0.2799587 0.5494297
vt 0.2799587 0.5798479
vt 0.2634298 0.5798479
vt 0.3161157 0.4847909
vt 0.3326446 0.4847909
vt 0.3326446 0.5152091
vt 0.3161157 0.5152091
vt 0.2283058 0.4847909
vt 0.2448347 0.4847909
vt 0.2448347 0.5152091
vt 0.2283058 0.5152091
vt 0.2809917 0.5494297
vt 0.2975207 0.5494297
vt 0.2975207 0.5798479
vt 0.2809917 0.5798479
vt 0.2985537 0.5494297
vt 0.3150826 0.5494297
vt 0.3150826 0.5798479
vt 0.2985537 0.5798479
vt 0.2985537 0.4847909
vt 0.3150826 0.4847909
vt 0.3150826 0.5152091
vt 0.2985537 0.5152091
vt 0.3336777 0.4847909
vt 0.3502066 0.4847909
vt 0.3502066 0.5152091
vt 0.3336777 0.5152091
vt 0.2458678 0.4847909
vt 0.2623967 0.4847909
vt 0.2623967 0.5152091
vt 0.2458678 0.5152091
vt 0.2809917 0.4847909
vt 0.2975207 0.4847909
vt 0.2975207 0.5152091
vt 0.2809917 0.5152091

# Normal
vn 0 0 -1

# Mesh description
g Music-Main_mesh_0003

# Faces
f 1/1/1 2/2/1 3/3/1 4/4/1
f 5/5/1 6/6/1 7/7/1 8/8/1
f 9/5/1 10/6/1 11/7/1 12/8/1
f 13/5/1 14/6/1 15/7/1 16/8/1
f 17/5/1 18/6/1 19/7/1 20/8/1
f 21/5/1 22/6/1 23/7/1 24/8/1
f 25/5/1 26/6/1 27/7/1 28/8/1
f 29/5/1 30/6/1 31/7/1 32/8/1
f 33/5/1 34/6/1 35/7/1 36/8/1
f 37/5/1 38/6/1 39/7/1 40/8/1
f 41/5/1 42/6/1 43/7/1 44/8/1
f 45/5/1 46/6/1 47/7/1 48/8/1
f 49/5/1 50/6/1 51/7/1 52/8/1
f 53/5/1 54/6/1 55/7/1 56/8/1
f 57/5/1 58/6/1 59/7/1 60/8/1
f 61/5/1 62/6/1 63/7/1 64/8/1
f 65/5/1 66/6/1 67/7/1 68/8/1
f 69/5/1 70/6/1 71/7/1 72/8/1
f 73/5/1 74/6/1 75/7/1 76/8/1
f 77/9/1 78/10/1 79/11/1 80/12/1
f 81/13/1 82/14/1 83/15/1 84/16/1
f 85/17/1 86/18/1 87/19/1 88/20/1
f 89/17/1 90/18/1 91/19/1 92/20/1
f 93/17/1 94/18/1 95/19/1 96/20/1
f 97/17/1 98/18/1 99/19/1 100/20/1
f 101/17/1 102/18/1 103/19/1 104/20/1
f 105/17/1 106/18/1 107/19/1 108/20/1
f 109/17/1 110/18/1 111/19/1 112/20/1
f 113/17/1 114/18/1 115/19/1 116/20/1
f 117/17/1 118/18/1 119/19/1 120/20/1
f 121/17/1 122/18/1 123/19/1 124/20/1
f 125/17/1 126/18/1 127/19/1 128/20/1
f 129/17/1 130/18/1 131/19/1 132/20/1
f 133/17/1 134/18/1 135/19/1 136/20/1
f 137/17/1 138/18/1 139/19/1 140/20/1
f 141/17/1 142/18/1 143/19/1 144/20/1
f 145/17/1 146/18/1 147/19/1 148/20/1
f 149/17/1 150/18/1 151/19/1 152/20/1
f 153/17/1 154/18/1 155/19/1 156/20/1
f 157/13/1 158/14/1 159/15/1 160/16/1
f 161/13/1 162/14/1 163/15/1 164/16/1
f 165/21/1 166/22/1 167/23/1 168/24/1
f 169/21/1 170/22/1 171/23/1 172/24/1
f 173/21/1 174/22/1 175/23/1 176/24/1
f 177/21/1 178/22/1 179/23/1 180/24/1
f 181/21/1 182/22/1 183/23/1 184/24/1
f 185/21/1 186/22/1 187/23/1 188/24/1
f 189/21/1 190/22/1 191/23/1 192/24/1
f 193/21/1 194/22/1 195/23/1 196/24/1
f 197/21/1 198/22/1 199/23/1 200/24/1
f 201/21/1 202/22/1 203/23/1 204/24/1
f 205/21/1 206/22/1 207/23/1 208/24/1
f 209/21/1 210/22/1 211/23/1 212/24/1
f 213/21/1 214/22/1 215/23/1 216/24/1
f 217/21/1 218/22/1 219/23/1 220/24/1
f 221/21/1 222/22/1 223/23/1 224/24/1
f 225/21/1 226/22/1 227/23/1 228/24/1
f 229/21/1 230/22/1 231/23/1 232/24/1
f 233/21/1 234/22/1 235/23/1 236/24/1
f 237/13/1 238/14/1 239/15/1 240/16/1
f 241/13/1 242/14/1 243/15/1 244/16/1
f 245/13/1 246/14/1 247/15/1 248/16/1
f 249/13/1 250/14/1 251/15/1 252/16/1
f 253/13/1 254/14/1 255/15/1 256/16/1
f 257/13/1 258/14/1 259/15/1 260/16/1
f 261/13/1 262/14/1 263/15/1 264/16/1
f 265/25/1 266/26/1 267/27/1 268/28/1
f 269/9/1 270/10/1 271/11/1 272/12/1
f 273/1/1 274/2/1 275/3/1 276/4/1
f 277/29/1 278/30/1 279/31/1 280/32/1
f 281/33/1 282/34/1 283/35/1 284/36/1
f 285/25/1 286/26/1 287/27/1 288/28/1
f 289/9/1 290/10/1 291/11/1 292/12/1
f 293/1/1 294/2/1 295/3/1 296/4/1
f 297/29/1 298/30/1 299/31/1 300/32/1
f 301/37/1 302/38/1 303/39/1 304/40/1
f 305/41/1 306/42/1 307/43/1 308/44/1
f 309/33/1 310/34/1 311/35/1 312/36/1
f 313/13/1 314/14/1 315/15/1 316/16/1
f 317/13/1 318/14/1 319/15/1 320/16/1
f 321/37/1 322/38/1 323/39/1 324/40/1
f 325/45/1 326/46/1 327/47/1 328/48/1
f 329/41/1 330/42/1 331/43/1 332/44/1
f 333/13/1 334/14/1 335/15/1 336/16/1
f 337/13/1 338/14/1 339/15/1 340/16/1
f 341/45/1 342/46/1 343/47/1 344/48/1
f 345/13/1 346/14/1 347/15/1 348/16/1
f 349/13/1 350/14/1 351/15/1 352/16/1
f 353/13/1 354/14/1 355/15/1 356/16/1
f 357/13/1 358/14/1 359/15/1 360/16/1
f 361/13/1 362/14/1 363/15/1 364/16/1
f 365/13/1 366/14/1 367/15/1 368/16/1
f 369/13/1 370/14/1 371/15/1 372/16/1
f 373/13/1 374/14/1 375/15/1 376/16/1
f 377/13/1 378/14/1 379/15/1 380/16/1
f 381/13/1 382/14/1 383/15/1 384/16/1
f 385/13/1 386/14/1 387/15/1 388/16/1
f 389/13/1 390/14/1 391/15/1 392/16/1
f 393/13/1 394/14/1 395/15/1 396/16/1
f 397/13/1 398/14/1 399/15/1 400/16/1
f 401/13/1 402/14/1 403/15/1 404/16/1
f 405/13/1 406/14/1 407/15/1 408/16/1
f 409/25/1 410/26/1 411/27/1 412/28/1
f 413/5/1 414/6/1 415/7/1 416/8/1
f 417/5/1 418/6/1 419/7/1 420/8/1
f 421/5/1 422/6/1 423/7/1 424/8/1
f 425/5/1 426/6/1 427/7/1 428/8/1
f 429/5/1 430/6/1 431/7/1 432/8/1
f 433/5/1 434/6/1 435/7/1 436/8/1
f 437/5/1 438/6/1 439/7/1 440/8/1
f 441/5/1 442/6/1 443/7/1 444/8/1
f 445/5/1 446/6/1 447/7/1 448/8/1
f 449/5/1 450/6/1 451/7/1 452/8/1
f 453/5/1 454/6/1 455/7/1 456/8/1
f 457/5/1 458/6/1 459/7/1 460/8/1
f 461/5/1 462/6/1 463/7/1 464/8/1
f 465/5/1 466/6/1 467/7/1 468/8/1
f 469/29/1 470/30/1 471/31/1 472/32/1
f 473/33/1 474/34/1 475/35/1 476/36/1
f 477/17/1 478/18/1 479/19/1 480/20/1
f 481/17/1 482/18/1 483/19/1 484/20/1
f 485/17/1 486/18/1 487/19/1 488/20/1
f 489/17/1 490/18/1 491/19/1 492/20/1
f 493/17/1 494/18/1 495/19/1 496/20/1
f 497/17/1 498/18/1 499/19/1 500/20/1
f 501/17/1 502/18/1 503/19/1 504/20/1
f 505/17/1 506/18/1 507/19/1 508/20/1
f 509/17/1 510/18/1 511/19/1 512/20/1
f 513/17/1 514/18/1 515/19/1 516/20/1
f 517/17/1 518/18/1 519/19/1 520/20/1
f 521/17/1 522/18/1 523/19/1 524/20/1
f 525/17/1 526/18/1 527/19/1 528/20/1
f 529/17/1 530/18/1 531/19/1 532/20/1
f 533/37/1 534/38/1 535/39/1 536/40/1
f 537/41/1 538/42/1 539/43/1 540/44/1
f 541/21/1 542/22/1 543/23/1 544/24/1
f 545/21/1 546/22/1 547/23/1 548/24/1
f 549/21/1 550/22/1 551/23/1 552/24/1
f 553/21/1 554/22/1 555/23/1 556/24/1
f 557/21/1 558/22/1 559/23/1 560/24/1
f 561/21/1 562/22/1 563/23/1 564/24/1
f 565/21/1 566/22/1 567/23/1 568/24/1
f 569/21/1 570/22/1 571/23/1 572/24/1
f 573/21/1 574/22/1 575/23/1 576/24/1
f 577/21/1 578/22/1 579/23/1 580/24/1
f 581/21/1 582/22/1 583/23/1 584/24/1
f 585/21/1 586/22/1 587/23/1 588/24/1
f 589/21/1 590/22/1 591/23/1 592/24/1
f 593/21/1 594/22/1 595/23/1 596/24/1
f 597/45/1 598/46/1 599/47/1 600/48/1

