# Tiled2Unity generated file. Do not modify by hand.
# Wavefront file for 'Music-Main_mesh_0008.obj'

# Vertices (Count = 16)
v -38.4 -25.6 0
v -39.46667 -25.6 0
v -39.46667 -24.53333 0
v -38.4 -24.53333 0
v -39.46667 -25.6 0
v -40.53334 -25.6 0
v -40.53334 -24.53333 0
v -39.46667 -24.53333 0
v -38.4 -26.66667 0
v -39.46667 -26.66667 0
v -39.46667 -25.6 0
v -38.4 -25.6 0
v -39.46667 -26.66667 0
v -40.53334 -26.66667 0
v -40.53334 -25.6 0
v -39.46667 -25.6 0

# Texture cooridinates (Count = 16)
vt 0.8292683 0.947541
vt 0.8617886 0.947541
vt 0.8617886 1
vt 0.8292683 1
vt 0.8638211 0.947541
vt 0.8963414 0.947541
vt 0.8963414 1
vt 0.8638211 1
vt 0.8292683 0.8918033
vt 0.8617886 0.8918033
vt 0.8617886 0.9442623
vt 0.8292683 0.9442623
vt 0.8638211 0.8918033
vt 0.8963414 0.8918033
vt 0.8963414 0.9442623
vt 0.8638211 0.9442623

# Normal
vn 0 0 -1

# Mesh description
g Music-Main_mesh_0008

# Faces
f 1/1/1 2/2/1 3/3/1 4/4/1
f 5/5/1 6/6/1 7/7/1 8/8/1
f 9/9/1 10/10/1 11/11/1 12/12/1
f 13/13/1 14/14/1 15/15/1 16/16/1

