# Tiled2Unity generated file. Do not modify by hand.
# Wavefront file for 'Music-Main_mesh_0005.obj'

# Vertices (Count = 24)
v -35.2 -25.6 0
v -36.26667 -25.6 0
v -36.26667 -24.53333 0
v -35.2 -24.53333 0
v -42.66667 -25.6 0
v -43.73334 -25.6 0
v -43.73334 -24.53333 0
v -42.66667 -24.53333 0
v -48 -25.6 0
v -49.06667 -25.6 0
v -49.06667 -24.53333 0
v -48 -24.53333 0
v -41.6 -38.4 0
v -42.66667 -38.4 0
v -42.66667 -37.33334 0
v -41.6 -37.33334 0
v -41.6 -39.46667 0
v -42.66667 -39.46667 0
v -42.66667 -38.4 0
v -41.6 -38.4 0
v -42.66667 -39.46667 0
v -43.73334 -39.46667 0
v -43.73334 -38.4 0
v -42.66667 -38.4 0

# Texture cooridinates (Count = 16)
vt 0.7439825 0.8918033
vt 0.7789934 0.8918033
vt 0.7789934 0.9442623
vt 0.7439825 0.9442623
vt 0.9299781 0.5016394
vt 0.9649891 0.5016394
vt 0.9649891 0.5540984
vt 0.9299781 0.5540984
vt 0.9299781 0.4459016
vt 0.9649891 0.4459016
vt 0.9649891 0.4983606
vt 0.9299781 0.4983606
vt 0.6323851 0.7803279
vt 0.6673961 0.7803279
vt 0.6673961 0.8327869
vt 0.6323851 0.8327869

# Normal
vn 0 0 -1

# Mesh description
g Music-Main_mesh_0005

# Faces
f 1/1/1 2/2/1 3/3/1 4/4/1
f 5/1/1 6/2/1 7/3/1 8/4/1
f 9/1/1 10/2/1 11/3/1 12/4/1
f 13/5/1 14/6/1 15/7/1 16/8/1
f 17/9/1 18/10/1 19/11/1 20/12/1
f 21/13/1 22/14/1 23/15/1 24/16/1

