# Tiled2Unity generated file. Do not modify by hand.
# Wavefront file for 'JackLyons_mesh_0004.obj'

# Vertices (Count = 240)
v -44.8 -36.26667 0
v -45.86667 -36.26667 0
v -45.86667 -35.2 0
v -44.8 -35.2 0
v -45.86667 -36.26667 0
v -46.93333 -36.26667 0
v -46.93333 -35.2 0
v -45.86667 -35.2 0
v -46.93333 -36.26667 0
v -48 -36.26667 0
v -48 -35.2 0
v -46.93333 -35.2 0
v -55.46667 -36.26667 0
v -56.53334 -36.26667 0
v -56.53334 -35.2 0
v -55.46667 -35.2 0
v -56.53334 -36.26667 0
v -57.6 -36.26667 0
v -57.6 -35.2 0
v -56.53334 -35.2 0
v -57.6 -36.26667 0
v -58.66667 -36.26667 0
v -58.66667 -35.2 0
v -57.6 -35.2 0
v -44.8 -37.33334 0
v -45.86667 -37.33334 0
v -45.86667 -36.26667 0
v -44.8 -36.26667 0
v -45.86667 -37.33334 0
v -46.93333 -37.33334 0
v -46.93333 -36.26667 0
v -45.86667 -36.26667 0
v -46.93333 -37.33334 0
v -48 -37.33334 0
v -48 -36.26667 0
v -46.93333 -36.26667 0
v -55.46667 -37.33334 0
v -56.53334 -37.33334 0
v -56.53334 -36.26667 0
v -55.46667 -36.26667 0
v -56.53334 -37.33334 0
v -57.6 -37.33334 0
v -57.6 -36.26667 0
v -56.53334 -36.26667 0
v -57.6 -37.33334 0
v -58.66667 -37.33334 0
v -58.66667 -36.26667 0
v -57.6 -36.26667 0
v -44.8 -38.4 0
v -45.86667 -38.4 0
v -45.86667 -37.33334 0
v -44.8 -37.33334 0
v -45.86667 -38.4 0
v -46.93333 -38.4 0
v -46.93333 -37.33334 0
v -45.86667 -37.33334 0
v -46.93333 -38.4 0
v -48 -38.4 0
v -48 -37.33334 0
v -46.93333 -37.33334 0
v -55.46667 -38.4 0
v -56.53334 -38.4 0
v -56.53334 -37.33334 0
v -55.46667 -37.33334 0
v -56.53334 -38.4 0
v -57.6 -38.4 0
v -57.6 -37.33334 0
v -56.53334 -37.33334 0
v -57.6 -38.4 0
v -58.66667 -38.4 0
v -58.66667 -37.33334 0
v -57.6 -37.33334 0
v -44.8 -39.46667 0
v -45.86667 -39.46667 0
v -45.86667 -38.4 0
v -44.8 -38.4 0
v -45.86667 -39.46667 0
v -46.93333 -39.46667 0
v -46.93333 -38.4 0
v -45.86667 -38.4 0
v -56.53334 -39.46667 0
v -57.6 -39.46667 0
v -57.6 -38.4 0
v -56.53334 -38.4 0
v -57.6 -39.46667 0
v -58.66667 -39.46667 0
v -58.66667 -38.4 0
v -57.6 -38.4 0
v -43.73334 -40.53334 0
v -44.8 -40.53334 0
v -44.8 -39.46667 0
v -43.73334 -39.46667 0
v -44.8 -40.53334 0
v -45.86667 -40.53334 0
v -45.86667 -39.46667 0
v -44.8 -39.46667 0
v -45.86667 -40.53334 0
v -46.93333 -40.53334 0
v -46.93333 -39.46667 0
v -45.86667 -39.46667 0
v -56.53334 -40.53334 0
v -57.6 -40.53334 0
v -57.6 -39.46667 0
v -56.53334 -39.46667 0
v -57.6 -40.53334 0
v -58.66667 -40.53334 0
v -58.66667 -39.46667 0
v -57.6 -39.46667 0
v -58.66667 -40.53334 0
v -59.73334 -40.53334 0
v -59.73334 -39.46667 0
v -58.66667 -39.46667 0
v -43.73334 -41.6 0
v -44.8 -41.6 0
v -44.8 -40.53334 0
v -43.73334 -40.53334 0
v -44.8 -41.6 0
v -45.86667 -41.6 0
v -45.86667 -40.53334 0
v -44.8 -40.53334 0
v -45.86667 -41.6 0
v -46.93333 -41.6 0
v -46.93333 -40.53334 0
v -45.86667 -40.53334 0
v -56.53334 -41.6 0
v -57.6 -41.6 0
v -57.6 -40.53334 0
v -56.53334 -40.53334 0
v -57.6 -41.6 0
v -58.66667 -41.6 0
v -58.66667 -40.53334 0
v -57.6 -40.53334 0
v -58.66667 -41.6 0
v -59.73334 -41.6 0
v -59.73334 -40.53334 0
v -58.66667 -40.53334 0
v -43.73334 -42.66667 0
v -44.8 -42.66667 0
v -44.8 -41.6 0
v -43.73334 -41.6 0
v -44.8 -42.66667 0
v -45.86667 -42.66667 0
v -45.86667 -41.6 0
v -44.8 -41.6 0
v -57.6 -42.66667 0
v -58.66667 -42.66667 0
v -58.66667 -41.6 0
v -57.6 -41.6 0
v -58.66667 -42.66667 0
v -59.73334 -42.66667 0
v -59.73334 -41.6 0
v -58.66667 -41.6 0
v -43.73334 -43.73334 0
v -44.8 -43.73334 0
v -44.8 -42.66667 0
v -43.73334 -42.66667 0
v -44.8 -43.73334 0
v -45.86667 -43.73334 0
v -45.86667 -42.66667 0
v -44.8 -42.66667 0
v -57.6 -43.73334 0
v -58.66667 -43.73334 0
v -58.66667 -42.66667 0
v -57.6 -42.66667 0
v -58.66667 -43.73334 0
v -59.73334 -43.73334 0
v -59.73334 -42.66667 0
v -58.66667 -42.66667 0
v -42.66667 -44.8 0
v -43.73334 -44.8 0
v -43.73334 -43.73334 0
v -42.66667 -43.73334 0
v -43.73334 -44.8 0
v -44.8 -44.8 0
v -44.8 -43.73334 0
v -43.73334 -43.73334 0
v -44.8 -44.8 0
v -45.86667 -44.8 0
v -45.86667 -43.73334 0
v -44.8 -43.73334 0
v -57.6 -44.8 0
v -58.66667 -44.8 0
v -58.66667 -43.73334 0
v -57.6 -43.73334 0
v -58.66667 -44.8 0
v -59.73334 -44.8 0
v -59.73334 -43.73334 0
v -58.66667 -43.73334 0
v -59.73334 -44.8 0
v -60.8 -44.8 0
v -60.8 -43.73334 0
v -59.73334 -43.73334 0
v -42.66667 -45.86667 0
v -43.73334 -45.86667 0
v -43.73334 -44.8 0
v -42.66667 -44.8 0
v -43.73334 -45.86667 0
v -44.8 -45.86667 0
v -44.8 -44.8 0
v -43.73334 -44.8 0
v -58.66667 -45.86667 0
v -59.73334 -45.86667 0
v -59.73334 -44.8 0
v -58.66667 -44.8 0
v -59.73334 -45.86667 0
v -60.8 -45.86667 0
v -60.8 -44.8 0
v -59.73334 -44.8 0
v -42.66667 -46.93333 0
v -43.73334 -46.93333 0
v -43.73334 -45.86667 0
v -42.66667 -45.86667 0
v -43.73334 -46.93333 0
v -44.8 -46.93333 0
v -44.8 -45.86667 0
v -43.73334 -45.86667 0
v -58.66667 -46.93333 0
v -59.73334 -46.93333 0
v -59.73334 -45.86667 0
v -58.66667 -45.86667 0
v -59.73334 -46.93333 0
v -60.8 -46.93333 0
v -60.8 -45.86667 0
v -59.73334 -45.86667 0
v -42.66667 -48 0
v -43.73334 -48 0
v -43.73334 -46.93333 0
v -42.66667 -46.93333 0
v -43.73334 -48 0
v -44.8 -48 0
v -44.8 -46.93333 0
v -43.73334 -46.93333 0
v -58.66667 -48 0
v -59.73334 -48 0
v -59.73334 -46.93333 0
v -58.66667 -46.93333 0
v -59.73334 -48 0
v -60.8 -48 0
v -60.8 -46.93333 0
v -59.73334 -46.93333 0

# Texture cooridinates (Count = 32)
vt 0.05268595 0.06463879
vt 0.06921487 0.06463879
vt 0.06921487 0.09505701
vt 0.05268595 0.09505701
vt 0.07024793 0.06463879
vt 0.08677686 0.06463879
vt 0.08677686 0.09505701
vt 0.07024793 0.09505701
vt 0.08780992 0.06463879
vt 0.1043388 0.06463879
vt 0.1043388 0.09505701
vt 0.08780992 0.09505701
vt 0.05268595 0.03231937
vt 0.06921487 0.03231937
vt 0.06921487 0.06273764
vt 0.05268595 0.06273764
vt 0.07024793 0.03231937
vt 0.08677686 0.03231937
vt 0.08677686 0.06273764
vt 0.07024793 0.06273764
vt 0.08780992 0.03231937
vt 0.1043388 0.03231937
vt 0.1043388 0.06273764
vt 0.08780992 0.06273764
vt 0.08780992 0
vt 0.1043388 0
vt 0.1043388 0.03041828
vt 0.08780992 0.03041828
vt 0.05268595 0
vt 0.06921487 0
vt 0.06921487 0.03041828
vt 0.05268595 0.03041828

# Normal
vn 0 0 -1

# Mesh description
g JackLyons_mesh_0004

# Faces
f 1/1/1 2/2/1 3/3/1 4/4/1
f 5/5/1 6/6/1 7/7/1 8/8/1
f 9/9/1 10/10/1 11/11/1 12/12/1
f 13/1/1 14/2/1 15/3/1 16/4/1
f 17/5/1 18/6/1 19/7/1 20/8/1
f 21/9/1 22/10/1 23/11/1 24/12/1
f 25/13/1 26/14/1 27/15/1 28/16/1
f 29/17/1 30/18/1 31/19/1 32/20/1
f 33/21/1 34/22/1 35/23/1 36/24/1
f 37/13/1 38/14/1 39/15/1 40/16/1
f 41/17/1 42/18/1 43/19/1 44/20/1
f 45/21/1 46/22/1 47/23/1 48/24/1
f 49/13/1 50/14/1 51/15/1 52/16/1
f 53/17/1 54/18/1 55/19/1 56/20/1
f 57/25/1 58/26/1 59/27/1 60/28/1
f 61/29/1 62/30/1 63/31/1 64/32/1
f 65/17/1 66/18/1 67/19/1 68/20/1
f 69/21/1 70/22/1 71/23/1 72/24/1
f 73/13/1 74/14/1 75/15/1 76/16/1
f 77/21/1 78/22/1 79/23/1 80/24/1
f 81/13/1 82/14/1 83/15/1 84/16/1
f 85/21/1 86/22/1 87/23/1 88/24/1
f 89/1/1 90/2/1 91/3/1 92/4/1
f 93/17/1 94/18/1 95/19/1 96/20/1
f 97/21/1 98/22/1 99/23/1 100/24/1
f 101/13/1 102/14/1 103/15/1 104/16/1
f 105/17/1 106/18/1 107/19/1 108/20/1
f 109/9/1 110/10/1 111/11/1 112/12/1
f 113/13/1 114/14/1 115/15/1 116/16/1
f 117/17/1 118/18/1 119/19/1 120/20/1
f 121/25/1 122/26/1 123/27/1 124/28/1
f 125/29/1 126/30/1 127/31/1 128/32/1
f 129/17/1 130/18/1 131/19/1 132/20/1
f 133/21/1 134/22/1 135/23/1 136/24/1
f 137/13/1 138/14/1 139/15/1 140/16/1
f 141/21/1 142/22/1 143/23/1 144/24/1
f 145/13/1 146/14/1 147/15/1 148/16/1
f 149/21/1 150/22/1 151/23/1 152/24/1
f 153/13/1 154/14/1 155/15/1 156/16/1
f 157/21/1 158/22/1 159/23/1 160/24/1
f 161/13/1 162/14/1 163/15/1 164/16/1
f 165/21/1 166/22/1 167/23/1 168/24/1
f 169/1/1 170/2/1 171/3/1 172/4/1
f 173/17/1 174/18/1 175/19/1 176/20/1
f 177/25/1 178/26/1 179/27/1 180/28/1
f 181/29/1 182/30/1 183/31/1 184/32/1
f 185/17/1 186/18/1 187/19/1 188/20/1
f 189/9/1 190/10/1 191/11/1 192/12/1
f 193/13/1 194/14/1 195/15/1 196/16/1
f 197/21/1 198/22/1 199/23/1 200/24/1
f 201/13/1 202/14/1 203/15/1 204/16/1
f 205/21/1 206/22/1 207/23/1 208/24/1
f 209/13/1 210/14/1 211/15/1 212/16/1
f 213/21/1 214/22/1 215/23/1 216/24/1
f 217/13/1 218/14/1 219/15/1 220/16/1
f 221/21/1 222/22/1 223/23/1 224/24/1
f 225/29/1 226/30/1 227/31/1 228/32/1
f 229/25/1 230/26/1 231/27/1 232/28/1
f 233/29/1 234/30/1 235/31/1 236/32/1
f 237/25/1 238/26/1 239/27/1 240/28/1

